<svg width="32" height="32" viewBox="0 0 51 54" fill="none" xmlns="http://www.w3.org/2000/svg">
<path d="M28.8132 20.2925C29.3379 20.2925 29.7979 19.6778 29.7979 19.0341C29.7979 18.6292 29.5319 18.3616 29.1798 18.3616C28.6479 18.3616 28.1592 18.9763 28.1592 19.5982C28.1592 20.0394 28.461 20.2925 28.8132 20.2925Z" fill="#999999"/>
<path d="M43.0294 24.8052C42.9216 24.8052 42.8354 24.9064 42.7779 24.9787C42.7779 24.9787 42.4616 25.3837 42.131 25.3837C41.6782 25.3837 41.4051 24.9787 41.4051 24.4147C41.4051 23.988 41.5057 23.489 41.5057 23.489C42.7204 22.4476 44.5172 19.6127 44.5172 18.5786C44.5172 18.1374 44.0428 17.5734 43.4966 17.5734C41.7501 17.5734 39.9389 21.9125 39.9389 24.3713C39.9389 24.393 39.9389 24.4219 39.9389 24.4436C39.7521 24.7112 39.2346 25.391 38.7099 25.391C38.5015 25.391 38.3721 25.2463 38.3721 25.0511C38.3721 24.2194 39.0765 22.8237 39.0765 22.4621C39.0765 22.0354 38.5806 21.8908 38.214 21.8908C38.214 21.8908 37.8762 21.3194 36.8916 21.3194C35.6698 21.3194 34.3473 22.8888 34.1317 24.5014C33.8874 24.8052 33.2477 25.4633 32.3996 25.4633C31.7312 25.4633 31.1994 25.0583 31.1994 24.2194C31.1994 23.1057 31.8893 21.9197 32.5937 21.9197C32.7877 21.9197 32.9458 22.0426 32.9458 22.1728C32.9458 22.4259 32.4571 22.5055 32.4571 22.9177C32.4571 23.1853 32.7518 23.4311 33.0752 23.4311C33.3915 23.4311 33.8011 22.9177 33.8011 22.5055C33.8011 21.9414 33.2765 21.3194 32.414 21.3194C31.1778 21.3194 29.6901 22.7224 29.6901 24.364C29.6901 24.3857 29.6901 24.4074 29.6901 24.4219C29.532 24.6605 28.9857 25.3982 28.4395 25.3982C28.1951 25.3982 28.0514 25.2174 28.0514 24.9354C28.0514 23.7493 28.7342 22.7441 28.7342 22.0137C28.7342 21.8329 28.1376 21.3194 27.7711 21.3194C27.6274 21.3194 27.5052 21.4207 27.4405 21.5509C27.1818 22.1511 26.6499 23.583 26.5205 24.5159C26.2977 24.7618 25.8162 25.1812 25.2269 25.1812C25.1909 25.1812 25.155 25.1812 25.119 25.1668C25.6653 24.4581 25.9815 23.5324 25.9815 22.8454C25.9815 22.1366 25.385 21.3194 24.5225 21.3194C23.8038 21.3194 22.9413 22.1005 22.9413 22.1005C22.5676 21.5147 22.2729 21.4424 22.1004 21.4424C21.9423 21.4424 21.8201 21.5292 21.7626 21.6738C21.5183 22.3391 21.202 23.3877 20.9146 24.4653C20.7133 24.6967 20.2102 25.1812 19.5778 25.1812C19.5059 25.1812 19.4412 25.1668 19.3837 25.1595C19.8581 24.5448 20.1384 23.7783 20.1384 23.1274C20.1384 22.0065 19.3621 21.3194 18.3559 21.3194C17.0982 21.3194 15.5601 22.4331 15.5386 24.4581C15.3517 24.7256 14.8342 25.3982 14.3096 25.3982C14.0652 25.3982 13.9071 25.2536 13.9071 24.9715C13.9071 23.9808 14.8055 22.9394 14.8055 22.3898C14.8055 22.0716 14.5971 21.804 14.3096 21.804C14.0149 21.804 13.8496 21.9631 13.3034 21.9631C13.0087 21.9631 12.7931 21.8763 12.7931 21.71C12.7931 21.5147 12.9512 21.3194 12.9512 21.0012C12.9512 20.7554 12.5415 20.3648 12.1966 20.3648C11.9019 20.3648 11.4922 20.7698 11.4922 21.2688C11.4922 21.8835 11.8947 22.1728 11.8947 22.1728C11.5569 23.272 11.0969 23.9735 10.8669 24.3062C10.8454 24.3279 10.8382 24.3496 10.8382 24.3496C10.831 24.3568 10.831 24.364 10.8238 24.3713C10.8166 24.3785 10.8094 24.393 10.8022 24.4002C10.6585 24.6172 10.1051 25.391 9.53731 25.391C9.18514 25.391 8.89046 25.1234 8.89046 24.7546C8.89046 23.8723 9.34325 22.5055 9.73855 21.4207H10.4932C10.6513 21.4207 10.8597 21.117 10.8597 20.994C10.8597 20.9217 10.8238 20.8855 10.7591 20.8855H9.94697C10.1626 20.2853 10.3495 19.8586 10.3495 19.7501C10.3495 19.5332 9.7673 19.0197 9.40075 19.0197C9.25701 19.0197 9.13483 19.121 9.07014 19.2511C8.85453 19.6417 8.61017 20.2274 8.3658 20.8855H8.12144C7.94895 20.8855 7.7549 21.1893 7.7549 21.3122C7.7549 21.3845 7.79083 21.4207 7.85552 21.4207H8.18612C7.76208 22.6935 7.40991 24.082 7.40991 24.7546C7.40991 25.6079 8.37299 26.2082 9.13483 26.2082C10.3351 26.2082 11.2263 24.7039 11.2263 24.7039C11.4778 24.3279 11.945 23.583 12.405 22.397C12.405 22.397 13.1309 22.4476 13.1309 22.6935C13.1309 23.0695 12.369 23.9157 12.369 24.9932C12.369 25.6658 12.9871 26.2154 13.9143 26.2154C14.6905 26.2154 15.3301 25.5935 15.6895 25.1523C15.9842 25.7815 16.6741 26.2154 17.436 26.2154C17.9606 26.2154 18.435 26.0346 18.8231 25.7236C18.9956 25.7453 19.1537 25.7598 19.2975 25.7598C19.8868 25.7598 20.3468 25.579 20.6918 25.3693C20.3396 26.7578 20.0665 28.0523 20.0665 28.4862C20.0665 29.1443 20.7133 29.354 21.1733 29.354C21.3458 29.354 21.4033 29.2817 21.4033 29.0864C21.4033 28.1318 21.777 26.3094 22.0573 25.5935C22.0573 25.5935 22.4957 26.2154 23.2719 26.2154C23.7607 26.2154 24.1919 26.0346 24.5728 25.7381C24.7094 25.7526 24.8387 25.7598 24.9466 25.7598C25.6653 25.7598 26.1971 25.4922 26.5493 25.2246C26.7074 25.8249 27.268 26.2082 28.0442 26.2082C28.8348 26.2082 29.4888 25.5573 29.841 25.1162C30.186 25.9117 31.07 26.2082 31.8893 26.2082C32.9027 26.2082 33.6646 25.6875 34.1245 25.2608C34.2611 25.8321 34.7426 26.2082 35.3032 26.2082C36.2232 26.2082 37.0281 25.1668 37.0281 25.1668C37.1144 25.8538 37.6391 26.2082 38.3003 26.2082C39.0765 26.2082 39.7161 25.5862 40.0827 25.1378C40.3774 25.8176 41.0529 26.2082 41.7789 26.2082C42.5694 26.2082 43.166 25.3548 43.166 25.3548C43.166 25.3548 43.3025 25.1957 43.3025 25.0872C43.2953 24.9426 43.1588 24.8052 43.0294 24.8052ZM43.7553 18.3906C43.8416 18.3906 43.8991 18.4484 43.8991 18.5641C43.8991 19.309 42.5119 21.9631 41.6782 22.6573C42.1813 20.6107 43.3169 18.3906 43.7553 18.3906ZM18.4637 24.5955C18.4278 24.581 18.3775 24.5738 18.3272 24.5738C18.1331 24.5738 17.7163 24.9064 17.7163 25.174C17.7163 25.2825 17.7882 25.3837 17.9247 25.4705C17.8025 25.5718 17.6803 25.6151 17.551 25.6151C17.1844 25.6151 16.9688 25.2753 16.9688 24.7835C16.9688 23.1346 17.8169 21.9197 18.3631 21.9197C18.6434 21.9197 18.8375 22.1366 18.8375 22.6863C18.8375 23.2286 18.7081 23.988 18.4637 24.5955ZM23.9691 24.5738C23.7607 24.5882 23.3726 24.9137 23.3726 25.174C23.3726 25.2319 23.3941 25.2969 23.4301 25.3476C23.2935 25.4705 23.1641 25.5284 23.0276 25.5284C22.6251 25.5284 22.3592 25.0655 22.3592 24.5882C22.3592 23.7204 23.4373 22.1294 24.0697 22.1294C24.3356 22.1294 24.4794 22.2885 24.4794 22.7297C24.4866 23.1202 24.2853 23.9229 23.9691 24.5738ZM35.9213 25.268C35.6698 25.268 35.5692 25.0728 35.5692 24.7184C35.5692 23.6915 36.4316 22.0065 37.136 22.0065C37.3803 22.0065 37.5744 22.18 37.5744 22.5344C37.5744 23.4745 36.5035 25.268 35.9213 25.268Z" fill="#999999"/>
<path d="M34.1247 45.1846C32.9172 45.1846 32.2847 44.8013 31.7241 44.4614C31.2211 44.1504 30.7826 43.8901 29.8627 43.8901C28.9427 43.8901 28.5115 44.1577 28.0084 44.4614C27.4478 44.8013 26.8225 45.1846 25.6079 45.1846C24.4004 45.1846 23.768 44.8013 23.2074 44.4614C22.7043 44.1504 22.2659 43.8901 21.3531 43.8901C20.4331 43.8901 20.0019 44.1577 19.4988 44.4614C18.9382 44.8013 18.3129 45.1846 17.0983 45.1846C15.8909 45.1846 15.2584 44.8013 14.6978 44.4614C14.1947 44.1504 13.7563 43.8901 12.8435 43.8901C12.556 43.8901 12.3188 43.6587 12.3188 43.3622C12.3188 43.0729 12.5488 42.8342 12.8435 42.8342C14.051 42.8342 14.6834 43.2175 15.244 43.5574C15.7471 43.8684 16.1855 44.1287 17.0983 44.1287C18.0183 44.1287 18.4495 43.8611 18.9526 43.5574C19.5132 43.2175 20.1385 42.8342 21.3531 42.8342C22.5605 42.8342 23.193 43.2175 23.7536 43.5574C24.2567 43.8684 24.6951 44.1287 25.6079 44.1287C26.5278 44.1287 26.9591 43.8611 27.4622 43.5574C28.0228 43.2175 28.6481 42.8342 29.8627 42.8342C31.0701 42.8342 31.7026 43.2175 32.2632 43.5574C32.7663 43.8684 33.2047 44.1287 34.1247 44.1287C35.0446 44.1287 35.4758 43.8611 35.9861 43.5574C36.5467 43.2175 37.172 42.8342 38.3866 42.8342C38.6741 42.8342 38.9113 43.0656 38.9113 43.3622C38.9113 43.6514 38.6813 43.8901 38.3866 43.8901C37.4667 43.8901 37.0355 44.1577 36.5252 44.4614C35.9646 44.8013 35.3321 45.1846 34.1247 45.1846Z" fill="#999999"/>
<path d="M34.1247 47.911C32.9172 47.911 32.2847 47.5277 31.7241 47.1878C31.2211 46.8769 30.7826 46.6165 29.8627 46.6165C28.9427 46.6165 28.5115 46.8841 28.0084 47.1878C27.4478 47.5277 26.8225 47.911 25.6079 47.911C24.4004 47.911 23.768 47.5277 23.2074 47.1878C22.7043 46.8769 22.2659 46.6165 21.3531 46.6165C20.4331 46.6165 20.0019 46.8841 19.4988 47.1878C18.9382 47.5277 18.3129 47.911 17.0983 47.911C15.8909 47.911 15.2584 47.5277 14.6978 47.1878C14.1947 46.8769 13.7563 46.6165 12.8435 46.6165C12.556 46.6165 12.3188 46.3851 12.3188 46.0886C12.3188 45.7993 12.5488 45.5607 12.8435 45.5607C14.051 45.5607 14.6834 45.944 15.244 46.2839C15.7471 46.5948 16.1855 46.8552 17.0983 46.8552C18.0183 46.8552 18.4495 46.5876 18.9526 46.2839C19.5132 45.944 20.1385 45.5607 21.3531 45.5607C22.5605 45.5607 23.193 45.944 23.7536 46.2839C24.2567 46.5948 24.6951 46.8552 25.6079 46.8552C26.5278 46.8552 26.9591 46.5876 27.4622 46.2839C28.0228 45.944 28.6481 45.5607 29.8627 45.5607C31.0701 45.5607 31.7026 45.944 32.2632 46.2839C32.7663 46.5948 33.2047 46.8552 34.1247 46.8552C35.0446 46.8552 35.4758 46.5876 35.9861 46.2839C36.5467 45.944 37.172 45.5607 38.3866 45.5607C38.6741 45.5607 38.9113 45.7921 38.9113 46.0886C38.9113 46.3779 38.6813 46.6165 38.3866 46.6165C37.4667 46.6165 37.0355 46.8841 36.5252 47.1878C35.9646 47.5277 35.3321 47.911 34.1247 47.911Z" fill="#999999"/>
<path d="M4.89443 18.998L3.96729 18.5207C4.9663 16.5464 6.22405 14.724 7.71179 13.0824L8.48081 13.7911C7.05057 15.3677 5.85032 17.1178 4.89443 18.998Z" fill="#999999"/>
<path d="M46.0409 18.434C42.6127 12.0844 36.3455 7.6224 29.2805 6.49423L29.4458 5.46008C36.827 6.63887 43.3745 11.3034 46.9537 17.935L46.0409 18.434Z" fill="#999999"/>
<path d="M25.6149 54.0001C16.0129 54.0001 7.30207 48.2942 3.41382 39.4569L4.36971 39.0302C8.09265 47.4842 16.4297 52.9515 25.6221 52.9515C35.1307 52.9515 43.5828 47.2239 47.1548 38.3577L48.1251 38.7554C44.3806 48.0122 35.5476 54.0001 25.6149 54.0001Z" fill="#999999"/>
<path d="M22.5532 2.36491C20.9936 2.53124 20.0306 3.3412 19.5275 3.86189C19.3478 3.2038 18.9022 1.90207 17.4719 0.961933C15.6392 -0.32533 11.8372 -0.903876 8.57425 3.10255C8.56706 3.10255 10.3423 2.35767 12.2253 2.19857C12.5344 1.93823 12.8506 1.67788 13.1884 1.432C13.3465 1.65619 13.4974 1.87314 13.6484 2.10456C14.8414 2.13349 16.1926 2.29982 17.4288 2.87113C17.6085 2.79158 17.7882 2.71927 17.9678 2.64695C18.0685 2.85667 18.1691 3.05916 18.2625 3.26888C18.5931 3.47138 18.7872 3.58708 18.9669 3.71003C17.2851 2.81328 13.8352 1.88037 11.7725 7.67306C11.7725 7.67306 12.9153 6.8631 14.1515 6.19054L14.5252 5.20701L15.0858 5.66262C15.898 5.27933 16.8179 4.84542 17.8529 4.6357L18.0541 4.15117L18.5644 4.4766C18.7728 4.44767 18.9166 4.42598 19.0387 4.40428C18.6578 4.9539 17.745 6.3641 16.9401 8.47579C15.8836 7.59351 14.0437 6.76908 11.5425 8.32393C10.4429 7.9551 5.68501 6.77632 3.96729 12.8438C3.96729 12.8438 5.0238 11.9471 6.18093 11.1371L6.44685 10.2765L7.05057 10.5224C7.8196 10.0379 8.68924 9.49548 9.70263 9.09773L9.85356 8.67105L10.3926 8.81569C10.637 8.73614 10.7951 8.67829 10.9316 8.63489C9.65232 9.30022 7.15119 11.26 10.3423 15.3243C10.3423 15.3243 10.2776 14.2034 10.3495 13.0825L9.84637 12.4099L10.3926 12.2219C10.4788 11.5059 10.5723 10.696 10.8741 9.9077L10.637 9.5678L11.0682 9.35808C11.1832 9.0905 11.2407 8.96033 11.3125 8.80846C11.1904 9.89323 10.8669 14.9555 14.3886 20.119H15.747H15.9411H17.4935C16.552 15.845 16.9185 12.2074 17.6229 9.48102C17.7163 9.51718 17.8241 9.5678 17.9822 9.64012C17.9822 9.64012 17.8816 9.47379 17.6876 9.23514C18.3703 6.71123 19.3262 5.00452 19.7359 4.35366C19.7646 4.35366 19.7934 4.35366 19.8293 4.35366C20.1024 4.55615 20.2174 4.67186 20.584 4.99729L21.1877 5.01175L21.0871 5.52521C21.8345 6.27732 22.3592 7.15237 22.8192 7.92618L23.5379 7.86109L23.3079 8.88801C23.9619 10.1391 24.465 11.4553 24.465 11.4553C26.0893 4.93943 21.9064 4.1584 20.1959 4.10054C20.3612 4.08608 20.548 4.07162 20.814 4.05715C20.9936 3.91252 21.1733 3.77511 21.3602 3.63771C21.4896 3.78958 21.6189 3.93421 21.7411 4.08608C23.0995 4.15117 24.3788 4.62123 25.4497 5.14916C25.6868 5.01898 25.924 4.88881 26.1612 4.76587C26.3409 5.13469 26.5134 5.51075 26.6643 5.8868C28.2598 6.89926 29.5032 8.37455 29.496 8.37455C28.4108 3.30504 24.7669 2.0684 22.5532 2.36491ZM11.7653 8.85185C11.866 8.9314 11.9666 9.02541 12.1319 9.17728L12.5847 9.18451L12.5128 9.5678C13.0806 10.1247 13.4759 10.7755 13.8352 11.3541L14.3743 11.2962L14.209 12.07C14.7121 13.0029 15.093 13.9864 15.093 13.9864C16.0848 9.81368 13.9502 8.79399 12.4984 8.56981C12.7572 8.57704 13.0303 8.5915 13.3106 8.6132L13.8712 8.24438L14.1299 8.66382C14.8199 8.74337 15.6033 8.83739 16.4011 9.07604L16.6885 8.90247L16.7532 8.98202C15.8117 11.6433 15.093 15.2954 15.6823 19.649C12.0313 15.0784 11.7366 10.479 11.7653 8.85185Z" fill="#999999"/>
<path d="M18.5788 36.4629C18.5788 36.8462 18.4423 37.1788 18.1763 37.4464C17.9032 37.7212 17.5798 37.8586 17.1917 37.8586H15.4668C15.3877 37.8586 15.3518 37.8948 15.3518 37.9743V42.0242C15.3518 42.1833 15.2799 42.2556 15.129 42.2556H13.2891C13.131 42.2556 13.0591 42.176 13.0591 42.0242V30.4388C13.0591 30.2869 13.1381 30.2146 13.2891 30.2146H17.1989C17.5798 30.2146 17.9104 30.352 18.1835 30.6196C18.4494 30.8944 18.586 31.2198 18.586 31.6103V36.4629H18.5788ZM16.0489 35.5445C16.2071 35.5445 16.2789 35.4649 16.2789 35.313V32.7602C16.2789 32.6011 16.1999 32.5288 16.0489 32.5288H15.474C15.3949 32.5288 15.359 32.5649 15.359 32.6445V35.4287C15.359 35.5083 15.3949 35.5445 15.474 35.5445H16.0489Z" fill="#999999"/>
<path d="M24.9396 40.8671C24.9396 41.2504 24.8031 41.583 24.5371 41.8506C24.264 42.1254 23.9406 42.2628 23.5525 42.2628H20.7926C20.4117 42.2628 20.0811 42.1254 19.8152 41.8506C19.5421 41.583 19.4055 41.2576 19.4055 40.8671V31.6031C19.4055 31.2199 19.5421 30.8872 19.8152 30.6124C20.0811 30.3448 20.4045 30.2074 20.7926 30.2074H23.5525C23.9334 30.2074 24.264 30.3448 24.5371 30.6124C24.8031 30.8872 24.9396 31.2126 24.9396 31.6031V40.8671ZM22.4026 39.9487C22.5607 39.9487 22.6325 39.8691 22.6325 39.7172V32.7602C22.6325 32.6011 22.5535 32.5288 22.4026 32.5288H21.9426C21.7845 32.5288 21.7126 32.6084 21.7126 32.7602V39.71C21.7126 39.8691 21.7916 39.9414 21.9426 39.9414H22.4026V39.9487Z" fill="#999999"/>
<path d="M31.2929 36.4629C31.2929 36.8462 31.1564 37.1788 30.8904 37.4464C30.6173 37.7212 30.2939 37.8586 29.9058 37.8586H28.1809C28.1018 37.8586 28.0659 37.8948 28.0659 37.9743V42.0242C28.0659 42.1833 27.994 42.2556 27.8431 42.2556H26.0032C25.8451 42.2556 25.7732 42.176 25.7732 42.0242V30.4388C25.7732 30.2869 25.8523 30.2146 26.0032 30.2146H29.913C30.2939 30.2146 30.6245 30.352 30.8976 30.6196C31.1635 30.8944 31.3001 31.2198 31.3001 31.6103V36.4629H31.2929ZM28.763 35.5445C28.9212 35.5445 28.993 35.4649 28.993 35.313V32.7602C28.993 32.6011 28.914 32.5288 28.763 32.5288H28.1881C28.109 32.5288 28.0731 32.5649 28.0731 32.6445V35.4287C28.0731 35.5083 28.109 35.5445 28.1881 35.5445H28.763Z" fill="#999999"/>
<path d="M36.2735 30.2074C36.6544 30.2074 36.985 30.3448 37.2581 30.6124C37.524 30.8872 37.6606 31.2126 37.6606 31.6031V33.6859C37.6606 33.845 37.5887 33.9173 37.4378 33.9173H35.5979C35.4397 33.9173 35.3679 33.8378 35.3679 33.6859V32.7602C35.3679 32.6011 35.2888 32.5288 35.1379 32.5288H34.6779C34.5198 32.5288 34.4479 32.6084 34.4479 32.7602V34.1994C34.4479 34.2717 34.4767 34.3295 34.5342 34.3729L36.949 36.4629C37.4306 36.8824 37.6749 37.4103 37.6749 38.0467V40.8671C37.6749 41.2504 37.5384 41.583 37.2725 41.8506C36.9994 42.1254 36.6759 42.2628 36.2878 42.2628H33.528C33.147 42.2628 32.8164 42.1254 32.5505 41.8506C32.2774 41.583 32.1408 41.2576 32.1408 40.8671V38.7771C32.1408 38.6252 32.2199 38.5529 32.3708 38.5529H34.2107C34.3617 38.5529 34.4335 38.6252 34.4335 38.7771V39.71C34.4335 39.8691 34.5126 39.9414 34.6635 39.9414H35.1235C35.2816 39.9414 35.3535 39.8619 35.3535 39.71V38.2709C35.3535 38.1986 35.3247 38.1407 35.2673 38.0973L32.8524 36.0073C32.3708 35.5879 32.1265 35.0599 32.1265 34.4235V31.6031C32.1265 31.2199 32.263 30.8872 32.5361 30.6124C32.8021 30.3448 33.1255 30.2074 33.5136 30.2074H36.2735Z" fill="#999999"/>
<path d="M50.4032 21.5798H44.7757C44.4451 21.5798 44.1792 21.8474 44.1792 22.1801V32.9917C44.1792 33.1001 44.2654 33.1869 44.3733 33.1869H46.9534V35.7976C46.9534 35.8265 46.9822 35.8555 47.0109 35.8555H48.1681C48.1968 35.8555 48.2255 35.8265 48.2255 35.7976V33.1797H50.8057C50.9135 33.1797 50.9998 33.0929 50.9998 32.9844V22.1728C50.9998 21.8474 50.7339 21.5798 50.4032 21.5798Z" fill="#999999"/>
<path d="M6.22407 21.5798H0.596533C0.265924 21.5798 0 21.8474 0 22.1801V32.9917C0 33.1001 0.0862458 33.1869 0.194053 33.1869H2.77424V35.7976C2.77424 35.8265 2.80299 35.8555 2.83174 35.8555H3.98887C4.01762 35.8555 4.04636 35.8265 4.04636 35.7976V33.1797H6.62655C6.73436 33.1797 6.8206 33.0929 6.8206 32.9844V22.1728C6.8206 21.8474 6.55468 21.5798 6.22407 21.5798Z" fill="#999999"/>
</svg>
