<svg width="150" height="150" viewBox="0 0 101 26" fill="#FFFF" xmlns="http://www.w3.org/2000/svg">
<path d="M34.6758 11.661C34.2354 11.2146 33.5199 10.9915 32.4741 10.9915C31.5384 10.9915 30.8229 11.2146 30.3275 11.6052C29.8872 11.9957 29.612 12.6653 29.5569 13.6138V24.382H35.2812V13.8927C35.3362 12.8327 35.1161 12.1073 34.6758 11.661Z" fill="#FFFF"/>
<path d="M24.4932 11.661C24.0529 11.2146 23.2823 10.9915 22.2916 10.9915C21.2458 10.9915 20.5302 11.2146 20.0899 11.661C19.6496 12.1073 19.4294 12.8885 19.4294 13.9485V22.206C19.4294 22.3176 19.4294 22.3734 19.4294 22.485V24.4378H25.1537V13.8927C25.2087 12.8327 24.9886 12.1073 24.4932 11.661Z" fill="#FFFF"/>
<path d="M14.6409 9.98712C12.9896 8.25751 10.9531 7.4206 8.58638 7.4206C7.21035 7.4206 5.94441 7.69957 4.73352 8.3133V2.12017V2.06438C4.67847 0.948498 3.74278 0 2.58692 0H0V1.897V9.03863V16.5708C0.110082 18.8584 1.04578 20.8112 2.697 22.3734C4.34823 23.9356 6.3297 24.7725 8.58638 24.7725C10.9531 24.7725 12.9896 23.9356 14.6409 22.206C16.3471 20.5322 17.1728 18.4678 17.1728 16.0687C17.1728 13.6695 16.2921 11.6609 14.6409 9.98712ZM11.7787 19.3605C10.8981 20.2532 9.79728 20.6996 8.58638 20.6996C7.32044 20.6996 6.27466 20.2532 5.33896 19.3605C4.45831 18.4678 4.01798 17.3519 4.01798 16.0687C4.01798 14.8412 4.45831 13.7253 5.33896 12.8326C6.21962 11.9399 7.32044 11.4936 8.58638 11.4936C9.79728 11.4936 10.8981 11.9399 11.7787 12.8326C12.6594 13.7253 13.0997 14.8412 13.0997 16.0687C13.0997 17.3519 12.6594 18.4678 11.7787 19.3605Z" fill="#FFFF"/>
<path d="M47.0049 20.6996C46.2343 20.6996 45.5738 20.4206 45.1886 19.9185C44.7482 19.3606 44.5281 11.6052 44.5281 11.6052H48.7112V7.86699H44.5281V4.35197C44.5281 2.73395 43.2621 1.45068 41.6659 1.45068H39.7395V6.69532C39.6294 6.63952 38.5286 6.08159 37.8681 5.85841C36.6022 5.46785 35.061 5.41206 33.3548 5.57944C32.309 5.69103 31.2632 6.02579 30.1074 6.52794C29.8872 6.63953 29.667 6.75111 29.4469 6.91849L29.0065 6.69532H28.8965C28.6213 6.58373 27.6856 6.08158 27.1351 5.9142C25.8692 5.52365 24.3281 5.46785 22.6218 5.63523C21.576 5.74682 20.5302 6.08159 19.3744 6.58373C18.4387 7.03008 17.6131 7.69961 17.0076 8.53652L16.9526 8.64811C18.2736 7.69961 20.0349 7.25326 22.2916 7.25326C23.4474 7.25326 24.4381 7.42064 25.2638 7.69961C26.0894 8.03438 26.8599 8.42493 27.4104 8.92708C28.0158 8.42493 28.7313 8.03438 29.5569 7.69961C30.3826 7.36485 31.3183 7.19746 32.4191 7.19746C34.7308 7.19746 36.5471 7.69961 37.8681 8.7039C38.8038 9.37343 39.4093 10.3219 39.6845 11.4936V11.5494V17.8541C39.6845 18.97 39.8496 19.9185 40.1798 20.8112C40.5101 21.6481 40.9504 22.3734 41.5559 22.9314C42.1613 23.4893 42.8768 23.9357 43.7024 24.2704C44.5281 24.5494 45.4638 24.7168 46.4545 24.7168C47.0049 24.7168 47.5553 24.661 48.0507 24.6052C48.546 24.5494 48.9313 24.4378 49.2065 24.3262V20.2533C48.9313 20.4764 47.5003 20.6996 47.0049 20.6996Z" fill="#FFFF"/>
<path d="M54.6005 2.06433H53.9401V24.6609H54.6005V2.06433Z" fill="#FFFF"/>
<path d="M59.279 7.53222C59.5542 7.81119 59.8294 8.03437 60.1046 8.14596C60.3798 8.25755 60.7101 8.36913 61.0954 8.36913C61.7008 8.36913 62.1962 8.14596 62.6365 7.69961C63.0768 7.25325 63.297 6.75111 63.297 6.13738C63.297 5.52364 63.0768 4.9657 62.6365 4.51935C62.1962 4.12879 61.6458 3.90562 61.0954 3.90562C60.7651 3.90562 60.4349 3.96141 60.1597 4.12879C59.8845 4.24038 59.6093 4.46356 59.3891 4.74253V2.34338H58.8387V6.36055C58.8937 6.75111 59.0589 7.14167 59.279 7.53222ZM61.0403 4.40776C61.3155 4.40776 61.5907 4.46356 61.8659 4.63094C62.1411 4.79832 62.3063 5.0215 62.4714 5.24467C62.6365 5.52364 62.6915 5.80261 62.6915 6.08158C62.6915 6.36055 62.6365 6.69531 62.4714 6.91849C62.3063 7.19746 62.1411 7.42064 61.8659 7.53222C61.5907 7.69961 61.3155 7.7554 61.0403 7.7554C60.6 7.7554 60.2147 7.58802 59.8845 7.25325C59.5542 6.91849 59.3891 6.52793 59.3891 6.02579C59.3891 5.69102 59.4441 5.41205 59.6093 5.13308C59.7744 4.85411 59.9395 4.68673 60.2147 4.51935C60.4349 4.46356 60.7101 4.40776 61.0403 4.40776Z" fill="#FFFF"/>
<path d="M67.5902 7.42064C67.7003 7.14167 67.8104 6.69532 67.8104 6.08159V4.01721H67.2599V6.02579C67.2599 6.52794 67.2049 6.9185 67.1499 7.08588C67.0948 7.30906 66.9297 7.53223 66.7095 7.64382C66.4894 7.8112 66.2692 7.867 65.939 7.867C65.6638 7.867 65.3886 7.8112 65.1684 7.64382C64.9482 7.47644 64.7831 7.30906 64.7281 7.03009C64.673 6.8627 64.673 6.52794 64.673 6.02579V4.01721H64.1226V6.08159C64.1226 6.69532 64.1777 7.14167 64.3428 7.42064C64.4529 7.69961 64.673 7.97858 64.9482 8.14597C65.2234 8.31335 65.5537 8.42494 65.994 8.42494C66.3793 8.42494 66.7646 8.31335 67.0398 8.14597C67.2599 7.97858 67.4801 7.75541 67.5902 7.42064Z" fill="#FFFF"/>
<path d="M69.7918 4.40779C70.067 4.40779 70.3422 4.57517 70.6174 4.85414L71.0027 4.46358C70.6174 4.07302 70.2322 3.90564 69.8469 3.90564C69.5166 3.90564 69.2414 4.01723 69.0213 4.2404C68.8011 4.46358 68.691 4.74255 68.691 5.07731C68.691 5.30049 68.746 5.52367 68.9112 5.74684C69.0213 5.97002 69.2965 6.1374 69.6817 6.36058C70.012 6.52796 70.2322 6.69534 70.3422 6.80693C70.4523 6.91852 70.5074 7.0859 70.5074 7.19749C70.5074 7.36487 70.4523 7.53225 70.2872 7.69963C70.1221 7.81122 69.9569 7.92281 69.7368 7.92281C69.4065 7.92281 69.1313 7.75543 68.8561 7.47646L68.5259 7.86701C68.691 8.0344 68.8561 8.20178 69.0763 8.31337C69.2965 8.42495 69.5166 8.48075 69.7918 8.48075C70.1771 8.48075 70.4523 8.36916 70.7275 8.09019C70.9477 7.86701 71.1128 7.53225 71.1128 7.19749C71.1128 6.97431 71.0578 6.69534 70.8926 6.52796C70.7275 6.30478 70.4523 6.1374 70.067 5.91422C69.7368 5.74684 69.5166 5.57946 69.4065 5.46787C69.2965 5.35628 69.2414 5.2447 69.2414 5.07731C69.2414 4.90993 69.2965 4.79834 69.4065 4.68676C69.4616 4.46358 69.6267 4.40779 69.7918 4.40779Z" fill="#FFFF"/>
<path d="M71.9935 3.29187C72.1035 3.29187 72.2136 3.23608 72.3237 3.18029C72.4338 3.0687 72.4338 2.95711 72.4338 2.84552C72.4338 2.73393 72.3787 2.62235 72.3237 2.51076C72.2687 2.39917 72.1035 2.39917 71.9935 2.39917C71.8834 2.39917 71.7733 2.45496 71.6632 2.51076C71.5531 2.56655 71.5531 2.67814 71.5531 2.78973C71.5531 2.90132 71.6082 3.0129 71.6632 3.12449C71.7733 3.23608 71.8834 3.29187 71.9935 3.29187Z" fill="#FFFF"/>
<path d="M72.2687 4.12878H71.7183V8.42492H72.2687V4.12878Z" fill="#FFFF"/>
<path d="M73.2594 6.75112V8.36914H73.8098V6.80691C73.8098 6.24897 73.8098 5.85841 73.8648 5.63524C73.8648 5.30047 73.9749 5.0215 74.1951 4.85412C74.4703 4.68674 74.7455 4.57515 75.0757 4.57515C75.461 4.57515 75.7362 4.63095 75.9014 4.74253C76.0665 4.85412 76.2316 5.0773 76.2867 5.35627C76.3417 5.52365 76.3417 5.85841 76.3417 6.36056V8.36914H76.8921V6.19318C76.8921 5.63524 76.8371 5.18889 76.727 4.90992C76.6169 4.63095 76.3967 4.40777 76.1215 4.24039C75.8463 4.07301 75.5711 4.01721 75.2409 4.01721C74.8556 4.01721 74.4703 4.07301 74.1401 4.24039C73.9749 4.35198 73.7548 4.51936 73.5896 4.68674C73.4245 4.90992 73.2594 5.30047 73.2044 5.74683C73.2044 5.91421 73.1493 6.08159 73.2044 6.30477L73.2594 6.75112Z" fill="#FFFF"/>
<path d="M79.9193 8.36916C80.2496 8.36916 80.5248 8.31337 80.745 8.20178C80.9651 8.09019 81.1853 7.9786 81.4055 7.81122C81.6256 7.64384 81.7907 7.36487 81.9008 7.0859L81.4605 6.86272C81.2954 7.14169 81.1302 7.36487 81.0202 7.47646C80.855 7.58804 80.6899 7.69963 80.5248 7.75543C80.3046 7.81122 80.1395 7.86701 79.9193 7.86701C79.479 7.86701 79.0937 7.69963 78.8185 7.42066C78.5433 7.0859 78.3782 6.69534 78.3782 6.19319H82.121C82.121 5.63525 81.9559 5.13311 81.6807 4.74255C81.2403 4.18461 80.6899 3.90564 79.9744 3.90564C79.2589 3.90564 78.7084 4.18461 78.3232 4.74255C77.9929 5.1889 77.8278 5.63525 77.8278 6.19319C77.8278 6.75113 78.048 7.30907 78.4332 7.75543C78.7084 8.14598 79.2589 8.36916 79.9193 8.36916ZM78.3782 5.69105C78.4883 5.30049 78.6534 5.02152 78.8736 4.85414C79.1488 4.57517 79.5341 4.46358 79.9193 4.46358C80.1395 4.46358 80.4147 4.51937 80.6349 4.63096C80.855 4.74255 81.0202 4.85414 81.1853 5.07731C81.2954 5.2447 81.4055 5.46787 81.5155 5.74684H78.3782V5.69105Z" fill="#FFFF"/>
<path d="M83.1117 8.20178C83.3319 8.31337 83.552 8.36916 83.8272 8.36916C84.2125 8.36916 84.4877 8.25757 84.7629 7.9786C84.9831 7.75543 85.1482 7.42066 85.1482 7.0859C85.1482 6.86272 85.0932 6.58375 84.9281 6.41637C84.7629 6.19319 84.4877 6.02581 84.1024 5.80264C83.7722 5.63525 83.552 5.46787 83.442 5.35628C83.3319 5.2447 83.2768 5.13311 83.2768 4.96573C83.2768 4.79834 83.3319 4.68676 83.442 4.57517C83.552 4.46358 83.7172 4.40779 83.8823 4.40779C84.1575 4.40779 84.4327 4.57517 84.7079 4.85414L85.0381 4.46358C84.6529 4.07302 84.2676 3.90564 83.8823 3.90564C83.552 3.90564 83.2768 4.01723 83.0567 4.2404C82.8365 4.46358 82.7264 4.74255 82.7264 5.07731C82.7264 5.30049 82.7815 5.52367 82.9466 5.74684C83.0567 5.97002 83.3319 6.1374 83.7172 6.36058C84.0474 6.52796 84.2676 6.69534 84.3777 6.80693C84.4877 6.91852 84.5428 7.0859 84.5428 7.19749C84.5428 7.36487 84.4877 7.53225 84.3226 7.69963C84.1575 7.81122 83.9924 7.92281 83.7722 7.92281C83.442 7.92281 83.1668 7.75543 82.8916 7.47646L82.5613 7.86701C82.6714 7.9786 82.8915 8.14598 83.1117 8.20178Z" fill="#FFFF"/>
<path d="M86.7444 8.36916C87.1297 8.36916 87.4049 8.25757 87.6801 7.9786C87.9003 7.75543 88.0654 7.42066 88.0654 7.0859C88.0654 6.86272 88.0104 6.58375 87.8452 6.41637C87.6801 6.19319 87.4049 6.02581 87.0196 5.80264C86.6894 5.63525 86.4692 5.46787 86.3591 5.35628C86.249 5.2447 86.194 5.13311 86.194 4.96573C86.194 4.79834 86.249 4.68676 86.3591 4.57517C86.4692 4.46358 86.6343 4.40779 86.7995 4.40779C87.0747 4.40779 87.3499 4.57517 87.6251 4.85414L87.9553 4.46358C87.57 4.07302 87.1847 3.90564 86.7995 3.90564C86.4692 3.90564 86.194 4.01723 85.9738 4.2404C85.7537 4.46358 85.6436 4.74255 85.6436 5.07731C85.6436 5.30049 85.6986 5.52367 85.8638 5.74684C85.9738 5.97002 86.249 6.1374 86.6343 6.36058C86.9646 6.52796 87.1847 6.69534 87.2948 6.80693C87.4049 6.91852 87.4599 7.0859 87.4599 7.19749C87.4599 7.36487 87.4049 7.53225 87.2398 7.69963C87.0747 7.81122 86.9095 7.92281 86.6894 7.92281C86.3591 7.92281 86.0839 7.75543 85.8087 7.47646L85.4785 7.86701C85.6436 8.0344 85.8087 8.20178 86.0289 8.31337C86.2491 8.31337 86.5243 8.36916 86.7444 8.36916Z" fill="#FFFF"/>
<path d="M61.6458 13.3348C61.7559 13.5021 61.8109 13.8927 61.8109 14.3948V16.5708H62.3613V14.3948C62.4163 13.8369 62.5264 13.5021 62.6365 13.3348C62.9117 12.9442 63.297 12.7768 63.6823 12.721C63.9025 12.721 64.0676 12.7768 64.2327 12.8884C64.3978 13 64.5079 13.1116 64.5629 13.279C64.618 13.4463 64.673 13.7811 64.673 14.2275V16.5708H65.2234V14.2275C65.2234 13.7253 65.1684 13.279 65.0583 13.0558C64.9482 12.7768 64.7831 12.5536 64.5079 12.442C64.2327 12.2747 63.9575 12.2189 63.6823 12.2189C63.297 12.2747 63.0218 12.3305 62.9117 12.3863C62.7466 12.442 62.6365 12.5536 62.5264 12.6652C62.3063 12.8884 62.1962 13.0558 62.1411 13.2232C62.0311 13 61.921 12.7768 61.8109 12.6652C61.7008 12.5536 61.5357 12.442 61.3155 12.3305C61.0954 12.2747 60.8752 12.2189 60.7101 12.2189C60.3798 12.2189 60.1597 12.2747 59.9945 12.3863C59.7193 12.5536 59.4992 12.721 59.3341 13C59.1139 13.279 59.0038 13.7253 58.9488 14.2832V16.6266H59.4992V14.8412C59.4992 14.2832 59.4992 13.8369 59.6093 13.6137C59.7193 13.3348 59.8294 13.1674 60.0496 13.0558C60.2147 12.9442 60.4349 12.8884 60.7101 12.8884C60.9302 12.8884 61.1504 12.9442 61.2605 13.0558C61.3706 13 61.5357 13.1116 61.6458 13.3348Z" fill="#FFFF"/>
<path d="M68.1956 16.5708C68.9662 16.515 69.5166 16.1803 69.7918 15.6781V16.6266H70.3973C70.3973 16.6266 70.3973 16.5708 70.3973 14.3949C70.3973 13.7811 70.1771 13.279 69.7918 12.8326C69.3515 12.3863 68.8011 12.1073 68.1956 12.1073C67.5351 12.1073 66.9847 12.3305 66.5995 12.8326C66.2142 13.279 65.994 13.7811 65.994 14.3949C65.994 15.0086 66.2142 15.5107 66.5995 15.9571C67.0398 16.3476 67.5351 16.5708 68.1956 16.5708ZM68.1956 12.6094C68.636 12.6094 69.0212 12.7768 69.3515 13.1116C69.4616 13.2232 69.5717 13.3906 69.6267 13.5579C69.7368 13.8927 69.7368 14.2275 69.7368 14.618C69.5166 15.176 69.2414 15.5665 68.9112 15.7897C68.5809 16.0129 68.1406 16.0687 67.6452 15.9571C67.2599 15.7897 66.9847 15.5107 66.8196 15.2318C66.6545 14.9528 66.5995 14.6738 66.5995 14.3391C66.5995 13.8927 66.7646 13.4464 67.0948 13.1116C67.37 12.7768 67.7553 12.6094 68.1956 12.6094Z" fill="#FFFF"/>
<path d="M71.6632 15.1202C71.6632 14.4506 71.7183 14.0043 71.7733 13.7811C71.8834 13.5021 72.0485 13.279 72.2687 13.0558C72.4888 12.8326 72.709 12.7768 72.9842 12.8326L73.2594 12.3863C73.0943 12.2747 72.9292 12.2189 72.764 12.2189C72.5439 12.2189 72.3237 12.3305 71.9935 12.5536C71.7183 12.7768 71.4431 13.1116 71.2779 13.5579C71.2229 13.7253 71.1678 13.9485 71.1128 14.1717V16.6266H71.6632V15.1202Z" fill="#FFFF"/>
<path d="M73.5346 10.6566V16.5708H74.1401V14.618L74.5804 14.2832L76.1766 16.5708H76.2316H77.0022L75.0757 13.8927L76.8371 12.2746H76.8921H76.0665L74.1401 14.0043V10.6566H73.5346Z" fill="#FFFF"/>
<path d="M81.4054 15.2876L80.9651 15.0086C80.8 15.2876 80.6349 15.5107 80.5248 15.6223C80.3597 15.7339 80.1945 15.8455 80.0294 15.9013C79.8093 15.9571 79.6441 16.0129 79.424 16.0129C78.9837 16.0129 78.5984 15.8455 78.3232 15.5665C78.048 15.2318 77.8828 14.8412 77.8828 14.3391H81.6256C81.6256 13.7811 81.4605 13.279 81.1853 12.8884C80.745 12.3305 80.1945 12.0515 79.479 12.0515C78.7635 12.0515 78.2131 12.3305 77.8278 12.8884C77.4975 13.3348 77.3324 13.7811 77.3324 14.3391C77.3324 14.897 77.5526 15.4549 77.9379 15.9013C78.3232 16.3476 78.8736 16.5708 79.5341 16.5708C79.8643 16.5708 80.1395 16.515 80.3597 16.4034C80.5798 16.2919 80.8 16.1803 81.0202 16.0129C81.0752 15.7897 81.2403 15.5665 81.4054 15.2876ZM77.8278 13.8927C77.9379 13.5022 78.103 13.2232 78.3232 13.0558C78.5984 12.7768 78.9836 12.6652 79.3689 12.6652C79.5891 12.6652 79.8643 12.721 80.0845 12.8326C80.3046 12.9442 80.4698 13.0558 80.6349 13.279C80.745 13.4464 80.855 13.6695 80.9651 13.9485H77.8278V13.8927Z" fill="#FFFF"/>
<path d="M83.3319 16.5708C83.6071 16.5708 83.8272 16.515 84.1025 16.4034C84.0474 16.2918 83.9924 16.1244 83.9373 15.9571C83.6621 16.1244 83.442 16.1244 83.1668 16.0128C82.8365 15.7897 82.7264 15.4549 82.7264 15.0086V13.2231H83.7172V12.721H82.7264V10.6008H82.176V15.0643C82.176 15.3991 82.2311 15.6781 82.3962 15.9013C82.6163 16.2918 82.9466 16.515 83.3319 16.5708Z" fill="#FFFF"/>
<path d="M85.3133 12.2747H84.7629V16.5708H85.3133V12.2747Z" fill="#FFFF"/>
<path d="M85.0382 10.545C84.9281 10.545 84.818 10.6008 84.7079 10.6566C84.5978 10.7682 84.5978 10.8798 84.5978 10.9914C84.5978 11.103 84.6529 11.2146 84.7079 11.3262C84.818 11.4377 84.9281 11.4377 85.0382 11.4377C85.1482 11.4377 85.2583 11.382 85.3684 11.3262C85.4785 11.2146 85.4785 11.103 85.4785 10.9914C85.4785 10.8798 85.4234 10.7682 85.3684 10.6566C85.2583 10.6008 85.1482 10.545 85.0382 10.545Z" fill="#FFFF"/>
<path d="M87.2948 13.0558C87.57 12.8884 87.8452 12.7768 88.1755 12.7768C88.5608 12.7768 88.836 12.8326 89.0011 12.9442C89.1662 13.0558 89.3313 13.279 89.3864 13.5579C89.4414 13.7253 89.4414 14.0601 89.4414 14.5622V16.5708H89.9918V14.3948C89.9918 13.8369 89.9368 13.3905 89.8267 13.1116C89.7166 12.8326 89.4965 12.6094 89.2212 12.442C88.946 12.2747 88.6708 12.2189 88.3406 12.2189C87.9553 12.2189 87.57 12.2747 87.2398 12.3863C87.0747 12.4978 86.8545 12.6652 86.6894 12.8326C86.5242 13.0558 86.3591 13.4463 86.3041 13.8927C86.3041 14.0601 86.249 14.2275 86.3041 14.4506V14.897V16.515H86.8545V14.9528C86.8545 14.3948 86.8545 14.0043 86.9095 13.7811C86.9095 13.5021 87.0196 13.2232 87.2948 13.0558Z" fill="#FFFF"/>
<path d="M94.23 17.7983C94.5602 17.5751 94.8354 17.2961 94.9455 16.9056C95.0556 16.6266 95.1106 16.1803 95.1106 15.5665C95.1106 14.5064 95.1106 13.9485 95.1106 13.8927C94.9455 13.279 94.7804 12.8884 94.5052 12.6652C94.23 12.4421 93.9548 12.2747 93.7346 12.2189C93.4594 12.1073 93.1842 12.0515 92.8539 12.0515C92.4687 12.0515 92.1384 12.1631 91.7531 12.3305C91.4229 12.5537 91.1477 12.7768 90.9275 13.1674C90.7624 13.5022 90.6523 13.8927 90.6523 14.2833C90.6523 14.6738 90.7624 15.0644 90.9275 15.3434C91.0926 15.6781 91.3679 15.9571 91.6981 16.1245C92.0283 16.2919 92.4136 16.4034 92.7989 16.4034C93.1292 16.4034 93.4594 16.3477 93.7346 16.1803C94.0098 16.0687 94.285 15.8455 94.4501 15.6223V15.7897C94.4501 16.2361 94.3951 16.5708 94.285 16.794C94.1749 17.0172 94.0098 17.1846 93.7346 17.2961C93.4594 17.4077 93.1842 17.5193 92.7989 17.5193C92.4136 17.5193 92.1384 17.4635 91.8632 17.2961C91.588 17.1846 91.4229 16.9614 91.2578 16.6824H90.8174C90.9826 17.0172 91.1477 17.2961 91.3128 17.4635C91.4779 17.6309 91.7531 17.7983 92.0283 17.8541C92.3035 17.9657 92.6338 18.0215 93.0191 18.0215C93.4594 18.1331 93.8997 18.0215 94.23 17.7983ZM94.6152 14.2833C94.6152 14.7854 94.4501 15.176 94.1749 15.4549C93.8997 15.7339 93.4594 15.9013 92.964 15.9013C92.4687 15.9013 92.0834 15.7339 91.7531 15.4549C91.4229 15.176 91.3128 14.7854 91.3128 14.2833C91.3128 14.0043 91.3679 13.6695 91.533 13.4464C91.6981 13.1674 91.8632 13 92.1384 12.8326C92.4136 12.6652 92.6888 12.6095 92.964 12.6095C93.2392 12.6095 93.5144 12.6652 93.7896 12.8326C94.0648 13 94.23 13.1674 94.3951 13.4464C94.5602 13.6695 94.6152 13.9485 94.6152 14.2833Z" fill="#FFFF"/>
<path d="M60.4349 23.824C60.1597 23.9356 59.8845 23.9914 59.6643 23.8798C59.3341 23.6566 59.224 23.3218 59.224 22.8755V21.0901H60.2147V20.5879H59.224V18.5236H58.6736V22.9313C58.6736 23.266 58.7286 23.545 58.8937 23.7682C59.1139 24.1588 59.4441 24.3819 59.8845 24.4377H59.9395C60.1597 24.4377 60.3798 24.3819 60.655 24.2703C60.6 24.1588 60.545 23.9914 60.4349 23.824Z" fill="#FFFF"/>
<path d="M65.4986 22.206C65.4986 21.6481 65.3335 21.1459 65.0583 20.7554C64.618 20.1974 64.0676 19.9185 63.352 19.9185C62.6365 19.9185 62.0861 20.1974 61.7008 20.7554C61.3706 21.2017 61.2054 21.6481 61.2054 22.206C61.2054 22.764 61.4256 23.3219 61.8109 23.7682C62.1962 24.2146 62.7466 24.4378 63.4071 24.4378C63.7373 24.4378 64.0125 24.382 64.2327 24.2704C64.4529 24.1588 64.7281 24.0472 64.8932 23.8798C65.1134 23.7124 65.2785 23.4335 65.3886 23.1545L64.9482 22.9313C64.7831 23.2103 64.618 23.4335 64.5079 23.5451C64.3428 23.6567 64.1777 23.7682 64.0125 23.824C63.7924 23.8798 63.6272 23.9356 63.4071 23.9356C62.9668 23.9356 62.5815 23.7682 62.3063 23.4893C62.0311 23.1545 61.8659 22.764 61.8659 22.2618L65.4986 22.206ZM61.7559 21.7597C61.8659 21.3691 62.0311 21.0901 62.2512 20.9227C62.5264 20.6438 62.9117 20.5322 63.297 20.5322C63.5172 20.5322 63.7924 20.588 64.0125 20.6996C64.2327 20.8112 64.3978 20.9227 64.5629 21.1459C64.673 21.3133 64.7831 21.5365 64.8932 21.8155H61.7559V21.7597Z" fill="#FFFF"/>
<path d="M70.012 23.1545C69.6267 23.6567 69.1313 23.8798 68.5259 23.8798C68.1956 23.8798 67.8654 23.824 67.6452 23.6567C67.37 23.4893 67.1499 23.3219 66.9847 23.0429C66.8196 22.764 66.7646 22.485 66.7646 22.1502C66.7646 21.7039 66.9297 21.2575 67.2599 20.9228C67.5902 20.588 68.0305 20.4206 68.5259 20.4206C69.1864 20.4206 69.6817 20.6996 70.012 21.1459L70.4523 20.867C70.3422 20.6438 70.1771 20.4764 70.012 20.309C69.8469 20.1974 69.6267 20.0301 69.3515 19.9743C69.0763 19.8627 68.8011 19.8627 68.5259 19.8627C68.0856 19.8627 67.7003 19.9743 67.315 20.1416C66.9847 20.3648 66.6545 20.6438 66.4894 20.9786C66.2692 21.3133 66.1591 21.7039 66.1591 22.1502C66.1591 22.764 66.3793 23.2661 66.8196 23.7125C67.2599 24.1588 67.8104 24.382 68.4708 24.382C68.9112 24.382 69.2965 24.2704 69.6267 24.1588C69.9569 23.9914 70.2322 23.7683 70.4523 23.4335L70.012 23.1545Z" fill="#FFFF"/>
<path d="M74.3052 20.309C74.085 20.1416 73.7548 20.0858 73.4796 20.0858C73.1493 20.0858 72.8741 20.1416 72.5989 20.309C72.3237 20.4763 72.1035 20.6437 71.8834 20.9227V18.5236H71.333V24.4377H71.8834V22.8755C71.8834 22.3175 71.8834 21.927 71.9384 21.7038C71.9935 21.3691 72.2136 21.0901 72.4338 20.9227C72.709 20.6995 72.9842 20.5879 73.3144 20.5879C73.5896 20.5879 73.8098 20.6437 73.9749 20.8111C74.14 20.9227 74.2501 21.1459 74.3602 21.4248C74.4153 21.5922 74.4153 21.927 74.4153 22.4291V24.4935H74.9657V22.3175C74.9657 21.7596 74.9106 21.3133 74.8005 21.0343C74.7455 20.6995 74.5253 20.4763 74.3052 20.309Z" fill="#FFFF"/>
<path d="M78.9286 20.309C78.6534 20.1416 78.3782 20.0858 78.0479 20.0858C77.6627 20.0858 77.2774 20.1416 76.9471 20.309C76.782 20.4206 76.5618 20.588 76.3967 20.7553C76.2316 20.9785 76.0665 21.3691 76.0114 21.8154C76.0114 21.9828 75.9564 22.1502 76.0114 22.3734V22.8197V24.4377H76.5618V22.8755C76.5618 22.3176 76.5618 21.927 76.6169 21.7038C76.6169 21.3691 76.727 21.0901 76.9471 20.9227C77.2223 20.7553 77.4975 20.6438 77.8278 20.6438C78.2131 20.6438 78.4883 20.6995 78.6534 20.8111C78.8185 20.9227 78.9836 21.1459 79.0387 21.4249C79.0937 21.5923 79.0937 21.927 79.0937 22.4292V24.4935H79.6441V22.3176C79.6441 21.7596 79.5891 21.3133 79.479 21.0343C79.424 20.6995 79.2038 20.4764 78.9286 20.309Z" fill="#FFFF"/>
<path d="M82.6714 19.9742C82.0109 19.9742 81.4605 20.1974 81.0752 20.6996C80.6899 21.1459 80.4697 21.6481 80.4697 22.2618C80.4697 22.8755 80.6899 23.3777 81.0752 23.824C81.4605 24.2704 82.0109 24.4936 82.6714 24.4936C83.3319 24.4936 83.8273 24.2704 84.2676 23.824C84.6529 23.3777 84.873 22.8755 84.873 22.2618C84.873 21.6481 84.6529 21.1459 84.2676 20.6996C83.8823 20.1974 83.3319 19.9742 82.6714 19.9742ZM83.497 23.6566C83.2768 23.824 83.0016 23.8798 82.6714 23.8798C82.3962 23.8798 82.121 23.824 81.8458 23.6566C81.6256 23.4893 81.4055 23.3219 81.2403 23.0429C81.0752 22.7639 81.0202 22.485 81.0202 22.206C81.0202 21.7597 81.1853 21.3133 81.5155 20.9785C81.8458 20.6438 82.2311 20.4764 82.6714 20.4764C83.1117 20.4764 83.497 20.6438 83.8272 20.9785C84.1575 21.3133 84.3226 21.7039 84.3226 22.206C84.3226 22.485 84.2676 22.8197 84.1025 23.0429C83.9373 23.3219 83.7722 23.5451 83.497 23.6566Z" fill="#FFFF"/>
<path d="M86.194 18.5236H85.6436V24.4377H86.194V18.5236Z" fill="#FFFF"/>
<path d="M89.2213 19.9742C88.5608 19.9742 88.0104 20.1974 87.6251 20.6996C87.2398 21.1459 87.0196 21.6481 87.0196 22.2618C87.0196 22.8755 87.2398 23.3777 87.6251 23.824C88.0104 24.2704 88.5608 24.4936 89.2213 24.4936C89.8817 24.4936 90.3771 24.2704 90.8174 23.824C91.2027 23.3777 91.4229 22.8755 91.4229 22.2618C91.4229 21.6481 91.2027 21.1459 90.8174 20.6996C90.3771 20.1974 89.8267 19.9742 89.2213 19.9742ZM89.9918 23.6566C89.7717 23.824 89.4965 23.8798 89.1662 23.8798C88.891 23.8798 88.6158 23.824 88.3406 23.6566C88.1204 23.4893 87.9003 23.3219 87.7351 23.0429C87.57 22.7639 87.515 22.485 87.515 22.206C87.515 21.7597 87.6801 21.3133 88.0104 20.9785C88.3406 20.6438 88.7259 20.4764 89.1662 20.4764C89.6065 20.4764 89.9918 20.6438 90.3221 20.9785C90.6523 21.3133 90.8174 21.7039 90.8174 22.206C90.8174 22.485 90.7624 22.8197 90.5973 23.0429C90.4322 23.3219 90.267 23.5451 89.9918 23.6566Z" fill="#FFFF"/>
<path d="M95.8262 20.5322C95.551 20.309 95.2757 20.1416 95.0556 20.0858C94.7804 19.9743 94.5052 19.9185 94.1749 19.9185C93.7896 19.9185 93.4594 20.03 93.0741 20.1974C92.7439 20.4206 92.4687 20.6438 92.2485 21.0343C92.0834 21.3691 91.9733 21.7597 91.9733 22.1502C91.9733 22.5408 92.0834 22.9313 92.2485 23.2103C92.4136 23.5451 92.6888 23.824 93.0191 23.9914C93.3493 24.1588 93.7346 24.2704 94.1199 24.2704C94.4501 24.2704 94.7804 24.2146 95.0556 24.0472C95.3308 23.9356 95.606 23.7124 95.7711 23.4893V23.6567C95.7711 24.103 95.7161 24.4378 95.606 24.6609C95.4959 24.8841 95.3308 25.0515 95.0556 25.1631C94.7804 25.2747 94.5052 25.3863 94.1199 25.3863C93.7346 25.3863 93.4594 25.3305 93.1842 25.1631C92.909 25.0515 92.7439 24.8283 92.5787 24.5494H91.9733C92.1384 24.8841 92.3035 25.1631 92.4687 25.3305C92.6338 25.4979 92.909 25.6652 93.1842 25.721C93.4594 25.8326 93.7896 25.8884 94.1749 25.8884C94.6703 25.8884 95.1106 25.7768 95.4409 25.5537C95.7711 25.3305 96.0463 25.0515 96.1564 24.6609C96.2665 24.382 96.3215 23.9356 96.3215 23.3219C96.3215 22.2618 96.3215 21.7039 96.3215 21.6481C96.2665 21.1459 96.1014 20.7554 95.8262 20.5322ZM95.8812 22.1502C95.8812 22.6524 95.7161 23.0429 95.4409 23.3219C95.1657 23.6009 94.7253 23.7682 94.23 23.7682C93.7346 23.7682 93.3493 23.6009 93.0191 23.3219C92.6888 23.0429 92.5787 22.6524 92.5787 22.1502C92.5787 21.8712 92.6338 21.5365 92.7989 21.3133C92.964 21.0343 93.1291 20.867 93.4044 20.6996C93.6796 20.5322 93.9548 20.4764 94.23 20.4764C94.5052 20.4764 94.7804 20.5322 95.0556 20.6996C95.3308 20.867 95.4959 21.0343 95.661 21.3133C95.8262 21.5365 95.8812 21.8155 95.8812 22.1502Z" fill="#FFFF"/>
<path d="M100.395 20.03L99.0185 23.3219L97.5875 20.0858V20.03H96.982L98.6883 23.9914L97.9177 25.8884H98.4681L101 20.0858V20.03H100.395Z" fill="#FFFF"/>
</svg>
