<svg width="46" height="46" viewBox="0 0 46 46" fill="none" xmlns="http://www.w3.org/2000/svg">
<path fill-rule="evenodd" clip-rule="evenodd" d="M22.816 45.298C10.3779 45.298 0.272003 35.3324 0.272003 23.0373C0.272003 10.7421 10.3779 0.776558 22.816 0.776558C35.2541 0.711847 45.36 10.6774 45.36 22.9726C45.36 35.2677 35.2541 45.298 22.816 45.298ZM4.28846 33.6499L4.67715 33.3264C3.51108 31.1909 3.05761 29.7672 2.53936 28.2142C2.47458 28.0848 2.47458 28.02 2.4098 27.9553C2.34502 28.02 2.4098 28.1495 2.4098 28.2142C2.7337 29.9614 3.57587 32.0969 4.28846 33.6499ZM23.1399 2.91203L26.1846 20.7077L22.9456 22.5843L22.8808 2.91203C22.8808 2.65319 22.7512 2.65319 22.6864 2.91203L20.8726 21.6136L19.5121 20.8371L22.4273 2.91203C11.2201 2.97674 2.4098 11.9716 2.4098 23.0373C2.4098 26.5317 3.51108 30.2202 5.06584 33.0675L19.1882 21.3548L20.5486 22.1313L4.67715 33.4558C4.28846 33.7146 4.41803 33.8441 4.80672 33.6499L22.4921 23.4902V27.1788L5.45453 33.6499C9.01752 39.474 15.3661 43.1625 22.7512 43.1625C30.1363 43.1625 36.5497 39.474 40.1127 33.6499L23.0751 27.1788V23.4902L40.0479 33.2617C40.4366 33.4558 40.5662 33.3264 40.1775 33.0675L25.0834 22.1313L26.4438 21.3548L40.5014 33.0675C42.1209 30.1555 43.1574 26.5317 43.1574 22.9726C43.1574 12.0363 34.088 3.23559 23.1399 2.91203ZM44.2587 18.9605C44.3235 19.0899 44.3235 19.1546 44.3883 19.2193C44.453 19.1546 44.3883 19.0252 44.3883 18.9605C42.5744 8.80077 33.7641 1.22954 22.816 1.22954C10.6371 1.22954 0.725475 11.1304 0.725475 23.2961C0.725475 26.2081 1.43807 28.926 2.47458 31.4497C2.92805 32.6145 4.41803 35.2677 4.74193 35.7854C4.80671 35.9148 4.8715 35.9795 4.93628 36.0443C4.93628 35.9148 4.93628 35.9148 4.8715 35.7854C4.80672 35.656 3.57586 33.3264 2.86327 31.5145C2.21545 29.9614 1.50285 26.9847 1.50285 23.4255C1.50285 11.5834 11.0905 1.94136 22.9456 1.94136C29.1646 1.94136 34.9302 4.9828 38.5579 8.86548C41.214 11.8422 42.6392 13.8483 44.2587 18.9605ZM5.00106 33.7794L4.48281 33.9735C7.6571 40.0564 14.3296 44.4567 22.7512 44.4567C34.8006 44.4567 44.3883 34.75 44.3883 23.0373C44.3883 20.19 43.5461 18.378 43.0926 17.1485C42.7687 16.1779 41.9914 14.7542 41.6674 14.1071C41.6027 13.9777 41.5379 13.913 41.4731 13.8483C41.4731 13.9777 41.4731 14.0424 41.5379 14.1071C41.797 14.6248 42.38 15.8543 42.7687 17.1485C43.287 18.831 43.6757 20.7077 43.6757 22.9726C43.6757 26.6611 42.5096 30.3497 40.8253 33.3264C40.8901 33.5852 40.8253 33.7146 40.5662 33.7794C36.8736 39.7328 30.2659 43.6155 22.7512 43.6155C15.69 43.6155 10.054 39.8622 8.30492 37.8562C6.87973 36.3031 5.84322 35.1383 5.00106 33.7794ZM21.6499 22.0666L22.5569 22.5843L22.6864 8.08894C22.6864 7.76539 22.6217 7.76539 22.5569 8.08894L21.6499 22.0666ZM23.3342 23.1667L35.8371 30.4791C36.0314 30.6085 36.0962 30.5438 35.9019 30.4144L24.2412 22.649L23.3342 23.1667ZM21.3908 22.649L18.2165 25.2375C18.0222 25.3669 18.1517 25.4316 18.3461 25.3022L22.2977 23.102L21.3908 22.649Z" fill="#878787"/>
</svg>
