<svg width="70" height="57" viewBox="0 0 70 57" fill="none" xmlns="http://www.w3.org/2000/svg">
<path d="M37.4296 1.1001C37.7535 1.03539 38.0126 0.970674 38.2717 0.970674C39.4378 0.905963 40.28 1.48837 40.9278 2.39432C41.2517 2.91201 41.6404 3.23557 42.1586 3.49442C45.2682 5.50047 47.2116 8.28306 48.1186 11.8422C48.6368 13.9777 48.6368 16.1778 48.0538 18.378C48.0538 18.4427 48.0538 18.5075 48.0538 18.5722L48.1186 18.6369C48.5072 18.3133 48.8312 17.925 49.2199 17.5368C49.2846 18.2486 48.9607 18.7016 48.6368 19.2193C48.9607 19.284 49.2846 19.2193 49.5438 19.0251C49.8029 18.831 49.9972 18.6369 50.2563 18.378C50.4507 18.9604 50.4507 19.5428 50.1916 20.0605C49.9324 20.5782 49.479 20.9018 48.9607 21.1606C48.9607 21.2253 48.9607 21.2253 48.9607 21.29C49.2846 21.2253 49.5438 21.1606 49.8677 21.0959L49.9324 21.1606C49.8029 21.3547 49.6733 21.5489 49.479 21.6783C48.6368 22.3254 47.7299 22.4548 46.6934 22.3901C46.499 22.3901 46.3695 22.3901 46.2399 22.5843C44.3612 25.3669 41.8347 27.2435 38.5957 28.0847C32.8949 29.6378 26.935 27.4376 23.6311 22.5843C23.5016 22.4548 23.4368 22.3901 23.2424 22.3901C22.2059 22.4548 21.299 22.2607 20.4568 21.6783C20.2625 21.5489 20.1329 21.3547 19.9386 21.1606C20.3273 21.2253 20.5864 21.29 20.9103 21.3547C20.5216 21.0312 20.1977 20.8371 19.9386 20.5135C19.5499 20.0605 19.4203 19.4781 19.4851 18.831C19.4851 18.7016 19.6147 18.5722 19.6794 18.4427C19.7442 18.5075 19.8738 18.5722 19.9386 18.6369C20.2625 19.0251 20.6512 19.2193 21.2342 19.2193C20.9103 18.7016 20.5864 18.1839 20.6512 17.5368C21.0399 17.925 21.3638 18.2486 21.6877 18.5722L21.7524 18.5075C21.6877 18.2486 21.6229 17.9898 21.6229 17.7956C20.6512 12.554 22.1411 8.15363 26.0928 4.65922C26.7406 4.07682 27.4532 3.68855 28.1658 3.17086C28.2954 3.10615 28.3602 3.04144 28.425 2.91201C29.2671 1.87663 30.2388 0.970674 31.5345 0.517695C32.9597 4.03076e-06 34.4496 -0.19413 35.9396 0.0647154C36.5874 0.258849 37.1705 0.517695 37.4296 1.1001ZM35.8101 24.9139C35.8748 24.9786 35.9396 25.0433 36.0044 25.108C36.5874 25.6904 36.3931 26.6611 35.5509 26.9199C35.227 26.9846 34.9031 27.0493 34.5792 26.9846C33.8018 26.8552 33.5427 26.2081 33.8666 25.561C33.9962 25.3021 34.1905 25.108 34.3201 24.9139C34.061 24.7197 33.8018 24.5256 33.4779 24.2668C33.4131 24.3962 33.3484 24.5256 33.2836 24.655C33.0892 25.1727 32.8949 25.6904 32.6358 26.1434C32.5062 26.4669 32.2471 26.5317 31.9879 26.4022C31.7288 26.2728 31.664 26.014 31.7936 25.6904C31.9232 25.4316 31.9879 25.108 32.1175 24.8492C32.3766 24.3315 32.1175 23.9432 31.8584 23.4902C31.7288 23.6844 31.5992 23.8785 31.5345 24.0079C31.2753 24.4609 31.0162 24.9139 30.6923 25.3669C30.498 25.6257 30.1741 25.6257 29.9797 25.4963C29.7206 25.3021 29.9149 25.108 30.0445 24.9139C30.2388 24.5256 30.498 24.0726 30.6923 23.6844C30.8219 23.4255 30.5627 23.0372 30.3036 22.9725C30.1093 23.7491 29.7854 24.3962 28.8784 24.5903C29.3319 24.202 29.6558 23.7491 29.7206 23.1667C29.7854 22.7137 29.7854 22.2607 29.7854 21.8077C29.7854 21.743 29.7854 21.6136 29.8501 21.6136C29.9149 21.6136 30.0445 21.6136 30.1093 21.6783C30.2388 21.743 30.3036 21.8077 30.4332 21.8724C30.498 20.7723 30.5627 20.3194 30.2388 20.0605C30.1741 20.0605 30.1741 20.1252 30.1093 20.1252C29.6558 20.6429 29.008 20.9018 28.2954 21.0312C28.1658 21.0312 28.0363 21.0312 27.9715 20.9665C27.7771 20.8371 27.5828 20.6429 27.4532 20.4488C27.3885 20.3841 27.3884 20.3194 27.3884 20.2547C27.518 19.737 27.3237 19.3487 26.9998 19.0251C26.6758 18.7016 26.5463 18.378 26.6111 17.925C26.6111 17.4721 26.6111 17.4074 27.0645 17.2132C27.1293 17.2132 27.1941 17.1485 27.2589 17.0838C27.1941 17.0191 27.1941 16.9544 27.1293 16.9544C26.1576 15.8543 25.5098 14.5601 25.3154 13.0717C25.1211 11.9069 25.2507 10.7421 25.8337 9.70671C26.4167 8.73604 27.2589 8.08892 28.1658 7.57123C28.2954 7.50652 28.4249 7.44181 28.5545 7.31239C28.5545 7.31239 28.5545 7.24767 28.4897 7.24767C28.0363 7.44181 27.5828 7.57123 27.1293 7.83008C26.6759 8.08892 26.3519 8.34777 25.8337 8.73604C26.1576 7.50652 26.4815 6.34172 26.8054 5.24162C26.8054 5.24162 26.7406 5.24162 26.7406 5.30633C24.9915 6.72998 23.6959 8.5419 22.8537 10.6774C21.882 13.3953 21.8172 16.1131 22.6594 18.8957C22.7242 19.1546 22.8537 19.284 23.1129 19.284C23.5015 19.284 23.8902 19.3487 24.2142 19.4134C24.0846 20.2547 24.4085 20.9018 24.9915 21.5489C24.9915 21.6136 24.9268 21.6136 24.9268 21.6136C24.6676 21.743 24.4733 21.9372 24.2142 22.1313C26.8702 25.6904 30.3036 27.6318 34.8383 27.567C39.1787 27.5023 42.5473 25.4963 45.0738 22.0666C44.7499 21.8077 44.426 21.5489 44.1021 21.29C44.7499 21.0959 45.2682 20.2547 44.9443 19.5428C45.0738 19.4781 45.1386 19.4781 45.2682 19.4781C45.5921 19.4134 45.916 19.4134 46.2399 19.3487C46.3695 19.3487 46.499 19.2193 46.499 19.1546C47.2116 17.0838 47.3412 15.013 46.9525 12.8776C46.3695 9.83613 44.8795 7.31239 42.4825 5.37105C42.353 5.30633 42.2882 5.17691 42.0939 5.04749C42.6121 6.21229 43.0656 7.24767 43.4543 8.34777C43.9077 9.44786 44.1669 11.0656 44.1021 11.7775C43.843 10.6774 43.1304 9.90084 42.4178 9.1243C41.8995 8.5419 41.3813 7.9595 40.9278 7.31239C40.6687 6.92412 40.4743 6.47114 40.28 6.01816C40.28 6.66527 40.4743 7.18296 40.7982 7.70065C41.3165 8.47719 41.9643 9.25373 42.5473 10.0303C43.0656 10.6774 43.5191 11.3245 43.7782 12.1657C44.1669 13.46 43.843 14.6895 43.1952 15.8543C42.936 16.3073 42.5473 16.7602 42.2234 17.2132C42.2234 17.2132 42.2882 17.2132 42.2882 17.2779C42.936 17.5368 42.936 17.5368 42.936 18.2486V18.3133C42.8712 18.378 42.8712 18.5075 42.8065 18.5075C42.2882 18.7663 41.8995 19.2193 41.8347 19.737C41.8347 20.3194 41.5108 20.6429 41.1222 20.9665C40.9926 20.9665 40.9278 21.0959 40.7982 21.0312C40.3448 20.9018 39.9561 20.6429 39.6322 20.1899C39.5026 20.0605 39.4378 19.9311 39.3083 19.737C39.0491 20.0605 38.8548 20.3194 38.8548 20.7723C38.8548 21.0959 38.8548 21.4195 38.79 21.743C38.79 21.9372 38.7252 22.1313 38.6604 22.3254C38.5957 22.3254 38.5957 22.3254 38.5309 22.3254C38.4661 21.8724 38.4013 21.4195 38.3365 20.9018C38.2718 20.9665 38.207 21.0312 38.1422 21.0312C37.5592 21.4842 36.9761 21.9372 36.3283 22.2607C35.227 22.9078 34.061 22.9078 32.8949 22.2607C32.2471 21.8724 31.664 21.4195 31.081 20.9665C31.0162 20.9018 30.9514 20.8371 30.8219 20.7723C30.8219 21.4195 30.8219 22.0019 30.8219 22.5196C30.8219 22.8431 30.9514 23.0372 31.2106 23.2961C31.3401 23.1667 31.4697 23.0372 31.5345 22.9078C31.7936 22.649 31.9879 22.649 32.1823 22.9725C32.3118 23.1667 32.3766 23.3608 32.4414 23.5549C32.7005 24.0079 32.7653 24.0079 33.154 23.6844C33.2188 23.6196 33.2188 23.6196 33.2836 23.5549C33.4779 23.3608 33.6075 23.4255 33.737 23.6196C33.9314 24.1373 34.3849 24.3315 34.8383 24.5256C34.9031 24.5256 34.9679 24.5256 34.9679 24.5256C35.2918 24.3315 35.5509 24.1373 35.8101 23.8785C35.9396 23.7491 36.0044 23.6196 36.134 23.4902C36.2635 23.3608 36.3931 23.3608 36.5227 23.4902C36.5874 23.5549 36.6522 23.6196 36.6522 23.6844C36.9113 23.9432 37.1057 23.9432 37.3 23.6196C37.3648 23.4902 37.4296 23.4255 37.4296 23.2961C37.4944 23.102 37.5591 22.9725 37.6239 22.7784C37.7535 22.5196 37.9479 22.5196 38.1422 22.7137C38.4013 23.0372 38.5309 23.0372 38.7252 22.649C38.8548 22.3254 38.9844 21.9372 39.1139 21.6136C39.1787 21.5489 39.3083 21.3547 39.373 21.4195C39.5026 21.4195 39.5674 21.5489 39.6322 21.6783C39.6969 21.8077 39.6969 22.0019 39.6969 22.1313C39.6969 22.9078 39.9561 23.5549 40.4096 24.1373C40.4743 24.202 40.5391 24.2668 40.5391 24.3962L40.4743 24.4609C39.697 24.202 39.5026 23.4902 39.2435 22.8431C38.8548 23.1667 38.9196 23.4902 39.1139 23.8785C39.3083 24.202 39.5026 24.5256 39.6969 24.8492C39.7617 24.9786 39.8913 25.2374 39.6969 25.3021C39.5674 25.3669 39.3731 25.3669 39.1787 25.3669C39.0491 25.3669 38.9844 25.2374 38.8548 25.108C38.4661 24.655 38.2718 24.1373 38.0774 23.6196C38.0774 23.5549 38.0126 23.4255 37.9478 23.2961C37.8183 23.5549 37.7535 23.8138 37.6239 24.0079C37.4944 24.1373 37.4944 24.3315 37.5592 24.4609C37.7535 24.9139 37.8831 25.3021 38.0126 25.7551C38.0774 25.9493 38.0774 26.0787 37.8831 26.2081C37.6887 26.3375 37.4944 26.3375 37.3648 26.2081C37.3 26.1434 37.1705 26.0787 37.1705 25.9493C36.9761 25.4316 36.7818 24.9786 36.5874 24.4609C36.5227 24.3315 36.4579 24.1373 36.3283 24.0079C36.2635 24.4609 36.0692 24.7197 35.8101 24.9139ZM28.6841 15.2072C28.7489 15.466 28.8136 15.6602 28.8136 15.919C29.008 16.9544 29.3319 17.925 29.9797 18.831C30.8219 19.9311 31.9232 20.7723 33.0892 21.5489C34.2553 22.2607 35.4861 22.3254 36.6522 21.5489C37.4944 21.0312 38.207 20.3194 38.9196 19.6723C39.6322 18.9604 40.0856 18.1839 40.3448 17.2132C40.4743 16.5661 40.6687 15.919 40.7335 15.4013C40.9926 15.2072 41.2517 15.1425 41.3813 14.9483C41.77 14.3659 41.8995 13.6541 41.7052 12.9423C41.6404 12.7481 41.5108 12.554 41.3813 12.4893C41.3165 12.4246 41.1221 12.554 40.9278 12.554C40.863 12.3599 40.7982 12.101 40.6687 11.8422C40.0209 10.4832 38.9844 9.38315 38.5309 7.9595C38.4661 7.9595 38.4661 7.9595 38.4661 8.02421C38.4661 8.08892 38.4013 8.08892 38.4013 8.15363C37.6887 9.44786 36.717 10.4832 35.4214 11.1951C34.9679 11.4539 34.4496 11.5833 33.8018 11.5186C34.8383 10.4832 35.6157 9.31844 35.8748 7.89479C34.7736 9.25373 33.2836 10.095 31.7288 10.7421C32.2471 10.8068 32.6358 11.1304 33.0245 11.4539C32.5062 11.4539 32.0527 11.3245 31.5993 11.3245C31.1458 11.3892 30.6275 11.5833 30.174 11.7128C30.174 11.648 30.1093 11.648 30.174 11.648C30.174 11.5186 30.2388 11.4539 30.2388 11.3245C29.2671 11.5186 28.7489 12.1657 28.6193 13.1364C28.4897 12.8776 28.4897 12.554 28.1658 12.554C27.8419 12.554 27.7771 12.8776 27.7124 13.1364C27.5828 13.7835 27.6476 14.4306 27.9715 14.9483C28.1658 15.013 28.3602 15.2719 28.6841 15.2072ZM26.5463 12.0363C26.8702 11.648 27.1293 11.1951 27.518 10.8715C28.2954 10.095 29.2671 9.77142 30.2388 9.38315C31.0162 9.05959 31.8584 8.73604 32.6358 8.41248C33.0892 8.21835 33.4779 7.83008 33.737 7.3771C33.3483 7.63594 33.0245 7.89479 32.7005 8.08892C31.7936 8.60661 30.8219 8.86546 29.8501 9.18902C29.0728 9.44786 28.3602 9.70671 27.7124 10.1597C27.0645 10.6774 26.6759 11.3245 26.5463 12.0363ZM34.9679 26.5964C35.3566 26.5964 35.6805 26.3375 35.6805 26.014C35.6805 25.561 35.3566 25.2374 34.9679 25.2374C34.5792 25.2374 34.3201 25.561 34.3201 26.014C34.3201 26.3375 34.5792 26.5317 34.9679 26.5964Z" fill="#878787"/>
<path d="M55.6333 46.3334C55.115 46.7863 54.5968 47.304 54.0785 47.757C53.6898 48.0806 53.2364 48.3394 52.7829 48.4688C51.8112 48.7924 50.969 48.4688 50.386 47.5629C49.8677 46.7216 49.6734 45.8157 49.5438 44.9097C49.3495 42.5154 49.6734 40.1858 50.5155 37.9209C50.7747 37.1444 51.2281 36.4972 51.9407 36.0443C52.2646 35.8501 52.5886 35.7207 52.9772 35.656C53.7546 35.5266 54.6616 35.9148 54.4672 37.1444C54.4024 37.5326 54.2081 37.9856 54.0138 38.3739C53.2364 39.8622 52.8477 41.48 52.7829 43.1625C52.7829 43.6155 52.7829 44.0038 52.9125 44.4567C53.042 44.9097 53.3012 44.9744 53.6898 44.7803C54.1433 44.5862 54.4024 44.1979 54.6616 43.8743C55.3094 42.839 55.7628 41.7389 56.1515 40.6388C56.5402 39.5387 56.8641 38.5033 57.2528 37.4679C57.4472 36.9502 57.7711 36.4972 58.2246 36.1737C58.7428 35.7854 59.2611 35.7207 59.8441 35.9148C60.3623 36.109 60.4919 36.562 60.4919 37.0796C60.5567 37.8562 60.2976 38.6327 60.168 39.4093C59.7793 41.4153 59.3258 43.4214 59.0019 45.4921C58.8076 46.6569 58.7428 47.8864 58.6132 49.0512C58.4837 50.4102 58.1598 51.7691 57.3824 52.9986C56.5402 54.4223 55.2446 55.3282 53.6251 55.7812C52.459 56.1048 51.3577 56.2342 50.1269 55.9754C49.0903 55.7165 48.4425 55.0694 48.313 54.034C48.2482 53.2575 48.7017 52.5457 49.6734 52.7398C50.4508 52.8692 51.2281 52.8692 52.0055 52.8045C53.3659 52.7398 54.3377 51.8985 54.8559 50.669C55.3094 49.6984 55.4389 48.663 55.5037 47.6276C55.5685 47.0452 55.5685 46.6569 55.6333 46.3334Z" fill="#878787"/>
<path d="M63.3423 49.2453C62.6944 49.2453 61.8523 49.1159 61.0749 48.6629C60.2327 48.1452 59.844 47.0451 60.1032 46.0745C60.3623 45.1685 61.5284 44.7155 62.3705 45.2332C63.0831 45.6862 63.8605 45.945 64.7027 45.8156C64.9618 45.7509 65.2209 45.7509 65.3505 45.4921C65.4153 45.1685 65.1561 45.0391 64.897 44.9097C64.2492 44.5861 63.6014 44.2626 62.9536 43.8743C62.6296 43.6801 62.3057 43.486 61.9818 43.2272C60.9453 42.3859 60.6214 41.3505 61.2045 40.121C62.241 37.9208 63.9901 36.5619 66.4518 36.0442C67.0348 35.9148 67.553 35.9148 68.1361 36.0442C68.9782 36.2383 69.5613 36.756 69.8204 37.5326C70.0795 38.4385 70.0148 39.3445 69.5613 40.1857C69.1726 40.8976 68.2657 41.1564 67.6178 40.7681C67.3587 40.574 67.1644 40.3799 67.0996 40.0563C67.0996 39.9269 67.0348 39.8622 67.0348 39.7328C66.97 39.3445 66.9052 39.2151 66.5165 39.2798C65.8687 39.4092 65.2857 39.668 64.897 40.2504C64.6379 40.574 64.6379 40.8328 65.0266 41.0917C65.5448 41.4153 66.0631 41.7388 66.6461 42.0624C67.3587 42.4506 68.0065 42.8389 68.5896 43.3566C69.5613 44.2625 69.4965 45.4921 69.1078 46.398C68.5896 47.4981 67.6826 48.1452 66.5813 48.6629C65.48 49.0512 64.5083 49.2453 63.3423 49.2453Z" fill="#878787"/>
<path d="M64.1197 33.9087C64.1197 34.75 63.9253 35.5265 63.4719 36.1736C63.148 36.6266 62.6945 36.9501 62.1115 36.8854C61.2693 36.8207 61.0102 36.2383 61.2693 35.5265C61.5284 34.8794 61.5932 34.2323 61.4636 33.5852C61.3989 33.1322 61.3341 32.6145 61.7875 32.3556C62.241 32.0321 62.7593 32.0968 63.2127 32.2909C63.731 32.4851 63.9253 32.938 64.0549 33.4557C64.1197 33.6499 64.1197 33.7793 64.1197 33.9087Z" fill="#878787"/>
<path d="M24.5381 46.7216C24.2142 46.851 23.8903 47.1099 23.5664 47.2393C23.2425 47.4334 22.9833 47.6275 22.6594 47.757C22.0116 47.9511 21.4286 47.6275 21.2342 47.0451C21.1694 46.7863 21.2342 46.6569 21.4934 46.5922C23.0481 46.0745 24.3437 45.1685 25.3802 43.8096C26.4168 42.3859 27.0646 40.8329 26.935 39.0209C26.8702 37.9208 26.2224 37.0149 24.9268 37.0149C23.9551 37.0149 23.0481 37.3384 22.206 37.8561C20.8455 38.7621 19.8738 40.0563 19.1612 41.5447C18.7725 42.3212 18.5782 43.1625 18.2543 43.939C18.2543 44.0037 18.1247 44.1331 18.0599 44.1331C17.6712 44.1331 17.2825 44.0684 16.8939 44.0037C17.0234 43.486 17.153 42.9683 17.2825 42.4506C17.9951 39.6033 18.8373 36.756 19.7443 33.9734C19.9386 33.3263 20.1977 32.6792 20.3273 32.0321C20.4569 31.385 20.2625 30.8026 19.6795 30.4143C19.0964 30.0261 18.2543 30.1555 17.736 30.8673C17.2826 31.4497 16.9586 32.1615 16.7643 32.8086C16.246 34.4911 15.7278 36.1736 15.2743 37.9208C14.6265 40.6387 14.0435 43.3566 13.4604 46.1392C13.3957 46.398 13.3309 46.7216 13.2661 46.9804C13.2661 47.0451 13.1365 47.1099 13.0717 47.1746C13.007 47.1099 12.8774 47.0451 12.8774 46.9804C12.8126 46.7863 12.7478 46.5275 12.7478 46.2686C12.6183 43.6802 12.5535 41.0917 12.4887 38.5032C12.4887 37.5973 12.5535 36.756 12.5535 35.8501C12.5535 35.2677 12.4239 34.6853 11.8409 34.3617C11.1931 33.9734 10.5453 33.9734 9.89745 34.2323C9.37919 34.4264 9.05528 34.8794 8.86094 35.3324C8.40747 36.3678 8.01878 37.4679 7.63009 38.5032C7.17662 39.8622 6.65836 41.2858 6.26967 42.6448C5.75142 44.4567 5.23317 46.2039 4.71492 48.0158C4.65014 48.1452 4.65014 48.3394 4.58536 48.4041C4.52058 48.4688 4.45579 48.5335 4.32622 48.5982C4.26144 48.5335 4.19667 48.4041 4.13189 48.3394C4.06711 48.1452 4.0671 47.8864 4.0671 47.6923C4.00232 45.5568 4.13188 43.486 4.39101 41.3505C4.58536 39.5386 4.7797 37.662 4.97404 35.8501C5.03882 35.1383 5.10361 34.4264 5.03883 33.7793C4.97404 33.0675 4.45579 32.6792 3.74319 32.6145C3.09538 32.6145 2.44756 32.7439 1.79975 33.0675C1.47584 33.1969 1.21672 33.4558 0.892807 33.6499C0.633681 33.9087 0.568891 34.1029 0.763236 34.297C1.15193 34.75 1.28149 35.2677 1.28149 35.7854C1.28149 36.756 1.21671 37.7267 1.15193 38.6974C1.02237 40.8976 0.892803 43.0977 0.828022 45.2979C0.698458 47.6923 0.763236 50.0866 1.08714 52.4809C1.21671 53.3869 1.41106 54.2928 1.79975 55.0694C1.99409 55.5223 2.318 55.8459 2.83626 55.9106C3.22495 55.9106 3.67841 55.9753 4.0671 55.8459C5.16839 55.587 5.94577 54.9399 6.2049 53.7751C6.46402 52.6103 6.78793 51.4455 7.04706 50.3454C7.43575 48.7924 7.82444 47.2393 8.27791 45.6215C8.53703 44.7155 8.79616 43.8743 9.05528 42.9683C9.05528 42.9036 9.18485 42.8389 9.31442 42.7095C9.3792 42.8389 9.44398 42.9036 9.44398 43.033C9.57354 44.6508 9.63832 46.3333 9.76789 47.9511C9.89745 49.3748 10.1566 50.8631 10.5453 52.2221C10.8692 53.2574 11.4522 53.6457 12.4887 53.6457C12.6183 53.6457 12.8126 53.6457 12.9422 53.581C13.9139 53.4516 14.6265 52.9339 14.8856 51.9632C15.1448 50.8631 15.4039 49.763 15.663 48.6629C15.8574 47.9511 15.9869 47.2393 16.1813 46.4627C16.6347 46.5275 17.0234 46.5922 17.4121 46.6569C17.6712 46.6569 17.736 46.7863 17.8008 46.9804C17.8656 47.757 18.1247 48.4688 18.5134 49.1159C19.0316 49.9572 19.7443 50.5396 20.716 50.669C22.1412 50.8631 23.3072 50.4101 24.3437 49.4395C24.9916 48.8571 25.5098 48.2099 25.7042 47.304C25.8337 46.9804 25.2507 46.5275 24.5381 46.7216ZM20.9751 44.1978C21.1047 43.8743 21.1695 43.486 21.299 43.2272C21.7525 42.1271 22.3355 41.027 23.3073 40.1857C23.4368 40.0563 23.5664 39.9916 23.6959 39.9269C24.0846 39.7328 24.279 39.8622 24.279 40.2505C24.279 40.8329 24.0846 41.3505 23.8255 41.8035C23.1777 42.8389 22.3355 43.6802 21.1694 44.1978C21.1047 44.1978 21.1047 44.1978 21.0399 44.1978C21.1047 44.1978 21.0399 44.1978 20.9751 44.1978Z" fill="#878787"/>
<path d="M38.4014 17.7309C38.0774 17.4721 37.7535 17.4721 37.5592 17.6662C37.3649 17.925 37.1057 17.925 36.8466 17.925C36.6523 17.925 36.4579 17.925 36.1988 17.8603C35.551 17.7309 34.8384 17.7309 34.1905 17.8603C33.6075 17.9898 33.0245 18.0545 32.5062 17.7309C32.3767 17.6662 32.2471 17.6662 32.1175 17.6015C32.0527 17.6015 31.9232 17.6015 31.9232 17.6662C31.9232 17.7309 31.9232 17.8603 31.9232 17.8603C32.1175 17.9898 32.3767 18.2486 32.571 18.2486C33.0893 18.3133 33.6723 18.3133 34.1905 18.3133C35.0327 18.3133 35.8101 18.3133 36.6522 18.3133C36.3931 18.6369 36.0692 19.0251 35.6157 19.0899C34.7736 19.2193 33.9314 19.2193 33.154 18.7016C33.0893 18.6369 33.0245 18.6369 32.9597 18.6369L32.8949 18.7016C32.9597 18.831 33.0245 18.9604 33.154 19.0899C33.7371 19.8017 34.5792 19.8664 35.4214 19.8017C36.0044 19.737 36.4579 19.4781 36.7818 18.8957C37.0409 18.4427 37.3648 18.1192 37.8183 17.925C38.0127 17.9898 38.207 17.8603 38.4014 17.7309ZM33.4132 13.46L33.3484 13.3953C33.0245 13.5247 32.8949 13.2658 32.8949 13.007C32.8301 12.6834 32.7006 12.4246 32.3767 12.3599C31.3402 12.101 30.6923 12.3599 30.3036 13.3305C30.2389 13.46 30.2389 13.7188 30.3684 13.7835C30.5628 13.9129 30.7571 13.9777 31.0162 13.9777C30.8867 13.8482 30.7571 13.7188 30.6923 13.5894C30.6923 13.3305 31.081 12.9423 31.3402 12.8776C31.4049 12.8776 31.5345 12.8776 31.5993 12.9423C31.5993 12.9423 31.5993 13.0717 31.5993 13.1364C31.5345 13.2011 31.4049 13.2011 31.3402 13.2011C31.2754 13.2011 31.1458 13.2658 31.1458 13.2658C31.1458 13.3953 31.1458 13.5247 31.1458 13.6541C31.1458 13.6541 31.2754 13.6541 31.4049 13.6541C31.5345 13.6541 31.5993 13.5894 31.7288 13.5894C32.0528 13.6541 32.1823 13.5247 32.1823 13.2011C32.1823 13.1364 32.2471 13.0717 32.3119 13.007C32.3767 13.0717 32.4414 13.0717 32.5062 13.1364C32.6358 13.3305 32.7006 13.46 32.8301 13.6541C32.9597 13.7835 33.0893 13.8482 33.2188 13.7835C33.2836 13.7188 33.3484 13.5894 33.4132 13.46ZM37.3648 13.6541C37.4944 13.6541 37.5592 13.5894 37.6887 13.5894C37.8183 13.5894 37.8831 13.5894 38.0127 13.5894C38.4661 13.6541 38.5309 13.6541 38.5957 13.2011C38.5957 13.1364 38.5957 13.1364 38.6605 13.007C38.79 13.1364 38.9196 13.2658 38.8548 13.3953C38.8548 13.5247 38.7253 13.7188 38.5957 13.8482C38.8548 13.9129 39.1139 13.9777 39.3083 13.7835C39.5026 13.5894 39.5026 13.3305 39.4379 13.1364C39.3731 12.9423 39.2435 12.7481 39.114 12.6187C38.4661 11.9716 37.4296 12.2304 36.9761 13.1364C36.9114 13.3305 36.7818 13.46 36.717 13.5894C36.5875 13.5247 36.4579 13.5247 36.3931 13.46C36.3931 13.5247 36.2635 13.6541 36.3283 13.7188C36.3931 13.7835 36.5227 13.9129 36.5875 13.8482C36.717 13.7835 36.8466 13.6541 36.9114 13.5894C37.1057 13.3953 37.2353 13.2011 37.3648 13.007C37.4944 12.9423 37.624 12.8776 37.7535 12.8776C37.8183 12.8776 37.8831 13.007 37.9479 13.0717C37.8831 13.1364 37.8183 13.2011 37.7535 13.2011C37.4296 13.2011 37.4296 13.2011 37.3648 13.6541ZM39.4379 11.4539C39.4379 11.0656 39.1787 10.8068 38.5309 10.6774C37.7535 10.548 36.7818 10.8715 36.5875 11.4539C37.0409 11.3892 37.5592 11.1951 38.0127 11.1951C38.4661 11.1951 38.9844 11.3892 39.4379 11.4539ZM36.0692 16.3073C35.8749 15.919 35.7453 15.919 35.4214 16.1778C35.227 16.3073 34.9679 16.372 34.7736 16.2426C34.3201 15.919 33.9962 15.9837 33.6723 16.372C33.6723 16.372 33.6723 16.372 33.6075 16.5014C33.7371 16.5014 33.8666 16.5661 33.9314 16.5661C34.1258 16.4367 34.1906 16.5014 34.3201 16.6308C34.644 16.9544 34.9679 17.0191 35.3566 16.7602C35.6157 16.5661 35.8101 16.4367 36.0692 16.3073ZM39.4379 15.919C39.5026 15.7896 39.5674 15.7249 39.5674 15.7249C39.5674 15.6602 39.4379 15.5954 39.4379 15.5954C39.3731 15.5954 39.3083 15.6602 39.3083 15.7249C39.2435 15.7896 39.3731 15.7896 39.4379 15.919ZM39.3731 14.8836C39.2435 14.8189 39.1787 14.7542 39.114 14.7542C39.0492 14.7542 38.9844 14.8836 38.9844 14.8836C39.0492 14.9483 39.114 15.013 39.1787 15.013C39.1787 15.013 39.2435 14.9483 39.3731 14.8836ZM38.3366 15.4013C38.2718 15.466 38.1422 15.5307 38.207 15.5954C38.207 15.6602 38.2718 15.7249 38.3366 15.7249C38.4013 15.7249 38.4661 15.6602 38.4661 15.5954C38.4661 15.5954 38.4013 15.5307 38.3366 15.4013ZM31.7936 14.8836C31.6641 14.8189 31.5993 14.7542 31.5345 14.7542C31.4697 14.7542 31.4049 14.8189 31.3402 14.8836C31.4049 14.9483 31.4697 15.013 31.5345 15.013C31.5993 15.013 31.6641 14.9483 31.7936 14.8836ZM30.3684 15.3366C30.2389 15.2719 30.1741 15.2072 30.1093 15.2072C30.0445 15.2072 29.9797 15.2719 29.9797 15.3366C29.9797 15.4013 30.0445 15.466 30.1093 15.466C30.1741 15.466 30.2389 15.4013 30.3684 15.3366ZM32.3119 15.7896C32.3767 15.6602 32.4414 15.5954 32.4414 15.5954C32.4414 15.5307 32.3767 15.466 32.3119 15.466C32.2471 15.5307 32.1823 15.5954 32.1823 15.6602C32.1823 15.5954 32.2471 15.6602 32.3119 15.7896ZM30.8867 16.0484C30.9515 15.9837 31.0163 15.919 31.081 15.8543C31.0163 15.7896 30.9515 15.7249 30.8867 15.7249C30.8219 15.7249 30.7571 15.7896 30.7571 15.8543C30.7571 15.8543 30.8219 15.919 30.8867 16.0484Z" fill="#878787"/>
<path d="M49.0255 27.3729C48.1834 27.5023 47.6003 28.02 47.2764 28.7966C46.823 29.8319 46.5638 30.8673 46.3695 31.9674C46.1751 33.0028 45.9808 34.1029 45.7864 35.203C45.7217 35.4618 45.6569 35.5913 45.3978 35.5913C45.0738 35.656 44.8147 35.7207 44.4908 35.8501C40.3448 37.662 37.8183 40.7035 37.3001 45.298C37.3001 45.3627 37.2353 45.4274 37.2353 45.5568C36.7818 45.1038 36.5875 44.5861 36.5227 44.0037C36.3931 42.9683 36.5875 41.933 36.717 40.8976C36.7818 40.121 36.9114 39.2798 36.8466 38.4386C36.7818 37.209 35.8749 36.6266 34.7088 37.0149C33.7371 37.3385 32.8949 37.9209 32.1823 38.6327C31.7936 38.9562 31.5345 39.4092 31.1458 39.7975C31.2106 39.6681 31.2106 39.6034 31.2754 39.5386C31.5345 38.9562 31.7936 38.3738 31.9232 37.7267C32.1823 36.8208 31.6641 36.2384 30.7571 36.3031C30.3684 36.3678 29.9797 36.4972 29.6558 36.6913C28.8137 37.2737 28.3602 38.115 28.1011 39.021C27.3885 41.2211 26.935 43.486 26.7407 45.7509C26.6759 46.6569 26.6759 47.4981 26.8055 48.4041C26.9998 49.3748 27.7124 49.763 28.6841 49.3748C29.3967 49.1159 29.8502 48.5335 30.0445 47.8217C30.4332 46.5275 30.7571 45.2332 31.2106 44.0037C31.4697 43.1625 31.9232 42.3859 32.571 41.8035C32.8301 41.5447 33.0893 41.4153 33.4779 41.3506C33.4779 41.48 33.4779 41.5447 33.4779 41.6741C33.4132 42.5154 33.2836 43.3566 33.2836 44.1979C33.2836 45.3627 33.4132 46.4628 33.9314 47.4981C34.5145 48.5982 35.4862 48.9218 36.5875 48.4041C37.0409 48.21 37.3648 47.8217 37.624 47.4334C38.1422 48.2747 38.9844 48.5335 39.8913 48.3394C40.7335 48.21 41.5756 47.8217 42.2882 47.3687C43.1304 46.851 43.9078 46.2686 44.5556 45.4921C44.5556 45.6215 44.5556 45.6862 44.5556 45.7509C44.4908 46.7863 44.6852 47.757 45.1386 48.5982C45.6569 49.5689 46.499 49.8925 47.4708 49.5042C48.3129 49.1806 49.0903 48.0158 48.3777 47.0452C47.9242 46.4628 47.7947 45.6862 47.7947 44.9744C47.7299 43.0978 47.9242 41.2859 48.1834 39.4092C48.1834 39.1504 48.3129 39.021 48.5721 39.021C48.7016 39.021 48.8312 38.9562 48.896 38.8915C49.8677 38.5033 50.1916 36.6913 49.0255 35.9148C48.7664 35.7854 48.7664 35.5913 48.8312 35.3971C49.0903 33.7793 49.5438 32.2263 49.9972 30.6085C50.1916 29.9614 50.3212 29.3143 50.4507 28.6671C50.5155 27.6965 49.9972 27.1788 49.0255 27.3729ZM44.8147 40.4446C44.1669 42.1271 43.1304 43.486 41.7052 44.5214C41.5757 44.6508 41.4461 44.7156 41.2517 44.7803C40.863 44.9744 40.6039 44.845 40.6687 44.392C40.7335 44.0037 40.7983 43.5507 40.9278 43.1625C41.6404 41.3506 42.8065 39.9916 44.5556 39.1504C44.7499 39.0857 44.9443 39.021 45.0738 38.9562C45.1386 38.9562 45.1386 39.021 45.2034 39.021C45.0739 39.5386 45.0091 39.9916 44.8147 40.4446Z" fill="#878787"/>
<path d="M42.5474 20.3841C42.0939 19.737 42.5474 18.8958 43.5191 18.5722C43.3896 17.9251 43.6487 17.3427 43.843 16.825C43.9078 16.5662 44.0374 16.372 44.1669 16.1779C44.2317 16.0485 44.4908 15.9838 44.6204 15.9838C45.2682 16.1132 45.8512 16.4367 46.3695 16.825C46.6286 17.0191 46.6286 17.278 46.3695 17.5368C45.9808 17.9898 45.5921 18.4428 45.2034 18.8311C45.0739 19.0252 44.8148 19.1546 44.6852 19.2193C45.0091 19.9312 44.6852 20.5136 43.843 20.8371C44.1021 21.1607 43.9726 21.5489 43.9078 21.9372C43.843 22.3902 43.7135 22.7785 43.6487 23.1667C43.5839 23.4256 43.3248 23.6197 43.0657 23.555C42.3531 23.4256 41.6405 23.2314 41.1222 22.7137C40.8631 22.4549 40.7983 22.3255 40.9926 22.0019C41.3165 21.4195 41.7052 20.9665 42.2883 20.5783C42.353 20.5136 42.4178 20.4488 42.4826 20.4488C42.5474 20.5136 42.5474 20.4488 42.5474 20.3841ZM43.7135 20.9018C43.3896 20.7724 43.1304 20.7077 42.8065 20.5783C42.7417 20.5783 42.677 20.5783 42.677 20.643C42.677 20.7077 42.677 20.7724 42.677 20.8371C42.8713 21.0312 42.8065 21.2254 42.7417 21.4842C42.677 21.5489 42.677 21.6784 42.6122 21.7431C42.5474 21.8725 42.6769 22.0019 42.8065 21.9372C42.9361 21.8725 43.1304 21.7431 43.1952 21.5489C43.3248 21.3548 43.3248 21.096 43.6487 21.0312C43.6487 21.0312 43.6487 20.9018 43.7135 20.9018ZM44.6852 17.8604C44.4908 18.1192 44.2317 18.3134 44.0374 18.5722C43.9726 18.6369 44.0374 18.8311 44.1021 18.8311C44.1669 18.8958 44.3613 18.8958 44.4261 18.8958C44.6852 18.7016 44.8148 18.184 44.6852 17.8604ZM44.4261 19.4782C44.4261 19.4135 44.4261 19.4135 44.4261 19.3488C44.1669 19.1546 43.9078 19.0252 43.5839 18.8958C43.5191 18.8311 43.3896 18.9605 43.26 19.0252V19.2193C43.5191 19.3488 43.7782 19.4782 44.1021 19.5429C44.2965 19.5429 44.3613 19.4782 44.4261 19.4782Z" fill="#878787"/>
<path d="M25.8337 21.2253C25.2507 21.0959 24.6029 20.1252 24.7972 19.5428C24.9268 19.2193 24.7325 19.0898 24.5381 19.0251C24.0199 18.7016 23.6312 18.2486 23.372 17.7309C23.1777 17.4073 23.2425 17.1485 23.5016 16.8896C23.9551 16.4367 24.4733 16.1778 25.0564 16.0484C25.445 15.9837 25.769 16.1778 25.8985 16.5661C26.0929 17.2132 26.2224 17.925 26.352 18.6369C26.352 18.7663 26.2872 18.831 26.2872 18.9604C26.8702 19.0898 27.0646 19.5428 27.1942 20.0605C27.1942 20.1252 27.1942 20.1899 27.1942 20.2546C26.9998 20.5135 27.1942 20.6429 27.3237 20.7723C27.7124 21.1606 28.1659 21.6136 28.5546 22.0018C28.9433 22.4548 28.9433 22.8431 28.425 23.1666C28.0363 23.4902 27.6476 23.6196 27.1294 23.749C26.8055 23.8138 26.5463 23.6843 26.4168 23.3608C26.1577 22.7784 25.9633 22.196 25.769 21.6136C25.769 21.5489 25.8337 21.3547 25.8337 21.2253ZM26.352 21.0959C26.4168 21.2253 26.4816 21.4194 26.5463 21.5489C26.6759 21.6783 26.8055 21.8724 26.9998 21.743C27.1942 21.6136 26.9998 21.4842 26.935 21.3547C26.8702 21.2253 26.8055 21.0959 26.8055 20.9017C26.8055 20.7723 26.8702 20.6429 26.935 20.5135C26.8055 20.5782 26.6759 20.6429 26.5463 20.7076C26.352 20.7723 26.2224 20.9017 26.0281 20.9665V21.0312C26.0929 21.0959 26.2224 21.0959 26.352 21.0959ZM25.1859 17.6662C25.1211 17.6662 25.1211 17.6662 25.0564 17.6662C25.0564 17.925 24.9916 18.1839 25.0564 18.4427C25.0564 18.5721 25.1859 18.7663 25.3155 18.8957C25.3155 18.9604 25.4451 18.8957 25.5098 18.8957C25.5746 18.8957 25.5746 18.7663 25.5746 18.7016C25.5098 18.378 25.3803 17.9897 25.1859 17.6662ZM26.1577 19.1545C26.1577 19.0898 26.1577 19.0898 26.0929 19.0251C25.8337 19.0898 25.5746 19.0898 25.3155 19.1545C25.0564 19.284 24.9916 19.4781 25.1859 19.6075C25.5746 19.4781 25.8985 19.3487 26.1577 19.1545Z" fill="#878787"/>
<path d="M39.4379 15.919C39.3731 15.7896 39.2435 15.7896 39.2435 15.7249C39.2435 15.6602 39.3083 15.5955 39.3731 15.5955C39.4379 15.5955 39.5026 15.6602 39.5026 15.7249C39.5674 15.7249 39.5026 15.7896 39.4379 15.919Z" fill="#878787"/>
<path d="M39.3731 14.8836C39.2435 14.9483 39.2435 15.0778 39.1787 15.0778C39.1139 15.0778 39.0492 15.0131 38.9844 14.9483C39.0492 14.8836 39.0492 14.8189 39.1139 14.8189C39.1787 14.7542 39.2435 14.8189 39.3731 14.8836Z" fill="#878787"/>
<path d="M38.3366 15.4012C38.4014 15.5307 38.4661 15.5954 38.4661 15.5954C38.4661 15.6601 38.3366 15.7248 38.3366 15.7248C38.2718 15.7248 38.207 15.6601 38.207 15.5954C38.1422 15.5954 38.2718 15.5307 38.3366 15.4012Z" fill="#878787"/>
<path d="M31.7936 14.8836C31.664 14.9483 31.5993 15.013 31.5345 15.013C31.4697 15.013 31.4049 14.9483 31.3401 14.8836C31.4049 14.8189 31.4697 14.7542 31.5345 14.7542C31.5993 14.7542 31.664 14.8189 31.7936 14.8836Z" fill="#878787"/>
<path d="M30.3684 15.3366C30.2389 15.4013 30.1741 15.466 30.1093 15.466C30.0445 15.466 29.9797 15.4013 29.9797 15.3366C29.9797 15.2719 30.0445 15.2072 30.1093 15.2072C30.1741 15.2072 30.2389 15.2719 30.3684 15.3366Z" fill="#878787"/>
<path d="M32.3119 15.7895C32.2471 15.6601 32.1823 15.5954 32.1823 15.5954C32.1823 15.5307 32.2471 15.466 32.3119 15.4012C32.3767 15.466 32.4414 15.5307 32.4414 15.5307C32.4414 15.5954 32.3767 15.6601 32.3119 15.7895Z" fill="#878787"/>
<path d="M30.8867 16.0484C30.8219 15.919 30.7571 15.8543 30.7571 15.8543C30.7571 15.7896 30.8867 15.7249 30.8867 15.7249C30.9515 15.7249 31.0163 15.7896 31.0811 15.8543C31.0163 15.919 30.9515 15.919 30.8867 16.0484Z" fill="#878787"/>
</svg>
