<svg width="92" height="28" viewBox="0 0 92 28" fill="none" xmlns="http://www.w3.org/2000/svg">
<path d="M39.068 16.6904C39.068 16.3668 39.3271 16.0433 39.7158 16.0433H43.8618C45.2223 16.0433 46.3236 16.4315 47.0362 17.1433C47.5544 17.661 47.8783 18.4376 47.8783 19.3435C47.8783 21.1555 46.6474 22.2555 44.8983 22.5791L47.684 26.1382C47.8135 26.2676 47.8783 26.3971 47.8783 26.5912C47.8783 26.9148 47.5544 27.2383 47.2305 27.2383C46.9714 27.2383 46.777 27.1089 46.6474 26.9148L43.5379 22.8379H40.3636V26.5912C40.3636 26.9148 40.1045 27.2383 39.7158 27.2383C39.3919 27.2383 39.068 26.9795 39.068 26.5912V16.6904ZM43.7971 21.7379C45.4814 21.7379 46.6474 20.8966 46.6474 19.4082V19.3435C46.6474 17.9846 45.611 17.1433 43.7971 17.1433H40.3636V21.6731H43.7971V21.7379ZM49.9513 26.3971L54.486 16.4962C54.6156 16.1727 54.8747 15.9138 55.2634 15.9138H55.3282C55.7169 15.9138 55.976 16.108 56.1056 16.4962L60.6403 26.3971C60.7051 26.5265 60.7051 26.5912 60.7051 26.7206C60.7051 27.0442 60.4459 27.303 60.122 27.303C59.7981 27.303 59.6038 27.1089 59.4742 26.8501L58.3081 24.2616H52.2187L51.0526 26.8501C50.923 27.1089 50.7287 27.303 50.4696 27.303C50.1457 27.303 49.8865 27.0442 49.8865 26.7206C49.8217 26.6559 49.8866 26.5265 49.9513 26.3971ZM57.7899 23.1615L55.1986 17.4669L52.6074 23.1615H57.7899ZM63.102 16.6904C63.102 16.3668 63.3611 16.0433 63.7498 16.0433H66.9889C70.4871 16.0433 72.9488 18.4376 72.9488 21.6084V21.6731C72.9488 24.844 70.5519 27.2383 66.9889 27.2383H63.7498C63.4259 27.2383 63.102 26.9795 63.102 26.5912V16.6904ZM66.9889 26.0735C69.8393 26.0735 71.5884 24.1322 71.5884 21.6731C71.5884 19.2141 69.7745 17.2728 66.9889 17.2728H64.3976V26.1382H66.9889V26.0735ZM75.6696 16.6257V26.6559C75.6696 26.9795 75.9287 27.303 76.3174 27.303C76.6413 27.303 76.9652 27.0442 76.9652 26.6559V16.6257C76.9652 16.3021 76.7061 15.9785 76.3174 15.9785C75.9935 15.9785 75.6696 16.2374 75.6696 16.6257ZM79.6861 21.6731C79.6861 18.567 82.0182 15.8491 85.3868 15.8491C88.7555 15.8491 91.0876 18.5023 91.0876 21.6084V21.6731C91.0876 24.7793 88.7555 27.4325 85.3868 27.4325C82.0182 27.4325 79.6861 24.7793 79.6861 21.6731ZM89.792 21.6731C89.792 19.0847 87.9133 17.0139 85.3868 17.0139C82.8604 17.0139 81.0465 19.0847 81.0465 21.6084V21.6731C81.0465 24.1969 82.9252 26.2676 85.4516 26.2676C87.9781 26.2676 89.792 24.1969 89.792 21.6731Z" fill="#878787"/>
<path d="M40.9467 3.68338C41.9832 3.68338 42.8254 2.97155 42.8254 1.93617C42.8254 0.836078 41.9832 0.188965 40.9467 0.188965C39.9102 0.188965 39.068 0.90079 39.068 1.93617C39.1328 3.03626 39.9102 3.68338 40.9467 3.68338ZM42.6958 13.3901V5.62472C42.6958 4.52463 41.4002 4.3952 41.4002 4.3952H40.4932C40.4932 4.3952 39.1976 4.45991 39.1976 5.62472V13.3901H42.6958ZM45.0279 1.15964H48.3966V5.75414H52.7369V1.15964H56.1056V13.3901H52.7369V8.73086H48.3966V13.3901H45.0279V1.15964ZM57.0773 8.73086C57.0773 5.94827 59.0207 3.74809 61.8711 3.74809C65.1102 3.74809 66.665 6.14241 66.665 8.925C66.665 9.11913 66.665 9.37798 66.665 9.63682H60.3164C60.5755 10.6722 61.3529 11.1899 62.3894 11.1899C63.1667 11.1899 63.8146 10.8663 64.4624 10.2192L66.2115 11.7076C65.3046 12.8724 64.0089 13.6489 62.1303 13.6489C59.1503 13.6489 57.0773 11.6429 57.0773 8.73086ZM63.4907 7.88962C63.3611 6.85423 62.7781 6.14241 61.8711 6.14241C61.029 6.14241 60.3811 6.85423 60.2516 7.88962H63.4907ZM66.9889 10.6722C66.9889 8.66615 68.4789 7.63077 70.6814 7.63077C71.5236 7.63077 72.4305 7.8249 72.9488 8.01904V7.88962C72.9488 6.91895 72.3657 6.33654 71.0701 6.33654C70.0984 6.33654 69.321 6.53068 68.4789 6.85423L67.7663 4.52463C68.8028 4.07165 69.9688 3.8128 71.5884 3.8128C73.2727 3.8128 74.4388 4.20107 75.2162 4.97761C75.9288 5.68943 76.2526 6.6601 76.2526 8.01904V13.4548H72.9488V12.4841C72.301 13.1959 71.394 13.6489 70.1632 13.6489C68.3493 13.5842 66.9889 12.5488 66.9889 10.6722ZM73.0136 9.96038V9.5074C72.6897 9.37798 72.2362 9.24855 71.7179 9.24855C70.7462 9.24855 70.228 9.70153 70.228 10.4134V10.4781C70.228 11.1252 70.7462 11.5135 71.394 11.5135C72.301 11.5135 73.0136 10.931 73.0136 9.96038ZM77.2244 3.94222H80.5282V5.81885C81.0465 4.52463 81.9534 3.68338 83.5082 3.74809V7.2425H83.2491C81.4999 7.2425 80.5282 8.21317 80.5282 10.4134V13.3254H77.2244V3.94222ZM85.5812 10.4781V6.59539H84.4799V3.94222H85.5812V1.5479H88.8851V3.94222H91.0876V6.59539H88.8851V9.83096C88.8851 10.4781 89.209 10.8016 89.792 10.8016C90.2455 10.8016 90.6342 10.6722 91.0228 10.4781V13.0665C90.4398 13.3901 89.6624 13.5842 88.6907 13.5842C86.7473 13.5842 85.5812 12.743 85.5812 10.4781Z" fill="#878787"/>
<path d="M25.5287 0.83606C22.2896 0.83606 19.3744 2.58327 17.7549 5.10701C16.0705 2.58327 13.2201 0.83606 9.98107 0.83606C4.86332 0.83606 0.717285 4.97759 0.717285 10.1545C0.717285 13.0665 2.27205 15.9138 4.34506 17.5963C4.40984 17.7257 9.59238 22.5144 14.1919 26.7206V19.9259C14.1919 15.2667 21.3179 15.3314 21.3179 19.9259V26.7853L30.5816 17.9846C32.849 16.1079 34.7924 13.4548 34.7924 10.2192C34.7924 5.0423 30.6464 0.83606 25.5287 0.83606ZM9.33325 17.5316C9.20369 17.661 9.00934 17.7257 8.87977 17.7257C8.75021 17.7257 8.55586 17.661 8.42629 17.5316C5.64068 15.0726 4.21549 12.4841 4.21549 9.89565C4.21549 7.63075 5.57592 5.10701 7.3898 3.9422C7.71371 3.74807 8.1024 3.81278 8.29674 4.13634C8.49109 4.4599 8.42629 4.84816 8.10239 5.0423C6.67719 5.94826 5.51112 8.08373 5.51112 9.89565C5.51112 12.0958 6.74198 14.3607 9.26847 16.5609C9.59237 16.8198 9.59238 17.2727 9.33325 17.5316ZM13.4793 15.1373C13.3497 15.3314 13.1554 15.4608 12.8962 15.4608C12.7667 15.4608 12.7019 15.4608 12.5723 15.3961C10.6937 14.3607 9.39802 12.29 9.39802 10.2192C9.39802 8.27787 10.4993 6.53066 12.1836 5.6247C12.5075 5.43057 12.8962 5.55999 13.0258 5.88355C13.2201 6.2071 13.0906 6.59537 12.7667 6.72479C11.471 7.43662 10.6937 8.73085 10.6937 10.2192C10.6937 11.837 11.7302 13.4548 13.2201 14.296C13.5441 14.4254 13.6736 14.8137 13.4793 15.1373ZM17.7549 13.4548C16.2001 13.4548 14.9692 12.2253 14.9692 10.6722C14.9692 9.11911 16.2001 7.8896 17.7549 7.8896C19.3096 7.8896 20.5405 9.11911 20.5405 10.6722C20.5405 12.2253 19.2448 13.4548 17.7549 13.4548ZM22.8078 15.3961C22.6783 15.4608 22.6135 15.4608 22.4839 15.4608C22.2896 15.4608 22.0304 15.3314 21.9009 15.1373C21.7065 14.8137 21.8361 14.4254 22.16 14.2313C23.65 13.3901 24.6217 11.7723 24.6865 10.1545C24.6865 8.66613 23.9091 7.37191 22.6135 6.66008C22.2896 6.46595 22.16 6.07768 22.3543 5.81883C22.5487 5.49528 22.9374 5.36585 23.1965 5.55999C24.8808 6.46595 25.9821 8.21315 25.9821 10.1545C25.9174 12.2253 24.6865 14.296 22.8078 15.3961ZM31.1647 9.96036C31.1647 12.5488 29.7395 15.1373 26.9539 17.5963C26.8243 17.7257 26.6947 17.7904 26.5004 17.7904C26.306 17.7904 26.1765 17.7257 26.0469 17.5963C25.7878 17.3375 25.8525 16.9492 26.1117 16.6903C28.5734 14.4902 29.869 12.2253 29.869 10.0251C29.869 8.21315 28.7677 6.07768 27.2778 5.17172C26.9539 4.97759 26.889 4.58932 27.0834 4.26576C27.2777 3.9422 27.6664 3.87749 27.9904 4.07163C29.8042 5.10701 31.1647 7.63075 31.1647 9.96036Z" fill="#878787"/>
</svg>
