<svg width="111" height="28" viewBox="0 0 111 28" fill="none" xmlns="http://www.w3.org/2000/svg">
<path d="M4.04559 9.90784L9.35769 21.1029H11.7546L12.6615 19.4204L8.19159 9.90784H4.04559Z" fill="#878787"/>
<path d="M18.3622 15.2789L15.771 9.90784H13.2445L11.3658 13.9847L13.3093 18.1909L14.6697 15.6024L17.1962 21.1029H19.6579L25.0347 9.90784H21.0183L18.3622 15.2789Z" fill="#878787"/>
<path fill-rule="evenodd" clip-rule="evenodd" d="M14.6049 27.4446C6.6368 27.4446 0.936035 21.6206 0.936035 13.8553C0.936035 5.63691 7.28462 0.265869 14.6049 0.265869C21.9253 0.265869 28.2091 5.70162 28.2091 13.8553C28.2091 22.0089 21.8605 27.4446 14.6049 27.4446ZM14.5402 2.01308C7.86767 2.01308 2.68511 6.93114 2.68511 13.92C2.68511 20.4558 7.21985 25.8269 14.5402 25.8269C21.1479 25.8269 26.3304 20.9735 26.3304 13.92C26.3304 6.86643 21.1479 2.01308 14.5402 2.01308Z" fill="#878787"/>
<path d="M58.5916 3.24255L56.389 8.16062L53.9921 3.24255H51.5304L49.1335 8.16062L47.1252 3.24255H42.8496L47.3196 13.4022H49.8461L52.5021 8.41946L54.9638 13.4022H57.6199L61.8955 3.24255H58.5916Z" fill="#878787"/>
<path d="M62.9321 3.24255L61.7012 6.08985L63.3855 9.39013H60.3408L59.3043 11.8492H64.3573L65.0051 13.4022H68.7624L64.0982 3.24255H62.9321Z" fill="#878787"/>
<path d="M67.9851 8.16066C67.9851 10.2961 69.6694 13.467 73.5563 13.467C74.8519 13.467 76.0827 13.2081 76.9897 12.6257V9.77844C75.9532 10.3608 75.3702 10.3608 74.4632 10.3608C72.8437 10.3608 71.8072 9.5196 71.8072 8.16066C71.8072 6.73701 72.6493 5.76634 74.2689 5.76634C75.2406 5.76634 76.1475 6.15461 77.1193 6.73701L77.184 3.69558C76.2771 3.30731 75.1758 3.04846 74.0098 3.04846C70.5116 3.11317 67.9851 5.44278 67.9851 8.16066Z" fill="#878787"/>
<path d="M90.6586 13.4022H98.6267V11.0726H94.3511V9.39013H98.1085V7.25466H94.3511V5.50745H98.6267V3.24255H90.6586V13.4022Z" fill="#878787"/>
<path d="M86.059 3.24255L81.8482 7.64293V3.24255H78.2204L78.1556 13.4022H81.8482V8.74302L85.6703 13.3375H89.9459L85.476 7.96648L89.9459 3.24255H86.059Z" fill="#878787"/>
<path d="M107.631 8.74302C109.38 8.29004 109.64 7.18995 109.64 6.21928C109.64 4.79563 109.121 3.24255 105.299 3.24255H99.8575V5.50745H105.234C105.753 5.50745 106.206 5.7663 106.206 6.3487C106.206 6.99581 105.753 7.18995 105.234 7.18995H99.8575V13.4669H103.55V9.45484H104.392L107.113 13.3375H111C111 13.3375 108.085 9.39013 107.631 8.74302Z" fill="#878787"/>
<path d="M57.3607 25.2444H65.3289V22.8501H61.0533V21.2323H64.8754V19.0321H61.0533V17.2849H65.3289V15.02H57.3607V25.2444Z" fill="#878787"/>
<path d="M44.6637 15.02V25.2444H47.9028V20.0675L52.7614 25.2444H55.6118V15.02H52.4375V20.1322L47.5141 15.02H44.6637Z" fill="#878787"/>
<path d="M99.7927 15.02V25.2444H103.032V20.0675L107.89 25.2444H110.741V15.02H107.567V20.1322L102.643 15.02H99.7927Z" fill="#878787"/>
<path d="M66.8188 15.02V21.4264C66.8188 21.4264 66.8836 25.5033 71.9366 25.5033C76.9896 25.5033 76.9896 21.4264 76.9896 21.4264V15.02H73.8801L73.8153 20.844C73.8153 20.844 73.5561 22.656 71.9366 22.656C70.3171 22.656 70.0579 20.7793 70.0579 20.7793V15.02H66.8188Z" fill="#878787"/>
<path d="M86.1239 15.02V17.2202H82.6257C82.6257 17.2202 81.7187 17.2849 81.7187 17.932C81.7187 18.1909 81.9131 18.385 82.1722 18.5144C82.6905 18.9027 85.0874 19.8087 85.0874 19.8087C85.0874 19.8087 86.7717 20.5205 86.7717 22.1383C86.7717 23.7561 85.7352 25.1797 83.4031 25.1797H77.9614V22.7207H82.4961C82.4961 22.7207 83.2735 22.7207 83.2735 22.203C83.2735 22.203 83.4031 21.8794 82.82 21.6206L80.0992 20.4558C80.0992 20.4558 78.1558 19.7439 78.1558 17.932C78.1558 17.932 78.1558 15.02 81.0709 15.02H86.1239Z" fill="#878787"/>
<path fill-rule="evenodd" clip-rule="evenodd" d="M93.0554 25.3739C89.8811 25.3739 87.549 23.109 87.549 20.0676C87.549 16.8967 90.0754 14.7612 93.0554 14.7612C95.9706 14.7612 98.4971 16.8967 98.4971 20.0676C98.5619 23.2384 96.0354 25.3739 93.0554 25.3739ZM93.1202 17.6732C91.9541 17.6732 91.0472 18.6439 91.0472 20.0676C91.0472 21.4265 91.8246 22.4619 93.1202 22.4619C94.2863 22.4619 95.1932 21.4912 95.1932 20.0676C95.1932 18.6439 94.2863 17.6732 93.1202 17.6732Z" fill="#878787"/>
</svg>
