<svg width="66" height="38" viewBox="0 0 66 38" fill="none" xmlns="http://www.w3.org/2000/svg">
<path d="M61.0608 0.919452C61.5142 0.984163 61.9677 1.04887 62.3564 1.17829C64.2998 1.69598 65.2716 3.05492 65.142 5.25511C65.0772 6.09636 64.8829 6.93761 64.7533 7.77886C64.6885 7.973 64.6237 8.0377 64.4294 8.0377C62.9394 8.0377 61.4494 8.0377 60.0242 8.0377C59.8299 8.0377 59.7651 7.973 59.8299 7.77886C59.9595 7.06704 60.1538 6.41991 60.2186 5.70809C60.2834 4.99626 60.1538 4.47858 59.7651 4.34916C59.2469 4.09031 58.4047 4.34915 58.016 4.80213C57.6273 5.25511 57.433 5.83752 57.2386 6.41992C56.6556 8.36126 56.2021 10.432 55.8134 12.4381C55.6191 13.4735 55.36 14.5088 55.36 15.6089C55.36 15.6736 55.36 15.8031 55.36 15.8678C55.36 16.5796 55.5543 16.9679 56.0078 17.0973C56.5908 17.2914 57.3034 17.0973 57.6921 16.5796C57.9512 16.1913 58.1456 15.7384 58.3399 15.2854C58.5991 14.4441 58.7934 13.6029 58.9877 12.7616C59.0525 12.5675 59.1173 12.5028 59.2469 12.5028C60.7368 12.5028 62.2268 12.5028 63.7168 12.5028C63.7816 12.5028 63.9759 12.4381 63.9111 12.6322C63.5872 14.25 63.1985 15.8678 62.2916 17.2914C61.1255 19.0386 59.4412 20.0093 57.433 20.3329C55.8782 20.527 54.3882 20.527 52.8983 20.074C51.3435 19.621 50.5661 18.5209 50.3718 16.9679C50.1774 15.5442 50.3718 14.1853 50.5661 12.8263C50.9548 10.6262 51.4083 8.49068 52.1857 6.41992C52.5744 5.31983 53.0926 4.28445 53.8052 3.37849C55.0361 1.82541 56.6556 1.11359 58.5343 0.919452C58.5991 0.919452 58.7286 0.919448 58.7934 0.854736C59.506 0.919448 60.2834 0.919452 61.0608 0.919452Z" fill="#878787"/>
<path d="M12.5393 37.3519C12.5393 36.7048 12.4098 36.0577 12.2802 35.4106C11.8915 32.7574 11.5676 30.0395 11.1141 27.3864C10.9846 26.5451 11.1141 25.898 11.6324 25.2509C11.9563 24.7979 12.2154 24.3449 12.5393 23.892C12.6689 23.892 12.6689 24.0214 12.7337 24.0861C13.1224 24.6685 13.5111 25.2509 13.8998 25.8333C14.0941 26.1569 14.1589 26.4157 14.0941 26.804C13.6406 30.169 13.1224 33.534 12.6689 36.9637C12.6689 37.0931 12.5393 37.2225 12.6041 37.4166C12.6041 37.3519 12.5393 37.3519 12.5393 37.3519Z" fill="#878787"/>
<path d="M21.2849 20.1387C21.7383 19.7505 22.127 19.4269 22.5157 19.1034C22.5805 19.0387 22.71 19.0386 22.8396 19.0386C23.2283 19.0386 23.617 19.0386 24.0057 19.0386C24.2 19.0386 24.3296 18.9739 24.3944 18.7798C26.4674 13.1499 28.5404 7.45531 30.6134 1.82542C30.743 1.56658 30.8077 1.43716 31.1317 1.43716C31.9738 1.43716 31.9738 1.43716 32.2977 2.27841C34.3707 7.77888 36.4437 13.2793 38.5168 18.7151C38.5815 18.8445 38.5168 19.0386 38.7111 19.0386C38.9702 19.0386 39.2294 19.1034 39.4885 19.0386C39.618 18.9739 39.5533 18.8445 39.5533 18.7798C40.1363 16.0619 40.7841 13.344 41.3671 10.6262C41.6911 9.00839 42.0797 7.45532 42.4037 5.83753C42.4684 5.57869 42.4036 5.51398 42.1445 5.51398C41.108 5.51398 40.0067 5.51398 38.9702 5.51398C38.7759 5.51398 38.6463 5.51397 38.7111 5.25513C38.9702 4.02561 39.2294 2.86081 39.4885 1.6313C39.5533 1.37245 39.618 1.30774 39.8772 1.30774C43.8936 1.30774 47.9101 1.30774 51.9265 1.30774C52.2505 1.30774 52.2505 1.37245 52.1857 1.6313C51.9265 2.7961 51.6674 4.02562 51.4083 5.19042C51.3435 5.38455 51.2787 5.44926 51.0844 5.44926C49.9831 5.44926 48.9466 5.44926 47.8453 5.44926C47.5862 5.44926 47.5214 5.51397 47.4566 5.77282C46.4201 10.432 45.3836 15.156 44.4119 19.8152C44.3471 20.074 44.2823 20.1387 44.0232 20.1387C40.525 20.1387 37.0268 20.1387 33.5286 20.1387C33.2694 20.1387 33.1399 20.074 33.1399 19.8152C33.1399 19.0386 33.1399 19.0386 33.9173 19.0386C34.1764 19.0386 34.5651 19.1681 34.7594 18.9739C34.8242 18.8445 34.6299 18.4562 34.5003 18.1974C34.0468 17.0973 33.6581 15.9325 33.2047 14.8324C33.1399 14.6383 33.0103 14.5089 32.816 14.5089C31.0021 14.5089 29.1882 14.5089 27.3095 14.5089C27.1152 14.5089 26.9856 14.5736 26.9208 14.7677C26.4674 16.0619 26.0139 17.4209 25.4957 18.7151C25.4309 18.9739 25.4309 19.0386 25.69 19.0386C26.273 19.0386 26.7913 19.0386 27.3743 19.0386C27.5687 19.0386 27.6334 19.1034 27.6334 19.2328C27.6982 20.074 27.6982 20.074 26.7913 20.074C25.0422 20.074 23.2931 20.074 21.544 20.074C21.6088 20.1387 21.4792 20.1387 21.2849 20.1387ZM30.1599 6.16109C30.1599 6.2258 30.0951 6.2258 30.0951 6.29051C29.3178 8.42599 28.6052 10.5615 27.8278 12.6969C27.763 12.9558 27.8278 12.9558 28.0221 12.9558C28.9291 12.9558 29.9008 12.9558 30.8077 12.9558C31.3908 12.9558 31.9738 12.9558 32.6216 12.9558C31.7795 10.6262 30.9373 8.42599 30.1599 6.16109Z" fill="#878787"/>
<path d="M19.1471 18.0679C19.1471 15.4148 19.1471 12.6969 19.1471 10.0437C19.1471 8.62009 19.1471 7.19644 19.1471 5.8375C19.1471 5.70808 19.1471 5.57865 19.1471 5.44923H19.0823C16.9445 10.5614 14.8067 15.6736 12.6041 20.9152C10.272 15.7383 8.00464 10.6261 5.73728 5.44923C5.60772 5.57865 5.6725 5.70808 5.6725 5.8375C5.6725 9.39663 5.6725 13.0205 5.6725 16.5796C5.6725 16.9679 5.6725 16.9679 5.28381 16.8384C4.57121 16.5796 4.57122 16.5796 4.57122 15.8031C4.57122 11.5321 4.57122 7.26115 4.57122 3.05491C4.57122 2.73135 4.50643 2.66664 4.18253 2.66664C3.66427 2.66664 3.14602 2.66664 2.56299 2.66664C2.36864 2.66664 2.30386 2.60193 2.30386 2.4078C2.23908 1.50184 2.23908 1.50183 3.2108 1.50183C4.70078 1.50183 6.12597 1.50183 7.61595 1.50183C7.87508 1.50183 7.93986 1.56655 8.06942 1.76068C9.88331 6.03163 11.6972 10.2379 13.5111 14.5088C13.5759 14.6382 13.6406 14.7677 13.7054 14.9618C14.0293 14.1853 14.3532 13.4734 14.6124 12.7616C16.1671 9.13778 17.7219 5.51394 19.2119 1.8901C19.3414 1.63126 19.471 1.50183 19.7301 1.50183C21.1553 1.50183 22.5805 1.50183 24.0057 1.50183C24.2648 1.50183 24.3296 1.56654 24.3296 1.82539C24.3296 2.66664 24.3296 2.66664 23.4874 2.66664C23.1635 2.66664 22.7748 2.53722 22.5805 2.73135C22.4509 2.92549 22.5157 3.31375 22.5157 3.63731C22.5157 7.97297 22.5157 12.3086 22.5157 16.6443C21.4792 17.162 20.3131 17.615 19.1471 18.0679Z" fill="#878787"/>
<path d="M0.48996 30.0396C1.46168 29.263 2.36863 28.4865 3.34035 27.7747C5.15423 26.351 6.90334 24.9274 8.71722 23.5037C8.91157 23.3096 9.10591 23.2449 9.36504 23.2449C10.1424 23.3096 10.855 23.3743 11.6324 23.3743C11.8267 23.3743 11.8915 23.439 11.762 23.6331C11.3733 24.345 11.0494 25.1215 10.6607 25.8333C10.5959 25.9628 10.5311 26.0275 10.3368 26.0922C7.09768 27.3864 3.92338 28.6806 0.684305 30.0396C0.619523 30.0396 0.554741 30.1043 0.48996 30.0396Z" fill="#878787"/>
<path d="M19.1471 18.068C20.3131 17.615 21.4792 17.162 22.6453 16.6443C23.2931 16.3855 23.9409 16.1266 24.5887 15.8678C24.5887 16.0619 24.4591 16.0619 24.3944 16.1266C21.7383 18.2621 19.0823 20.3976 16.4262 22.5331C16.2319 22.6625 16.1023 22.7272 15.8432 22.6625C15.001 22.5978 14.2237 22.5978 13.3167 22.5331C13.7702 21.6271 14.1589 20.8506 14.5476 20.0093C14.6123 19.8799 14.7419 19.8799 14.8715 19.8152C16.1671 19.2975 17.4627 18.7798 18.7584 18.2621C18.8879 18.1327 19.0175 18.1327 19.1471 18.068Z" fill="#878787"/>
<path d="M24.7183 30.0396C24.1353 29.9101 23.617 29.6513 23.0988 29.3925C20.3779 28.2924 17.6571 27.1923 14.9363 26.0922C14.8067 26.0275 14.6771 26.0275 14.6771 25.898C14.2885 25.0568 13.835 24.2155 13.4463 23.3743C14.3532 23.3096 15.2602 23.2449 16.1671 23.2449C16.2967 23.2449 16.3615 23.3096 16.491 23.3743C19.2119 25.5745 21.9327 27.71 24.6535 29.9101C24.5887 29.9101 24.7183 29.9749 24.7183 30.0396Z" fill="#878787"/>
<path d="M0.48996 15.8031C1.46168 16.1914 2.36863 16.5796 3.34035 16.9679C5.60771 17.8739 7.93984 18.8445 10.2072 19.7505C10.4663 19.8152 10.5959 20.0093 10.7255 20.2035C11.0494 20.8506 11.3733 21.5624 11.6972 22.2095C11.762 22.4036 11.8267 22.4684 11.5676 22.4684C10.7255 22.5331 9.88329 22.5331 9.10591 22.5978C8.97635 22.5978 8.91157 22.5331 8.84679 22.4684C6.06118 20.2682 3.34035 18.068 0.554741 15.8678C0.554741 15.9325 0.48996 15.8678 0.48996 15.8031Z" fill="#878787"/>
<path d="M24.6535 30.0396H24.7191C24.7191 30.105 24.7191 30.0396 24.6535 30.0396C24.7191 30.0396 24.6535 30.0396 24.6535 30.0396Z" fill="#878787"/>
<path d="M0.489105 30.0396C0.489105 30.0396 0.489105 30.1031 0.489105 30.0396C0.425466 30.1031 0.425466 30.1031 0.489105 30.0396C0.425466 30.0396 0.489105 30.0396 0.489105 30.0396Z" fill="#878787"/>
</svg>
