<svg width="80" height="33" viewBox="0 0 80 33" fill="none" xmlns="http://www.w3.org/2000/svg">
<path d="M25.716 19.9385C26.299 19.4855 26.882 19.1619 27.4003 18.7736C28.7607 17.803 30.1211 16.897 31.4815 15.9264C31.6759 15.7969 31.7407 15.7969 31.8702 15.9911C32.9715 17.8677 34.0728 19.6796 35.1741 21.5562C35.1741 21.621 35.2389 21.6857 35.3036 21.7504C34.5263 21.621 33.7489 21.4915 33.0363 21.2974C32.7124 21.2327 32.518 21.2974 32.3237 21.6209C30.6394 24.9212 27.9185 26.8626 24.226 27.445C21.1165 27.8979 18.1365 27.445 15.4805 25.6331C13.7314 24.4683 12.4357 22.8505 11.2697 21.1033C9.7149 18.7737 8.48406 16.3146 7.18843 13.8556C7.05886 13.5967 6.86452 13.4673 6.54061 13.4673C6.2167 13.532 5.89279 13.532 5.5041 13.4673C5.11541 13.4026 4.98584 13.532 4.98584 13.9203C4.98584 15.5381 4.98584 17.2206 4.98584 18.8384C4.98584 19.2266 4.85628 19.2913 4.53238 19.2913C3.43109 19.2913 2.39458 19.2913 1.2933 19.2913C1.03417 19.2913 0.904602 19.2266 0.904602 18.9678C0.904602 13.2732 0.904602 7.57859 0.904602 1.81928C0.904602 1.56044 0.969384 1.49573 1.22851 1.49573C3.62543 1.49573 6.02235 1.49573 8.41927 1.49573C11.0105 1.49573 13.4722 3.69591 13.9905 6.21966C14.5735 8.93753 13.2131 11.3966 11.1401 12.5614C11.0105 12.6261 10.8162 12.6908 11.0105 12.9496C12.2414 14.9557 13.3427 17.0912 14.6383 19.0972C15.6748 20.715 16.9704 22.1386 18.7843 22.9799C21.7643 24.3388 25.9751 23.8211 28.372 20.6503C28.5016 20.4561 28.6311 20.3267 28.2424 20.262C27.4651 20.262 26.6229 20.1326 25.716 19.9385ZM5.11541 7.70801C5.11541 8.35512 5.11541 9.00224 5.11541 9.64935C5.11541 9.90819 5.18019 9.97291 5.43931 9.97291C6.28148 9.97291 7.05886 9.90819 7.90102 9.97291C9.13187 10.0376 10.0388 9.26108 10.2332 8.09628C10.4275 6.86677 9.65012 5.50782 8.28971 5.44311C7.38277 5.44311 6.41104 5.44311 5.5041 5.44311C5.30975 5.44311 5.1802 5.50783 5.24498 5.70196C5.11541 6.34908 5.11541 7.0609 5.11541 7.70801Z" fill="#878787"/>
<path d="M41.2636 19.7444C39.1258 19.7444 37.4414 19.3561 35.9515 18.1913C35.0445 17.4795 34.3967 16.6382 33.9432 15.6028C33.8784 15.4087 33.8784 15.2793 34.0728 15.2146C35.1093 14.6322 36.1458 14.0498 37.1175 13.4674C37.3119 13.3379 37.3766 13.3379 37.4414 13.5968C38.4132 15.6675 40.4214 16.1205 42.3 15.7323C43.1422 15.5381 43.5957 14.9557 43.4661 14.2439C43.4013 13.7909 43.0774 13.4674 42.6887 13.2732C42.1057 12.9497 41.4579 12.7555 40.8101 12.5614C39.7088 12.2378 38.5427 11.9143 37.4414 11.3966C35.4332 10.3612 34.4615 8.74343 34.591 6.54325C34.7206 4.27835 35.9515 2.78998 38.0245 1.94874C40.8749 0.783933 44.9561 1.49576 46.8995 5.05488C47.0939 5.37844 47.0939 5.50786 46.7052 5.702C45.7983 6.21969 44.8913 6.73738 43.9844 7.25507C43.7252 7.38449 43.5957 7.4492 43.4013 7.12565C42.624 5.57257 41.1988 5.18431 39.7088 5.50786C39.1257 5.63728 38.7371 5.96084 38.6075 6.60795C38.5427 7.19036 38.8666 7.64334 39.3201 7.9669C40.2271 8.5493 41.2636 8.80814 42.2353 9.06699C43.207 9.39054 44.1139 9.64939 45.0209 10.1671C46.7052 11.073 47.5474 12.4967 47.5474 14.438C47.5474 16.3794 46.77 17.8677 45.0857 18.9031C43.79 19.4855 42.4296 19.7444 41.2636 19.7444Z" fill="#878787"/>
<path d="M52.7299 12.0437C53.2481 11.2672 53.8312 10.4906 54.3494 9.64938C54.9972 8.74342 55.6451 7.77276 56.2281 6.8668C56.2929 6.73737 56.3576 6.60795 56.552 6.60795C57.9772 6.60795 59.4024 6.60795 60.8276 6.60795C60.7628 6.80208 60.698 6.93151 60.5685 6.99622C59.208 8.87285 57.8476 10.7495 56.4872 12.6261C56.2929 12.8849 56.2929 13.0144 56.4872 13.2732C57.9124 15.1498 59.3376 17.0912 60.7628 18.9678C60.8276 19.0325 60.9572 19.0972 60.9572 19.2914C60.6332 19.2914 60.3741 19.2914 60.0502 19.2914C59.0785 19.2914 58.042 19.2914 57.0703 19.2914C56.8111 19.2914 56.6168 19.2267 56.4872 18.9678C55.3212 17.35 54.2199 15.797 53.0538 14.1792C52.9242 14.0497 52.8594 13.9203 52.7299 13.7262C52.6003 13.8556 52.6651 13.985 52.6651 14.1145C52.6651 15.6675 52.6651 17.2206 52.6651 18.7737C52.6651 19.0972 52.6003 19.162 52.2764 19.162C51.2399 19.162 50.2034 19.162 49.1669 19.162C48.9078 19.162 48.843 19.0972 48.843 18.8384C48.843 13.1438 48.843 7.4492 48.843 1.68989C48.843 1.43104 48.9078 1.36633 49.1669 1.36633C50.2682 1.36633 51.3047 1.36633 52.406 1.36633C52.7299 1.36633 52.7299 1.56046 52.7299 1.7546C52.7299 4.92545 52.7299 8.16102 52.7299 11.3319C52.7299 11.4613 52.7299 11.5907 52.7299 11.7849C52.6651 12.0437 52.7299 12.0437 52.7299 12.0437Z" fill="#878787"/>
<path d="M19.1082 15.1499C19.6265 16.0558 20.3391 16.3794 21.3108 16.4441C22.4121 16.5088 23.4486 16.25 24.226 15.344C24.3555 15.2146 24.4851 15.2146 24.6147 15.2793C25.5216 15.6676 26.3638 15.9911 27.2707 16.3147C27.5298 16.3794 27.4651 16.5088 27.3355 16.6382C26.5581 17.9325 25.4568 18.7737 24.0964 19.2267C22.4769 19.7444 20.8573 19.8738 19.2378 19.2914C16.9057 18.5149 15.61 16.7677 15.2213 14.438C14.8974 12.5614 15.2213 10.8142 16.4522 9.32584C17.4239 8.09633 18.7195 7.38451 20.2743 7.12566C22.4121 6.73739 24.3555 7.19038 25.9103 8.80816C27.2059 10.1671 27.7242 11.8496 27.7242 13.6615C27.7242 13.8556 27.6594 13.9204 27.4651 13.9851C26.0399 14.1792 24.6147 14.3733 23.1895 14.5675C21.7643 14.8263 20.4686 15.0204 19.1082 15.1499ZM21.4404 10.2318C19.8856 10.3612 19.1082 10.9436 18.7843 12.1084C18.6548 12.4967 18.8491 12.4967 19.1082 12.432C20.5982 12.2379 22.0234 12.0437 23.5134 11.7849C23.7725 11.7202 23.7725 11.6555 23.6429 11.3966C23.0599 10.6201 22.2825 10.2318 21.4404 10.2318Z" fill="#878787"/>
<path d="M56.8111 26.345C56.6168 26.4097 56.6168 26.5391 56.552 26.6685C55.8394 27.898 55.062 29.0628 54.3494 30.2924C54.1551 30.6806 54.0255 30.6806 53.7664 30.2924C53.0538 29.1923 52.406 28.0275 51.6934 26.9274C51.5638 26.7332 51.4343 26.5391 51.3047 26.345C51.1104 26.4744 51.1751 26.6685 51.1751 26.7979C51.1751 28.4157 51.1751 30.0982 51.1751 31.716C51.1751 32.0396 51.1103 32.169 50.7864 32.1043C50.2682 32.1043 49.6851 32.1043 49.1669 32.1043C48.9726 32.1043 48.843 32.0396 48.843 31.8454C48.843 28.6099 48.843 25.3743 48.843 22.2034C48.843 22.0093 48.9078 21.9446 49.1021 21.9446C49.6851 21.9446 50.333 21.9446 50.916 21.9446C51.1104 21.9446 51.2399 22.074 51.3047 22.2034C52.0821 23.4329 52.7947 24.6625 53.5721 25.9567C53.7016 26.1508 53.7664 26.2802 53.896 26.4744C54.0903 26.1508 54.2847 25.8273 54.479 25.5037C55.1268 24.4036 55.8394 23.3035 56.4872 22.2034C56.6168 22.0093 56.6816 21.9446 56.9407 21.9446C57.5237 21.9446 58.1068 21.9446 58.6898 21.9446C58.8842 21.9446 59.0137 22.0093 59.0137 22.2681C59.0137 25.5037 59.0137 28.6746 59.0137 31.9101C59.0137 32.1043 58.9489 32.2337 58.7546 32.169C58.1716 32.169 57.5885 32.169 57.0703 32.169C56.7464 32.169 56.6816 32.1043 56.6816 31.7807C56.6816 30.0982 56.6816 28.4804 56.6816 26.7979C56.8111 26.6685 56.8111 26.5391 56.8111 26.345Z" fill="#878787"/>
<path d="M68.9901 10.1671C68.9901 7.19033 68.9901 4.21361 68.9901 1.3016C68.9901 0.978045 69.0549 0.91333 69.3788 0.91333C70.4153 0.91333 71.4518 0.91333 72.4883 0.91333C72.7474 0.91333 72.8122 0.978041 72.8122 1.23689C72.8122 7.19033 72.8122 13.2085 72.8122 19.1619C72.8122 19.4208 72.7474 19.4855 72.4883 19.4855C71.387 19.4855 70.3505 19.4855 69.2492 19.4855C68.9253 19.4855 68.9253 19.3561 68.9253 19.0972C68.9901 16.0558 68.9901 13.0791 68.9901 10.1671Z" fill="#878787"/>
<path d="M79.4847 10.1024C79.4847 13.0791 79.4847 16.0558 79.4847 18.9678C79.4847 19.2914 79.4199 19.3561 79.096 19.3561C78.0595 19.3561 77.0878 19.3561 76.0513 19.3561C75.7922 19.3561 75.6626 19.2914 75.6626 18.9678C75.6626 13.0144 75.6626 7.06094 75.6626 1.10749C75.6626 0.848647 75.7274 0.783936 75.9865 0.783936C77.023 0.783936 78.1243 0.783936 79.1608 0.783936C79.4199 0.783936 79.4847 0.913358 79.4847 1.10749C79.4199 4.14893 79.4847 7.12566 79.4847 10.1024Z" fill="#878787"/>
<path d="M64.7793 26.2802C65.2327 25.6331 65.6214 25.0507 66.0749 24.4683C66.5931 23.7565 67.1114 22.9799 67.6296 22.2681C67.7592 22.074 67.8888 21.9446 68.1479 22.0093C68.8605 22.0093 69.6379 22.0093 70.48 22.0093C69.897 22.8505 69.314 23.6918 68.7309 24.533C68.2775 25.2448 67.7592 25.9567 67.2409 26.6038C67.0466 26.8626 67.0466 27.0568 67.2409 27.3803C68.2775 28.8687 69.314 30.4217 70.3505 31.9101C70.4153 31.9748 70.48 32.1042 70.5448 32.2337C69.7027 32.2337 68.8605 32.2337 68.0831 32.2337C67.8888 32.2337 67.824 32.0395 67.7592 31.9748C66.8523 30.6806 65.9453 29.3217 65.0384 28.0274C64.9736 27.898 64.844 27.8333 64.7793 27.6392C64.6497 27.7686 64.7145 27.898 64.7145 28.0274C64.7145 29.3217 64.7145 30.5512 64.7145 31.8454C64.7145 32.1042 64.6497 32.2337 64.3258 32.2337C63.7427 32.2337 63.1597 32.2337 62.6415 32.2337C62.4471 32.2337 62.3823 32.1689 62.3823 31.9748C62.3823 28.7392 62.3823 25.5684 62.3823 22.3328C62.3823 22.074 62.5119 22.0093 62.7062 22.0093C63.2893 22.0093 63.8075 22.0093 64.3906 22.0093C64.6497 22.0093 64.7793 22.074 64.7793 22.3975C64.7793 23.5623 64.7793 24.7271 64.7793 25.8919C64.7145 25.9567 64.6497 26.0861 64.7793 26.2802Z" fill="#878787"/>
<path d="M73.0713 27.0568C73.0713 25.5037 73.0713 23.8859 73.0713 22.3329C73.0713 22.074 73.1361 21.9446 73.46 21.9446C75.3386 21.9446 77.2173 21.9446 79.096 21.9446C79.4199 21.9446 79.4847 22.074 79.4847 22.3329C79.4847 22.8505 79.4847 23.3035 79.4847 23.8212C79.4847 24.0801 79.4199 24.2095 79.096 24.2095C77.9947 24.2095 76.8934 24.2095 75.7921 24.2095C75.533 24.2095 75.4034 24.2742 75.4034 24.5977C75.4034 24.9213 75.4034 25.2449 75.4034 25.6331C75.4034 25.892 75.533 26.0214 75.7921 26.0214C76.7638 26.0214 77.8003 26.0214 78.7721 26.0214C79.0312 26.0214 79.1608 26.0861 79.1608 26.4097C79.1608 26.9274 79.1608 27.3803 79.1608 27.898C79.1608 28.1569 79.096 28.2863 78.7721 28.2863C77.8003 28.2863 76.8286 28.2863 75.8569 28.2863C75.533 28.2863 75.4034 28.4157 75.4682 28.7393C75.4682 29.0628 75.4682 29.3864 75.4682 29.7747C75.4034 30.1629 75.5978 30.2276 75.9217 30.2276C77.023 30.2276 78.0595 30.2276 79.1608 30.2276C79.4847 30.2276 79.5494 30.3571 79.5494 30.6159C79.5494 31.1336 79.5494 31.6513 79.5494 32.1043C79.5494 32.2984 79.4847 32.4278 79.2903 32.4278C77.3469 32.4278 75.4034 32.4278 73.46 32.4278C73.2009 32.4278 73.2009 32.2984 73.2009 32.1043C73.0713 30.2276 73.0713 28.6098 73.0713 27.0568Z" fill="#878787"/>
<path d="M66.2044 13.0791C66.2044 15.0852 66.2044 17.0265 66.2044 19.0326C66.2044 19.3561 66.1397 19.4856 65.8158 19.4209C64.7792 19.4209 63.7427 19.4209 62.7062 19.4209C62.4471 19.4209 62.3823 19.3561 62.3823 19.0973C62.3823 15.0852 62.3823 11.0731 62.3823 7.06099C62.3823 6.73743 62.5119 6.67273 62.771 6.67273C63.8075 6.67273 64.844 6.67273 65.8805 6.67273C66.2044 6.67273 66.2692 6.73743 66.2692 7.06099C66.2044 9.06704 66.2044 11.0731 66.2044 13.0791Z" fill="#878787"/>
<path d="M62.0584 3.30764C62.0584 2.01341 63.0949 0.978027 64.3906 0.978027C65.6214 0.978027 66.6579 2.01341 66.6579 3.24292C66.6579 4.53715 65.6214 5.50782 64.3258 5.50782C63.0301 5.57253 62.0584 4.53715 62.0584 3.30764Z" fill="#878787"/>
</svg>
