<svg width="78" height="52" viewBox="0 0 78 52" fill="none" xmlns="http://www.w3.org/2000/svg">
<path d="M50.9194 12.3421C50.7251 10.5302 50.3364 8.97714 49.8181 7.6182C49.8181 7.55349 49.7533 7.42406 49.7533 7.42406C49.2999 6.38868 48.7168 5.48272 48.069 4.7709C46.9029 3.47667 45.413 2.76485 43.7934 2.76485C43.7287 2.76485 43.7934 2.76485 43.7934 2.76485C43.5343 2.18244 42.8217 1.72946 42.1739 1.66475C42.1739 1.66475 41.7852 0.176392 40.2952 0.176392C38.7405 0.176392 38.4166 1.60004 38.4166 1.60004C37.7688 1.66475 37.0562 2.18244 36.7971 2.70014C36.7971 2.70014 36.797 2.70014 36.7322 2.70014C35.1127 2.70014 33.6875 3.41196 32.4567 4.70619C31.8089 5.41801 31.2258 6.32397 30.7723 7.35935L30.7076 7.55349C30.1245 8.91243 29.7358 10.4655 29.6063 12.2774C28.6993 21.0134 32.651 31.8202 39.777 33.438C39.9065 33.6322 40.1657 33.9557 40.2952 33.9557C40.4248 33.9557 40.6839 33.6322 40.8135 33.438C47.8099 31.885 51.7616 21.0782 50.9194 12.3421ZM40.2305 0.499948C41.4613 0.499948 41.7204 1.53533 41.7852 1.53533C41.7204 1.53533 41.5909 1.53533 41.5261 1.60004L41.2669 1.66475C40.8135 1.79417 40.4896 2.11773 40.2952 2.506C40.2952 2.506 40.2952 2.57071 40.2305 2.57071C40.2305 2.57071 40.2304 2.506 40.1657 2.506C39.9065 2.11773 39.5826 1.79417 39.1292 1.66475L38.9348 1.60004C38.8701 1.60004 38.7405 1.60004 38.6757 1.53533C38.6757 1.60004 38.9996 0.499948 40.2305 0.499948ZM39.5178 2.18244C39.8417 2.37658 40.0361 2.70014 40.1009 3.02369C40.1657 3.15312 40.2304 3.15312 40.2952 3.02369C40.4248 2.63542 40.6839 2.31187 41.0078 2.11773C41.9148 1.60004 42.8865 1.98831 43.2752 2.76485C43.0809 2.76485 42.9513 2.82956 42.7569 2.89427C42.6921 2.89427 42.5626 2.95898 42.4978 2.95898H42.433C42.0443 3.0884 41.85 3.21782 41.5261 3.47667C41.0078 3.99436 40.5543 4.7709 40.4896 5.80628C40.2304 8.65358 43.4695 8.2006 43.6639 8.2006C44.0526 8.2006 44.3765 7.55349 44.3765 6.64753C44.3765 5.74157 44.0526 5.09445 43.6639 5.09445C43.4047 5.09445 42.9513 5.28859 42.9513 6.06512C42.9513 6.64753 43.2104 7.35935 43.5343 7.42406C43.7286 7.42406 43.8582 7.10051 43.923 6.77695C43.9878 6.5181 43.923 6.06513 43.6639 6.00041C43.5991 6.00041 43.5343 6.00041 43.4695 6.12984C43.4695 6.19455 43.5991 6.32397 43.5991 6.64753C43.5991 7.10051 43.0808 6.90637 43.1456 6.12984C43.2104 5.41801 43.5343 5.48272 43.5991 5.48272C43.7935 5.48272 44.1174 5.87099 44.1174 6.64753C44.1174 7.29464 43.7934 8.07118 43.1456 7.68291C42.6274 7.29464 42.433 6.38868 42.5626 5.74157C42.6274 5.41801 42.8865 4.57676 43.7934 4.57676C45.0243 4.57676 46.1904 5.22388 47.1621 6.45339C47.0973 6.77695 46.3847 8.13589 44.3117 9.30069C43.8582 9.04185 43.4695 8.97714 43.0161 8.91243C42.6274 8.91243 42.1739 8.84771 41.7852 8.97714L40.5544 9.30069C40.36 9.3654 40.2305 9.3654 40.0361 9.30069L38.6757 8.97714C38.2222 8.84771 37.7688 8.91243 37.3153 8.91243C36.9266 8.97714 36.6027 9.10656 36.0844 9.30069L36.0197 9.23598C33.9467 8.00647 33.2988 6.77695 33.1693 6.45339C34.141 5.22388 35.3071 4.57676 36.5379 4.57676C37.4448 4.57676 37.704 5.41801 37.7688 5.74157C37.8983 6.45339 37.704 7.29464 37.1857 7.68291C36.5379 8.07118 36.214 7.35935 36.214 6.64753C36.214 5.87099 36.5379 5.48272 36.7322 5.48272C36.7322 5.48272 37.1209 5.41801 37.1857 6.12984C37.2505 6.90637 36.7322 7.16522 36.7322 6.64753C36.7322 6.32397 36.9266 6.19455 36.8618 6.12984C36.8618 6.06512 36.7323 6.00041 36.6675 6.00041C36.4084 6.06513 36.4083 6.5181 36.4083 6.77695C36.4731 7.10051 36.6027 7.42406 36.7971 7.42406C37.121 7.35935 37.4448 6.64753 37.3801 6.06512C37.3153 5.28859 36.9266 5.09445 36.6675 5.09445C36.2788 5.09445 35.9549 5.74157 35.9549 6.64753C35.9549 7.55349 36.2788 8.2006 36.6675 8.2006C36.8618 8.2006 40.1009 8.65358 39.8417 5.80628C39.777 4.7709 39.2587 3.99436 38.6757 3.41196C38.4166 3.15311 38.0927 3.02369 37.7688 2.89427C37.5096 2.82956 37.3153 2.76485 37.121 2.70014C37.5744 1.98831 38.6109 1.60004 39.5178 2.18244ZM33.3636 13.8305C32.3271 13.7658 31.4849 13.3775 31.0962 13.1834C31.2906 10.3361 32.0032 8.13589 33.0397 6.64753C33.234 7.10051 34.0114 8.33002 35.8901 9.43011C34.4649 10.5302 33.6227 12.4068 33.3636 13.8305ZM36.1492 9.81839C36.6027 9.49483 37.2505 9.3654 37.8335 9.3654C38.87 9.30069 39.6474 9.68896 40.1657 9.68896C40.6839 9.68896 41.5261 9.23598 42.5626 9.3654C43.2104 9.43011 43.7935 9.55954 44.2469 9.81839C46.3847 11.1773 46.7086 14.3482 46.7734 15.4483C46.9029 19.1368 45.7369 21.9841 45.413 22.8254C43.923 26.1256 42.1091 28.3905 40.2952 29.1671L40.1657 29.2318L40.0361 29.1671C38.2222 28.3905 36.4083 26.1256 34.9184 22.8254C34.5297 22.0488 33.3636 19.1368 33.558 15.4483C33.6875 14.3482 34.0114 11.1773 36.1492 9.81839ZM33.3636 14.0893C33.2988 14.607 33.2341 15.06 33.2341 15.3836C33.2341 15.8365 33.2341 16.2895 33.2341 16.7425C33.2341 16.8072 33.2341 16.9366 33.2341 17.0013V17.0661C33.2988 17.972 33.4284 18.878 33.6227 19.7192V19.7839C33.9466 21.337 34.4649 22.5018 34.5945 22.8901C34.9184 23.6019 35.2423 24.249 35.5662 24.8314C34.9184 25.4138 33.8819 25.6727 33.558 25.7374C31.7441 22.1782 30.8371 17.5837 31.0315 13.3775C31.5497 13.6364 32.3271 13.9599 33.3636 14.0893ZM35.7605 25.0256C36.9266 27.0963 38.1575 28.3258 39.0644 28.9729C38.7405 29.8142 37.9631 30.4613 37.704 30.6554C36.1492 29.6201 34.8536 27.9376 33.8171 25.9315C34.141 25.8668 35.0479 25.608 35.7605 25.0256ZM39.1939 29.1024C39.7122 29.4906 40.2305 29.6848 40.2305 29.6848C40.2952 29.6848 40.7487 29.4906 41.2669 29.1024C41.5909 29.8789 42.3035 30.526 42.6274 30.7849C42.1739 31.0437 41.7204 31.3026 41.2022 31.4967V31.432C41.0726 30.9143 40.4248 30.7849 40.1657 30.7849C39.9065 30.7849 39.2587 30.9143 39.1292 31.432V31.4967C38.6757 31.3026 38.1575 31.1084 37.7688 30.7849C38.1575 30.526 38.87 29.8789 39.1939 29.1024ZM41.4613 28.9729C42.3682 28.3258 43.5343 27.0963 44.7004 25.0256C45.3482 25.608 46.2551 25.8668 46.6438 25.9315C45.6073 27.9376 44.3117 29.5553 42.7569 30.6554C42.5626 30.4613 41.7852 29.7495 41.4613 28.9729ZM44.8299 24.8314C45.1538 24.249 45.4777 23.6019 45.8017 22.8901C45.996 22.5018 46.4495 21.337 46.7734 19.7839V19.7192C46.9677 18.8133 47.0973 17.9073 47.1621 17.0661V17.0013C47.1621 16.9366 47.1621 16.8072 47.1621 16.7425C47.1621 16.2895 47.1621 15.8365 47.1621 15.3836C47.1621 15.1247 47.0973 14.6717 47.0325 14.0893C48.069 14.0246 48.8464 13.7011 49.2351 13.4422C49.3646 17.5837 48.4577 22.1782 46.7086 25.7374C46.4495 25.6727 45.4777 25.4138 44.8299 24.8314ZM47.0973 13.8305C46.8382 12.3421 46.0608 10.5302 44.5708 9.43011C46.4495 8.33002 47.2268 7.10051 47.4212 6.64753C48.5225 8.13589 49.2351 10.4008 49.3646 13.1834C48.9759 13.3775 48.1338 13.7658 47.0973 13.8305ZM36.7971 31.7555L36.6027 31.6261C34.9831 30.4613 33.4932 28.6494 32.3271 26.3198L32.2623 26.1256C32.1328 25.8668 32.0032 25.608 31.8736 25.3491C30.2541 21.5959 29.4767 17.0661 29.8006 12.9245V12.7304C29.8006 12.601 29.8006 12.5363 29.8006 12.4068C30.0597 9.62425 30.8371 7.35935 32.0032 5.74157L32.1328 5.54743C33.2988 3.99436 34.9184 3.0884 36.7322 3.0884C36.9914 3.0884 37.6392 3.15311 38.2222 3.47667C38.87 3.92965 39.3883 4.70618 39.5178 5.80628C39.6474 7.55348 37.8983 7.81233 37.5096 7.81233C37.4448 7.81233 37.4448 7.74762 37.5744 7.55349C37.9631 7.0358 38.0927 6.19455 37.9631 5.54743C37.7688 4.7709 37.2505 4.12378 36.4083 4.12378C35.0479 4.12378 33.8819 4.83561 32.9102 6.06512L32.7806 6.25926C31.6793 7.81233 30.9667 10.0125 30.7076 12.7951V12.9892C30.7076 13.0539 30.7076 13.1834 30.7076 13.2481C30.4484 17.3896 31.3554 21.9841 33.1045 25.608L33.1693 25.8021C34.2058 27.8729 35.5014 29.5554 37.0562 30.7202L37.2505 30.8496C37.8335 31.2378 38.3518 31.5614 38.9996 31.7555C38.9996 32.2085 39.1292 32.5968 39.2587 32.9851C38.4814 32.7262 37.6392 32.3379 36.7971 31.7555ZM40.36 33.5027C40.36 33.5027 40.2952 33.5675 40.2305 33.5675C40.1657 33.5675 40.1009 33.5027 40.1009 33.5027C39.777 33.1145 39.3235 32.4027 39.5178 31.4967C39.5826 31.2378 39.9713 31.1084 40.2305 31.1084C40.4896 31.1084 40.8783 31.2378 40.943 31.4967C41.1374 32.3379 40.6839 33.1145 40.36 33.5027ZM48.5873 25.3491C48.4577 25.608 48.3281 25.8668 48.1986 26.1256L48.069 26.3198C46.9029 28.6494 45.4778 30.4613 43.7934 31.6261L43.5991 31.7555C42.7569 32.3379 41.85 32.7262 40.943 32.9851C41.0726 32.6615 41.2022 32.2085 41.2022 31.7555C41.7852 31.5614 42.3683 31.2378 42.9513 30.8496L43.1456 30.7202C44.7004 29.6201 45.996 27.8729 47.0325 25.8668L47.0973 25.6727C48.8464 22.0488 49.7533 17.4543 49.4942 13.3128C49.4942 13.2481 49.4942 13.1187 49.4942 13.054V12.8598C49.2351 10.1419 48.5225 7.87704 47.4212 6.32397L47.2916 6.12984C46.3199 4.90032 45.1539 4.18849 43.7934 4.18849C42.9513 4.18849 42.433 4.83561 42.2387 5.61215C42.1091 6.25926 42.2387 7.0358 42.6274 7.6182C42.8217 7.81233 42.7569 7.87704 42.6922 7.94176C42.1739 7.94176 40.6191 7.6182 40.7487 5.87099C40.8783 4.70618 41.3965 3.99436 42.0443 3.54138C42.6274 3.15311 43.2752 3.15311 43.5343 3.15311C45.3482 3.15311 46.903 3.99436 48.1338 5.61215L48.2633 5.80628C49.4294 7.42406 50.2068 9.68896 50.4659 12.4715C50.4659 12.601 50.4659 12.6657 50.4659 12.7951V12.9892C50.9842 17.0661 50.2068 21.5959 48.5873 25.3491Z" fill="#878787"/>
<path d="M43.4696 12.3422V13.054H43.5991C43.5991 13.054 43.5991 13.054 43.6639 13.054C43.7287 13.054 43.8583 13.054 43.9878 13.1834C44.0526 13.2481 44.1174 13.4422 44.0526 13.6364C44.0526 13.6364 42.6274 19.9134 42.3035 21.0782C41.9796 19.5898 40.2305 11.3068 40.2305 11.3068V11.2421H39.9066V11.3068C39.9066 11.3068 38.6757 19.331 38.4166 20.9488C38.0927 19.5898 36.7323 13.6364 36.7323 13.6364C36.7323 13.5717 36.7323 13.5717 36.7323 13.507C36.7323 13.3128 36.7971 13.1834 36.8619 13.1187C36.9914 12.9893 37.121 13.054 37.121 13.054H37.2505V12.3422H34.8536V13.054H34.9832C35.048 13.054 35.3071 13.1187 35.3719 13.3775C35.3719 13.3775 38.2223 25.5433 38.3518 26.061V26.1257H38.8053V26.061C38.8053 25.9962 39.9713 18.425 40.1657 17.0014C40.4248 18.425 41.9148 25.9315 41.9148 26.061V26.1257H42.3035L45.0891 13.4423C45.1539 13.1834 45.413 13.1187 45.4778 13.1187H45.6074V12.4069H43.4696V12.3422Z" fill="#878787"/>
<path d="M11.9856 36.2206C13.1517 36.6088 12.6335 37.9031 12.3743 38.809L10.69 44.5036L8.617 37.7736C8.42265 37.0618 8.2931 36.6088 8.42266 36.2206H6.28486V36.2853C7.12702 36.7383 6.80313 37.7089 6.544 38.6796L4.79489 44.5683L2.52754 37.3207C2.46276 36.9971 2.26842 36.5441 2.3332 36.2206H0.130615V36.2853C0.907993 36.803 1.10235 37.8384 1.36148 38.6796L3.11057 44.4389C3.62882 46.0567 3.75839 45.9273 5.1188 46.9627L7.45094 39.0679L9.13526 44.4389C9.65351 46.0567 9.71828 45.992 11.1435 46.9627L14.3178 36.2206H11.9856Z" fill="#878787"/>
<path d="M14.8361 36.2206C15.6134 36.5442 15.4839 37.6442 15.4839 38.3561V44.2448C15.4839 44.9566 15.5487 46.1214 14.8361 46.3803V46.445H17.6865V46.3803C16.9091 46.0567 17.0387 44.9566 17.0387 44.2448V38.3561C17.0387 37.6442 16.9739 36.4794 17.6865 36.2206V36.1559L14.8361 36.2206Z" fill="#878787"/>
<path d="M20.3424 38.4854C20.3424 37.3853 21.4437 37.0618 22.2859 37.0618C23.128 37.0618 24.035 37.45 24.618 38.0324V36.2852C23.9054 36.0264 23.128 35.9617 22.3507 35.9617C20.5368 35.9617 18.5933 36.7382 18.5933 38.6795C18.5933 41.9798 23.7759 41.5269 23.7759 43.9859C23.7759 45.086 22.4802 45.6037 21.6381 45.6037C20.472 45.6037 19.2412 45.086 18.3342 44.3094L18.7877 46.2508C19.6298 46.5743 20.5368 46.7038 21.5085 46.7038C23.8406 46.7038 25.525 45.1507 25.525 43.4682C25.525 40.5562 20.3424 40.6209 20.3424 38.4854Z" fill="#878787"/>
<path d="M31.6145 45.4095C29.2823 45.4095 27.7923 43.3388 27.7923 41.0739C27.7923 38.809 29.2175 37.2559 31.2906 37.2559C32.2623 37.2559 33.234 37.5795 34.0762 38.1619V36.3499C33.1692 36.1558 32.2623 35.9617 31.3553 35.9617C28.2458 35.9617 26.108 38.0971 26.108 41.3327C26.108 44.6977 28.3106 46.7038 31.8736 46.7038C32.6509 46.7038 33.4283 46.5743 34.1409 46.2508L34.9183 44.4389H34.8535C33.8818 44.9566 32.7157 45.4095 31.6145 45.4095Z" fill="#878787"/>
<path d="M40.2952 35.897C37.1209 35.8323 34.6592 38.2913 34.6592 41.268C34.6592 44.4389 37.1857 46.7038 40.1656 46.7038C43.1456 46.7038 45.6721 44.3742 45.6721 41.2033C45.6721 38.4207 43.4047 35.897 40.2952 35.897ZM40.1656 45.539C37.8335 45.539 36.3435 43.2741 36.3435 41.1386C36.3435 38.809 37.8335 37.0618 40.1656 37.0618C42.5625 37.0618 43.923 39.262 43.923 41.5269C43.923 43.8565 42.4978 45.539 40.1656 45.539Z" fill="#878787"/>
<path d="M53.3811 36.2206C54.1585 36.6736 54.1585 37.3207 54.1585 38.1619V44.0507L48.6521 36.8677L48.4577 36.5442C48.3282 36.4147 48.2633 36.35 48.2633 36.1559H46.0608V36.2206C46.8382 36.6736 46.8382 37.3207 46.8382 38.1619V44.3742C46.8382 45.2155 46.8382 45.8626 46.0608 46.3803V46.445H48.7168V46.3803C47.9394 45.9273 47.9394 45.2802 47.9394 44.3742V38.3561L53.122 45.1507C53.7698 46.0567 54.2233 46.5744 55.3245 46.898V38.1619C55.3245 37.3207 55.3246 36.6736 56.1019 36.2206V36.1559L53.3811 36.2206Z" fill="#878787"/>
<path d="M58.2397 38.4854C58.2397 37.3853 59.341 37.0618 60.1832 37.0618C61.0253 37.0618 61.9323 37.45 62.5153 38.0324V36.2852C61.8027 36.0264 61.0253 35.9617 60.2479 35.9617C58.4341 35.9617 56.4906 36.7382 56.4906 38.6795C56.4906 41.9798 61.6732 41.5269 61.6732 43.9859C61.6732 45.086 60.3775 45.6037 59.5354 45.6037C58.3693 45.6037 57.1385 45.086 56.2315 44.3094L56.6849 46.2508C57.5271 46.5743 58.4341 46.7038 59.4058 46.7038C61.7379 46.7038 63.4223 45.1507 63.4223 43.4682C63.4223 40.5562 58.2397 40.6209 58.2397 38.4854Z" fill="#878787"/>
<path d="M63.9404 36.2206C64.7178 36.5442 64.5883 37.6442 64.5883 38.3561V44.2448C64.5883 44.9566 64.653 46.1214 63.9404 46.3803V46.445H66.7909V46.3803C66.0135 46.0567 66.143 44.9566 66.143 44.2448V38.3561C66.143 37.6442 66.0783 36.4794 66.7909 36.2206V36.1559L63.9404 36.2206Z" fill="#878787"/>
<path d="M74.9534 36.1559C75.7308 36.6736 75.7308 37.3207 75.7308 38.1619V44.0507L70.2243 36.8677L70.03 36.5442C69.9004 36.4147 69.8357 36.35 69.8357 36.1559H67.6331V36.2206C68.4104 36.6736 68.4104 37.3207 68.4104 38.1619V44.3742C68.4104 45.2155 68.4104 45.8626 67.6331 46.3803V46.445H70.2891V46.3803C69.5117 45.9273 69.5117 45.2802 69.5117 44.3742V38.3561L74.6943 45.1507C75.3421 46.0567 75.7955 46.5744 76.8968 46.898V38.1619C76.8968 37.3207 76.8968 36.6736 77.6742 36.2206V36.1559H74.9534Z" fill="#878787"/>
<path d="M4.40618 50.8454C4.53574 50.8454 4.60052 50.8454 4.73009 50.7807C4.79487 50.716 4.85966 50.716 4.92444 50.6512C4.98923 50.5865 5.054 50.5218 5.054 50.3924C5.054 50.3277 5.11878 50.1983 5.11878 50.0688V48.3864H5.50748V50.0688C5.50748 50.1983 5.50747 50.3924 5.44269 50.5218C5.37791 50.6512 5.31314 50.7807 5.24835 50.8454C5.18357 50.9748 5.05401 51.0395 4.92444 51.1042C4.79488 51.1689 4.66531 51.1689 4.47096 51.1689C4.27662 51.1689 4.14705 51.1689 4.01748 51.1042C3.88792 51.0395 3.75835 50.9748 3.69357 50.8454C3.62879 50.716 3.49923 50.6512 3.49923 50.5218C3.43445 50.3924 3.43445 50.263 3.43445 50.0688V48.3864H3.82314V50.0688C3.82314 50.1983 3.82315 50.263 3.88793 50.3924C3.88793 50.4571 3.9527 50.5865 4.01748 50.6512C4.08226 50.716 4.14706 50.7807 4.21184 50.7807C4.21184 50.8454 4.34139 50.8454 4.40618 50.8454Z" fill="#878787"/>
<path d="M8.55219 48.4511V51.1689H8.35785H8.29307C8.29307 51.1689 8.22828 51.1689 8.22828 51.1042L6.67354 49.0982C6.67354 49.1629 6.67354 49.1629 6.67354 49.2276C6.67354 49.2923 6.67354 49.2923 6.67354 49.2923V51.1689H6.28485V48.4511H6.47921C6.54399 48.4511 6.54399 48.4511 6.54399 48.4511C6.54399 48.4511 6.60876 48.4511 6.60876 48.5158L8.16351 50.5218C8.16351 50.4571 8.16351 50.4571 8.16351 50.3924C8.16351 50.3277 8.16351 50.3277 8.16351 50.263V48.3864H8.55219V48.4511Z" fill="#878787"/>
<path d="M9.71826 51.1689H9.32959V48.451H9.71826V51.1689Z" fill="#878787"/>
<path d="M12.763 48.451L11.6617 51.1689H11.2731L10.1718 48.451H10.4957C10.5604 48.451 10.5605 48.451 10.5605 48.451L10.6252 48.5158L11.3378 50.3924C11.3378 50.4571 11.4026 50.4571 11.4026 50.5218C11.4026 50.5865 11.4674 50.6512 11.4674 50.716C11.4674 50.6512 11.4674 50.5865 11.5322 50.5218C11.5322 50.4571 11.5322 50.3924 11.597 50.3924L12.3095 48.5158C12.3095 48.5158 12.3096 48.451 12.3744 48.451H12.4391H12.763Z" fill="#878787"/>
<path d="M14.9008 50.8454V51.1689H13.2164V48.451H14.9008V48.7746H13.6051V49.6159H14.6417V49.9394H13.6051V50.8454H14.9008Z" fill="#878787"/>
<path d="M17.6216 51.1689H17.2329C17.1682 51.1689 17.1034 51.1689 17.1034 51.1042L16.4556 50.1336L16.3908 50.0688C16.3908 50.0688 16.326 50.0688 16.2612 50.0688H16.0021V51.1689H15.6134V48.451H16.3908C16.5851 48.451 16.7147 48.4511 16.8442 48.5158C16.9738 48.5805 17.1034 48.5805 17.1681 48.6452C17.2329 48.7099 17.2977 48.7746 17.3625 48.904C17.4273 48.9687 17.4273 49.0982 17.4273 49.2276C17.4273 49.2923 17.4273 49.4217 17.3625 49.4864C17.3625 49.5512 17.2977 49.6159 17.2329 49.7453C17.1682 49.81 17.1034 49.8747 17.0386 49.9394C16.9738 50.0041 16.8442 50.0041 16.7795 50.0688C16.8442 50.0688 16.8443 50.1336 16.909 50.1983L17.6216 51.1689ZM16.326 49.7453C16.4555 49.7453 16.5203 49.7453 16.5851 49.6806C16.6499 49.6806 16.7147 49.6159 16.7795 49.5511C16.8442 49.4864 16.8443 49.4217 16.909 49.357C16.909 49.2923 16.9738 49.2276 16.9738 49.1629C16.9738 49.0335 16.909 48.904 16.8442 48.7746C16.7147 48.7099 16.5851 48.6452 16.3908 48.6452H16.0021V49.6806H16.326V49.7453Z" fill="#878787"/>
<path d="M19.5003 48.904C19.4356 48.904 19.4356 48.904 19.5003 48.904C19.4356 48.9688 19.4355 48.9688 19.4355 48.9688H19.3708C19.3708 48.9688 19.306 48.904 19.2412 48.904C19.1764 48.904 19.1764 48.8393 19.1116 48.8393C19.0468 48.8393 18.9821 48.8393 18.9173 48.8393C18.8525 48.8393 18.7877 48.8393 18.7229 48.8393C18.6582 48.8393 18.5934 48.904 18.5934 48.904C18.5286 48.9688 18.5286 48.9688 18.5286 49.0335C18.5286 49.0982 18.5286 49.1629 18.5286 49.1629C18.5286 49.2276 18.5286 49.2923 18.5934 49.357C18.6582 49.4217 18.6582 49.4217 18.7229 49.4864C18.7877 49.5512 18.8525 49.5512 18.9173 49.5512C18.9821 49.5512 19.0469 49.6159 19.1764 49.6159C19.2412 49.6159 19.306 49.6806 19.4355 49.6806C19.5003 49.7453 19.5651 49.7453 19.6299 49.81C19.6947 49.8747 19.7594 49.9394 19.7594 50.0041C19.8242 50.0688 19.8242 50.1983 19.8242 50.263C19.8242 50.3924 19.8242 50.5218 19.7594 50.5865C19.6947 50.716 19.6299 50.7807 19.5651 50.8454C19.5003 50.9101 19.3708 50.9748 19.2412 51.0395C19.1116 51.1042 18.9821 51.1042 18.8525 51.1042C18.7877 51.1042 18.6582 51.1042 18.5934 51.1042C18.5286 51.1042 18.4638 51.0395 18.3343 51.0395C18.2695 51.0395 18.2047 50.9748 18.1399 50.9101C18.0751 50.8454 18.0103 50.8454 17.9456 50.7807L18.0751 50.5865C18.0751 50.5865 18.0751 50.5865 18.1399 50.5218H18.2047C18.2047 50.5218 18.2695 50.5218 18.2695 50.5865C18.3342 50.5865 18.3343 50.6512 18.399 50.6512C18.4638 50.716 18.5286 50.716 18.5934 50.716C18.6582 50.716 18.723 50.7807 18.8525 50.7807C18.9173 50.7807 18.9821 50.7807 19.0469 50.716C19.1116 50.716 19.1764 50.6512 19.2412 50.6512C19.306 50.5865 19.306 50.5865 19.3708 50.5218C19.3708 50.4571 19.4355 50.3924 19.4355 50.3277C19.4355 50.263 19.4355 50.1983 19.3708 50.1336C19.306 50.0688 19.306 50.0688 19.2412 50.0041C19.1764 49.9394 19.1116 49.9394 19.0469 49.9394C18.9821 49.9394 18.9173 49.8747 18.7877 49.8747C18.7229 49.8747 18.6582 49.81 18.5286 49.81C18.4638 49.7453 18.3991 49.7453 18.3343 49.6806C18.2695 49.6159 18.2047 49.5512 18.2047 49.4864C18.1399 49.4217 18.1399 49.2923 18.1399 49.1629C18.1399 49.0335 18.1399 48.9688 18.2047 48.904C18.2695 48.8393 18.2695 48.7099 18.399 48.6452C18.4638 48.5805 18.5934 48.5158 18.6582 48.4511C18.7877 48.3864 18.9173 48.3864 19.0469 48.3864C19.1764 48.3864 19.3708 48.3864 19.5003 48.4511C19.6299 48.5158 19.7595 48.5805 19.8242 48.6452L19.5003 48.904Z" fill="#878787"/>
<path d="M20.6664 51.1689H20.2777V48.451H20.6664V51.1689Z" fill="#878787"/>
<path d="M23.2577 48.7746H22.4155V51.1689H22.0268V48.7746H21.1199V48.451H23.2577V48.7746Z" fill="#878787"/>
<path d="M24.9419 50.0688V51.1689H24.5532V50.0688L23.5167 48.3864H23.9054C23.9702 48.3864 23.9702 48.3864 23.9702 48.3864L24.035 48.4511L24.618 49.4865C24.618 49.5512 24.6828 49.5512 24.6828 49.6159C24.6828 49.6806 24.7476 49.6806 24.7476 49.7453C24.7476 49.6806 24.7476 49.6806 24.8124 49.6159C24.8124 49.5512 24.8771 49.5512 24.8771 49.4865L25.4602 48.4511C25.4602 48.4511 25.4602 48.3864 25.5249 48.3864H25.5897H25.9784L24.9419 50.0688Z" fill="#878787"/>
<path d="M29.995 49.81C29.995 50.0041 29.9302 50.1983 29.8654 50.3924C29.8006 50.5865 29.7358 50.716 29.6062 50.8454C29.4767 50.9748 29.3471 51.0395 29.1528 51.1042C28.9584 51.1689 28.8289 51.2337 28.5697 51.2337C28.3754 51.2337 28.181 51.1689 27.9867 51.1042C27.7923 51.0395 27.6628 50.9101 27.5332 50.8454C27.4036 50.716 27.3389 50.5865 27.2741 50.3924C27.2093 50.1983 27.1445 50.0041 27.1445 49.81C27.1445 49.6159 27.2093 49.4217 27.2741 49.2276C27.3389 49.0335 27.4036 48.904 27.5332 48.7746C27.6628 48.6452 27.7923 48.5805 27.9867 48.5158C28.181 48.4511 28.3106 48.3864 28.5697 48.3864C28.7641 48.3864 28.9584 48.4511 29.1528 48.5158C29.3471 48.5805 29.4767 48.7099 29.6062 48.7746C29.7358 48.904 29.8006 49.0335 29.8654 49.2276C29.9302 49.4217 29.995 49.6159 29.995 49.81ZM29.5415 49.81C29.5415 49.6159 29.5415 49.4864 29.4767 49.357C29.4119 49.2276 29.3471 49.0982 29.2823 49.0335C29.2176 48.9688 29.088 48.904 28.9584 48.8393C28.8289 48.7746 28.6993 48.7746 28.5697 48.7746C28.4402 48.7746 28.3106 48.7746 28.181 48.8393C28.0515 48.904 27.9867 48.9688 27.8571 49.0335C27.7923 49.0982 27.7276 49.2276 27.6628 49.357C27.598 49.4864 27.598 49.6159 27.598 49.81C27.598 50.0041 27.598 50.1336 27.6628 50.263C27.7276 50.3924 27.7923 50.5218 27.8571 50.5865C27.9219 50.6512 28.0515 50.716 28.181 50.7807C28.3106 50.8454 28.4402 50.8454 28.5697 50.8454C28.6993 50.8454 28.8289 50.8454 28.9584 50.7807C29.088 50.716 29.1528 50.6512 29.2823 50.5865C29.3471 50.5218 29.4119 50.3924 29.4767 50.263C29.5415 50.1336 29.5415 50.0041 29.5415 49.81Z" fill="#878787"/>
<path d="M30.9667 48.7746V49.6806H32.0679V50.0041H30.9667V51.1689H30.5779V48.451H32.2623V48.7746H30.9667Z" fill="#878787"/>
<path d="M37.5096 48.451L36.6674 51.1689H36.2787L35.6309 49.1629C35.6309 49.0982 35.6309 49.0982 35.5661 49.0335C35.5661 49.0982 35.5661 49.1629 35.5014 49.1629L34.8535 51.1689H34.4648L33.6227 48.451H33.9466C34.0114 48.451 34.0114 48.451 34.0114 48.451L34.0762 48.5158L34.5944 50.3277C34.5944 50.3924 34.5944 50.3924 34.5944 50.4571C34.5944 50.5218 34.5944 50.5218 34.5944 50.5865C34.5944 50.5218 34.5944 50.5218 34.5944 50.4571C34.5944 50.3924 34.5944 50.3924 34.6592 50.3277L35.307 48.5158C35.307 48.5158 35.307 48.451 35.3718 48.451H35.4366H35.5661C35.6309 48.451 35.6309 48.451 35.6309 48.451L35.6957 48.5158L36.3435 50.3277C36.3435 50.3924 36.4083 50.4571 36.4083 50.5865C36.4083 50.5218 36.4083 50.3924 36.4731 50.3277L36.9913 48.5158C36.9913 48.5158 36.9913 48.451 37.0561 48.451H37.1209H37.5096Z" fill="#878787"/>
<path d="M38.4165 51.1689H38.0278V48.451H38.4165V51.1689Z" fill="#878787"/>
<path d="M40.5543 48.904C40.4895 48.9688 40.4895 48.9688 40.4895 48.9688H40.4247C40.4247 48.9688 40.3599 48.904 40.2951 48.904C40.2303 48.904 40.2303 48.8393 40.1656 48.8393C40.1008 48.8393 40.036 48.8393 39.9712 48.8393C39.9064 48.8393 39.8417 48.8393 39.7769 48.8393C39.7121 48.8393 39.6473 48.904 39.6473 48.904C39.5825 48.9688 39.5826 48.9688 39.5826 49.0335C39.5826 49.0982 39.5826 49.1629 39.5826 49.1629C39.5826 49.2276 39.5825 49.2923 39.6473 49.357C39.7121 49.4217 39.7121 49.4217 39.7769 49.4864C39.8417 49.5512 39.9064 49.5512 39.9712 49.5512C40.036 49.5512 40.1008 49.6159 40.2304 49.6159C40.2951 49.6159 40.3599 49.6806 40.4895 49.6806C40.5542 49.7453 40.6191 49.7453 40.6838 49.81C40.7486 49.8747 40.8134 49.9394 40.8134 50.0041C40.8782 50.0688 40.8782 50.1983 40.8782 50.263C40.8782 50.3924 40.8782 50.5218 40.8134 50.5865C40.7486 50.716 40.6838 50.7807 40.619 50.8454C40.5543 50.9101 40.4247 50.9748 40.2951 51.0395C40.1656 51.1042 40.036 51.1042 39.9065 51.1042C39.8417 51.1042 39.7121 51.1042 39.6473 51.1042C39.5825 51.1042 39.5178 51.0395 39.3882 51.0395C39.3234 51.0395 39.2586 50.9748 39.1938 50.9101C39.1291 50.8454 39.0643 50.8454 38.9995 50.7807L39.1291 50.5865C39.1291 50.5865 39.1291 50.5865 39.1938 50.5218H39.2587C39.2587 50.5218 39.3234 50.5218 39.3234 50.5865C39.3882 50.5865 39.3882 50.6512 39.453 50.6512C39.5178 50.716 39.5825 50.716 39.6473 50.716C39.7121 50.716 39.7769 50.7807 39.9065 50.7807C39.9712 50.7807 40.036 50.7807 40.1008 50.716C40.1656 50.716 40.2303 50.6512 40.2951 50.6512C40.3599 50.5865 40.3599 50.5865 40.4247 50.5218C40.4247 50.4571 40.4895 50.3924 40.4895 50.3277C40.4895 50.263 40.4895 50.1983 40.4247 50.1336C40.3599 50.0688 40.3599 50.0688 40.2951 50.0041C40.2303 49.9394 40.1656 49.9394 40.1008 49.9394C40.036 49.9394 39.9712 49.8747 39.8417 49.8747C39.7121 49.8747 39.7121 49.81 39.5826 49.81C39.5178 49.7453 39.453 49.7453 39.3882 49.6806C39.3234 49.6159 39.2587 49.5512 39.2587 49.4864C39.1939 49.4217 39.1938 49.2923 39.1938 49.1629C39.1938 49.0335 39.1939 48.9688 39.2587 48.904C39.3234 48.8393 39.3234 48.7099 39.453 48.6452C39.5178 48.5805 39.6473 48.5158 39.7121 48.4511C39.8417 48.3864 39.9712 48.3864 40.1008 48.3864C40.2304 48.3864 40.4247 48.3864 40.5543 48.4511C40.6838 48.5158 40.8134 48.5805 40.8782 48.6452L40.5543 48.904Z" fill="#878787"/>
<path d="M43.2104 50.5865C43.2752 50.5865 43.2752 50.5865 43.2104 50.5865L43.4047 50.7807C43.2751 50.9101 43.1456 51.0395 43.016 51.1042C42.8865 51.1689 42.6921 51.2337 42.433 51.2337C42.2386 51.2337 42.0443 51.1689 41.9147 51.1042C41.7852 51.0395 41.5908 50.9101 41.5261 50.8454C41.3965 50.716 41.3317 50.5865 41.2669 50.3924C41.2021 50.1983 41.2021 50.0041 41.2021 49.81C41.2021 49.6159 41.2669 49.4217 41.3317 49.2276C41.3965 49.0335 41.4613 48.904 41.5908 48.7746C41.7204 48.6452 41.85 48.5805 42.0443 48.5158C42.2387 48.4511 42.3682 48.3864 42.5626 48.3864C42.7569 48.3864 42.9512 48.3864 43.0808 48.4511C43.2104 48.5158 43.3399 48.5805 43.4695 48.7099L43.3399 48.904C43.3399 48.904 43.34 48.904 43.2752 48.9688C43.2752 48.9688 43.2752 48.9688 43.2104 48.9688C43.2104 48.9688 43.1456 48.9688 43.1456 48.904C43.0808 48.904 43.0808 48.8393 43.016 48.8393C42.9513 48.8393 42.8865 48.7746 42.8217 48.7746C42.7569 48.7746 42.6273 48.7099 42.5626 48.7099C42.433 48.7099 42.3034 48.7099 42.1739 48.7746C42.0443 48.8393 41.9795 48.904 41.85 48.9688C41.7852 49.0335 41.7204 49.1629 41.6556 49.2923C41.5908 49.4217 41.5908 49.5512 41.5908 49.7453C41.5908 49.9394 41.5908 50.0688 41.6556 50.1983C41.7204 50.3277 41.7852 50.4571 41.85 50.5218C41.9147 50.5865 42.0443 50.6512 42.1739 50.716C42.3034 50.7807 42.433 50.7807 42.5626 50.7807C42.6273 50.7807 42.6921 50.7807 42.7569 50.7807C42.8217 50.7807 42.8865 50.7807 42.9513 50.716C43.016 50.716 43.0808 50.6512 43.0808 50.6512C43.1456 50.6512 43.1456 50.5865 43.2104 50.5218C43.1456 50.5865 43.2104 50.5865 43.2104 50.5865Z" fill="#878787"/>
<path d="M46.4494 49.81C46.4494 50.0041 46.3846 50.1983 46.3198 50.3924C46.2551 50.5865 46.1903 50.716 46.0607 50.8454C45.9312 50.9748 45.8016 51.0395 45.6073 51.1042C45.4129 51.1689 45.2833 51.2337 45.0242 51.2337C44.8299 51.2337 44.6355 51.1689 44.4412 51.1042C44.2469 51.0395 44.1173 50.9101 43.9877 50.8454C43.8582 50.716 43.7934 50.5865 43.7286 50.3924C43.6638 50.1983 43.5991 50.0041 43.5991 49.81C43.5991 49.6159 43.6638 49.4217 43.7286 49.2276C43.7934 49.0335 43.8582 48.904 43.9877 48.7746C44.1173 48.6452 44.2469 48.5805 44.4412 48.5158C44.6355 48.4511 44.7651 48.3864 45.0242 48.3864C45.2186 48.3864 45.4129 48.4511 45.6073 48.5158C45.8016 48.5805 45.9312 48.7099 46.0607 48.7746C46.1903 48.904 46.2551 49.0335 46.3198 49.2276C46.4494 49.4217 46.4494 49.6159 46.4494 49.81ZM46.0607 49.81C46.0607 49.6159 46.0607 49.4864 45.9959 49.357C45.9311 49.2276 45.8664 49.0982 45.8016 49.0335C45.7368 48.9688 45.6072 48.904 45.4777 48.8393C45.3481 48.7746 45.2186 48.7746 45.089 48.7746C44.9595 48.7746 44.8299 48.7746 44.7003 48.8393C44.5707 48.904 44.506 48.9688 44.3764 49.0335C44.3116 49.0982 44.2468 49.2276 44.1821 49.357C44.1173 49.4864 44.1173 49.6159 44.1173 49.81C44.1173 50.0041 44.1173 50.1336 44.1821 50.263C44.2468 50.3924 44.3116 50.5218 44.3764 50.5865C44.4412 50.6512 44.5707 50.716 44.7003 50.7807C44.8299 50.8454 44.9595 50.8454 45.089 50.8454C45.2186 50.8454 45.3481 50.8454 45.4777 50.7807C45.6072 50.716 45.672 50.6512 45.8016 50.5865C45.8664 50.5218 45.9311 50.3924 45.9959 50.263C45.9959 50.1336 46.0607 50.0041 46.0607 49.81Z" fill="#878787"/>
<path d="M49.2998 48.4511V51.1689H49.1055H49.0407C49.0407 51.1689 48.9759 51.1689 48.9759 51.1042L47.4211 49.0982C47.4211 49.1629 47.4211 49.1629 47.4211 49.2276C47.4211 49.2923 47.4211 49.2923 47.4211 49.2923V51.1689H47.0325V48.4511H47.2268C47.2916 48.4511 47.2916 48.4511 47.2916 48.4511C47.2916 48.4511 47.3564 48.4511 47.3564 48.5158L48.9111 50.5218C48.9111 50.4571 48.9111 50.4571 48.9111 50.3924C48.9111 50.3277 48.9111 50.3277 48.9111 50.263V48.3864H49.2998V48.4511Z" fill="#878787"/>
<path d="M51.5023 48.904C51.4376 48.904 51.4376 48.904 51.5023 48.904C51.4376 48.9688 51.4376 48.9688 51.4376 48.9688H51.3728C51.3728 48.9688 51.308 48.904 51.2432 48.904C51.1785 48.904 51.1784 48.8393 51.1137 48.8393C51.0489 48.8393 50.9841 48.8393 50.9193 48.8393C50.8546 48.8393 50.7898 48.8393 50.725 48.8393C50.6602 48.8393 50.5954 48.904 50.5954 48.904C50.5307 48.9688 50.5306 48.9688 50.5306 49.0335C50.5306 49.0982 50.5306 49.1629 50.5306 49.1629C50.5306 49.2276 50.5307 49.2923 50.5954 49.357C50.6602 49.4217 50.6602 49.4217 50.725 49.4864C50.7898 49.5512 50.8546 49.5512 50.9193 49.5512C50.9841 49.5512 51.0489 49.6159 51.1784 49.6159C51.2432 49.6159 51.308 49.6806 51.4376 49.6806C51.5023 49.7453 51.5671 49.7453 51.6319 49.81C51.6967 49.8747 51.7615 49.9394 51.7615 50.0041C51.8262 50.0688 51.8262 50.1983 51.8262 50.263C51.8262 50.3924 51.8262 50.5218 51.7615 50.5865C51.6967 50.716 51.6319 50.7807 51.5671 50.8454C51.5024 50.9101 51.3728 50.9748 51.2432 51.0395C51.1137 51.1042 50.9841 51.1042 50.8545 51.1042C50.7898 51.1042 50.6602 51.1042 50.5954 51.1042C50.5307 51.1042 50.4659 51.0395 50.3363 51.0395C50.2715 51.0395 50.2067 50.9748 50.142 50.9101C50.0772 50.8454 50.0124 50.8454 49.9476 50.7807L50.0772 50.5865C50.0772 50.5865 50.0772 50.5865 50.142 50.5218H50.2067C50.2067 50.5218 50.2715 50.5218 50.2715 50.5865C50.3363 50.5865 50.3363 50.6512 50.4011 50.6512C50.4659 50.716 50.5307 50.716 50.5954 50.716C50.6602 50.716 50.725 50.7807 50.8545 50.7807C50.9193 50.7807 50.9841 50.7807 51.0489 50.716C51.1137 50.716 51.1785 50.6512 51.2432 50.6512C51.308 50.5865 51.308 50.5865 51.3728 50.5218C51.3728 50.4571 51.4376 50.3924 51.4376 50.3277C51.4376 50.263 51.4376 50.1983 51.3728 50.1336C51.308 50.0688 51.308 50.0688 51.2432 50.0041C51.1785 49.9394 51.1137 49.9394 51.0489 49.9394C50.9841 49.9394 50.9193 49.8747 50.7898 49.8747C50.6602 49.8747 50.6602 49.81 50.5306 49.81C50.4658 49.7453 50.4011 49.7453 50.3363 49.6806C50.2715 49.6159 50.2067 49.5512 50.2067 49.4864C50.1419 49.4217 50.142 49.2923 50.142 49.1629C50.142 49.0335 50.1419 48.9688 50.2067 48.904C50.2715 48.8393 50.2715 48.7099 50.4011 48.6452C50.4659 48.5805 50.5954 48.5158 50.6602 48.4511C50.7898 48.3864 50.9193 48.3864 51.0489 48.3864C51.1785 48.3864 51.3728 48.3864 51.5023 48.4511C51.6319 48.5158 51.7615 48.5805 51.8262 48.6452L51.5023 48.904Z" fill="#878787"/>
<path d="M52.6685 51.1689H52.2798V48.451H52.6685V51.1689Z" fill="#878787"/>
<path d="M55.6485 48.4511V51.1689H55.4541H55.3893C55.3893 51.1689 55.3246 51.1689 55.3246 51.1042L53.7698 49.0982C53.7698 49.1629 53.7698 49.1629 53.7698 49.2276C53.7698 49.2923 53.7698 49.2923 53.7698 49.2923V51.1689H53.3811V48.4511H53.5754C53.6402 48.4511 53.6402 48.4511 53.6402 48.4511C53.6402 48.4511 53.705 48.4511 53.705 48.5158L55.2598 50.5218C55.2598 50.4571 55.2598 50.4571 55.2598 50.3924C55.2598 50.3277 55.2598 50.3277 55.2598 50.263V48.3864H55.6485V48.4511Z" fill="#878787"/>
<path d="M56.361 49.7452H57.9157V50.0041H56.361V49.7452Z" fill="#878787"/>
<path d="M61.4788 48.451V51.1689H61.1549V49.2276V49.1629C61.1549 49.0982 61.1549 49.0982 61.1549 49.0335L60.2479 50.716C60.2479 50.7807 60.1831 50.7807 60.1184 50.7807H60.0536C59.9888 50.7807 59.924 50.7807 59.924 50.716L59.0171 49.0335C59.0171 49.0982 59.0171 49.1629 59.0171 49.2276V51.1689H58.6284V48.451H58.9523C59.017 48.451 59.0171 48.451 59.0171 48.451C59.0171 48.451 59.0818 48.4511 59.0818 48.5158L59.9888 50.1336C59.9888 50.1983 60.0536 50.1983 60.0536 50.263C60.0536 50.3277 60.0536 50.3277 60.1184 50.3924C60.1184 50.3277 60.1831 50.263 60.1831 50.1983L61.0901 48.5805L61.1549 48.5158H61.2196H61.4788V48.451Z" fill="#878787"/>
<path d="M64.5235 51.1689H64.1996C64.1348 51.1689 64.1348 51.1689 64.1348 51.1689L64.07 51.1042L63.8109 50.4571H62.5801L62.3209 51.1042C62.3209 51.1042 62.3209 51.1689 62.2561 51.1689H62.1913H61.8674L62.9687 48.451H63.3574L64.5235 51.1689ZM63.7461 50.1336L63.3574 49.0982C63.3574 49.0335 63.2926 48.904 63.2926 48.8393C63.2926 48.904 63.2926 48.9687 63.2279 48.9687C63.1631 48.9687 63.2278 49.0335 63.1631 49.0982L62.7744 50.1336H63.7461Z" fill="#878787"/>
<path d="M67.3739 49.81C67.3739 50.0041 67.3092 50.1983 67.2444 50.3924C67.1796 50.5865 67.1148 50.7159 66.9852 50.8454C66.8557 50.9748 66.7261 51.0395 66.5317 51.1042C66.3374 51.1689 66.2078 51.2336 65.9487 51.2336H64.9122V48.5157H65.9487C66.1431 48.5157 66.3374 48.5805 66.5317 48.6452C66.7261 48.7099 66.8557 48.7746 66.9852 48.904C67.1148 49.0334 67.1796 49.1629 67.2444 49.357C67.3739 49.4217 67.3739 49.6158 67.3739 49.81ZM66.9852 49.81C66.9852 49.6158 66.9852 49.4864 66.9205 49.357C66.8557 49.2276 66.7909 49.0981 66.7261 49.0334C66.6613 48.9687 66.5317 48.904 66.4022 48.8393C66.2726 48.7746 66.143 48.7746 66.0135 48.7746H65.3657V50.8454H66.0135C66.143 50.8454 66.2726 50.8454 66.4022 50.7807C66.5317 50.7159 66.5965 50.6512 66.7261 50.5865C66.7909 50.5218 66.8557 50.3924 66.9205 50.263C66.9205 50.1335 66.9852 50.0041 66.9852 49.81Z" fill="#878787"/>
<path d="M68.4104 51.1689H68.0217V48.451H68.4104V51.1689Z" fill="#878787"/>
<path d="M70.613 48.904C70.5482 48.9688 70.5482 48.9688 70.5482 48.9688H70.4834C70.4834 48.9688 70.4187 48.904 70.3539 48.904C70.2891 48.904 70.2891 48.8393 70.2243 48.8393C70.1595 48.8393 70.0947 48.8393 70.03 48.8393C69.9652 48.8393 69.9004 48.8393 69.8356 48.8393C69.7708 48.8393 69.7061 48.904 69.7061 48.904C69.6413 48.9688 69.6412 48.9688 69.6412 49.0335C69.6412 49.0982 69.6412 49.1629 69.6412 49.1629C69.6412 49.2276 69.6413 49.2923 69.7061 49.357C69.7708 49.4217 69.7708 49.4217 69.8356 49.4864C69.9004 49.5512 69.9652 49.5512 70.03 49.5512C70.0947 49.5512 70.1595 49.6159 70.2891 49.6159C70.3538 49.6159 70.4186 49.6806 70.5482 49.6806C70.613 49.7453 70.6778 49.7453 70.7426 49.81C70.8073 49.8747 70.8721 49.9394 70.8721 50.0041C70.9369 50.0688 70.9369 50.1983 70.9369 50.263C70.9369 50.3924 70.9369 50.5218 70.8721 50.5865C70.8073 50.716 70.7426 50.7807 70.6778 50.8454C70.613 50.9101 70.4834 50.9748 70.3539 51.0395C70.2243 51.1042 70.0947 51.1042 69.9652 51.1042C69.9004 51.1042 69.7708 51.1042 69.7061 51.1042C69.6413 51.1042 69.5765 51.0395 69.4469 51.0395C69.3821 51.0395 69.3173 50.9748 69.2526 50.9101C69.1878 50.8454 69.123 50.8454 69.0582 50.7807L69.1878 50.5865C69.1878 50.5865 69.1878 50.5865 69.2526 50.5218H69.3173C69.3173 50.5218 69.3821 50.5218 69.3821 50.5865C69.4469 50.5865 69.4469 50.6512 69.5117 50.6512C69.5765 50.716 69.6413 50.716 69.7061 50.716C69.7708 50.716 69.8356 50.7807 69.9652 50.7807C70.0299 50.7807 70.0948 50.7807 70.1595 50.716C70.2243 50.716 70.2891 50.6512 70.3539 50.6512C70.4187 50.5865 70.4187 50.5865 70.4834 50.5218C70.4834 50.4571 70.5482 50.3924 70.5482 50.3277C70.5482 50.263 70.5482 50.1983 70.4834 50.1336C70.4187 50.0688 70.4187 50.0688 70.3539 50.0041C70.2891 49.9394 70.2243 49.9394 70.1595 49.9394C70.0948 49.9394 70.03 49.8747 69.9004 49.8747C69.8356 49.8747 69.7708 49.81 69.6412 49.81C69.5765 49.7453 69.5117 49.7453 69.4469 49.6806C69.3821 49.6159 69.3173 49.5512 69.3173 49.4864C69.2526 49.4217 69.2526 49.2923 69.2526 49.1629C69.2526 49.0335 69.2526 48.9688 69.3173 48.904C69.3821 48.8393 69.3821 48.7099 69.5117 48.6452C69.5765 48.5805 69.706 48.5158 69.7708 48.4511C69.9004 48.3864 70.03 48.3864 70.1595 48.3864C70.2891 48.3864 70.4834 48.3864 70.613 48.4511C70.7425 48.5158 70.8721 48.5805 70.9369 48.6452L70.613 48.904Z" fill="#878787"/>
<path d="M73.9168 49.81C73.9168 50.0041 73.852 50.1983 73.7873 50.3924C73.7225 50.5865 73.6577 50.716 73.5281 50.8454C73.3986 50.9748 73.269 51.0395 73.0747 51.1042C72.8803 51.1689 72.7508 51.2337 72.4916 51.2337C72.2973 51.2337 72.1029 51.1689 71.9086 51.1042C71.7142 51.0395 71.5847 50.9101 71.4551 50.8454C71.3256 50.716 71.2608 50.5865 71.196 50.3924C71.1312 50.1983 71.0664 50.0041 71.0664 49.81C71.0664 49.6159 71.1312 49.4217 71.196 49.2276C71.2608 49.0335 71.3256 48.904 71.4551 48.7746C71.5847 48.6452 71.7142 48.5805 71.9086 48.5158C72.1029 48.4511 72.2325 48.3864 72.4916 48.3864C72.686 48.3864 72.8803 48.4511 73.0747 48.5158C73.269 48.5805 73.3986 48.7099 73.5281 48.7746C73.6577 48.904 73.7225 49.0335 73.7873 49.2276C73.852 49.4217 73.9168 49.6159 73.9168 49.81ZM73.5281 49.81C73.5281 49.6159 73.5281 49.4864 73.4634 49.357C73.3986 49.2276 73.3338 49.0982 73.269 49.0335C73.2042 48.9688 73.0747 48.904 72.9451 48.8393C72.8155 48.7746 72.686 48.7746 72.5564 48.7746C72.4268 48.7746 72.2973 48.7746 72.1677 48.8393C72.0381 48.904 71.9734 48.9688 71.8438 49.0335C71.779 49.0982 71.7142 49.2276 71.6495 49.357C71.5847 49.4864 71.5847 49.6159 71.5847 49.81C71.5847 50.0041 71.5847 50.1336 71.6495 50.263C71.7142 50.3924 71.779 50.5218 71.8438 50.5865C71.9086 50.6512 72.0381 50.716 72.1677 50.7807C72.2973 50.8454 72.4268 50.8454 72.5564 50.8454C72.686 50.8454 72.8155 50.8454 72.9451 50.7807C73.0747 50.716 73.1395 50.6512 73.269 50.5865C73.3338 50.5218 73.3986 50.3924 73.4634 50.263C73.4634 50.1336 73.5281 50.0041 73.5281 49.81Z" fill="#878787"/>
<path d="M76.7672 48.4511V51.1689H76.5729H76.5081C76.5081 51.1689 76.4433 51.1689 76.4433 51.1042L74.8885 49.0982C74.8885 49.1629 74.8885 49.1629 74.8885 49.2276C74.8885 49.2923 74.8885 49.2923 74.8885 49.2923V51.1689H74.4998V48.4511H74.6942C74.759 48.4511 74.759 48.4511 74.759 48.4511C74.759 48.4511 74.8237 48.4511 74.8237 48.5158L76.3785 50.5218C76.3785 50.4571 76.3785 50.4571 76.3785 50.3924C76.3785 50.3277 76.3785 50.3277 76.3785 50.263V48.3864H76.7672V48.4511Z" fill="#878787"/>
</svg>
