<svg width="64" height="58" viewBox="0 0 64 58" fill="none" xmlns="http://www.w3.org/2000/svg">
<path d="M7.12433 40.433V41.9213H4.40347V49.6867H2.71915V41.9213H0.127869V40.433H7.12433Z" fill="#878787"/>
<path d="M11.7886 44.3803C11.7886 46.5158 9.13251 46.7746 7.83689 46.7746C7.90167 47.6806 8.41992 48.5218 9.58599 48.5218C10.4281 48.5218 11.0112 48.1336 11.3351 47.9394L11.8533 49.0395C11.659 49.2337 10.6873 49.8161 9.39165 49.8161C7.12431 49.8161 6.15259 48.3277 6.15259 46.2569C6.15259 44.2509 7.31866 42.439 9.52122 42.439C10.9464 42.5037 11.7886 43.1508 11.7886 44.3803ZM9.52122 43.6685C8.41994 43.6685 7.90167 44.7686 7.83689 45.804C8.61426 45.804 10.3634 45.6098 10.3634 44.5097C10.3634 43.9273 10.0395 43.6685 9.52122 43.6685Z" fill="#878787"/>
<path d="M13.0194 49.6219V43.8626L12.8899 42.6331H14.2503L14.3799 43.4744C14.8333 42.7625 15.6107 42.3743 16.5176 42.3743C17.878 42.3743 18.7202 43.1508 18.7202 44.7686V49.5572H17.1007V45.1569C17.1007 44.3156 16.9711 43.6685 16.0642 43.6685C15.222 43.6685 14.639 44.3156 14.639 45.0921V49.6219H13.0194Z" fill="#878787"/>
<path d="M24.5506 42.6331V40.0447H26.1701V48.3277L26.2996 49.6867H24.8745L24.7449 48.9101H24.6801C24.2266 49.5573 23.5788 49.8808 22.8015 49.8808C20.6637 49.8808 20.0806 48.1983 20.0806 46.4511C20.0806 44.0568 21.3115 42.5037 23.4493 42.5037C23.9027 42.5037 24.2267 42.5684 24.5506 42.6331ZM24.5506 43.9274C24.2914 43.7979 23.9675 43.7332 23.514 43.7332C22.2184 43.7332 21.7649 44.9627 21.7649 46.3217C21.7649 47.5512 22.0888 48.6513 23.1901 48.6513C24.0323 48.6513 24.5506 48.0689 24.5506 47.4865V43.9274Z" fill="#878787"/>
<path d="M33.1665 44.3803C33.1665 46.5158 30.5104 46.7746 29.2148 46.7746C29.2796 47.6806 29.7979 48.5218 30.9639 48.5218C31.8061 48.5218 32.3891 48.1336 32.713 47.9394L33.2313 49.0395C33.0369 49.2337 32.0652 49.8161 30.7696 49.8161C28.5022 49.8161 27.5305 48.3277 27.5305 46.2569C27.5305 44.2509 28.6966 42.439 30.8992 42.439C32.3243 42.5037 33.1665 43.1508 33.1665 44.3803ZM30.8343 43.6685C29.7331 43.6685 29.2148 44.7686 29.15 45.804C29.9274 45.804 31.6765 45.6098 31.6765 44.5097C31.6765 43.9273 31.3526 43.6685 30.8343 43.6685Z" fill="#878787"/>
<path d="M36.0169 49.6219H34.3973V43.7979L34.2678 42.6978H35.6282L35.8225 43.7332C36.1464 42.9566 36.7943 42.5037 37.5069 42.5037C37.8956 42.5037 38.2842 42.5684 38.6082 42.7625L38.349 44.1862C38.0251 43.992 37.7012 43.9273 37.3773 43.9273C36.5999 43.9273 36.1464 44.5097 36.1464 45.351V49.6219H36.0169Z" fill="#878787"/>
<path d="M39.3855 49.6219V43.8626L39.2559 42.6331H40.6164L40.7459 43.4744C41.1994 42.7625 41.9768 42.3743 42.8837 42.3743C44.2442 42.3743 45.0863 43.1508 45.0863 44.7686V49.5572H43.4668V45.1569C43.4668 44.3156 43.3372 43.6685 42.4303 43.6685C41.5881 43.6685 41.005 44.3156 41.005 45.0921V49.6219H39.3855Z" fill="#878787"/>
<path d="M52.0828 44.3803C52.0828 46.5158 49.4267 46.7746 48.131 46.7746C48.1958 47.6806 48.7141 48.5218 49.8802 48.5218C50.7223 48.5218 51.3054 48.1336 51.6293 47.9394L52.1475 49.0395C51.9532 49.2337 50.9815 49.8161 49.6858 49.8161C47.4184 49.8161 46.4467 48.3277 46.4467 46.2569C46.4467 44.2509 47.6128 42.439 49.8154 42.439C51.2406 42.5037 52.0828 43.1508 52.0828 44.3803ZM49.7506 43.6685C48.6493 43.6685 48.131 44.7686 48.0663 45.804C48.8436 45.804 50.5927 45.6098 50.5927 44.5097C50.5927 43.9273 50.2688 43.6685 49.7506 43.6685Z" fill="#878787"/>
<path d="M53.184 48.0041C53.6375 48.263 54.4797 48.6512 55.1923 48.6512C55.7753 48.6512 56.2287 48.3924 56.2287 47.7453C56.2287 47.0982 55.7105 46.904 55.0627 46.7099C54.0262 46.4511 52.9249 46.0628 52.9249 44.6391C52.9249 43.2155 54.091 42.439 55.4514 42.439C56.4879 42.439 57.3948 42.8272 57.9778 43.4096L57.2005 44.3803C56.6822 43.9273 56.0992 43.6038 55.5162 43.6038C54.9979 43.6038 54.5444 43.8626 54.5444 44.3803C54.5444 45.0274 55.1275 45.2215 55.7753 45.4157C56.8118 45.7392 57.9131 46.1275 57.9131 47.5512C57.9131 48.9748 56.8766 49.7513 55.3218 49.7513C54.1558 49.7513 53.1193 49.2984 52.7953 49.0395L53.184 48.0041Z" fill="#878787"/>
<path d="M58.9496 48.0041C59.4031 48.263 60.2452 48.6512 60.9578 48.6512C61.5408 48.6512 61.9943 48.3924 61.9943 47.7453C61.9943 47.0982 61.4761 46.904 60.8283 46.7099C59.7918 46.4511 58.6904 46.0628 58.6904 44.6391C58.6904 43.2155 59.8565 42.439 61.2169 42.439C62.2534 42.439 63.1604 42.8272 63.7434 43.4096L62.966 44.3803C62.4478 43.9273 61.8647 43.6038 61.2817 43.6038C60.7634 43.6038 60.31 43.8626 60.31 44.3803C60.31 45.0274 60.893 45.2215 61.5408 45.4157C62.5773 45.7392 63.6786 46.1275 63.6786 47.5512C63.6786 48.9748 62.6421 49.7513 61.0874 49.7513C59.9213 49.7513 58.8848 49.2984 58.5609 49.0395L58.9496 48.0041Z" fill="#878787"/>
<path d="M19.368 52.3398V56.9991H19.0441V54.7989H16.129V56.9991H15.8051V52.3398H16.129V54.4753H19.0441V52.3398H19.368Z" fill="#878787"/>
<path d="M20.5988 55.2519C20.5988 55.5755 20.5988 55.7696 20.6636 55.9637C20.7284 56.1579 20.7932 56.2873 20.9227 56.4167C21.0523 56.5461 21.1819 56.6109 21.3115 56.6756C21.441 56.7403 21.6354 56.7403 21.8297 56.7403C22.0241 56.7403 22.1537 56.7403 22.2832 56.6756C22.4128 56.6109 22.4776 56.6109 22.6072 56.5461C22.6719 56.4814 22.7367 56.4814 22.8015 56.4167C22.8663 56.352 22.8663 56.352 22.9311 56.352C22.9311 56.352 22.9958 56.352 22.9958 56.4167L23.0606 56.5461C22.9958 56.6109 22.931 56.6756 22.8663 56.7403C22.8015 56.805 22.6719 56.8697 22.6072 56.8697C22.4776 56.9344 22.4128 56.9344 22.2832 56.9344C22.1537 56.9344 22.0241 56.9991 21.8945 56.9991C21.7002 56.9991 21.441 56.9344 21.3115 56.8697C21.1171 56.805 20.9875 56.6756 20.858 56.5461C20.7284 56.4167 20.5988 56.2226 20.5341 56.0285C20.4693 55.8343 20.4045 55.5755 20.4045 55.3166C20.4045 55.0578 20.4693 54.8637 20.5341 54.6695C20.5988 54.4754 20.7284 54.2813 20.7932 54.1518C20.9227 54.0224 21.0523 53.893 21.2467 53.8283C21.441 53.7636 21.6354 53.6989 21.8945 53.6989C22.0889 53.6989 22.2184 53.6989 22.4128 53.7636C22.5423 53.8283 22.7367 53.893 22.8015 54.0224C22.9311 54.1518 22.9958 54.2813 23.0606 54.4754C23.1254 54.6695 23.1902 54.8637 23.1902 55.0578C23.1902 55.1225 23.1902 55.1225 23.1902 55.1872H23.1254H20.5988V55.2519ZM22.8015 55.0578C22.8015 54.8637 22.8015 54.7342 22.7367 54.6048C22.6719 54.4754 22.6071 54.346 22.5423 54.2813C22.4776 54.2165 22.348 54.0871 22.2184 54.0871C22.0889 54.0224 21.9593 54.0224 21.8297 54.0224C21.6354 54.0224 21.5058 54.0224 21.3762 54.0871C21.2467 54.1518 21.1171 54.2165 21.0523 54.2813C20.9228 54.4107 20.858 54.4754 20.7932 54.6048C20.7284 54.7342 20.6636 54.9284 20.6636 55.0578H22.8015Z" fill="#878787"/>
<path d="M23.838 54.2165C24.0323 54.0224 24.1618 53.893 24.3562 53.8283C24.5505 53.7636 24.7449 53.6989 25.004 53.6989C25.1983 53.6989 25.3279 53.6989 25.4575 53.7636C25.587 53.8283 25.7166 53.893 25.7814 54.0224C25.8462 54.1518 25.9109 54.2813 25.9757 54.4107C26.0405 54.5401 26.0405 54.7342 26.0405 54.9284V57.0638H25.911C25.8462 57.0638 25.7814 57.0638 25.7814 56.9991L25.7166 56.6109C25.6518 56.6756 25.5223 56.805 25.4575 56.8697C25.3927 56.9344 25.2632 56.9991 25.1984 57.0638C25.1336 57.1285 25.004 57.1285 24.8745 57.1933C24.7449 57.1933 24.6153 57.258 24.4858 57.258C24.3562 57.258 24.2914 57.258 24.1619 57.1933C24.0323 57.1285 23.9675 57.1285 23.9028 57.0638C23.838 56.9991 23.7732 56.9344 23.7084 56.805C23.6436 56.6756 23.6436 56.5461 23.6436 56.4167C23.6436 56.2873 23.7084 56.1579 23.7732 56.0285C23.838 55.899 23.9675 55.8343 24.1619 55.7049C24.3562 55.6402 24.5505 55.5755 24.8097 55.5108C25.0688 55.4461 25.3927 55.4461 25.7814 55.4461V55.1225C25.7814 54.7989 25.7166 54.6048 25.5871 54.4107C25.4575 54.2165 25.2631 54.1518 25.004 54.1518C24.8744 54.1518 24.6801 54.1518 24.6153 54.2165C24.4858 54.2813 24.421 54.2813 24.3562 54.346C24.2914 54.4107 24.2266 54.4754 24.1619 54.4754C24.0971 54.5401 24.0971 54.5401 24.0323 54.5401H23.9675C23.9675 54.5401 23.9675 54.5401 23.9028 54.4754L23.838 54.2165ZM25.7166 55.4461C25.3927 55.4461 25.1336 55.5108 24.9392 55.5108C24.7449 55.5755 24.5505 55.5755 24.3562 55.6402C24.2266 55.7049 24.0971 55.7696 24.0323 55.899C23.9675 55.9637 23.9028 56.0932 23.9028 56.2226C23.9028 56.352 23.9027 56.4167 23.9675 56.4814C24.0323 56.5461 24.0323 56.6109 24.0971 56.6756C24.1619 56.7403 24.2266 56.7403 24.2914 56.805C24.3562 56.805 24.421 56.8697 24.5506 56.8697C24.6801 56.8697 24.8097 56.8697 24.8745 56.805C25.004 56.805 25.0688 56.7403 25.1984 56.6756C25.2632 56.6109 25.3927 56.5461 25.4575 56.4814C25.5223 56.4167 25.5871 56.352 25.7166 56.2873V55.4461Z" fill="#878787"/>
<path d="M27.4658 52.2104V56.9991H27.1418V52.2104H27.4658Z" fill="#878787"/>
<path d="M29.4092 57.0638C29.2149 57.0638 29.0205 56.9991 28.8909 56.8697C28.7614 56.7403 28.6966 56.5461 28.6966 56.2873V54.0871H28.2431H28.1783C28.1783 54.0871 28.1783 54.0871 28.1783 54.0224V53.893L28.7614 53.8283L28.8262 52.6635V52.5988C28.8262 52.5988 28.8261 52.5988 28.8909 52.5988H29.0205V53.8283H30.057V54.0871H29.0205V56.2873C29.0205 56.352 29.0205 56.4814 29.0853 56.5461C29.0853 56.6108 29.1501 56.6756 29.1501 56.6756C29.2148 56.7403 29.2148 56.7403 29.2796 56.7403C29.3444 56.7403 29.4092 56.7403 29.474 56.7403C29.5387 56.7403 29.6035 56.7403 29.6683 56.6756C29.7331 56.6756 29.7979 56.6108 29.7979 56.6108C29.8626 56.6108 29.8627 56.5461 29.9274 56.5461L29.9922 56.4814C29.9922 56.4814 30.057 56.4814 30.057 56.5461L30.1218 56.6756C30.057 56.7403 29.9274 56.8697 29.7979 56.8697C29.7331 57.0638 29.6035 57.0638 29.4092 57.0638Z" fill="#878787"/>
<path d="M31.0935 54.2812C31.2231 54.0871 31.4174 53.9577 31.6117 53.8282C31.8061 53.6988 32.0004 53.6341 32.2596 53.6341C32.4539 53.6341 32.5835 53.6341 32.713 53.6988C32.8426 53.7635 32.9722 53.8282 33.0369 53.9577C33.1017 54.0871 33.1665 54.2165 33.2313 54.3459C33.2961 54.4753 33.2961 54.6695 33.2961 54.8636V56.9344H32.9722V54.8636C32.9722 54.5401 32.9074 54.3459 32.7778 54.1518C32.6482 53.9577 32.4539 53.8929 32.13 53.8929C31.9356 53.8929 31.7413 53.9577 31.547 54.0871C31.3526 54.2165 31.2231 54.3459 31.0287 54.5401V56.9991H30.7696V52.2104H31.0935V54.2812Z" fill="#878787"/>
<path d="M39.7094 56.2226L39.9037 56.4167C39.839 56.5461 39.7094 56.6108 39.5798 56.6755C39.4503 56.7402 39.3207 56.805 39.1912 56.8697C39.0616 56.9344 38.932 56.9991 38.7377 56.9991C38.6081 56.9991 38.4138 57.0638 38.2195 57.0638C37.8956 57.0638 37.5716 56.9991 37.3125 56.8697C37.0534 56.7402 36.7943 56.6108 36.5999 56.4167C36.4056 56.2225 36.276 55.9637 36.1465 55.6402C36.0169 55.3166 36.0169 54.993 36.0169 54.6695C36.0169 54.3459 36.0817 54.0224 36.2113 53.6988C36.3408 53.44 36.4704 53.1811 36.6647 52.9223C36.8591 52.7281 37.1182 52.534 37.3773 52.4046C37.6364 52.2752 37.9603 52.2104 38.2842 52.2104C38.6081 52.2104 38.8673 52.2752 39.1264 52.3399C39.3855 52.4693 39.5799 52.5987 39.7742 52.7281L39.6446 52.8576L39.5798 52.9223C39.5798 52.9223 39.5151 52.9223 39.4503 52.8576C39.3855 52.7929 39.3207 52.7281 39.1912 52.7281C39.0616 52.6634 38.9321 52.5987 38.8025 52.5987C38.6729 52.534 38.4786 52.534 38.2195 52.534C37.9603 52.534 37.7012 52.5987 37.4421 52.6634C37.183 52.7281 36.9886 52.9223 36.8591 53.0517C36.6647 53.2458 36.5352 53.44 36.4704 53.6988C36.4056 53.9577 36.3408 54.2165 36.3408 54.5401C36.3408 54.8636 36.4056 55.1872 36.4704 55.446C36.5352 55.7049 36.6647 55.899 36.8591 56.0931C37.0534 56.2873 37.2477 56.4167 37.4421 56.4814C37.6364 56.5461 37.8956 56.6108 38.1547 56.6108C38.349 56.6108 38.4786 56.6108 38.6081 56.5461C38.7377 56.5461 38.8673 56.4814 38.9968 56.4167C39.1264 56.352 39.1912 56.2873 39.3207 56.2873C39.3855 56.2226 39.5151 56.1578 39.5798 56.0931C39.6446 56.2225 39.6446 56.2226 39.7094 56.2226C39.6446 56.2226 39.7094 56.2226 39.7094 56.2226Z" fill="#878787"/>
<path d="M40.5516 54.2165C40.7459 54.0224 40.8755 53.893 41.0699 53.8283C41.2642 53.7636 41.4585 53.6989 41.7177 53.6989C41.912 53.6989 42.0415 53.6989 42.1711 53.7636C42.3007 53.8283 42.4302 53.893 42.495 54.0224C42.5598 54.1518 42.6246 54.2813 42.6894 54.4107C42.7542 54.5401 42.7542 54.7342 42.7542 54.9284V57.0638H42.6246C42.5598 57.0638 42.495 57.0638 42.495 56.9991L42.4302 56.6109C42.3655 56.6756 42.2359 56.805 42.1711 56.8697C42.1063 56.9344 41.9768 56.9991 41.912 57.0638C41.8472 57.1285 41.7177 57.1285 41.5881 57.1933C41.4585 57.1933 41.3289 57.258 41.1994 57.258C41.0698 57.258 41.005 57.258 40.8755 57.1933C40.7459 57.1285 40.6812 57.1285 40.6164 57.0638C40.5516 56.9991 40.4868 56.9344 40.422 56.805C40.3573 56.6756 40.3572 56.5461 40.3572 56.4167C40.3572 56.2873 40.422 56.1579 40.4868 56.0285C40.5516 55.899 40.6811 55.8343 40.8755 55.7049C41.0698 55.6402 41.2642 55.5755 41.5233 55.5108C41.7824 55.4461 42.1063 55.4461 42.495 55.4461V55.1225C42.495 54.7989 42.4302 54.6048 42.3007 54.4107C42.1711 54.2165 41.9768 54.1518 41.7177 54.1518C41.5881 54.1518 41.3937 54.1518 41.329 54.2165C41.1994 54.2813 41.1346 54.2813 41.0699 54.346C41.0051 54.4107 40.9403 54.4754 40.8755 54.4754C40.8107 54.5401 40.8107 54.5401 40.7459 54.5401H40.6811C40.6811 54.5401 40.6812 54.5401 40.6164 54.4754L40.5516 54.2165ZM42.4302 55.4461C42.1063 55.4461 41.8472 55.5108 41.6529 55.5108C41.4585 55.5755 41.2642 55.5755 41.0699 55.6402C40.9403 55.7049 40.8107 55.7696 40.7459 55.899C40.6812 55.9637 40.6164 56.0932 40.6164 56.2226C40.6164 56.352 40.6164 56.4167 40.6811 56.4814C40.7459 56.5461 40.7459 56.6109 40.8107 56.6756C40.8755 56.7403 40.9403 56.7403 41.0051 56.805C41.0698 56.805 41.1346 56.8697 41.2642 56.8697C41.3938 56.8697 41.5233 56.8697 41.5881 56.805C41.7177 56.805 41.7824 56.7403 41.912 56.6756C41.9768 56.6109 42.1063 56.5461 42.1711 56.4814C42.2359 56.4167 42.3007 56.352 42.4302 56.2873V55.4461Z" fill="#878787"/>
<path d="M44.1146 54.5401C44.1793 54.4107 44.2442 54.2813 44.3089 54.1518C44.3737 54.0224 44.4385 53.9577 44.5033 53.893C44.5681 53.8283 44.6976 53.7636 44.7624 53.6989C44.8919 53.6341 44.9567 53.6342 45.0863 53.6342C45.1511 53.6342 45.2159 53.6342 45.2806 53.6342C45.3454 53.6342 45.4102 53.6989 45.475 53.6989V53.893C45.475 53.9577 45.475 53.9577 45.4102 53.9577C45.4102 53.9577 45.3454 53.9577 45.2806 53.9577C45.2159 53.9577 45.1511 53.9577 45.0863 53.9577C44.9567 53.9577 44.8271 53.9577 44.7624 54.0224C44.6328 54.0871 44.5681 54.0871 44.5033 54.2166C44.4385 54.2813 44.3737 54.4107 44.3089 54.4754C44.2442 54.6048 44.1794 54.7342 44.1794 54.8637V56.9992H43.8555V53.7636H44.0498C44.1146 53.7636 44.1146 53.7636 44.1146 53.7636V53.8283V54.5401Z" fill="#878787"/>
<path d="M46.058 55.2519C46.058 55.5755 46.0581 55.7696 46.1228 55.9637C46.1876 56.1579 46.2524 56.2873 46.382 56.4167C46.5115 56.5461 46.6411 56.6109 46.7707 56.6756C46.9002 56.7403 47.0946 56.7403 47.2889 56.7403C47.4832 56.7403 47.6128 56.7403 47.7424 56.6756C47.8719 56.6109 47.9367 56.6109 48.0663 56.5461C48.1311 56.4814 48.1958 56.4814 48.2606 56.4167C48.3254 56.352 48.3254 56.352 48.3902 56.352C48.3902 56.352 48.455 56.352 48.455 56.4167L48.5198 56.5461C48.455 56.6109 48.3902 56.6756 48.3254 56.7403C48.2606 56.805 48.1311 56.8697 48.0663 56.8697C47.9367 56.9344 47.8719 56.9344 47.7424 56.9344C47.6128 56.9344 47.4832 56.9991 47.3537 56.9991C47.1593 56.9991 46.9002 56.9344 46.7707 56.8697C46.6411 56.805 46.4467 56.6756 46.3172 56.5461C46.1876 56.4167 46.0581 56.2226 45.9933 56.0285C45.9285 55.8343 45.8637 55.5755 45.8637 55.3166C45.8637 55.0578 45.9285 54.8637 45.9933 54.6695C46.0581 54.4754 46.1876 54.2813 46.2524 54.1518C46.382 54.0224 46.5115 53.893 46.7059 53.8283C46.9002 53.7636 47.0945 53.6989 47.3537 53.6989C47.548 53.6989 47.6776 53.6989 47.8719 53.7636C48.0015 53.8283 48.1958 53.893 48.2606 54.0224C48.3902 54.1518 48.455 54.2813 48.5198 54.4754C48.5845 54.6695 48.6493 54.8637 48.6493 55.0578C48.6493 55.1225 48.6493 55.1225 48.6493 55.1872H48.5845H46.058V55.2519ZM48.2606 55.0578C48.2606 54.8637 48.2606 54.7342 48.1959 54.6048C48.1311 54.4754 48.0663 54.346 48.0015 54.2813C47.9367 54.2165 47.8071 54.0871 47.6776 54.0871C47.548 54.0224 47.4185 54.0224 47.2889 54.0224C47.0946 54.0224 46.965 54.0224 46.8354 54.0871C46.7059 54.1518 46.5763 54.2165 46.5115 54.2813C46.382 54.4107 46.3172 54.4754 46.2524 54.6048C46.1876 54.7342 46.1228 54.9284 46.1228 55.0578H48.2606Z" fill="#878787"/>
<path d="M31.8061 0.376587C28.2431 0.376587 25.3927 3.22388 25.3927 6.78301V13.3836H18.7849C15.2219 13.3836 12.3715 16.2309 12.3715 19.79C12.3715 23.3491 15.2219 26.1964 18.7849 26.1964H24.6801L25.7166 25.161L27.0122 23.8668C27.2066 23.6727 27.5953 23.608 27.8544 23.7374L30.1218 24.9022L27.2713 19.2723C27.1418 18.9487 27.2066 18.6252 27.4657 18.4311C27.7248 18.2369 28.1135 18.1722 28.3726 18.3663L32.0004 20.9548L34.5269 22.7667L32.2596 19.9194L26.494 12.6717C26.2996 12.4129 26.2996 11.9599 26.5588 11.7011C26.8179 11.4422 27.2066 11.4422 27.5305 11.6364L32.13 15.0661L35.6282 17.6545L33.0369 13.5777L32.9074 13.3189C32.713 13.06 32.7778 12.6717 32.9722 12.4129C33.2313 12.154 33.5552 12.1541 33.8791 12.2835L35.8226 13.513L36.7295 14.0954L37.3125 13.513L38.3491 12.4776V6.58888C38.2195 3.2886 35.3691 0.376587 31.8061 0.376587Z" fill="#878787"/>
<path d="M37.8308 27.1023L29.8626 21.343L32.3891 26.3258C32.5187 26.5846 32.4539 26.9082 32.2595 27.167C32.0652 27.3612 31.6765 27.4259 31.4174 27.2965L27.6601 25.3551L25.7166 27.2965V33.2499C25.7166 36.809 28.567 39.6563 32.13 39.6563C35.6929 39.6563 38.5433 36.809 38.5433 33.2499V27.2318C38.349 27.2965 38.0251 27.2965 37.8308 27.1023Z" fill="#878787"/>
<path d="M45.1511 13.7719H39.1912L37.183 15.7779C36.9239 16.0368 36.5999 16.0367 36.276 15.9073L35.4986 15.4543L38.6081 20.3724C38.8025 20.6313 38.7377 21.0195 38.4786 21.2784C38.2195 21.5372 37.8308 21.5372 37.5716 21.3431L35.9521 20.1136L30.8344 16.2956L31.8709 17.5898L38.7377 26.1964C38.8673 26.3258 38.9321 26.52 38.8673 26.7141H45.0863C48.6493 26.7141 51.4997 23.8668 51.4997 20.3077C51.6292 16.6192 48.7141 13.7719 45.1511 13.7719Z" fill="#878787"/>
<path d="M38.8025 26.0669C38.9969 26.3258 38.9968 26.7788 38.7377 26.9729C38.4786 27.2317 38.0899 27.2317 37.8308 27.0376L36.2112 25.8728L33.8791 28.2024H40.1629V21.9254L37.5716 24.5139L38.8025 26.0669Z" fill="#878787"/>
</svg>
