<svg width="68" height="40" viewBox="0 0 68 40" fill="none" xmlns="http://www.w3.org/2000/svg">
<path d="M27.597 26.0554H25.9774V27.4143H27.7265V27.8026H25.3944V23.9846H27.597V24.3729H25.9126V25.6024H27.5322V26.0554H27.597Z" fill="#878787"/>
<path d="M28.6334 25.0847L29.2165 26.6378C29.346 26.8966 29.4108 27.0908 29.4756 27.3496C29.5404 27.0908 29.6052 26.8966 29.7347 26.6378L30.3178 25.0847H30.9008L29.7347 27.8026H29.1517L28.0504 25.0847H28.6334Z" fill="#878787"/>
<path d="M31.5486 26.5731C31.5486 27.2202 32.0021 27.5437 32.5851 27.5437C32.9738 27.5437 33.1682 27.479 33.4273 27.4143L33.4921 27.8026C33.2977 27.8673 32.9738 27.9967 32.5203 27.9967C31.6134 27.9967 31.0952 27.4143 31.0952 26.6378C31.0952 25.7965 31.6134 25.1494 32.4556 25.1494C33.4273 25.1494 33.6864 25.926 33.6864 26.4436C33.6864 26.5731 33.6864 26.6378 33.6864 26.7025H31.5486V26.5731ZM33.1682 26.1848C33.1682 25.8612 33.0386 25.3436 32.4556 25.3436C31.9373 25.3436 31.6782 25.7965 31.6134 26.1848H33.1682Z" fill="#878787"/>
<path d="M34.3342 25.7966C34.3342 25.5377 34.3342 25.2789 34.3342 25.02H34.7877V25.473C34.9173 25.2142 35.306 24.9553 35.7594 24.9553C36.1481 24.9553 36.7959 25.2142 36.7959 26.1201V27.7379H36.2777V26.2495C36.2777 25.7966 36.0833 25.4083 35.5651 25.4083C35.2412 25.4083 34.9173 25.6671 34.8525 25.926C34.8525 25.9907 34.7877 26.0554 34.7877 26.1848V27.8673H34.3342V25.7966Z" fill="#878787"/>
<path d="M38.2859 24.3081V25.0847H39.0633V25.4729H38.2859V26.9613C38.2859 27.2848 38.4155 27.479 38.6746 27.479C38.8042 27.479 38.9337 27.479 38.9985 27.4142V27.8025C38.8689 27.8672 38.7394 27.8672 38.545 27.8672C38.2859 27.8672 38.0916 27.8025 37.962 27.6731C37.8324 27.5437 37.7677 27.2848 37.7677 26.9613V25.4729H37.3142V25.0847H37.7677V24.4375L38.2859 24.3081Z" fill="#878787"/>
<path d="M39.5816 27.3496C39.7111 27.4143 40.035 27.5437 40.2942 27.5437C40.6829 27.5437 40.8772 27.3496 40.8772 27.1555C40.8772 26.8966 40.7476 26.7672 40.3589 26.6378C39.8407 26.4436 39.5816 26.1848 39.5816 25.8612C39.5816 25.4083 39.9703 25.0847 40.6181 25.0847C40.942 25.0847 41.2011 25.1494 41.3307 25.2788L41.2011 25.6671C41.0715 25.6024 40.8772 25.5377 40.6181 25.5377C40.2942 25.5377 40.0998 25.7318 40.0998 25.926C40.0998 26.1848 40.2942 26.2495 40.6829 26.3789C41.2011 26.5731 41.4602 26.7672 41.4602 27.2202C41.4602 27.6732 41.0715 28.0614 40.3589 28.0614C40.035 28.0614 39.7111 27.9967 39.5168 27.8673L39.5816 27.3496Z" fill="#878787"/>
<path d="M0.453461 21.0079C0.453461 20.1019 1.10128 19.4548 1.81387 19.4548C2.39691 19.3901 2.7856 19.7137 2.7856 20.2314C2.7856 20.6196 2.52647 20.8785 2.20256 21.0726C1.94344 21.2668 1.74909 21.4609 1.74909 21.7197C1.74909 22.2374 2.59125 22.6904 4.27558 22.561C6.2838 22.3669 8.22725 21.3315 9.58767 20.3608C9.06941 19.9078 8.16247 18.743 8.16247 17.4488C8.16247 15.8957 9.39332 14.7309 11.2072 14.7309C12.5676 14.7956 13.5393 15.8957 13.8633 16.6075C14.1872 16.284 14.7702 15.7663 15.0941 15.5074C16.4545 14.2779 17.6854 13.2426 18.9162 12.5307C19.8879 12.013 20.9892 11.5601 22.0257 11.5601C22.544 11.5601 22.8031 11.6895 22.9327 11.8189C23.0622 11.9483 23.1918 12.1425 23.127 12.2072C23.0622 12.2072 22.9975 12.1425 22.8679 12.013C22.7383 11.9483 22.4792 11.8836 22.2849 11.8836C22.0257 11.8836 21.7018 11.9483 21.4427 12.1425C20.8597 12.5954 19.9527 13.6955 19.3697 14.5368C17.7501 16.737 16.001 19.3901 14.5758 21.7845C14.9645 21.7845 15.4828 21.5903 16.001 21.3315C16.5193 21.0726 17.2319 20.5549 17.6206 20.1667C17.7501 20.0372 17.8149 20.0372 17.8797 20.102C17.9445 20.1667 17.8797 20.2314 17.6854 20.4255C17.2967 20.7491 16.7136 21.2668 16.0658 21.5903C15.5476 21.8492 14.8998 22.0433 14.4463 22.0433C14.0576 22.4316 13.7985 22.6257 13.4746 22.6904C12.762 22.8198 12.762 22.4963 12.8267 22.3021C12.8915 22.1727 12.9563 22.0433 13.0211 21.9139C12.5676 21.8492 11.7902 21.655 11.3368 21.4609C10.7537 21.2021 10.1707 20.8785 9.84679 20.5549C8.87507 21.2668 6.60771 22.7551 4.14601 22.8845C2.073 23.0787 0.453461 22.4316 0.453461 21.0079ZM11.1424 15.1192C9.78201 15.1192 9.06941 16.284 9.06941 17.4488C9.00463 18.5489 9.58767 19.5843 9.91157 19.9725C10.4298 19.5196 11.0776 19.0019 11.7902 18.3547C12.4381 17.8371 13.0211 17.2547 13.6041 16.737C13.0859 15.831 12.2437 15.1192 11.1424 15.1192ZM11.4016 21.1373C11.7902 21.3315 12.6324 21.5903 13.0859 21.655C13.2802 21.2668 13.7337 20.6196 13.8633 20.4255C14.0576 20.0372 14.0576 19.2607 13.9928 18.5489C13.928 17.9018 13.8633 17.4488 13.7337 17.0605C13.0859 17.6429 12.5028 18.1606 11.9198 18.6783C11.2072 19.3254 10.6242 19.7784 10.0411 20.2961C10.365 20.6196 10.9481 20.9432 11.4016 21.1373ZM17.2967 15.5074C18.8514 13.4367 20.2766 12.3366 21.4427 11.8189C20.8597 11.8836 19.8879 12.2072 18.981 12.7249C17.7501 13.372 16.5193 14.4721 15.5476 15.378C14.8998 15.9604 14.4463 16.4134 13.928 16.8664C14.0576 17.2547 14.1872 17.7076 14.2519 18.5489C14.2519 19.0019 14.2519 19.5196 14.1872 19.9725C14.835 19.0019 16.3897 16.6722 17.2967 15.5074Z" fill="#878787"/>
<path d="M20.6653 18.096C21.1836 18.096 21.3131 18.3548 21.3131 18.6784C21.3131 19.0019 21.1188 19.3255 20.7949 19.7784C20.4062 20.2961 19.8879 21.008 19.564 21.3962C20.2119 20.8785 21.054 20.1667 21.8962 19.4549C22.8031 18.8078 23.9044 18.096 24.6818 18.096C25.3296 18.096 25.5887 18.4195 25.5239 18.8078C25.4592 19.196 24.9409 19.7784 24.5522 20.2961C24.0988 20.8138 23.8396 21.1374 23.6453 21.3962C24.2283 20.8785 25.1353 20.102 26.0422 19.3902C26.9491 18.7431 28.0504 18.0312 28.8278 18.0312C29.4108 18.0312 29.67 18.2901 29.6052 18.7431C29.5404 19.196 28.9574 19.7784 28.5687 20.2961C28.18 20.8138 27.8561 21.2021 27.7265 21.3962C27.5322 21.7198 27.5322 21.9139 27.597 21.9786C27.7265 22.108 27.9856 21.9786 28.2448 21.8492C28.5687 21.7198 28.8926 21.4609 29.4756 21.0727C29.9291 20.7491 30.4473 20.2961 30.7065 20.0373C30.836 19.9079 30.9656 19.7784 31.0304 19.9079C31.0952 19.9726 31.0304 20.0373 30.836 20.2314C30.5769 20.4903 29.8643 21.1374 29.2813 21.5904C28.763 21.9786 27.7913 22.6257 26.9491 22.6257C26.4309 22.6257 26.1718 22.3669 26.1718 21.9786C26.1718 21.3962 26.8196 20.7491 27.273 20.1667C27.6617 19.7137 27.9856 19.3255 28.3743 18.9372C28.5039 18.8078 28.5039 18.6784 28.3743 18.5489C28.2448 18.4842 27.9856 18.5489 27.7265 18.6784C27.273 18.9372 26.5605 19.3255 25.7183 19.9726C24.617 20.8138 23.9692 21.4609 22.8679 22.3022C22.6088 22.4963 22.4792 22.561 22.2201 22.561C21.8314 22.561 21.7018 22.4963 21.8962 22.1728C22.1553 21.6551 22.8031 20.7491 23.2566 20.1667C23.7101 19.649 24.1635 19.196 24.3579 18.9372C24.4874 18.8078 24.4874 18.6137 24.3579 18.5489C24.2283 18.4842 23.9692 18.5489 23.7101 18.6784C23.2566 18.9372 22.4792 19.3902 21.7018 19.9726C20.6005 20.8138 19.9527 21.4609 18.8514 22.3022C18.5923 22.4963 18.4628 22.561 18.2036 22.561C17.8149 22.561 17.6854 22.4963 17.8797 22.1728C18.0741 21.8492 18.5923 21.008 18.981 20.4256C19.3697 19.9079 19.6936 19.4549 20.0175 19.0666C20.2119 18.8078 20.2766 18.6784 20.2119 18.6136C20.1471 18.4842 19.9527 18.5489 19.8232 18.6136C19.4993 18.7431 19.1106 19.0666 18.8514 19.3255C18.5275 19.5843 18.1388 19.9726 17.7502 20.2961C17.491 20.555 17.3615 20.6197 17.2967 20.555C17.2319 20.4903 17.3615 20.3608 17.6854 20.0373C18.0093 19.7784 18.5275 19.1961 19.0458 18.8725C19.6288 18.3548 20.1471 18.096 20.6653 18.096Z" fill="#878787"/>
<path d="M31.8078 19.4548C31.4191 19.7784 31.0952 20.102 30.9008 20.2961C30.7713 20.4255 30.6417 20.4255 30.6417 20.4255C30.5769 20.3608 30.6417 20.2961 30.7712 20.1667C31.1599 19.7784 31.8078 19.196 32.3908 18.743C33.3625 17.5135 35.3707 14.9251 37.5733 12.8543C39.452 11.1071 41.6546 9.87756 43.2741 9.87756C44.3754 9.87756 45.0232 10.2658 45.1528 10.7188C45.2823 11.1071 45.2823 11.6248 44.9584 12.0778C44.9584 11.7542 44.8936 11.3012 44.7641 11.0424C44.5049 10.5247 44.0515 10.2011 43.0797 10.2011C41.8489 10.2011 40.7476 10.8482 39.3224 12.2072C37.962 13.5014 35.4355 16.5428 34.0103 18.4195C33.5569 19.0019 33.1682 19.5843 32.6499 20.2961C32.4556 20.6197 31.8725 21.3962 31.8725 21.9786C31.8725 22.3669 32.0021 22.4963 32.3908 22.4963C32.7795 22.4963 33.4921 22.1727 34.3342 21.3962C34.8525 20.9432 35.2412 20.2314 35.3707 19.7784C35.306 19.649 35.1764 19.3901 35.2412 19.0666C35.306 18.5489 35.6299 18.0959 36.0186 18.0959C36.3425 18.0959 36.4072 18.4842 36.3425 18.8077C36.2777 19.196 36.0833 19.5843 35.9538 19.7784C36.0186 19.8431 36.2129 19.9078 36.4072 19.9078C36.9255 19.9078 37.5085 19.5843 37.7677 19.2607C38.1563 18.9372 38.4155 18.6136 38.6098 18.3548C38.3507 18.2253 38.3507 17.8371 38.6098 17.5135C38.8042 17.2547 39.1281 17.0605 39.5815 17.0605C39.8407 17.0605 40.035 17.1899 40.0998 17.3194C39.9702 17.4488 39.7759 17.5782 39.6463 17.7076C39.3224 18.0312 39.3872 18.2253 39.7111 18.29C40.4237 18.29 41.2011 18.3548 41.2011 18.8077C41.2011 19.196 40.5533 19.7137 40.035 20.3608C39.5815 20.8785 39.3224 21.3315 39.1929 21.5903C39.0633 21.8492 39.0633 21.9786 39.1929 22.108C39.3224 22.1727 39.452 22.1727 39.7759 21.9786C40.035 21.8492 40.4885 21.5256 40.942 21.2021C41.525 20.7491 41.7841 20.4902 42.1728 20.2314C42.3671 20.0373 42.4967 19.9725 42.5615 20.0372C42.6263 20.102 42.4319 20.2961 42.2376 20.4902C41.9137 20.7491 41.3954 21.2021 40.7476 21.7197C40.2294 22.108 39.3224 22.7551 38.4803 22.7551C37.962 22.7551 37.6381 22.4963 37.7029 22.108C37.7029 21.5256 38.3507 20.8138 38.9337 20.2961C39.5815 19.7137 40.5533 19.0019 40.618 18.8077C40.7476 18.5489 40.2294 18.5489 39.5815 18.6136C39.2576 18.6136 39.1281 18.6136 38.9985 18.5489C38.8042 18.8077 38.4803 19.196 38.0916 19.5196C37.7677 19.7784 37.1846 20.1667 36.6664 20.1667C36.4072 20.1667 36.1481 20.1667 36.0186 20.0372C35.8242 20.3608 35.2412 21.0726 34.6581 21.5903C33.816 22.3022 33.0386 22.8198 32.1964 22.8198C31.4838 22.8198 30.9656 22.4316 30.9656 21.7845C30.9656 21.2021 31.2895 20.6197 31.6134 20.2314C31.4838 19.9078 31.6134 19.7137 31.8078 19.4548Z" fill="#878787"/>
<path d="M42.108 20.2961C41.9137 20.4256 41.8489 20.4903 41.7841 20.4256C41.7194 20.3608 41.8489 20.2314 41.9785 20.102C42.1728 19.9079 42.4967 19.649 42.7559 19.4549C43.0798 19.196 43.4685 19.0019 43.9867 18.7431C44.6993 18.3548 45.5415 18.096 46.1245 18.0312C46.3188 18.0312 46.5132 18.0312 46.5132 18.1607C46.5132 18.2254 46.4484 18.2254 46.2541 18.2901C45.6063 18.5489 45.1528 19.0019 44.3754 19.7137C43.6628 20.4256 42.9502 21.4609 42.8854 21.9786C42.8854 22.2375 42.9502 22.4316 43.2741 22.4316C43.8572 22.4316 44.8937 21.7198 45.671 20.8785C45.671 20.6197 45.8006 20.2314 46.1245 19.7784C46.3836 19.3902 46.7723 19.196 46.9667 19.1313C47.0314 18.9372 47.0314 18.6784 47.0314 18.5489C47.0314 18.2901 46.9019 18.1607 47.0314 18.1607C47.161 18.096 47.2906 18.2254 47.4201 18.2901C47.6145 18.4842 47.8088 18.8078 47.744 19.1961C47.6793 19.8432 47.0962 20.555 46.2541 21.2668C46.3836 21.3315 46.6428 21.2668 46.7723 21.2668C47.0314 21.2021 47.2906 21.0727 47.6145 20.8138C47.9384 20.555 48.1327 20.4256 48.4566 20.1667C48.7158 19.9726 48.8453 19.8432 48.9101 19.9079C48.9749 19.9726 48.8453 20.1667 48.5862 20.3608C48.3271 20.555 48.0679 20.8138 47.744 21.008C47.3554 21.2668 47.0314 21.3962 46.7723 21.4609C46.5132 21.5257 46.2541 21.5256 46.0597 21.3962C45.4119 21.9139 44.1811 22.6257 43.1445 22.6257C42.3672 22.6257 41.8489 22.2375 41.9137 21.5256C41.9137 21.008 42.2376 20.4256 42.7559 19.9079C42.3672 20.0373 42.3024 20.1667 42.108 20.2961Z" fill="#878787"/>
<path d="M52.6027 21.3315C53.3153 20.8785 53.8335 20.4255 54.287 20.0373C54.4165 19.9078 54.5461 19.7784 54.6109 19.9078C54.6757 19.9725 54.5461 20.102 54.3518 20.2961C54.0926 20.5549 53.6392 20.9432 53.0561 21.3315C52.4731 21.7198 51.9548 21.9786 51.4366 22.1727C50.9831 22.3669 50.0762 22.6257 49.2988 22.6257C47.9384 22.6257 47.6793 21.7845 47.744 21.0726C47.8736 20.3608 48.4566 19.7137 49.0397 19.7137C49.4284 19.7137 49.5579 19.9725 49.5579 20.2961C49.4931 20.5549 49.2988 20.7491 48.9749 20.9432C48.7158 21.0726 48.3919 21.3315 48.3919 21.7198C48.3919 22.108 48.651 22.3669 49.1045 22.3669C49.6227 22.3669 50.2705 21.9786 50.8536 21.0079C51.307 20.2961 51.7605 18.743 52.0844 18.4195C51.8253 18.6783 51.307 19.0666 50.8536 19.3901C50.4649 19.649 50.0762 19.9078 49.8818 20.0373C49.7523 20.102 49.6875 20.1667 49.6227 20.0373C49.6227 19.9725 49.6227 19.9078 49.7523 19.8431C50.0114 19.7137 50.4001 19.4548 50.8536 19.1313C51.307 18.8077 51.7605 18.4195 52.3435 17.9018C52.4083 17.7724 52.6027 17.5782 52.7322 17.4488C52.9913 17.2546 53.3153 17.1899 53.4448 17.1899C54.0279 17.1899 53.6392 17.5135 53.3153 17.7076C53.0561 17.8371 52.797 17.9665 52.6674 18.0959C52.4731 18.29 52.4731 18.4842 52.4731 18.8077C52.4731 19.5196 52.5379 20.1667 52.214 20.8785C52.0844 21.2668 51.6957 21.7198 51.3718 21.9139C51.7605 21.8492 52.214 21.5903 52.6027 21.3315Z" fill="#878787"/>
<path d="M55.2587 19.5843C54.87 19.9079 54.6109 20.102 54.3518 20.3609C54.1574 20.555 54.0278 20.6197 53.9631 20.555C53.8983 20.4903 53.9631 20.4256 54.2222 20.1667C54.4813 19.9079 55.453 19.1313 56.0361 18.7431C56.6839 18.2901 57.0078 18.1607 57.5261 18.1607C58.0443 18.1607 58.1091 18.2254 57.7852 18.5489C57.3317 19.0666 56.943 19.5196 56.4248 20.1667C55.9713 20.6844 55.7122 21.1374 55.5178 21.3962C55.3883 21.6551 55.3235 21.8492 55.453 21.9786C55.5826 22.1081 55.8417 22.0434 56.1009 21.9139C56.36 21.7845 56.8135 21.5257 57.2021 21.1374C57.7204 20.6844 57.9795 20.4903 58.3682 20.102C58.6273 19.9079 58.6921 19.7785 58.7569 19.8432C58.8217 19.9079 58.5626 20.1667 58.4978 20.2314C58.1739 20.555 57.5261 21.0727 57.0078 21.5257C56.4895 21.9139 55.6474 22.5611 54.8052 22.5611C54.287 22.5611 54.0278 22.3022 54.0278 21.9139C54.0278 21.5904 54.2222 21.2668 54.4165 20.9433C54.9348 20.1667 55.9065 19.0666 56.36 18.7431C56.2304 18.8725 55.6474 19.2608 55.2587 19.5843ZM59.9878 14.6663C60.3117 14.6663 60.506 14.9251 60.1821 15.3134C59.8582 15.7016 59.2104 16.0252 58.9512 16.0252C58.8217 15.8958 58.8217 15.5075 58.9512 15.1839C59.0808 14.7957 59.4695 14.6663 59.9878 14.6663Z" fill="#878787"/>
<path d="M60.3764 18.8077C61.2834 18.2901 62.2551 17.9665 62.9677 18.0959C63.486 18.2253 63.6803 18.6136 63.486 19.0666C64.1338 18.4195 64.5225 18.0959 64.9759 18.0959C65.4942 18.0959 65.559 18.2253 65.2999 18.4842C64.9759 18.8725 64.3929 19.5196 63.8747 20.1667C63.4212 20.6844 63.1621 21.0079 62.9677 21.3962C62.8382 21.655 62.7734 21.9139 62.8382 22.108C62.9029 22.3669 63.0973 22.4316 63.2916 22.4316C63.7451 22.4316 64.1338 22.1727 64.5225 21.9786C65.3646 21.5903 66.0772 21.2021 66.7251 21.2021C67.2433 21.2021 67.5672 21.5903 67.632 22.0433C67.632 22.561 67.2433 22.8198 67.1137 22.8846C67.049 22.8846 66.9842 22.9493 66.9842 22.9493C66.9842 22.9493 66.9842 22.8846 66.9842 22.8198C67.049 22.7551 67.1137 22.6257 67.1137 22.3669C67.1137 21.7198 66.6603 21.5256 66.2068 21.5256C65.7533 21.5256 65.2999 21.655 64.3281 22.1727C63.9394 22.3669 63.3564 22.6904 62.7086 22.6904C62.2551 22.6904 61.7369 22.4963 61.6073 22.0433C61.5425 21.7198 61.6073 21.3315 61.7369 21.0726C61.0891 21.655 59.8582 22.4963 58.8865 22.561C58.3034 22.561 57.7204 22.3669 57.85 21.5256C57.9148 21.1374 58.1091 20.7491 58.5626 20.1667C58.4978 20.2314 58.3682 20.3608 58.2387 20.4902C58.1091 20.555 58.0443 20.6197 57.9795 20.555C57.9147 20.4902 58.0443 20.2961 58.3682 20.0373C58.433 19.9725 58.8865 19.5843 59.1456 19.3901C59.4695 19.3254 59.8582 19.0666 60.3764 18.8077ZM60.4412 19.9726C59.4047 21.0079 58.9513 21.655 59.016 21.9786C59.016 22.1727 59.1456 22.2374 59.3399 22.2374C59.8582 22.2374 60.8299 21.655 61.4777 21.0079C62.3199 20.2961 63.2268 19.196 63.2268 18.8077C63.2268 18.4842 63.0325 18.3548 62.7734 18.3548C62.3199 18.3548 61.413 19.0019 60.4412 19.9726Z" fill="#878787"/>
<path d="M3.36865 28.1909C3.36865 28.1909 6.93164 30.5853 9.97638 27.6085C9.97638 27.6732 6.67251 24.8906 3.36865 28.1909Z" fill="#878787"/>
<path d="M2.8504 28.9675C2.8504 28.9675 -0.583021 32.6561 1.61955 36.6035C1.61955 36.6035 5.31211 33.3679 2.8504 28.9675Z" fill="#878787"/>
<path d="M4.53472 30.9088C4.53472 30.9088 3.04475 34.9856 6.08948 37.4446C6.15426 37.4446 8.03293 33.562 4.53472 30.9088Z" fill="#878787"/>
<path d="M6.86686 33.1737C6.86686 33.1737 6.7373 37.5094 10.4298 38.7389C10.4298 38.7389 11.0129 34.4679 6.86686 33.1737Z" fill="#878787"/>
<path d="M10.3651 34.9209C10.3651 34.9209 10.8185 38.8036 14.2519 39.3213C14.2519 39.3213 14.1872 35.4386 10.3651 34.9209Z" fill="#878787"/>
<path d="M13.928 35.568C13.928 35.568 14.4463 39.3213 18.0093 39.6448C18.0093 39.7095 17.8797 35.8915 13.928 35.568Z" fill="#878787"/>
<path d="M16.7784 36.021C16.7784 36.021 18.5275 38.6095 21.2484 37.6388C21.2484 37.5741 19.7584 34.8562 16.7784 36.021Z" fill="#878787"/>
<path d="M22.1553 34.8562C22.1553 34.8562 24.5522 35.3739 25.7831 33.2384C25.7183 33.3031 23.3862 32.5266 22.1553 34.8562Z" fill="#878787"/>
<path d="M5.18253 30.3264C5.18253 30.3264 7.96813 32.3972 11.3368 30.0028C11.3368 30.0028 8.87508 27.6085 5.18253 30.3264Z" fill="#878787"/>
<path d="M7.90335 32.5266C7.90335 32.5266 11.272 33.8855 13.4746 31.0382C13.4098 31.0382 10.2355 29.291 7.90335 32.5266Z" fill="#878787"/>
<path d="M10.9481 34.3385C10.9481 34.3385 14.7702 34.209 16.0658 31.1676C16.0658 31.1029 12.3085 30.9088 10.9481 34.3385Z" fill="#878787"/>
<path d="M13.9928 35.115C13.9928 35.115 17.4263 35.0503 18.398 31.8147C18.398 31.8147 15.0293 31.5559 13.9928 35.115Z" fill="#878787"/>
<path d="M16.325 35.4386C16.325 35.4386 19.4345 35.5033 20.471 32.7854C20.471 32.7854 17.491 32.3324 16.325 35.4386Z" fill="#878787"/>
<path d="M19.8232 35.568C19.8232 35.568 21.8962 37.8329 24.617 36.6681C24.617 36.6681 22.8031 34.2737 19.8232 35.568Z" fill="#878787"/>
<path d="M0 22.6905L0.583034 22.561C2.85039 31.5559 12.0494 37.3152 21.054 35.0503L20.9245 35.115C11.5959 37.4446 2.33214 32.0089 0 22.6905Z" fill="#878787"/>
<path d="M19.6936 34.9856C19.6936 34.9856 22.7383 34.5973 23.3862 31.6853C23.3862 31.75 20.3414 31.75 19.6936 34.9856Z" fill="#878787"/>
<path d="M64.1338 12.2071C64.1338 12.2071 60.5708 9.81281 57.5261 12.7895C57.5261 12.7248 60.8299 15.5074 64.1338 12.2071Z" fill="#878787"/>
<path d="M64.6521 11.4306C64.6521 11.4306 68.0855 7.74207 65.8829 3.79468C65.8829 3.79468 62.1904 7.09496 64.6521 11.4306Z" fill="#878787"/>
<path d="M62.903 9.48933C62.903 9.48933 64.3929 5.41252 61.3482 2.95349C61.3482 2.95349 59.4695 6.83617 62.903 9.48933Z" fill="#878787"/>
<path d="M60.6356 7.22437C60.6356 7.22437 60.7651 2.8887 57.0726 1.65918C57.0726 1.65918 56.4896 5.93014 60.6356 7.22437Z" fill="#878787"/>
<path d="M57.1374 5.47714C57.1374 5.47714 56.6839 1.59447 53.2505 1.07678C53.2505 1.07678 53.3153 4.95945 57.1374 5.47714Z" fill="#878787"/>
<path d="M53.5744 4.83006C53.5744 4.83006 53.0562 1.07681 49.4932 0.753255C49.4932 0.688543 49.6227 4.50651 53.5744 4.83006Z" fill="#878787"/>
<path d="M50.724 4.44179C50.724 4.44179 48.9749 1.85332 46.2541 2.824C46.2541 2.824 47.744 5.54188 50.724 4.44179Z" fill="#878787"/>
<path d="M45.3471 5.54189C45.3471 5.54189 42.9502 5.0242 41.7194 7.15966C41.7194 7.09495 44.0515 7.93619 45.3471 5.54189Z" fill="#878787"/>
<path d="M62.3199 10.0717C62.3199 10.0717 59.5343 8.00094 56.1656 10.3953C56.1656 10.3953 58.6273 12.7896 62.3199 10.0717Z" fill="#878787"/>
<path d="M59.5991 7.93618C59.5991 7.93618 56.2304 6.57723 54.0279 9.42456C54.0279 9.35985 57.2669 11.1071 59.5991 7.93618Z" fill="#878787"/>
<path d="M56.4896 6.05957C56.4896 6.05957 52.6675 6.18899 51.3718 9.23041C51.4366 9.29512 55.1939 9.48926 56.4896 6.05957Z" fill="#878787"/>
<path d="M53.5096 5.28308C53.5096 5.28308 50.0762 5.34779 49.1045 8.58337C49.1045 8.58337 52.4731 8.84222 53.5096 5.28308Z" fill="#878787"/>
<path d="M51.1775 4.95948C51.1775 4.95948 48.0679 4.89477 47.0314 7.61266C47.0314 7.67737 50.0114 8.06565 51.1775 4.95948Z" fill="#878787"/>
<path d="M47.6793 4.83009C47.6793 4.83009 45.6063 2.56518 42.8854 3.72999C42.8854 3.72999 44.6993 6.12433 47.6793 4.83009Z" fill="#878787"/>
<path d="M67.5024 17.7076L66.9194 17.8371C64.6521 8.84218 55.4531 3.08287 46.4484 5.34776L46.578 5.28306C55.9065 2.95345 65.1055 8.38921 67.5024 17.7076Z" fill="#878787"/>
<path d="M47.8088 5.41248C47.8088 5.41248 44.7641 5.80074 44.1163 8.71275C44.1163 8.64804 47.161 8.64805 47.8088 5.41248Z" fill="#878787"/>
</svg>
