<svg width="50" height="51" viewBox="0 0 50 51" fill="none" xmlns="http://www.w3.org/2000/svg">
<path d="M38.5073 10.9595C36.2399 10.7654 34.1021 11.0889 32.2882 11.7361C33.1304 14.2598 33.4543 16.7188 33.3247 18.9837C33.1304 22.6076 31.77 25.8431 29.5674 27.9786L29.5026 28.0433C31.7052 27.6551 33.9078 26.2314 35.5273 24.1606C37.7947 21.1192 39.1551 16.3953 38.5073 10.9595Z" fill="#878787"/>
<path d="M38.5721 18.4659C38.0538 20.7308 37.1469 22.6722 35.9808 24.2253C34.3613 26.296 32.2235 27.655 30.0209 28.1079C31.6404 28.7551 33.6487 28.755 35.5921 27.9785C38.3129 26.9431 41.1633 24.3547 42.9772 20.5367C41.552 19.4366 40.0621 18.7895 38.5721 18.4659Z" fill="#878787"/>
<path fill-rule="evenodd" clip-rule="evenodd" d="M28.5309 28.2374C25.2271 17.3012 14.1494 5.00603 0.869171 7.6592C1.8409 7.72391 4.36739 10.0535 6.18127 13.4185C9.67948 19.9543 11.299 33.0908 28.5309 28.2374Z" fill="#878787"/>
<path d="M13.7607 0.282104C12.0116 2.80585 11.4286 3.51767 9.74426 7.65919C13.8903 8.62986 19.2024 12.2537 21.8584 15.4246C25.3566 19.5014 27.8831 23.837 29.0492 28.0433V27.9138C30.9278 23.4488 30.2152 18.6601 28.4661 14.9069C26.134 9.60053 21.7936 3.38825 13.7607 0.282104Z" fill="#878787"/>
<path d="M26.134 2.0293C24.5792 2.87055 23.2188 3.90592 22.0528 5.00602C25.551 8.24159 28.0127 11.9301 29.3083 15.4893C30.863 19.7602 30.8631 24.1606 29.5026 27.7844C31.5109 25.649 32.8065 22.5428 32.9361 19.0484C33.1952 14.0009 31.0574 7.65919 26.134 2.0293Z" fill="#878787"/>
<path d="M5.3391 44.9977L4.49695 41.115L2.68305 33.4144C2.55349 32.832 2.35916 32.4437 2.22959 32.379C2.10003 32.3143 1.71133 32.2496 1.19308 32.1849L1.1283 32.1201V31.7319L1.19308 31.6672C2.10002 31.7319 2.87741 31.7319 3.59001 31.7319C4.10826 31.7319 4.88564 31.7319 5.85737 31.6672L5.92213 31.7319V32.1201L5.85737 32.1849C5.14477 32.1849 4.75606 32.2496 4.6265 32.3143C4.49694 32.379 4.43216 32.4437 4.43216 32.6378C4.43216 32.7673 4.49694 33.1555 4.6265 33.8674C4.75606 34.5792 4.88563 35.1616 4.95041 35.5499L6.4404 42.021L8.77254 36.2617C9.35558 34.7086 10.0034 33.1555 10.5864 31.473H11.1695C11.6877 33.0261 12.206 34.5792 12.7242 36.0675L14.9268 42.2151L16.5463 36.5852C16.7407 36.0028 16.935 35.2263 17.1294 34.2556C17.3885 33.285 17.5181 32.7673 17.5181 32.5731C17.5181 32.379 17.4533 32.3143 17.2589 32.2496C17.1294 32.1849 16.6759 32.1849 15.8985 32.1849L15.8337 32.1201V31.7319L15.8985 31.6672C16.935 31.7319 17.5828 31.7319 17.842 31.7319C18.0363 31.7319 18.6841 31.7319 19.7854 31.6672L19.8502 31.7319V32.1849L19.7854 32.2496C19.3967 32.2496 19.2024 32.3143 19.0728 32.379C18.9433 32.4437 18.8785 32.5084 18.7489 32.6378C18.6841 32.7673 18.5546 33.0908 18.3602 33.6085L17.842 35.3557L16.8702 38.5266C16.7407 38.9796 16.4816 39.8855 16.0929 41.3092L15.0564 45.1918H14.0846C13.4368 43.2505 12.9186 41.6974 12.4651 40.5326L10.3273 34.7733L8.44863 39.4325L7.41212 42.0857C7.153 42.7975 6.95865 43.3152 6.76431 43.7682L6.24604 45.2566H5.3391V44.9977Z" fill="#878787"/>
<path d="M23.1541 35.8734L23.3484 36.0028C23.2837 36.844 23.2189 37.8794 23.2189 39.1089V41.2444C23.2189 41.3738 23.2189 41.8268 23.2836 42.6033C23.2836 43.3799 23.3484 43.7681 23.3484 43.8976C23.3484 44.027 23.4132 44.0917 23.478 44.1564C23.5428 44.2211 23.6076 44.2211 23.6723 44.2858C23.7371 44.2858 24.061 44.3505 24.7088 44.3505L24.7736 44.4152V44.8035L24.7088 44.8682C23.9315 44.8035 23.1541 44.8035 22.4415 44.8035C21.7289 44.8035 20.9515 44.8035 20.1741 44.8682L20.1093 44.8035V44.4152L20.1741 44.3505C20.7571 44.2858 21.1458 44.2858 21.2106 44.2858C21.2754 44.2858 21.3402 44.2211 21.405 44.1564C21.4698 44.0917 21.5345 44.027 21.5345 43.8976C21.5345 43.7681 21.5993 43.3799 21.5993 42.668C21.5993 41.9562 21.6641 41.4385 21.6641 41.115V39.2383C21.6641 38.9795 21.6641 38.6559 21.5993 38.203C21.5993 37.75 21.5345 37.4911 21.5345 37.4264C21.5345 37.297 21.4698 37.2323 21.405 37.2323C21.3402 37.1676 21.1458 37.1676 20.8867 37.1676H20.1093L20.0446 37.1029V36.7146L20.1093 36.6499C21.3402 36.4557 22.3119 36.1969 23.1541 35.8734ZM22.3767 31.6671C22.7006 31.6671 22.8949 31.7965 23.1541 31.9907C23.4132 32.1848 23.478 32.4436 23.478 32.7672C23.478 33.026 23.3484 33.2849 23.1541 33.479C22.9597 33.6732 22.7006 33.8026 22.3767 33.8026C22.1176 33.8026 21.8584 33.6732 21.5993 33.479C21.405 33.2849 21.2754 33.0261 21.2754 32.7025C21.2754 32.3789 21.405 32.1848 21.5993 31.926C21.7937 31.7965 22.0528 31.6671 22.3767 31.6671Z" fill="#878787"/>
<path d="M28.7901 30.9553L28.9844 31.0848C28.9196 31.7966 28.8548 33.2202 28.8548 35.4204V41.3091C28.8548 41.4386 28.8548 41.8915 28.9196 42.6681C28.9196 43.4446 28.9844 43.8329 28.9844 43.9623C28.9844 44.0917 29.0492 44.1564 29.114 44.2211C29.1787 44.2859 29.2435 44.2859 29.3083 44.3506C29.3731 44.3506 29.697 44.4153 30.3448 44.4153L30.4096 44.48V44.8683L30.3448 44.933C29.5674 44.8683 28.7901 44.8683 28.0775 44.8683C27.3649 44.8683 26.5875 44.8683 25.8101 44.933L25.7453 44.8683V44.48L25.8101 44.4153C26.3931 44.3506 26.7818 44.3506 26.8466 44.3506C26.9114 44.3506 26.9762 44.2859 27.041 44.2211C27.1057 44.1564 27.1705 44.0917 27.1705 43.9623C27.1705 43.8329 27.2353 43.4446 27.2353 42.7328C27.2353 42.021 27.3001 41.5033 27.3001 41.1797V36.3264L27.2353 34.3203C27.2353 33.6085 27.1705 33.1555 27.1705 32.8967C27.1705 32.6378 27.1057 32.4437 27.1057 32.4437C27.041 32.379 26.9762 32.379 26.9114 32.3143C26.8466 32.3143 26.4579 32.2495 25.7453 32.2495L25.6805 32.1848V31.7966L25.7453 31.7319C26.9114 31.473 27.9479 31.2789 28.7901 30.9553Z" fill="#878787"/>
<path d="M34.3613 30.9553L34.5556 31.0848C34.4909 31.7966 34.4261 33.2202 34.4261 35.4204V41.3091C34.4261 41.4386 34.4261 41.8915 34.4909 42.6681C34.4909 43.4446 34.5556 43.8329 34.5556 43.9623C34.5556 44.0917 34.6204 44.1564 34.6852 44.2211C34.75 44.2859 34.8148 44.2859 34.8796 44.3506C34.9443 44.3506 35.2682 44.4153 35.9161 44.4153L35.9809 44.48V44.8683L35.9161 44.933C35.1387 44.8683 34.3613 44.8683 33.6487 44.8683C32.9361 44.8683 32.1587 44.8683 31.3813 44.933L31.3166 44.8683V44.48L31.3813 44.4153C31.9644 44.3506 32.3531 44.3506 32.4179 44.3506C32.4826 44.3506 32.5474 44.2859 32.6122 44.2211C32.677 44.1564 32.7418 44.0917 32.7418 43.9623C32.7418 43.8329 32.8065 43.4446 32.8065 42.7328C32.8065 42.021 32.8713 41.5033 32.8713 41.1797V36.3264L32.8065 34.3203C32.8065 33.6085 32.7418 33.1555 32.7418 32.8967C32.7418 32.6378 32.677 32.4437 32.677 32.4437C32.6122 32.379 32.5474 32.379 32.4826 32.3143C32.4178 32.3143 32.0292 32.2495 31.3166 32.2495L31.2518 32.1848V31.7966L31.3166 31.7319C32.5474 31.473 33.5191 31.2789 34.3613 30.9553Z" fill="#878787"/>
<path d="M39.9325 35.8734L40.1268 36.0028C40.0621 36.844 39.9973 37.8794 39.9973 39.1089V41.2444C39.9973 41.3738 39.9973 41.8268 40.0621 42.6033C40.0621 43.3799 40.1268 43.7681 40.1268 43.8976C40.1268 44.027 40.1916 44.0917 40.2564 44.1564C40.3212 44.2211 40.386 44.2211 40.4508 44.2858C40.5155 44.2858 40.8394 44.3505 41.4873 44.3505L41.552 44.4152V44.8035L41.4873 44.8682C40.7099 44.8035 39.9325 44.8035 39.2199 44.8035C38.5073 44.8035 37.7299 44.8035 36.9525 44.8682L36.8878 44.8035V44.4152L36.9525 44.3505C37.5356 44.2858 37.9243 44.2858 37.989 44.2858C38.0538 44.2858 38.1186 44.2211 38.1834 44.1564C38.2482 44.0917 38.3129 44.027 38.3129 43.8976C38.3129 43.7681 38.3777 43.3799 38.3777 42.668C38.3777 41.9562 38.4425 41.4385 38.4425 41.115V39.2383C38.4425 38.9795 38.4425 38.6559 38.3777 38.203C38.3777 37.75 38.3129 37.4911 38.3129 37.4264C38.3129 37.297 38.2482 37.2323 38.1834 37.2323C38.1186 37.1676 37.9243 37.1676 37.6651 37.1676H36.8878L36.823 37.1029V36.7146L36.8878 36.6499C38.1186 36.4557 39.1551 36.1969 39.9325 35.8734ZM39.1551 31.6671C39.479 31.6671 39.6734 31.7965 39.9325 31.9907C40.1268 32.1848 40.2564 32.4436 40.2564 32.7672C40.2564 33.026 40.1268 33.2849 39.9325 33.479C39.7381 33.6732 39.479 33.8026 39.1551 33.8026C38.896 33.8026 38.6369 33.6732 38.3777 33.479C38.1834 33.2849 38.0538 33.0261 38.0538 32.7025C38.0538 32.3789 38.1834 32.1848 38.3777 31.926C38.6369 31.7965 38.896 31.6671 39.1551 31.6671Z" fill="#878787"/>
<path d="M42.9773 42.0856H43.366L43.4307 42.1503C43.4307 42.668 43.4955 43.121 43.4955 43.5092C43.6899 43.8328 44.0138 44.0269 44.532 44.2211C44.9855 44.4152 45.5038 44.4799 45.9572 44.4799C46.605 44.4799 47.1233 44.2858 47.5768 43.9622C47.9655 43.574 48.1598 43.1857 48.1598 42.668C48.1598 42.4092 48.095 42.1503 47.9655 41.9562C47.8359 41.762 47.5768 41.5679 47.3176 41.4385C47.0585 41.3091 46.4755 41.1796 45.7629 40.9855C45.1151 40.8561 44.6616 40.7267 44.4025 40.662C44.1433 40.5972 43.8842 40.4031 43.6899 40.209C43.4307 40.0148 43.3012 39.756 43.1716 39.4972C43.042 39.2383 42.9773 38.9148 42.9773 38.5265C42.9773 37.6852 43.3012 37.0381 43.949 36.5204C44.5968 36.0027 45.439 35.7439 46.4107 35.7439C46.7994 35.7439 47.3176 35.8086 47.7711 35.938C48.2894 36.0675 48.6133 36.1969 48.8724 36.2616L48.9372 36.391C48.8724 36.6499 48.8724 37.297 48.8724 38.3323L48.8076 38.3971H48.4189L48.3541 38.3323C48.3541 37.9441 48.2894 37.6852 48.2246 37.5558C48.1598 37.4264 48.095 37.2323 47.9007 37.0381C47.7063 36.844 47.4472 36.7146 47.1233 36.5852C46.7994 36.4557 46.4107 36.391 46.0868 36.391C45.6981 36.391 45.3742 36.4557 45.1151 36.5852C44.8559 36.7146 44.6616 36.844 44.4672 37.1028C44.3377 37.3617 44.2081 37.6205 44.2081 37.9441C44.2081 38.2029 44.2729 38.3971 44.3377 38.5912C44.4025 38.7853 44.5968 38.9148 44.7911 39.0442C44.9855 39.1736 45.1798 39.2383 45.439 39.303L46.4755 39.5619C47.3824 39.756 47.9654 39.9501 48.3541 40.1443C48.7428 40.2737 49.002 40.5325 49.2611 40.8561C49.4554 41.1796 49.585 41.5679 49.585 42.0209C49.585 42.8621 49.1963 43.6387 48.4837 44.2211C47.7711 44.8682 46.8642 45.127 45.7629 45.127C45.3742 45.127 44.8559 45.0623 44.2729 44.9976C43.6899 44.9329 43.1716 44.8035 42.7829 44.7388L42.7181 44.6093L42.7829 43.9622C42.7829 43.7681 42.8477 43.574 42.8477 43.3798C42.8477 43.1857 42.8477 42.7974 42.8477 42.1503L42.9773 42.0856Z" fill="#878787"/>
<path d="M6.95865 49.0098L6.89386 49.2039C6.63473 49.3333 6.31083 49.398 6.0517 49.398C5.59822 49.398 5.2743 49.2686 4.95039 49.0098C4.69126 48.7509 4.56171 48.4274 4.56171 48.0391C4.56171 47.7803 4.62648 47.5214 4.75605 47.3273C4.88561 47.1331 5.07995 46.939 5.2743 46.8743C5.46865 46.7449 5.72778 46.7449 6.0517 46.7449C6.24604 46.7449 6.37562 46.7449 6.50518 46.8096C6.63475 46.8743 6.82908 46.8743 6.89386 46.939C6.89386 47.0037 6.8291 47.1979 6.8291 47.4567H6.76431V47.1331C6.69953 47.0684 6.56996 47.0037 6.4404 46.939C6.31083 46.8743 6.18126 46.8743 6.0517 46.8743C5.85735 46.8743 5.66301 46.939 5.46866 47.0037C5.27431 47.0684 5.14474 47.1979 5.07996 47.392C5.01518 47.5861 4.95039 47.7803 4.95039 48.0391C4.95039 48.2979 5.01518 48.4921 5.07996 48.6862C5.20952 48.8803 5.3391 49.0098 5.53344 49.1392C5.72779 49.2686 5.92214 49.2686 6.18127 49.2686C6.31084 49.2686 6.37562 49.2686 6.50518 49.2686C6.63475 49.2686 6.69953 49.2039 6.76431 49.2039C6.82909 49.2039 6.82908 49.0098 6.95865 49.0098Z" fill="#878787"/>
<path d="M7.15302 48.4921C7.15302 48.3627 7.153 48.2333 7.21778 48.0392C7.28256 47.9097 7.41212 47.7803 7.54168 47.7156C7.67124 47.5862 7.8656 47.5862 8.05994 47.5862C8.31906 47.5862 8.5134 47.6509 8.70774 47.845C8.8373 48.0392 8.96686 48.2333 8.96686 48.4921C8.96686 48.751 8.90208 49.0098 8.70774 49.204C8.5134 49.3981 8.31906 49.4628 8.05994 49.4628C7.8656 49.4628 7.73603 49.3981 7.60647 49.3334C7.47691 49.2687 7.34734 49.1392 7.28256 49.0098C7.21778 48.8157 7.15302 48.6216 7.15302 48.4921ZM7.47692 48.3627C7.47692 48.5568 7.4769 48.6863 7.54168 48.8157C7.60646 48.9451 7.67125 49.0745 7.73603 49.1393C7.80082 49.204 7.93038 49.2687 8.05994 49.2687C8.1895 49.2687 8.31906 49.204 8.44862 49.0745C8.5134 48.9451 8.57817 48.8157 8.57817 48.5569C8.57817 48.298 8.5134 48.1039 8.44862 47.9097C8.31906 47.7156 8.18949 47.6509 7.99515 47.6509C7.86559 47.6509 7.73603 47.7156 7.60647 47.845C7.54169 47.9744 7.47692 48.1686 7.47692 48.3627Z" fill="#878787"/>
<path d="M9.74423 47.5862C9.74423 47.7803 9.74423 47.9745 9.74423 48.2333V48.6863C9.74423 48.8157 9.74421 48.9451 9.80899 49.0098C9.80899 49.0745 9.87378 49.1393 9.93856 49.1393C10.0033 49.204 10.0681 49.204 10.1329 49.204C10.1977 49.204 10.3273 49.204 10.392 49.1393C10.4568 49.0745 10.5216 49.0745 10.5864 49.0098C10.6512 48.9451 10.6512 48.8804 10.6512 48.8804C10.6512 48.8804 10.6512 48.8157 10.6512 48.6863V48.4921V48.298C10.6512 48.2333 10.6512 48.1686 10.6512 48.1039C10.6512 48.0392 10.6512 47.9744 10.6512 47.9744V47.9097H10.5864H10.4568V47.845C10.7159 47.845 10.9103 47.7803 11.0399 47.7156H11.1046C11.1046 47.845 11.1046 48.1039 11.1046 48.298V48.6216C11.1046 48.6216 11.1046 48.8157 11.1046 49.0745C11.1046 49.204 11.1046 49.2687 11.1046 49.2687C11.1046 49.2687 11.1046 49.3334 11.1694 49.3334C11.1694 49.3334 11.2342 49.3334 11.3638 49.3334H11.4285V49.3981C11.2342 49.3981 11.1694 49.3981 11.1046 49.3981C11.0399 49.3981 10.9751 49.3981 10.8455 49.3981C10.8455 49.2687 10.8455 49.1393 10.8455 49.0745C10.7807 49.1393 10.6512 49.204 10.5864 49.3334C10.5216 49.3981 10.5216 49.3981 10.392 49.3981C10.2625 49.3981 10.2625 49.4628 10.1329 49.4628C10.0033 49.4628 9.87377 49.4628 9.80899 49.3981C9.74421 49.3334 9.67944 49.2687 9.61465 49.204C9.61465 49.1393 9.54987 49.0098 9.54987 48.8157V48.6863V48.298C9.54987 48.2333 9.54987 48.1686 9.54987 48.1039C9.54987 48.0392 9.54987 47.9744 9.54987 47.9744V47.9097H9.48508H9.35553V47.845C9.35553 47.7156 9.54988 47.6509 9.74423 47.5862Z" fill="#878787"/>
<path d="M12.0116 47.5862C12.0116 47.7156 12.0116 47.7803 12.0116 47.9098C12.1412 47.845 12.2059 47.7156 12.2707 47.6509L12.3355 47.5862C12.3355 47.5862 12.4003 47.5862 12.4651 47.5215C12.5298 47.5215 12.5946 47.5215 12.5946 47.5215C12.6594 47.5215 12.789 47.5215 12.8538 47.5862C12.9185 47.6509 12.9833 47.6509 13.0481 47.7156C13.1129 47.7803 13.1129 47.845 13.1129 47.9098C13.1129 47.9745 13.1129 48.0392 13.1129 48.1686V48.4921C13.1129 48.4921 13.1129 48.6863 13.1129 48.9451C13.1129 49.0745 13.1129 49.1393 13.1777 49.1393C13.1777 49.1393 13.3072 49.204 13.4368 49.204V49.2687C13.3072 49.2687 13.1777 49.2687 13.1129 49.2687C13.1129 49.2687 12.9833 49.2687 12.8538 49.2687C12.8538 49.1392 12.8538 48.8804 12.8538 48.6216V48.3627C12.8538 48.2333 12.8538 48.1039 12.8538 48.0392C12.8538 47.9745 12.8538 47.9097 12.789 47.845C12.7242 47.7803 12.7242 47.7803 12.6594 47.7156C12.5946 47.7156 12.5298 47.6509 12.4651 47.6509C12.4003 47.6509 12.3355 47.6509 12.2707 47.6509C12.2059 47.6509 12.2059 47.7156 12.1412 47.7156C12.0764 47.7803 12.0116 47.7803 12.0116 47.845C12.0116 47.9097 11.9468 47.9097 11.9468 47.9744C11.9468 47.9744 11.9468 48.0392 11.9468 48.1686V48.4921C11.9468 48.4921 11.9468 48.6216 11.9468 48.751C11.9468 48.8804 11.9468 49.0098 11.9468 49.0098V49.0745C11.9468 49.0745 11.9468 49.0745 12.0116 49.0745C12.0116 49.0745 12.0764 49.0745 12.2059 49.0745V49.1393C12.0764 49.1393 11.882 49.1393 11.7525 49.1393C11.6229 49.1393 11.4934 49.1393 11.299 49.1393V49.0745C11.4286 49.0745 11.4933 49.0745 11.4933 49.0745C11.4933 49.0745 11.4934 49.0745 11.5581 49.0745C11.5581 49.0745 11.5581 49.0745 11.5581 49.0098C11.5581 49.0098 11.5581 48.8804 11.5581 48.751C11.5581 48.6216 11.5581 48.4921 11.5581 48.4274V48.0392C11.5581 47.9745 11.5581 47.9097 11.5581 47.845C11.5581 47.7803 11.5581 47.7156 11.5581 47.7156V47.6509H11.4933H11.3638V47.5862C11.6229 47.7156 11.8173 47.6509 12.0116 47.5862Z" fill="#878787"/>
<path d="M13.7607 48.8157H13.8255C13.8255 48.9451 13.8255 49.0098 13.8255 49.0745C13.8903 49.1393 13.955 49.204 14.0198 49.204C14.0846 49.2687 14.2142 49.2687 14.279 49.2687C14.4085 49.2687 14.5381 49.204 14.6029 49.1393C14.6676 49.0745 14.7324 49.0098 14.7324 48.8804C14.7324 48.8157 14.7324 48.751 14.6676 48.751C14.6676 48.6863 14.6029 48.6863 14.5381 48.6863C14.4733 48.6863 14.4085 48.6216 14.2142 48.6216C14.0846 48.6216 14.0198 48.5569 13.955 48.5569C13.8903 48.5569 13.8255 48.4921 13.8255 48.4921C13.7607 48.4274 13.7607 48.4274 13.6959 48.3627C13.6959 48.298 13.6311 48.2333 13.6311 48.1686C13.6311 47.9744 13.6959 47.845 13.8255 47.7803C13.955 47.6509 14.1494 47.6509 14.3437 47.6509C14.4085 47.6509 14.5381 47.6509 14.6029 47.7156C14.6676 47.7156 14.7972 47.7803 14.7972 47.7803C14.7972 47.845 14.7972 47.9744 14.7972 48.1686C14.7972 48.1039 14.7972 48.0392 14.7972 48.0392C14.7972 48.0392 14.7972 47.9745 14.7324 47.9097C14.6676 47.845 14.6676 47.845 14.6029 47.845C14.5381 47.845 14.4733 47.7803 14.4085 47.7803C14.3437 47.7803 14.2789 47.7803 14.2142 47.845C14.1494 47.845 14.1494 47.9097 14.0846 47.9744C14.0846 48.0391 14.0198 48.1039 14.0198 48.1686C14.0198 48.2333 14.0198 48.2333 14.0198 48.298C14.0198 48.3627 14.0846 48.3627 14.0846 48.3627C14.1494 48.3627 14.1494 48.4274 14.2142 48.4274L14.4085 48.4921C14.6028 48.5569 14.7324 48.5568 14.7972 48.6216C14.862 48.6216 14.9268 48.6863 14.9915 48.751C15.0563 48.8157 15.0563 48.8804 15.0563 48.9451C15.0563 49.1392 14.9915 49.2687 14.862 49.3981C14.7324 49.5275 14.5381 49.5922 14.3437 49.5922C14.2789 49.5922 14.1494 49.5922 14.0846 49.5922C13.955 49.5922 13.8902 49.5275 13.7607 49.5275V49.3981C13.7607 49.3334 13.7607 49.3334 13.7607 49.2687C13.6959 49.0098 13.6959 48.9451 13.7607 48.8157Z" fill="#878787"/>
<path d="M16.8054 49.0745L16.7406 49.204C16.6111 49.2687 16.4815 49.3334 16.4167 49.3334C16.2872 49.3334 16.2224 49.3981 16.1576 49.3981C16.028 49.3981 15.8985 49.3981 15.7689 49.3334C15.6393 49.2687 15.5098 49.204 15.445 49.0098C15.3802 48.8804 15.3154 48.6863 15.3154 48.4922C15.3154 48.3627 15.3154 48.2333 15.3802 48.1686C15.3802 48.0392 15.445 47.9745 15.5098 47.9098C15.5746 47.845 15.5746 47.7803 15.7041 47.7156C15.7689 47.6509 15.8985 47.5862 15.9632 47.5862C16.028 47.5862 16.1576 47.5215 16.2871 47.5215C16.4167 47.5215 16.5463 47.5862 16.6758 47.6509C16.8054 47.7156 16.8702 47.7803 16.935 47.9098C16.9997 48.0392 16.9997 48.1039 16.9997 48.2333C16.9997 48.298 16.9997 48.298 16.9997 48.3627C16.935 48.3627 16.8054 48.3627 16.6758 48.4274C16.5463 48.4274 16.4167 48.4274 16.4167 48.4274H15.8337C15.8337 48.6863 15.8985 48.8804 16.028 49.0098C16.1576 49.1393 16.2872 49.204 16.4815 49.204C16.5463 49.204 16.6758 49.204 16.7406 49.1393C16.5463 49.1393 16.6758 49.0745 16.8054 49.0745ZM15.5746 48.298C15.5746 48.298 15.7041 48.298 15.8337 48.298C15.9633 48.298 16.0928 48.298 16.1576 48.298C16.3519 48.298 16.4167 48.298 16.4815 48.298V48.2333C16.4815 48.0392 16.4167 47.9097 16.3519 47.7803C16.2871 47.7156 16.1576 47.6509 16.028 47.6509C15.8985 47.6509 15.7689 47.7156 15.7041 47.7803C15.6393 47.9745 15.5746 48.1039 15.5746 48.298Z" fill="#878787"/>
<path d="M17.6476 46.6155C17.6476 46.8096 17.6476 47.0685 17.6476 47.4567V48.6215C17.6476 48.6215 17.6476 48.751 17.6476 48.8804C17.6476 49.0098 17.6476 49.1392 17.6476 49.1392V49.2039C17.6476 49.2039 17.6476 49.2039 17.7124 49.2039C17.7124 49.2039 17.7771 49.2039 17.9067 49.2039V49.2686C17.7771 49.2686 17.5828 49.2686 17.4532 49.2686C17.3237 49.2686 17.1941 49.2686 16.9998 49.2686V49.2039C17.1293 49.2039 17.1941 49.2039 17.1941 49.2039C17.1941 49.2039 17.1941 49.2039 17.2589 49.2039C17.2589 49.2039 17.2589 49.2039 17.2589 49.1392C17.2589 49.1392 17.2589 49.0098 17.2589 48.8804C17.2589 48.751 17.2589 48.6215 17.2589 48.5568V47.5861V47.1979C17.2589 47.0685 17.2589 46.939 17.2589 46.939C17.2589 46.8743 17.2589 46.8743 17.2589 46.8743C17.2589 46.8743 17.2589 46.8743 17.1941 46.8743C17.1941 46.8743 17.1293 46.8743 16.9998 46.8743V46.8096C17.2589 46.7449 17.4532 46.6802 17.6476 46.6155Z" fill="#878787"/>
<path d="M18.7489 47.5861C18.7489 47.7803 18.7489 47.9744 18.7489 48.2332V48.6215C18.7489 48.6215 18.7489 48.7509 18.7489 48.8804C18.7489 49.0098 18.7489 49.1392 18.7489 49.1392V49.2039C18.7489 49.2039 18.7489 49.2039 18.8137 49.2039C18.8137 49.2039 18.8784 49.2039 19.008 49.2039V49.2686C18.8784 49.2686 18.6841 49.2686 18.5545 49.2686C18.425 49.2686 18.2954 49.2686 18.1011 49.2686V49.2039C18.2306 49.2039 18.2954 49.2039 18.2954 49.2039C18.2954 49.2039 18.2954 49.2039 18.3602 49.2039C18.3602 49.2039 18.3602 49.2039 18.3602 49.1392C18.3602 49.1392 18.3602 49.0098 18.3602 48.8804C18.3602 48.7509 18.3602 48.6215 18.3602 48.5568V48.1685C18.3602 48.1038 18.3602 48.0391 18.3602 47.9744C18.3602 47.9097 18.3602 47.845 18.3602 47.845V47.7803H18.2954H18.1659V47.7155C18.3602 47.7155 18.5545 47.6508 18.7489 47.5861ZM18.5545 46.7449C18.6193 46.7449 18.6841 46.7449 18.6841 46.8096C18.7489 46.8743 18.7489 46.8743 18.7489 46.939C18.7489 47.0037 18.7489 47.0684 18.6841 47.0684C18.6193 47.1331 18.6193 47.1331 18.5545 47.1331C18.4898 47.1331 18.425 47.1331 18.425 47.0684C18.3602 47.0037 18.3602 47.0037 18.3602 46.939C18.3602 46.8743 18.3602 46.8096 18.425 46.8096C18.4898 46.8096 18.4898 46.7449 18.5545 46.7449Z" fill="#878787"/>
<path d="M19.7854 47.5862C19.7854 47.7156 19.7854 47.7803 19.7854 47.9098C19.915 47.845 19.9798 47.7156 20.0445 47.6509L20.1093 47.5862C20.1093 47.5862 20.1741 47.5862 20.2389 47.5215C20.3036 47.5215 20.3684 47.5215 20.3684 47.5215C20.4332 47.5215 20.5628 47.5215 20.6276 47.5862C20.6923 47.6509 20.7571 47.6509 20.8219 47.7156C20.8867 47.7803 20.8867 47.845 20.8867 47.9098C20.8867 47.9745 20.8867 48.0392 20.8867 48.1686V48.4921C20.8867 48.4921 20.8867 48.6863 20.8867 48.9451C20.8867 49.0745 20.8867 49.1393 20.9515 49.1393C20.9515 49.1393 21.081 49.204 21.2106 49.204V49.2687C21.081 49.2687 20.9515 49.2687 20.8867 49.2687C20.8867 49.2687 20.7571 49.2687 20.6276 49.2687C20.6276 49.1392 20.6276 48.8804 20.6276 48.6216V48.3627C20.6276 48.2333 20.6276 48.1039 20.6276 48.0392C20.6276 47.9745 20.6276 47.9097 20.5628 47.845C20.498 47.7803 20.498 47.7803 20.4332 47.7156C20.3684 47.7156 20.3036 47.6509 20.2389 47.6509C20.1741 47.6509 20.1093 47.6509 20.0445 47.6509C19.9798 47.6509 19.9797 47.7156 19.915 47.7156C19.8502 47.7803 19.7854 47.7803 19.7854 47.845C19.7854 47.9097 19.7206 47.9097 19.7206 47.9744C19.7206 47.9744 19.7206 48.0392 19.7206 48.1686V48.4921C19.7206 48.4921 19.7206 48.6216 19.7206 48.751C19.7206 48.8804 19.7206 49.0098 19.7206 49.0098V49.0745C19.7206 49.0745 19.7206 49.0745 19.7854 49.0745C19.7854 49.0745 19.8502 49.0745 19.9797 49.0745V49.1393C19.8502 49.1393 19.6558 49.1393 19.5263 49.1393C19.3967 49.1393 19.2672 49.1393 19.0728 49.1393V49.0745C19.2024 49.0745 19.2672 49.0745 19.2672 49.0745C19.2672 49.0745 19.2672 49.0745 19.3319 49.0745C19.3319 49.0745 19.3319 49.0745 19.3319 49.0098C19.3319 49.0098 19.3319 48.8804 19.3319 48.751C19.3319 48.6216 19.3319 48.4921 19.3319 48.4274V48.0392C19.3319 47.9745 19.3319 47.9097 19.3319 47.845C19.3319 47.7803 19.3319 47.7156 19.3319 47.7156V47.6509H19.2672H19.1376V47.5862C19.3967 47.7156 19.5911 47.6509 19.7854 47.5862Z" fill="#878787"/>
<path d="M23.3484 47.7156C23.2836 47.845 23.2836 47.845 23.2836 47.9097H22.9597C23.0245 47.9744 23.0245 48.0392 23.0245 48.1039C23.0245 48.1686 23.0245 48.298 22.9597 48.3627C22.8949 48.4274 22.8949 48.4921 22.7653 48.5568C22.7005 48.6216 22.6358 48.6863 22.5062 48.6863C22.4414 48.751 22.3119 48.751 22.1823 48.751H22.1175C22.0527 48.8157 21.988 48.8804 21.988 48.8804V48.9451C21.988 49.0098 21.988 49.0098 22.0527 49.0745C22.1175 49.0745 22.1823 49.1392 22.3767 49.1392H22.7653C22.8949 49.1392 23.0245 49.1392 23.0892 49.204C23.154 49.204 23.2188 49.2687 23.2836 49.3981C23.3484 49.4628 23.3484 49.5922 23.3484 49.6569C23.3484 49.7863 23.2836 49.9158 23.2188 50.0452C23.154 50.1746 23.0245 50.304 22.8301 50.3688C22.6358 50.4335 22.5062 50.4982 22.3119 50.4982C22.1823 50.4982 22.1175 50.4982 21.988 50.4335C21.9232 50.4335 21.7936 50.3687 21.7288 50.304C21.6641 50.2393 21.5993 50.1746 21.5345 50.1099C21.4697 50.0452 21.4697 49.9805 21.4697 49.8511C21.4697 49.7864 21.4697 49.7864 21.4697 49.7216C21.4697 49.6569 21.5345 49.5922 21.5345 49.5922L21.8584 49.3981C21.7288 49.3334 21.6641 49.3334 21.6641 49.2687C21.6641 49.2039 21.5993 49.204 21.5993 49.1392C21.5993 49.0745 21.5993 49.0098 21.6641 48.9451L21.988 48.751C21.7936 48.6863 21.7288 48.6216 21.6641 48.5568C21.5993 48.4921 21.5993 48.3627 21.5993 48.2333C21.5993 48.1039 21.5993 48.0391 21.6641 47.9744C21.7288 47.9097 21.7936 47.7803 21.8584 47.7803C21.9232 47.7156 22.0527 47.7156 22.1175 47.6509C22.2471 47.6509 22.3119 47.5862 22.4414 47.5862C22.571 47.5862 22.7653 47.6509 22.8949 47.7156C23.0245 47.7156 23.2188 47.7156 23.3484 47.7156ZM22.3767 49.3334C22.1823 49.3334 22.0527 49.3334 22.0527 49.3334C22.0527 49.3334 21.988 49.3334 21.9232 49.3981C21.8584 49.4628 21.7936 49.4628 21.7936 49.5275C21.7288 49.5922 21.7288 49.6569 21.7288 49.7216C21.7288 49.8511 21.7936 49.9805 21.8584 50.0452C21.988 50.1099 22.1175 50.1746 22.2471 50.1746C22.3766 50.1746 22.5062 50.1746 22.6358 50.1099C22.7653 50.0452 22.8301 49.9805 22.8949 49.9158C22.9597 49.8511 22.9597 49.7216 22.9597 49.6569C22.9597 49.5922 22.9597 49.5275 22.8949 49.4628C22.8301 49.3981 22.7653 49.3981 22.7006 49.3334C22.7006 49.3981 22.571 49.3334 22.3767 49.3334ZM21.8584 48.1039C21.8584 48.1686 21.8584 48.2333 21.9232 48.3627C21.9232 48.4274 21.988 48.4921 22.0527 48.5568C22.1175 48.6216 22.1823 48.6215 22.2471 48.6215C22.3766 48.6215 22.4414 48.5568 22.5062 48.4921C22.571 48.4274 22.6358 48.298 22.6358 48.1686C22.6358 48.0392 22.571 47.9097 22.5062 47.845C22.4414 47.7156 22.3119 47.7156 22.1823 47.7156C22.0527 47.7156 21.988 47.7803 21.9232 47.845C21.9232 47.9097 21.8584 47.9744 21.8584 48.1039Z" fill="#878787"/>
<path d="M27.1705 49.1392C27.0409 49.2039 26.9761 49.2686 26.8466 49.398C26.7818 49.398 26.7818 49.398 26.717 49.398C26.5874 49.398 26.5227 49.398 26.3931 49.3333C26.2635 49.2686 26.134 49.2039 26.0692 49.1392C25.9396 49.2686 25.7453 49.3333 25.6805 49.398C25.5509 49.4627 25.4214 49.4627 25.3566 49.4627C25.0975 49.4627 24.9031 49.398 24.7736 49.2686C24.644 49.1392 24.5792 48.945 24.5792 48.7509C24.5792 48.4273 24.7736 48.1685 25.1623 47.9743C25.0975 47.7802 25.0327 47.6508 25.0327 47.5214C25.0327 47.4567 25.0327 47.3919 25.0327 47.3272C25.0327 47.2625 25.0975 47.2625 25.0975 47.1978C25.0975 47.1978 25.1623 47.1331 25.227 47.0684C25.2918 47.0037 25.3566 47.0037 25.3566 46.939C25.4214 46.8743 25.4214 46.8743 25.4862 46.8743C25.5509 46.8743 25.551 46.8743 25.6157 46.8743C25.7453 46.8743 25.8101 46.8743 25.8749 46.939C25.9396 47.0037 25.9396 47.0684 25.9396 47.1978C25.9396 47.4567 25.7453 47.7155 25.4214 47.9743C25.4862 48.1038 25.6157 48.2979 25.7453 48.4921C25.8748 48.6862 26.0692 48.8156 26.134 48.945C26.2635 48.8156 26.3283 48.6862 26.3283 48.4921C26.3283 48.4273 26.3283 48.3626 26.3283 48.2979C26.3283 48.2332 26.2635 48.2332 26.2635 48.2332C26.2635 48.2332 26.1988 48.2332 26.134 48.2332C26.0692 48.2332 26.0044 48.2332 25.9396 48.2332L26.0692 48.0391C26.134 48.0391 26.2635 48.0391 26.3931 48.0391C26.4579 48.0391 26.5874 48.0391 26.717 48.0391C26.8466 48.0391 26.9761 48.0391 27.1705 48.0391C27.1705 48.1038 27.1705 48.1685 27.1057 48.2332C26.9761 48.2332 26.7818 48.1685 26.6522 48.1685C26.6522 48.1685 26.6522 48.1685 26.5875 48.1685C26.5875 48.2332 26.5875 48.2979 26.5875 48.3626C26.5875 48.5568 26.4579 48.8156 26.2635 49.0097C26.4579 49.1392 26.717 49.2686 26.9114 49.2686H26.9761C26.9761 49.2686 27.0409 49.2686 27.1057 49.2039L27.1705 49.1392ZM25.9396 49.0097C25.6805 48.7509 25.5509 48.5568 25.4214 48.4273C25.2918 48.2979 25.227 48.1685 25.1623 47.9743C25.0327 48.0391 24.9679 48.1685 24.9031 48.2332C24.8383 48.2979 24.8383 48.4273 24.8383 48.4921C24.8383 48.6862 24.9031 48.8156 25.0327 48.945C25.1622 49.0744 25.2918 49.1392 25.4862 49.1392C25.6157 49.2039 25.8101 49.1392 25.9396 49.0097ZM25.3566 47.7155C25.4862 47.6508 25.551 47.5861 25.6157 47.4567C25.6805 47.392 25.7453 47.2625 25.7453 47.1978C25.7453 47.1331 25.7453 47.0684 25.6805 47.0037C25.6157 46.939 25.6157 46.939 25.5509 46.939C25.4862 46.939 25.4214 46.939 25.3566 47.0037C25.2918 47.0684 25.2918 47.1331 25.2918 47.2625C25.2918 47.392 25.2918 47.5214 25.3566 47.7155Z" fill="#878787"/>
<path d="M30.7983 49.0098L30.7335 49.2039C30.4744 49.3333 30.1505 49.398 29.8913 49.398C29.4379 49.398 29.114 49.2686 28.7901 49.0098C28.5309 48.7509 28.4014 48.4274 28.4014 48.0391C28.4014 47.7803 28.4661 47.5214 28.5957 47.3273C28.7253 47.1331 28.9196 46.939 29.114 46.8743C29.3083 46.7449 29.5674 46.7449 29.8913 46.7449C30.0857 46.7449 30.2152 46.7449 30.3448 46.8096C30.4744 46.8743 30.6687 46.8743 30.7335 46.939C30.7335 47.0037 30.6687 47.1979 30.6687 47.4567H30.6039V47.1331C30.5391 47.0684 30.4096 47.0037 30.28 46.939C30.1505 46.8743 30.0209 46.8743 29.8913 46.8743C29.697 46.8743 29.5026 46.939 29.3083 47.0037C29.114 47.0684 28.9844 47.1979 28.9196 47.392C28.8548 47.5861 28.7901 47.7803 28.7901 48.0391C28.7901 48.2979 28.8548 48.4921 28.9196 48.6862C29.0492 48.8803 29.1787 49.0098 29.3731 49.1392C29.5674 49.2686 29.7618 49.2686 30.0209 49.2686C30.1505 49.2686 30.2152 49.2686 30.3448 49.2686C30.4744 49.2686 30.5391 49.2039 30.6039 49.2039C30.6687 49.2039 30.7335 49.0098 30.7983 49.0098Z" fill="#878787"/>
<path d="M31.0574 48.4921C31.0574 48.3627 31.0574 48.2333 31.1222 48.0392C31.1869 47.9097 31.3165 47.7803 31.4461 47.7156C31.5756 47.5862 31.77 47.5862 31.9643 47.5862C32.2234 47.5862 32.4178 47.6509 32.6121 47.845C32.7417 48.0392 32.8712 48.2333 32.8712 48.4921C32.8712 48.751 32.8065 49.0098 32.6121 49.204C32.4178 49.3981 32.2234 49.4628 31.9643 49.4628C31.77 49.4628 31.6404 49.3981 31.5108 49.3334C31.3813 49.2687 31.2517 49.1392 31.1869 49.0098C31.0574 48.8157 31.0574 48.6216 31.0574 48.4921ZM31.3813 48.3627C31.3813 48.5568 31.3813 48.6863 31.4461 48.8157C31.5108 48.9451 31.5756 49.0745 31.6404 49.1393C31.7052 49.204 31.8347 49.2687 31.9643 49.2687C32.0939 49.2687 32.2234 49.204 32.353 49.0745C32.4178 48.9451 32.4826 48.8157 32.4826 48.5569C32.4826 48.298 32.4178 48.1039 32.353 47.9097C32.2234 47.7156 32.0939 47.6509 31.8995 47.6509C31.77 47.6509 31.6404 47.7156 31.5108 47.845C31.446 47.9744 31.3813 48.1686 31.3813 48.3627Z" fill="#878787"/>
<path d="M33.5839 47.5862C33.5839 47.7156 33.5839 47.7803 33.5839 47.9098C33.7134 47.845 33.7782 47.7156 33.843 47.6509L33.9078 47.5862C33.9078 47.5862 33.9726 47.5862 34.0374 47.5215C34.1021 47.5215 34.1669 47.5215 34.1669 47.5215C34.2317 47.5215 34.3612 47.5215 34.426 47.5862C34.4908 47.6509 34.5556 47.6509 34.6204 47.7156C34.6852 47.7803 34.6852 47.845 34.6852 47.9098C34.6852 47.9745 34.6852 48.0392 34.6852 48.1686V48.4921C34.6852 48.4921 34.6852 48.6863 34.6852 48.9451C34.6852 49.0745 34.6852 49.1393 34.7499 49.1393C34.7499 49.1393 34.8795 49.204 35.0091 49.204V49.2687C34.8795 49.2687 34.75 49.2687 34.6852 49.2687C34.6852 49.2687 34.5556 49.2687 34.426 49.2687C34.426 49.1392 34.426 48.8804 34.426 48.6216V48.3627C34.426 48.2333 34.426 48.1039 34.426 48.0392C34.426 47.9745 34.426 47.9097 34.3613 47.845C34.2965 47.7803 34.2965 47.7803 34.2317 47.7156C34.1669 47.7156 34.1021 47.6509 34.0374 47.6509C33.9726 47.6509 33.9078 47.6509 33.843 47.6509C33.7782 47.6509 33.7782 47.7156 33.7134 47.7156C33.6487 47.7803 33.5839 47.7803 33.5839 47.845C33.5839 47.9097 33.5191 47.9097 33.5191 47.9744C33.5191 47.9744 33.5191 48.0392 33.5191 48.1686V48.4921C33.5191 48.4921 33.5191 48.6216 33.5191 48.751C33.5191 48.8804 33.5191 49.0098 33.5191 49.0098V49.0745C33.5191 49.0745 33.5191 49.0745 33.5839 49.0745C33.5839 49.0745 33.6487 49.0745 33.7782 49.0745V49.1393C33.6487 49.1393 33.4543 49.1393 33.3248 49.1393C33.1952 49.1393 33.0656 49.1393 32.8713 49.1393V49.0745C33.0008 49.0745 33.0656 49.0745 33.0656 49.0745C33.0656 49.0745 33.0656 49.0745 33.1304 49.0745C33.1304 49.0745 33.1304 49.0745 33.1304 49.0098C33.1304 49.0098 33.1304 48.8804 33.1304 48.751C33.1304 48.6216 33.1304 48.4921 33.1304 48.4274V48.0392C33.1304 47.9745 33.1304 47.9097 33.1304 47.845C33.1304 47.7803 33.1304 47.7156 33.1304 47.7156V47.6509H33.0656H32.9361V47.5862C33.26 47.7156 33.4543 47.6509 33.5839 47.5862Z" fill="#878787"/>
<path d="M35.333 48.8157H35.3978C35.3978 48.9451 35.3978 49.0098 35.3978 49.0745C35.4625 49.1393 35.5273 49.204 35.5921 49.204C35.6569 49.2687 35.7865 49.2687 35.8512 49.2687C35.9808 49.2687 36.1104 49.204 36.1752 49.1393C36.2399 49.0745 36.3047 49.0098 36.3047 48.8804C36.3047 48.8157 36.3047 48.751 36.2399 48.751C36.2399 48.6863 36.1751 48.6863 36.1104 48.6863C36.0456 48.6863 35.9808 48.6216 35.7865 48.6216C35.6569 48.6216 35.5921 48.5569 35.5273 48.5569C35.4626 48.5569 35.3978 48.4921 35.3978 48.4921C35.333 48.4274 35.333 48.4274 35.2682 48.3627C35.2682 48.298 35.2034 48.2333 35.2034 48.1686C35.2034 47.9744 35.2682 47.845 35.3978 47.7803C35.5273 47.6509 35.7217 47.6509 35.916 47.6509C35.9808 47.6509 36.1104 47.6509 36.1752 47.7156C36.2399 47.7156 36.3695 47.7803 36.3695 47.7803C36.3695 47.845 36.3695 47.9744 36.3695 48.1686H36.3047C36.3047 48.1039 36.3047 48.0392 36.3047 48.0392C36.3047 48.0392 36.3047 47.9745 36.2399 47.9097C36.1752 47.845 36.1751 47.845 36.1104 47.845C36.0456 47.845 35.9808 47.7803 35.916 47.7803C35.8512 47.7803 35.7865 47.7803 35.7217 47.845C35.6569 47.845 35.6569 47.9097 35.5921 47.9744C35.5921 48.0391 35.5273 48.1039 35.5273 48.1686C35.5273 48.2333 35.5273 48.2333 35.5273 48.298C35.5273 48.3627 35.5921 48.3627 35.5921 48.3627C35.6569 48.3627 35.6569 48.4274 35.7217 48.4274L35.916 48.4921C36.1104 48.5569 36.2399 48.5568 36.3047 48.6216C36.3695 48.6216 36.4343 48.6863 36.4991 48.751C36.5638 48.8157 36.5638 48.8804 36.5638 48.9451C36.5638 49.1392 36.499 49.2687 36.3695 49.3981C36.2399 49.5275 36.0456 49.5922 35.8512 49.5922C35.7865 49.5922 35.6569 49.5922 35.5921 49.5922C35.4626 49.5922 35.3978 49.5275 35.2682 49.5275V49.3981C35.2682 49.3334 35.2682 49.3334 35.2682 49.2687C35.333 49.0098 35.333 48.9451 35.333 48.8157Z" fill="#878787"/>
<path d="M37.406 47.5862C37.406 47.7803 37.406 47.9745 37.406 48.2333V48.6863C37.406 48.8157 37.406 48.9451 37.4708 49.0098C37.4708 49.0745 37.5356 49.1393 37.6004 49.1393C37.6652 49.204 37.7299 49.204 37.7947 49.204C37.8595 49.204 37.9891 49.204 38.0538 49.1393C38.1186 49.0745 38.1834 49.0745 38.2482 49.0098C38.313 48.9451 38.313 48.8804 38.313 48.8804C38.313 48.8804 38.313 48.8157 38.313 48.6863V48.4921V48.298C38.313 48.2333 38.313 48.1686 38.313 48.1039C38.313 48.0392 38.313 47.9744 38.313 47.9744V47.9097H38.2482H38.1186V47.845C38.3777 47.845 38.5721 47.7803 38.7016 47.7156H38.7664C38.7664 47.845 38.7664 48.1039 38.7664 48.298V48.6216C38.7664 48.6216 38.7664 48.8157 38.7664 49.0745C38.7664 49.204 38.7664 49.2687 38.7664 49.2687C38.7664 49.2687 38.7664 49.3334 38.8312 49.3334C38.8312 49.3334 38.896 49.3334 39.0255 49.3334H39.0903V49.3981C38.896 49.3981 38.8312 49.3981 38.7664 49.3981C38.7016 49.3981 38.6369 49.3981 38.5073 49.3981C38.5073 49.2687 38.5073 49.1393 38.5073 49.0745C38.4425 49.1393 38.313 49.204 38.2482 49.3334C38.1834 49.3981 38.1834 49.3981 38.0538 49.3981C37.9243 49.3981 37.9243 49.4628 37.7947 49.4628C37.6652 49.4628 37.5356 49.4628 37.4708 49.3981C37.406 49.3334 37.3413 49.2687 37.2765 49.204C37.2765 49.1393 37.2117 49.0098 37.2117 48.8157V48.6863V48.298C37.2117 48.2333 37.2117 48.1686 37.2117 48.1039C37.2117 48.0392 37.2117 47.9744 37.2117 47.9744V47.9097H37.1469H37.0173V47.845C37.0173 47.7156 37.2117 47.6509 37.406 47.5862Z" fill="#878787"/>
<path d="M39.7381 46.6155C39.7381 46.8096 39.7381 47.0685 39.7381 47.4567V48.6215C39.7381 48.6215 39.7381 48.751 39.7381 48.8804C39.7381 49.0098 39.7381 49.1392 39.7381 49.1392V49.2039C39.7381 49.2039 39.7382 49.2039 39.8029 49.2039C39.8029 49.2039 39.8677 49.2039 39.9973 49.2039V49.2686C39.8677 49.2686 39.6734 49.2686 39.5438 49.2686C39.4142 49.2686 39.2847 49.2686 39.0903 49.2686V49.2039C39.2199 49.2039 39.2847 49.2039 39.2847 49.2039C39.2847 49.2039 39.2847 49.2039 39.3495 49.2039C39.3495 49.2039 39.3495 49.2039 39.3495 49.1392C39.3495 49.1392 39.3495 49.0098 39.3495 48.8804C39.3495 48.751 39.3495 48.6215 39.3495 48.5568V47.5861V47.1979C39.3495 47.0685 39.3495 46.939 39.3495 46.939C39.3495 46.8743 39.3495 46.8743 39.3495 46.8743C39.3495 46.8743 39.3494 46.8743 39.2847 46.8743C39.2847 46.8743 39.2199 46.8743 39.0903 46.8743V46.8096C39.3495 46.7449 39.5438 46.6802 39.7381 46.6155Z" fill="#878787"/>
<path d="M40.1916 47.9098V47.845C40.3212 47.7803 40.3859 47.7803 40.4507 47.7156C40.4507 47.3921 40.4507 47.1979 40.4507 47.1332C40.5803 47.0685 40.7098 47.0685 40.7746 47.0038L40.8394 47.0685C40.8394 47.1332 40.8394 47.3921 40.7746 47.7156C40.8394 47.7156 40.9042 47.7156 40.969 47.7156C41.0985 47.7156 41.2281 47.7156 41.2929 47.7156L41.2281 47.845C41.1633 47.845 41.0985 47.845 41.0337 47.845C40.969 47.845 40.9042 47.845 40.7746 47.845V48.6216C40.7746 48.8157 40.7746 48.8804 40.7746 48.9451C40.7746 49.0098 40.7746 49.0098 40.8394 49.0745C40.9042 49.1393 40.9042 49.1393 40.969 49.1393C41.0337 49.1393 41.0985 49.1393 41.2281 49.0745L41.2929 49.1393C41.2929 49.1393 41.1633 49.204 41.0985 49.3334C41.0337 49.3334 40.969 49.3981 40.9042 49.3981C40.645 49.3981 40.5155 49.2687 40.5155 49.0098C40.5155 48.8804 40.5155 48.8157 40.5155 48.751V48.6863V47.9098H40.4507C40.3211 47.9098 40.2564 47.9098 40.1916 47.9098Z" fill="#878787"/>
<path d="M42.0055 47.5861C42.0055 47.7803 42.0055 47.9744 42.0055 48.2332V48.6215C42.0055 48.6215 42.0055 48.7509 42.0055 48.8804C42.0055 49.0098 42.0055 49.1392 42.0055 49.1392V49.2039C42.0055 49.2039 42.0055 49.2039 42.0703 49.2039C42.0703 49.2039 42.1351 49.2039 42.2646 49.2039V49.2686C42.1351 49.2686 41.9407 49.2686 41.8112 49.2686C41.6816 49.2686 41.552 49.2686 41.3577 49.2686V49.2039C41.4872 49.2039 41.552 49.2039 41.552 49.2039C41.552 49.2039 41.552 49.2039 41.6168 49.2039C41.6168 49.2039 41.6168 49.2039 41.6168 49.1392C41.6168 49.1392 41.6168 49.0098 41.6168 48.8804C41.6168 48.7509 41.6168 48.6215 41.6168 48.5568V48.1685C41.6168 48.1038 41.6168 48.0391 41.6168 47.9744C41.6168 47.9097 41.6168 47.845 41.6168 47.845V47.7803H41.552H41.4225V47.7155C41.6816 47.7155 41.8759 47.6508 42.0055 47.5861ZM41.8759 46.7449C41.9407 46.7449 42.0055 46.7449 42.0055 46.8096C42.0703 46.8743 42.0703 46.8743 42.0703 46.939C42.0703 47.0037 42.0703 47.0684 42.0055 47.0684C41.9407 47.1331 41.9407 47.1331 41.8759 47.1331C41.8111 47.1331 41.7464 47.1331 41.7464 47.0684C41.6816 47.0037 41.6816 47.0037 41.6816 46.939C41.6816 46.8743 41.6816 46.8096 41.7464 46.8096C41.7464 46.8096 41.8111 46.7449 41.8759 46.7449Z" fill="#878787"/>
<path d="M43.042 47.5862C43.042 47.7156 43.042 47.7803 43.042 47.9098C43.1715 47.845 43.2363 47.7156 43.3011 47.6509L43.3659 47.5862C43.3659 47.5862 43.4306 47.5862 43.4954 47.5215C43.5602 47.5215 43.625 47.5215 43.625 47.5215C43.6898 47.5215 43.8193 47.5215 43.8841 47.5862C43.9489 47.6509 44.0137 47.6509 44.0785 47.7156C44.1433 47.7803 44.1432 47.845 44.1432 47.9098C44.1432 47.9745 44.1432 48.0392 44.1432 48.1686V48.4921C44.1432 48.4921 44.1432 48.6863 44.1432 48.9451C44.1432 49.0745 44.1432 49.1393 44.208 49.1393C44.208 49.1393 44.3376 49.204 44.4671 49.204V49.2687C44.3376 49.2687 44.208 49.2687 44.1432 49.2687C44.1432 49.2687 44.0137 49.2687 43.8841 49.2687C43.8841 49.1392 43.8841 48.8804 43.8841 48.6216V48.3627C43.8841 48.2333 43.8841 48.1039 43.8841 48.0392C43.8841 47.9745 43.8841 47.9097 43.8193 47.845C43.7545 47.7803 43.7546 47.7803 43.6898 47.7156C43.625 47.7156 43.5602 47.6509 43.4954 47.6509C43.4306 47.6509 43.3659 47.6509 43.3011 47.6509C43.2363 47.6509 43.2363 47.7156 43.1715 47.7156C43.1067 47.7803 43.042 47.7803 43.042 47.845C43.042 47.9097 42.9772 47.9097 42.9772 47.9744C42.9772 47.9744 42.9772 48.0392 42.9772 48.1686V48.4921C42.9772 48.4921 42.9772 48.6216 42.9772 48.751C42.9772 48.8804 42.9772 49.0098 42.9772 49.0098V49.0745C42.9772 49.0745 42.9772 49.0745 43.042 49.0745C43.042 49.0745 43.1067 49.0745 43.2363 49.0745V49.1393C43.1067 49.1393 42.9124 49.1393 42.7828 49.1393C42.6533 49.1393 42.5237 49.1393 42.3293 49.1393V49.0745C42.4589 49.0745 42.5237 49.0745 42.5237 49.0745C42.5237 49.0745 42.5237 49.0745 42.5885 49.0745C42.5885 49.0745 42.5885 49.0745 42.5885 49.0098C42.5885 49.0098 42.5885 48.8804 42.5885 48.751C42.5885 48.6216 42.5885 48.4921 42.5885 48.4274V48.0392C42.5885 47.9745 42.5885 47.9097 42.5885 47.845C42.5885 47.7803 42.5885 47.7156 42.5885 47.7156V47.6509H42.5237H42.3941V47.5862C42.718 47.7156 42.9124 47.6509 43.042 47.5862Z" fill="#878787"/>
<path d="M46.6698 47.7156C46.605 47.845 46.605 47.845 46.605 47.9097H46.2811C46.3458 47.9744 46.3458 48.0392 46.3458 48.1039C46.3458 48.1686 46.3458 48.298 46.2811 48.3627C46.2163 48.4274 46.2163 48.4921 46.0867 48.5568C46.0219 48.6216 45.9571 48.6863 45.8276 48.6863C45.7628 48.751 45.6332 48.751 45.5037 48.751H45.4389C45.3741 48.8157 45.3093 48.8804 45.3093 48.8804V48.9451C45.3093 49.0098 45.3093 49.0098 45.3741 49.0745C45.4389 49.0745 45.5037 49.1392 45.698 49.1392H46.0867C46.2163 49.1392 46.3458 49.1392 46.4106 49.204C46.4754 49.204 46.5402 49.2687 46.605 49.3981C46.6698 49.4628 46.6698 49.5922 46.6698 49.6569C46.6698 49.7863 46.605 49.9158 46.5402 50.0452C46.4754 50.1746 46.3458 50.304 46.1515 50.3688C45.9571 50.4335 45.8276 50.4982 45.6332 50.4982C45.5037 50.4982 45.4389 50.4982 45.3093 50.4335C45.2446 50.4335 45.115 50.3687 45.0502 50.304C44.9854 50.2393 44.9206 50.1746 44.8559 50.1099C44.7911 50.0452 44.7911 49.9805 44.7911 49.8511C44.7911 49.7864 44.7911 49.7864 44.7911 49.7216C44.7911 49.6569 44.8559 49.5922 44.8559 49.5922L45.1798 49.3981C45.0502 49.3334 44.9854 49.3334 44.9854 49.2687C44.9854 49.2039 44.9206 49.204 44.9206 49.1392C44.9206 49.0745 44.9207 49.0098 44.9854 48.9451L45.3093 48.751C45.115 48.6863 45.0502 48.6216 44.9854 48.5568C44.9207 48.4921 44.9206 48.3627 44.9206 48.2333C44.9206 48.1039 44.9207 48.0391 44.9854 47.9744C45.0502 47.9097 45.115 47.7803 45.1798 47.7803C45.2446 47.7156 45.3741 47.7156 45.4389 47.6509C45.5685 47.6509 45.6332 47.5862 45.7628 47.5862C45.8924 47.5862 46.0867 47.6509 46.2163 47.7156C46.3458 47.7156 46.5402 47.7156 46.6698 47.7156ZM45.698 49.3334C45.5037 49.3334 45.3741 49.3334 45.3741 49.3334C45.3741 49.3334 45.3093 49.3334 45.2446 49.3981C45.1798 49.4628 45.115 49.4628 45.115 49.5275C45.0502 49.5922 45.0502 49.6569 45.0502 49.7216C45.0502 49.8511 45.115 49.9805 45.1798 50.0452C45.3093 50.1099 45.4389 50.1746 45.5685 50.1746C45.698 50.1746 45.8276 50.1746 45.9572 50.1099C46.0867 50.0452 46.1515 49.9805 46.2163 49.9158C46.2811 49.8511 46.2811 49.7216 46.2811 49.6569C46.2811 49.5922 46.2811 49.5275 46.2163 49.4628C46.1515 49.3981 46.0867 49.3981 46.0219 49.3334C45.9572 49.3981 45.8924 49.3334 45.698 49.3334ZM45.1798 48.1039C45.1798 48.1686 45.1798 48.2333 45.2446 48.3627C45.2446 48.4274 45.3093 48.4921 45.3741 48.5568C45.4389 48.6216 45.5037 48.6215 45.5685 48.6215C45.698 48.6215 45.7628 48.5568 45.8276 48.4921C45.8924 48.4274 45.9572 48.298 45.9572 48.1686C45.9572 48.0392 45.8924 47.9097 45.8276 47.845C45.7628 47.7156 45.6332 47.7156 45.5037 47.7156C45.3741 47.7156 45.3093 47.7803 45.2446 47.845C45.1798 47.9097 45.1798 47.9744 45.1798 48.1039Z" fill="#878787"/>
</svg>
