<svg width="102" height="19" viewBox="0 0 102 19" fill="none" xmlns="http://www.w3.org/2000/svg">
<path d="M2.80209 0.824951H0.469971V13.1848H2.80209V0.824951Z" fill="#878787"/>
<path d="M36.0998 3.47815H33.7677V13.1848H36.0998V3.47815Z" fill="#878787"/>
<path d="M57.9312 10.9846H53.7852V8.39614H57.9312V6.13124H53.7852V3.80163H57.9312V1.60144H53.7852H51.3883H51.3235V13.1848H51.3883H53.7852H57.9312V10.9846Z" fill="#878787"/>
<path d="M74.8392 5.54886V3.73694H71.4706H69.5271H69.4623V13.1848H69.5271H71.4706H74.8392V11.3729H71.4706V9.30211H74.8392V7.42549H71.4706V5.54886H74.8392Z" fill="#878787"/>
<path d="M30.2695 3.67224V9.30213L26.253 3.67224H25.2165H23.9857V13.1848H26.253V7.55492L30.2695 13.1201V13.1848H32.3425H32.5369V13.0554V12.4083V3.67224H30.2695Z" fill="#878787"/>
<path d="M65.705 3.67224V9.36685L61.6886 3.73696L61.6238 3.67224H60.6521H59.4212V13.1848H61.6886V7.55492L65.705 13.1848H67.7781H67.9724V13.0554V12.473V3.67224H65.705Z" fill="#878787"/>
<path d="M44.1328 9.81982C43.6793 10.4669 42.9019 10.9199 42.0598 10.9199C40.6346 10.9199 39.5333 9.75511 39.5333 8.39618C39.5333 6.97253 40.6994 5.87244 42.0598 5.87244C42.9019 5.87244 43.6793 6.32542 44.1328 6.97253L45.1045 6.39012L46.141 5.80772C45.2988 4.44879 43.8089 3.60754 42.0598 3.60754C39.4037 3.60754 37.2012 5.80773 37.2012 8.46089C37.2012 11.1141 39.4037 13.3142 42.0598 13.3142C43.7441 13.3142 45.2988 12.4083 46.141 11.1141L45.1045 10.5317L44.1328 9.81982Z" fill="#878787"/>
<path d="M10.6407 9.81982C10.1872 10.4669 9.40981 10.9199 8.56765 10.9199C7.14246 10.9199 6.04118 9.75511 6.04118 8.39618C6.04118 6.97253 7.20724 5.87244 8.56765 5.87244C9.40981 5.87244 10.1872 6.32542 10.6407 6.97253L11.6124 6.39012L12.6489 5.80772C11.8067 4.44879 10.3168 3.60754 8.56765 3.60754C5.91161 3.60754 3.70905 5.80773 3.70905 8.46089C3.70905 11.1141 5.91161 13.3142 8.56765 13.3142C10.252 13.3142 11.8067 12.4083 12.6489 11.1141L11.6124 10.5317L10.6407 9.81982Z" fill="#878787"/>
<path d="M91.4882 8.07265H88.5082H88.4434V8.13736V9.62571H91.2291C91.0347 10.1434 90.646 10.5317 90.1925 10.8552C89.6743 11.1788 89.0912 11.4376 88.4434 11.4376C86.7591 11.4376 85.3987 10.0787 85.3987 8.3962C85.3987 6.71371 86.7591 5.35477 88.4434 5.35477C89.4799 5.35477 90.4517 5.87245 90.9699 6.7137L92.5247 5.80775C91.6825 4.44881 90.1278 3.54285 88.3786 3.54285C85.6578 3.54285 83.52 5.74303 83.52 8.3962C83.52 11.1141 85.7226 13.2496 88.3786 13.2496C89.7391 13.2496 90.9699 12.7319 91.8121 11.8259C92.3951 11.2435 92.8486 10.467 93.0429 9.62571C93.1725 9.23745 93.2373 8.78447 93.2373 8.3962C93.2373 8.33149 93.2373 8.20207 93.2373 8.13736H91.4882V8.07265Z" fill="#878787"/>
<path d="M98.5494 3.60754L96.6059 6.51956L94.6625 3.60754H91.9417L95.5046 8.52561C95.5046 8.52561 95.5046 12.9907 95.5046 13.0554V13.1201H96.6059H97.7072V13.0554C97.7072 12.9907 97.7072 8.52561 97.7072 8.52561L101.27 3.60754H98.5494Z" fill="#878787"/>
<path d="M20.8114 4.51355L20.1636 5.61364C20.941 6.26075 21.524 7.23142 21.524 8.33151C21.524 10.2729 19.9692 11.8259 18.0258 11.8259C16.0824 11.8259 14.5276 10.2729 14.5276 8.33151C14.5276 7.23142 15.0459 6.19604 15.888 5.61364L15.2402 4.51355C14.0741 5.3548 13.2968 6.77844 13.2968 8.33151C13.2968 10.9847 15.4345 13.1201 18.0906 13.1201C20.7466 13.1201 22.8844 10.9847 22.8844 8.33151C22.7549 6.77844 21.9775 5.41951 20.8114 4.51355Z" fill="#878787"/>
<path d="M18.6088 4.06055H17.4427V9.30217H18.6088V4.06055Z" fill="#878787"/>
<path d="M80.7344 9.30213C81.1878 9.108 81.5765 8.78444 81.9004 8.33146C82.2243 7.81377 82.4187 7.23137 82.4187 6.58425C82.4187 6.00185 82.2891 5.48416 82.03 5.09589C81.7709 4.64291 81.4469 4.31936 80.9287 4.06051C80.4752 3.80167 79.8922 3.67224 79.1796 3.67224H76.394V13.1848H78.1431V9.56098H78.9205L81.2526 13.1848H82.8721H82.9369H83.0665H83.196L80.7344 9.30213ZM78.1431 8.0079V5.35474H79.2444C79.6979 5.35474 80.0217 5.48416 80.2809 5.6783C80.54 5.87243 80.6048 6.19599 80.6048 6.64897C80.6048 7.10195 80.4752 7.4255 80.2161 7.68435C79.957 7.94319 79.5683 8.0079 79.1148 8.0079H78.1431Z" fill="#878787"/>
<path d="M54.1091 17.5205C54.1091 17.9087 53.9796 18.1676 53.7204 18.3617C53.4613 18.5558 53.0726 18.6205 52.684 18.6205C52.1657 18.6205 51.777 18.5558 51.5179 18.4264C51.4531 18.3617 51.3883 18.297 51.4531 18.2323L51.5827 17.844C51.5827 17.7793 51.6474 17.7146 51.777 17.7793C52.0361 17.9087 52.2952 17.9734 52.6192 17.9734C52.8783 17.9734 53.0726 17.9087 53.2022 17.844C53.3318 17.7793 53.3965 17.6499 53.3965 17.4557C53.3965 17.391 53.3965 17.3263 53.3318 17.2616C53.3318 17.1969 53.267 17.1322 53.2022 17.1322C53.1374 17.0675 53.1374 17.0675 53.0079 17.0028C52.9431 16.938 52.8783 16.9381 52.8135 16.8733C52.7487 16.8733 52.6839 16.8086 52.5544 16.7439C52.4248 16.6792 52.2953 16.6145 52.2305 16.6145C52.1657 16.5498 52.0361 16.5498 51.9066 16.4204C51.777 16.3556 51.7122 16.2909 51.6474 16.1615C51.5827 16.0968 51.5179 15.9674 51.5179 15.838C51.4531 15.7085 51.4531 15.5791 51.4531 15.4497C51.4531 14.7379 51.9066 14.3496 52.8135 14.3496C53.2022 14.3496 53.5909 14.4143 53.85 14.5437C53.9148 14.6084 53.9795 14.6731 53.9148 14.7379L53.7852 15.1261C53.7204 15.1908 53.7204 15.2556 53.5909 15.1908C53.3965 15.1261 53.1374 15.0614 52.8135 15.0614C52.36 15.0614 52.1009 15.1908 52.1009 15.5144C52.1009 15.7085 52.2305 15.838 52.4248 15.9674C52.4896 16.0321 52.6191 16.0968 52.8135 16.1615C52.943 16.2262 53.0079 16.2262 53.0079 16.2909C53.0079 16.2909 53.1374 16.3556 53.2022 16.3556C53.3318 16.4204 53.3965 16.4204 53.3965 16.4851C53.4613 16.4851 53.4613 16.5498 53.5909 16.6145C53.6556 16.6792 53.7204 16.7439 53.7204 16.7439C53.7204 16.8086 53.7852 16.8733 53.85 16.9381C53.9148 17.0028 53.9148 17.0675 53.9148 17.1969C54.1091 17.3263 54.1091 17.4557 54.1091 17.5205Z" fill="#878787"/>
<path d="M57.0243 18.297C56.7652 18.5558 56.4413 18.6852 55.9878 18.6852C55.5344 18.6852 55.2105 18.5558 54.9513 18.297C54.6922 18.0381 54.5626 17.6499 54.5626 17.1322C54.5626 16.6145 54.6922 16.2262 54.9513 15.9674C55.2105 15.7085 55.5344 15.5791 55.9878 15.5791C56.4413 15.5791 56.7652 15.7085 57.0243 15.9674C57.2834 16.2262 57.413 16.6145 57.413 17.1322C57.413 17.6499 57.2834 18.0381 57.0243 18.297ZM55.9878 18.1028C56.4413 18.1028 56.7004 17.7793 56.7004 17.1322C56.7004 16.4851 56.4413 16.1615 55.9878 16.1615C55.5344 16.1615 55.34 16.4851 55.34 17.1322C55.2752 17.7793 55.5344 18.1028 55.9878 18.1028Z" fill="#878787"/>
<path d="M58.7086 14.6731V18.4911C58.7086 18.5558 58.6439 18.6205 58.5791 18.6205H58.1256C58.0608 18.6205 57.996 18.5558 57.996 18.4911V14.6731C57.996 14.6084 58.0608 14.5437 58.1256 14.5437H58.5791C58.6439 14.6084 58.7086 14.6084 58.7086 14.6731Z" fill="#878787"/>
<path d="M61.8829 16.6145V18.4911C61.8829 18.5558 61.8182 18.6205 61.7534 18.6205H61.3647C61.2999 18.6205 61.2351 18.5558 61.2351 18.4911V18.1676C61.0408 18.4911 60.7169 18.6205 60.2634 18.6205C60.0043 18.6205 59.7452 18.5558 59.6156 18.3617C59.4213 18.2323 59.3565 17.9734 59.3565 17.7146C59.3565 17.5205 59.3565 17.391 59.4213 17.2616C59.4861 17.1322 59.5508 17.0675 59.6804 17.0028C59.81 16.9381 59.9395 16.8733 60.0691 16.8086C60.2634 16.7439 60.393 16.7439 60.5873 16.7439C60.7817 16.7439 60.976 16.7439 61.2351 16.7439V16.6145C61.2351 16.4204 61.1704 16.2909 61.1056 16.2262C60.976 16.1615 60.8465 16.0968 60.6521 16.0968C60.393 16.0968 60.1339 16.1615 59.81 16.291C59.7452 16.291 59.6804 16.2909 59.6804 16.2262L59.5508 15.9027C59.5508 15.838 59.5508 15.7733 59.6156 15.7733C59.9395 15.6438 60.3282 15.5791 60.7169 15.5791C61.4295 15.5144 61.8829 15.9027 61.8829 16.6145ZM61.1704 17.4557V17.1969C60.976 17.1969 60.7817 17.1969 60.6521 17.1969C60.5226 17.1969 60.393 17.2616 60.2634 17.2616C60.1339 17.3263 60.0691 17.3263 60.0043 17.391C59.9395 17.4557 59.9395 17.5205 59.9395 17.6499C59.9395 17.7793 60.0043 17.844 60.0691 17.9734C60.1339 18.0381 60.2634 18.1029 60.393 18.1029C60.6521 18.1029 60.7817 18.0382 60.9112 17.9087C61.1056 17.844 61.1704 17.7146 61.1704 17.4557Z" fill="#878787"/>
<path d="M62.6603 15.5791H63.1138C63.1786 15.5791 63.2434 15.6438 63.2434 15.7085V16.1615C63.3082 16.0321 63.4377 15.8379 63.5673 15.7732C63.6969 15.6438 63.8912 15.5791 64.0855 15.5791C64.1503 15.5791 64.1503 15.5791 64.1503 15.5791V15.6438V16.1615C64.1503 16.2262 64.0855 16.2909 64.0208 16.2909H63.956C63.8912 16.2909 63.8912 16.2909 63.8264 16.2909C63.6321 16.2909 63.4377 16.3556 63.3082 16.5498C63.1786 16.7439 63.1138 16.938 63.1138 17.1322V18.4264C63.1138 18.4911 63.049 18.5558 62.9842 18.5558H62.5308C62.466 18.5558 62.4012 18.4911 62.4012 18.4264V15.6438C62.5308 15.6438 62.5956 15.5791 62.6603 15.5791Z" fill="#878787"/>
<path d="M67.0007 18.6205H66.5472C66.4824 18.6205 66.4176 18.5558 66.4176 18.4911V14.7378C66.4176 14.6731 66.4824 14.6084 66.5472 14.6084H67.7132C68.2315 14.6084 68.685 14.7378 68.9441 14.932C69.2032 15.1908 69.3328 15.5143 69.3328 16.032C69.3328 16.5497 69.2032 16.938 68.9441 17.1321C68.685 17.3263 68.2963 17.4557 67.7132 17.4557H67.1302V18.4911C67.1302 18.5558 67.0654 18.6205 67.0007 18.6205ZM67.1302 16.7439H67.6485C67.9724 16.7439 68.1667 16.6792 68.2963 16.5497C68.4259 16.4203 68.4906 16.2262 68.4906 15.9673C68.4906 15.7085 68.4259 15.5143 68.2963 15.3849C68.1667 15.2555 67.9724 15.1908 67.6485 15.1908H67.1302V16.7439Z" fill="#878787"/>
<path d="M70.0455 15.5791H70.4989C70.5637 15.5791 70.6285 15.6438 70.6285 15.7085V16.1615C70.6932 16.0321 70.8228 15.8379 70.9524 15.7732C71.0819 15.6438 71.2763 15.5791 71.4706 15.5791C71.5354 15.5791 71.5354 15.5791 71.5354 15.5791V15.6438V16.1615C71.5354 16.2262 71.4706 16.2909 71.4058 16.2909H71.3411C71.2763 16.2909 71.2763 16.2909 71.2115 16.2909C71.0172 16.2909 70.8228 16.3556 70.6933 16.5498C70.5637 16.7439 70.4989 16.938 70.4989 17.1322V18.4264C70.4989 18.4911 70.4341 18.5558 70.3694 18.5558H69.9159C69.8511 18.5558 69.7863 18.4911 69.7863 18.4264V15.6438C69.9159 15.6438 69.9807 15.5791 70.0455 15.5791Z" fill="#878787"/>
<path d="M74.3858 18.297C74.1267 18.5558 73.8027 18.6852 73.3493 18.6852C72.8958 18.6852 72.5719 18.5558 72.3128 18.297C72.0537 18.0381 71.9241 17.6499 71.9241 17.1322C71.9241 16.6145 72.0537 16.2262 72.3128 15.9674C72.5719 15.7085 72.8958 15.5791 73.3493 15.5791C73.8027 15.5791 74.1267 15.7085 74.3858 15.9674C74.6449 16.2262 74.7744 16.6145 74.7744 17.1322C74.7744 17.6499 74.6449 18.0381 74.3858 18.297ZM73.3493 18.1028C73.8027 18.1028 74.0619 17.7793 74.0619 17.1322C74.0619 16.4851 73.8027 16.1615 73.3493 16.1615C72.8958 16.1615 72.7015 16.4851 72.7015 17.1322C72.7015 17.7793 72.8958 18.1028 73.3493 18.1028Z" fill="#878787"/>
<path d="M76.2645 15.6438H76.7827C76.8475 15.6438 76.9123 15.7085 76.9123 15.7732V16.0968C76.9123 16.1615 76.8475 16.2262 76.7827 16.2262H76.2645V18.4911C76.2645 18.5558 76.1997 18.6205 76.1349 18.6205H75.6814C75.6167 18.6205 75.5519 18.5558 75.5519 18.4911V16.2262H75.228C75.1632 16.2262 75.0984 16.1615 75.0984 16.0968V15.7732C75.0984 15.7085 75.1632 15.6438 75.228 15.6438H75.5519V15.385C75.5519 14.8026 75.8758 14.479 76.4588 14.479C76.6531 14.479 76.7827 14.479 76.8475 14.5437C76.9123 14.5437 76.9771 14.6084 76.9771 14.6731V14.9967C76.9771 15.0614 76.9771 15.0614 76.9771 15.1261C76.9771 15.1261 76.9123 15.1908 76.9123 15.1261C76.7827 15.1261 76.718 15.1261 76.6532 15.1261C76.5236 15.1261 76.4588 15.1261 76.394 15.1908C76.3292 15.2555 76.3293 15.3203 76.3293 15.4497V15.6438H76.2645Z" fill="#878787"/>
<path d="M78.2079 17.9087C78.3375 18.0382 78.5318 18.1029 78.791 18.1029C79.0501 18.1029 79.3092 18.0382 79.5035 17.9087C79.5683 17.844 79.6331 17.9087 79.6979 17.9734L79.7627 18.2323C79.7627 18.297 79.7626 18.3617 79.6979 18.4264C79.4387 18.5558 79.1148 18.6205 78.7262 18.6205C78.2727 18.6205 77.884 18.4911 77.6249 18.2323C77.3658 17.9734 77.2362 17.5852 77.2362 17.0675C77.2362 16.5498 77.3658 16.1615 77.6249 15.9027C77.884 15.6438 78.2079 15.5144 78.6614 15.5144C79.0501 15.5144 79.374 15.6438 79.6331 15.9027C79.8922 16.1615 79.957 16.4851 79.957 16.9381V17.1969C79.957 17.2616 79.8922 17.3263 79.8274 17.3263H77.9488C77.9488 17.6499 78.0136 17.7793 78.2079 17.9087ZM78.5966 16.0968C78.1432 16.0968 77.9488 16.3557 77.884 16.9381H79.2444V16.8733C79.2444 16.6145 79.1796 16.4204 79.0501 16.2909C78.9853 16.1615 78.791 16.0968 78.5966 16.0968Z" fill="#878787"/>
<path d="M82.5483 17.844C82.5483 18.4264 82.1596 18.75 81.3822 18.75C80.9935 18.75 80.7344 18.6853 80.4105 18.5558C80.3457 18.5558 80.2809 18.4911 80.3457 18.4264L80.4105 18.1028C80.4105 18.0381 80.4753 17.9734 80.5401 18.0381C80.7344 18.1028 80.9936 18.1676 81.1879 18.1676C81.3822 18.1676 81.5118 18.1676 81.6413 18.1028C81.7061 18.0381 81.7709 17.9734 81.7709 17.844C81.7709 17.7146 81.7061 17.6499 81.6413 17.5852C81.5765 17.5204 81.3822 17.4557 81.1879 17.391C80.864 17.2616 80.6696 17.1969 80.6048 17.1322C80.4105 17.0027 80.2809 16.7439 80.2809 16.4203C80.2809 16.1615 80.3457 15.9027 80.5401 15.7732C80.7344 15.6438 80.9935 15.5791 81.3174 15.5791C81.6413 15.5791 81.9653 15.6438 82.2244 15.7085C82.2892 15.7732 82.3539 15.7732 82.2891 15.8379L82.2244 16.0968C82.2244 16.1615 82.1596 16.2262 82.0948 16.1615C81.8357 16.0968 81.6413 16.0321 81.447 16.0321C81.2527 16.0321 81.1231 16.0321 81.0583 16.0968C80.9935 16.1615 80.9288 16.2262 80.9288 16.3556C80.9288 16.4203 80.9287 16.4851 80.9935 16.5498C81.0583 16.6145 81.1231 16.6792 81.1879 16.6792C81.2527 16.6792 81.3822 16.7439 81.5118 16.8086C81.8357 16.938 82.03 17.0675 82.1596 17.1969C82.4187 17.391 82.5483 17.5852 82.5483 17.844Z" fill="#878787"/>
<path d="M85.1396 17.844C85.1396 18.4264 84.7509 18.75 83.9735 18.75C83.5848 18.75 83.3257 18.6853 83.0018 18.5558C82.937 18.5558 82.8722 18.4911 82.937 18.4264L83.0018 18.1028C83.0018 18.0381 83.0666 17.9734 83.1313 18.0381C83.3257 18.1028 83.5848 18.1676 83.7792 18.1676C83.9735 18.1676 84.103 18.1676 84.2326 18.1028C84.2974 18.0381 84.3622 17.9734 84.3622 17.844C84.3622 17.7146 84.2974 17.6499 84.2326 17.5852C84.1678 17.5204 83.9735 17.4557 83.7792 17.391C83.4552 17.2616 83.2609 17.1969 83.1961 17.1322C83.0018 17.0027 82.8722 16.7439 82.8722 16.4203C82.8722 16.1615 82.937 15.9027 83.1313 15.7732C83.3257 15.6438 83.5848 15.5791 83.9087 15.5791C84.2326 15.5791 84.5565 15.6438 84.8156 15.7085C84.8804 15.7732 84.9452 15.7732 84.8804 15.8379L84.8156 16.0968C84.8156 16.1615 84.7509 16.2262 84.6861 16.1615C84.4269 16.0968 84.2326 16.0321 84.0383 16.0321C83.8439 16.0321 83.7144 16.0321 83.6496 16.0968C83.5848 16.1615 83.52 16.2262 83.52 16.3556C83.52 16.4203 83.52 16.4851 83.5848 16.5498C83.6496 16.6145 83.7144 16.6792 83.7792 16.6792C83.8439 16.6792 83.9735 16.7439 84.1031 16.8086C84.427 16.938 84.6213 17.0675 84.7509 17.1969C85.01 17.391 85.1396 17.5852 85.1396 17.844Z" fill="#878787"/>
<path d="M86.4351 14.7378V15.1261C86.4351 15.1908 86.3703 15.2555 86.3055 15.2555H85.8521C85.7873 15.2555 85.7225 15.1908 85.7225 15.1261V14.7378C85.7225 14.6731 85.7873 14.6084 85.8521 14.6084H86.3055C86.3703 14.6084 86.4351 14.6084 86.4351 14.7378ZM86.4351 15.7085V18.4911C86.4351 18.5558 86.3703 18.6205 86.3055 18.6205H85.8521C85.7873 18.6205 85.7225 18.5558 85.7225 18.4911V15.7085C85.7225 15.6438 85.7873 15.5791 85.8521 15.5791H86.3055C86.3703 15.5791 86.4351 15.6438 86.4351 15.7085Z" fill="#878787"/>
<path d="M89.4799 18.297C89.2208 18.5558 88.8968 18.6852 88.4434 18.6852C87.9899 18.6852 87.666 18.5558 87.4069 18.297C87.1477 18.0381 87.0182 17.6499 87.0182 17.1322C87.0182 16.6145 87.1477 16.2262 87.4069 15.9674C87.666 15.7085 87.9899 15.5791 88.4434 15.5791C88.8968 15.5791 89.2208 15.7085 89.4799 15.9674C89.739 16.2262 89.8686 16.6145 89.8686 17.1322C89.8686 17.6499 89.739 18.0381 89.4799 18.297ZM88.4434 18.1028C88.8968 18.1028 89.156 17.7793 89.156 17.1322C89.156 16.4851 88.8968 16.1615 88.4434 16.1615C87.9899 16.1615 87.7955 16.4851 87.7955 17.1322C87.7308 17.7793 87.9899 18.1028 88.4434 18.1028Z" fill="#878787"/>
<path d="M93.0429 16.6792V18.5558C93.0429 18.6205 92.9781 18.6852 92.9134 18.6852H92.4599C92.3951 18.6852 92.3303 18.6205 92.3303 18.5558V16.8733C92.3303 16.6792 92.2656 16.5497 92.2008 16.4203C92.136 16.2909 92.0064 16.2909 91.8121 16.2909C91.6177 16.2909 91.4234 16.3556 91.3586 16.485C91.229 16.6145 91.1642 16.8086 91.1642 17.0027V18.6205C91.1642 18.6852 91.0995 18.7499 91.0347 18.7499H90.5812C90.5165 18.7499 90.4517 18.6852 90.4517 18.6205V15.8379C90.4517 15.7732 90.5165 15.7085 90.5812 15.7085H91.0347C91.0995 15.7085 91.1642 15.7732 91.1642 15.8379V16.1615C91.3586 15.8379 91.6177 15.7085 92.0712 15.7085C92.3951 15.7085 92.6542 15.8379 92.7838 16.0321C92.9781 16.0321 93.0429 16.2909 93.0429 16.6792Z" fill="#878787"/>
<path d="M96.1525 16.6145V18.4911C96.1525 18.5558 96.0877 18.6205 96.0229 18.6205H95.6342C95.5694 18.6205 95.5047 18.5558 95.5047 18.4911V18.1676C95.3103 18.4911 94.9864 18.6205 94.5329 18.6205C94.2738 18.6205 94.0147 18.5558 93.8851 18.3617C93.6908 18.2323 93.626 17.9734 93.626 17.7146C93.626 17.5205 93.626 17.391 93.6908 17.2616C93.7556 17.1322 93.8203 17.0675 93.9499 17.0028C94.0794 16.9381 94.209 16.8733 94.3386 16.8086C94.5329 16.7439 94.6625 16.7439 94.8568 16.7439C95.0512 16.7439 95.2455 16.7439 95.5047 16.7439V16.6145C95.5047 16.4204 95.4399 16.2909 95.3751 16.2262C95.2455 16.1615 95.1159 16.0968 94.9216 16.0968C94.6625 16.0968 94.4034 16.1615 94.0795 16.291C94.0147 16.291 93.9499 16.2909 93.9499 16.2262L93.8204 15.9027C93.8204 15.838 93.8203 15.7733 93.8851 15.7733C94.209 15.6438 94.5977 15.5791 94.9864 15.5791C95.7638 15.5144 96.1525 15.9027 96.1525 16.6145ZM95.5047 17.4557V17.1969C95.3103 17.1969 95.116 17.1969 94.9864 17.1969C94.8568 17.1969 94.7273 17.2616 94.5977 17.2616C94.4681 17.3263 94.4034 17.3263 94.3386 17.391C94.2738 17.4557 94.2738 17.5205 94.2738 17.6499C94.2738 17.7793 94.3386 17.844 94.4034 17.9734C94.4681 18.0381 94.5977 18.1029 94.7273 18.1029C94.9864 18.1029 95.1159 18.0382 95.2455 17.9087C95.4399 17.844 95.5047 17.7146 95.5047 17.4557Z" fill="#878787"/>
<path d="M97.5776 14.6731V18.4911C97.5776 18.5558 97.5128 18.6205 97.448 18.6205H96.9946C96.9298 18.6205 96.865 18.5558 96.865 18.4911V14.6731C96.865 14.6084 96.9298 14.5437 96.9946 14.5437H97.448C97.5776 14.6084 97.5776 14.6084 97.5776 14.6731Z" fill="#878787"/>
<path d="M100.363 17.844C100.363 18.4264 99.9745 18.75 99.1971 18.75C98.8084 18.75 98.5493 18.6853 98.2254 18.5558C98.1606 18.5558 98.0958 18.4911 98.1606 18.4264L98.2254 18.1028C98.2254 18.0381 98.2902 17.9734 98.355 18.0381C98.5493 18.1028 98.8085 18.1676 99.0028 18.1676C99.1971 18.1676 99.3267 18.1676 99.4562 18.1028C99.521 18.0381 99.5858 17.9734 99.5858 17.844C99.5858 17.7146 99.521 17.6499 99.4562 17.5852C99.3915 17.5204 99.1971 17.4557 99.0028 17.391C98.6789 17.2616 98.4845 17.1969 98.4197 17.1322C98.2254 17.0027 98.0958 16.7439 98.0958 16.4203C98.0958 16.1615 98.1606 15.9027 98.355 15.7732C98.5493 15.6438 98.8084 15.5791 99.1323 15.5791C99.4562 15.5791 99.7802 15.6438 100.039 15.7085C100.104 15.7732 100.169 15.7732 100.104 15.8379L100.039 16.0968C100.039 16.1615 99.9745 16.2262 99.9097 16.1615C99.6506 16.0968 99.4563 16.0321 99.2619 16.0321C99.0676 16.0321 98.938 16.0321 98.8732 16.0968C98.8084 16.1615 98.7437 16.2262 98.7437 16.3556C98.7437 16.4203 98.7436 16.4851 98.8084 16.5498C98.8732 16.6145 98.938 16.6792 99.0028 16.6792C99.0676 16.6792 99.1971 16.7439 99.3267 16.8086C99.6506 16.938 99.845 17.0675 99.9745 17.1969C100.298 17.391 100.363 17.5852 100.363 17.844Z" fill="#878787"/>
</svg>
