<svg width="85" height="32" viewBox="0 0 85 32" fill="none" xmlns="http://www.w3.org/2000/svg">
<path d="M13.6544 0.553955L12.1644 1.65405L11.4518 2.49529L9.05491 2.62471L8.60143 3.59538L7.3058 4.50135L4.90888 6.83095L4.97368 8.18989L3.80762 9.3547L2.90067 11.6843L2.8359 13.1727L2.05851 13.8845L0.892456 16.5376V18.6731L2.57676 24.0442L5.42716 28.9622L10.7392 31.5507L14.4318 30.5153V1.71876L13.6544 0.553955ZM2.51199 16.0847C2.38243 16.1494 2.31763 16.2788 2.25285 16.4082L1.34589 16.4729L2.25285 14.4022L2.51199 16.0847ZM4.97368 10.5842C4.9089 10.6489 4.90888 10.7783 4.90888 10.8431C4.90888 10.8431 4.90888 10.8431 4.90888 10.9078L3.35414 11.4902L4.06673 9.67825L4.97368 10.5842ZM5.36235 8.18989L5.29759 7.21922L7.50014 9.87239L5.68626 10.5195C5.62148 10.4548 5.55671 10.4548 5.49193 10.3901L5.36235 8.18989ZM8.92534 24.0442C8.92534 24.1089 8.99014 24.1736 8.99014 24.1736L6.65798 27.3444L3.15981 24.1089L8.92534 24.0442ZM13.2009 5.98971L14.4318 8.77229L10.221 12.0079L11.7109 8.837H11.7757C12.0349 8.837 12.2292 8.64287 12.2292 8.38403C12.2292 8.2546 12.1644 8.12518 12.0996 8.06047L13.1361 5.92499C13.1361 5.98971 13.1362 5.98971 13.2009 5.98971ZM9.44358 18.5437C9.44358 18.479 9.4436 18.4143 9.37881 18.3496L10.6744 17.3142L10.7392 17.3789L9.37881 23.1382L9.11967 18.9967C9.31402 18.8673 9.44358 18.7378 9.44358 18.5437ZM10.5449 16.9906C10.5449 17.0553 10.5449 17.0553 10.5449 17.12L9.24924 18.1554C9.18446 18.0907 9.05492 18.0907 8.99014 18.0907C8.86058 18.0907 8.73099 18.1554 8.60143 18.2849L7.75928 17.9613C7.75928 17.8319 7.69449 17.7025 7.62971 17.6377L9.76749 12.9138H9.83229L10.804 16.6024C10.6745 16.6671 10.5449 16.7965 10.5449 16.9906ZM11.4518 8.77229L9.89706 12.0079H9.83229C9.76751 12.0079 9.70274 12.0079 9.63796 12.0726L7.88885 10.0018L11.387 8.70758L11.4518 8.77229ZM9.44358 12.1373L5.81583 10.7783V10.7136L7.69451 10.0018L9.44358 12.1373ZM5.75107 11.0372L9.37881 12.3961C9.37881 12.3961 9.37881 12.3961 9.37881 12.4608C9.37881 12.5903 9.4436 12.7197 9.50839 12.7844L7.3706 17.5083H7.3058L5.55669 11.2313C5.68625 11.1666 5.68629 11.1019 5.75107 11.0372ZM7.69451 18.2201L8.53666 18.5437C8.53666 18.7378 8.66621 18.932 8.92534 18.9967L9.18448 23.0088L7.56494 18.3496C7.62972 18.2849 7.69451 18.2849 7.69451 18.2201ZM9.18448 24.3677C9.24926 24.3677 9.24927 24.3677 9.31405 24.3677L10.7392 31.0977L6.85232 27.5386L9.18448 24.3677ZM9.57315 23.5265L10.9984 17.573L14.3022 29.8682L9.76749 24.1736C9.83227 24.1089 9.83229 23.9794 9.83229 23.9147C9.83229 23.7853 9.70271 23.5912 9.57315 23.5265ZM11.2575 16.6024C11.1927 16.5376 11.1279 16.5376 10.9984 16.5376L10.0266 12.8491C10.0914 12.8491 10.0914 12.7844 10.1562 12.7197L14.2374 14.2727L11.2575 16.6024ZM14.4318 14.0786L10.2858 12.4608C10.2858 12.4608 10.2858 12.4608 10.2858 12.3961C10.2858 12.3314 10.2857 12.2667 10.221 12.202L14.367 8.96642V14.0786H14.4318ZM14.4318 8.18989L13.46 5.86028C13.5896 5.79557 13.6544 5.66615 13.6544 5.53672C13.6544 5.4073 13.5896 5.27788 13.46 5.14846L14.4318 2.43059V8.18989ZM12.877 5.86028L11.8405 7.99575H11.7757C11.711 7.99575 11.7109 7.99575 11.6462 7.99575L9.11967 3.91894L12.7475 5.47202V5.53672C12.7475 5.66615 12.8122 5.79557 12.877 5.86028ZM11.1927 7.73691L7.69451 4.56605L8.731 3.78952L11.1927 7.73691ZM11.3223 8.44873L7.75928 9.74296L5.49193 7.02509L11.3223 8.44873ZM3.22457 11.749L4.97368 11.1019C5.03846 11.1666 5.10324 11.2313 5.16802 11.2313L3.87239 13.8198L3.22457 13.0432V11.749ZM5.36235 11.4255L7.0467 17.5083L4.00196 14.1433L5.36235 11.4255ZM6.91713 17.7025L3.15981 16.5376C3.15981 16.5376 3.15981 16.5376 3.15981 16.4729C3.15981 16.3435 3.09502 16.2141 3.03024 16.1494L3.93715 14.3375L6.91713 17.7025ZM1.28113 16.7318L2.31762 16.6671C2.31762 16.7318 2.38242 16.7318 2.38242 16.7965L1.28113 18.3496V16.7318ZM6.85232 17.9613C6.85232 18.0907 6.91711 18.2201 6.98189 18.2849L5.81583 19.8379L3.095 16.7965L6.85232 17.9613ZM7.17623 18.4143C7.24101 18.4143 7.24102 18.4143 7.3058 18.4143L8.99014 23.397L5.9454 19.9674L7.17623 18.4143ZM8.99014 23.7206C8.99014 23.7853 8.92534 23.7853 8.92534 23.85L3.095 23.9147L5.8806 20.2262L8.99014 23.7206ZM6.52841 27.5386L5.68626 28.6387L3.35414 24.6266L6.52841 27.5386ZM6.72279 27.7327L10.2858 30.9683L5.8806 28.8328L6.72279 27.7327ZM9.57315 24.4324L14.3022 30.3859L10.9984 31.2918L9.57315 24.4324ZM11.1927 17.3789C11.3223 17.3142 11.4518 17.1201 11.4518 16.9906C11.4518 16.9259 11.4518 16.8612 11.387 16.7965L14.367 14.5316V29.5446L11.1927 17.3789ZM14.4318 1.78348L13.2657 5.08375L12.4236 1.84818L13.7192 0.942227L14.4318 1.78348ZM11.5814 2.75415L12.1644 2.04232L12.9418 5.14846C12.9418 5.14846 12.877 5.14846 12.877 5.21317L9.57315 2.88357L11.5814 2.75415ZM9.24924 2.88357L12.1644 4.88961L8.99014 3.53068L9.24924 2.88357ZM7.50014 4.69548L11.3223 8.18989L5.36235 6.76624L7.50014 4.69548ZM5.10325 8.44873L5.23278 10.3901L4.1963 9.3547L5.10325 8.44873ZM3.095 13.3668L3.74282 14.1433L2.7711 16.0847C2.7711 16.0847 2.77111 16.0847 2.70633 16.0847L2.38242 14.0139L3.095 13.3668ZM1.28113 18.6731L2.57676 16.8612C2.64154 16.8612 2.70633 16.8612 2.70633 16.8612C2.77111 16.8612 2.83588 16.8612 2.90067 16.7965L5.68626 19.9026L2.90067 23.6559L1.28113 18.6731Z" fill="#878787"/>
<path d="M15.8569 1.71874V30.58L19.5495 31.6154L24.8616 29.027L27.712 24.1089L29.3963 18.7378V16.6024L28.2302 13.9492L27.4529 13.2374L27.388 11.749L26.4811 9.4194L25.315 8.2546L25.3798 6.89566L22.9829 4.56604L21.6873 3.66009L21.2338 2.68942L18.8369 2.55999L18.1243 1.71874L16.6343 0.618652L15.8569 1.71874ZM28.2302 14.4022L29.1372 16.4729L28.2302 16.4082C28.2302 16.2788 28.1007 16.1494 27.9711 16.0847L28.2302 14.4022ZM26.4811 9.61353L27.1937 11.4255L25.6389 10.8431C25.6389 10.8431 25.6389 10.8431 25.6389 10.7783C25.6389 10.6489 25.5742 10.5842 25.5742 10.5195L26.4811 9.61353ZM25.1855 8.2546L25.0559 10.4548C24.9911 10.4548 24.9264 10.5195 24.8616 10.5842L23.0477 9.93709L25.2503 7.28393L25.1855 8.2546ZM27.3233 24.1736L23.8251 27.4092L21.4929 24.2383C21.5577 24.1736 21.5577 24.1736 21.5577 24.1089L27.3233 24.1736ZM17.4117 5.9897L18.4482 8.12517C18.3834 8.18988 18.3186 8.3193 18.3186 8.44873C18.3186 8.70757 18.513 8.90171 18.7721 8.90171H18.8369L20.3269 12.0726L16.1161 8.837L17.2821 6.05441H17.3469C17.3469 5.98969 17.3469 5.9897 17.4117 5.9897ZM21.3634 18.932L21.1042 23.0735L19.7438 17.3142L19.8086 17.2495L21.1042 18.2849C21.1042 18.3496 21.0395 18.4143 21.0395 18.479C21.0395 18.7378 21.169 18.8673 21.3634 18.932ZM19.7438 16.6024L20.7156 12.9138H20.7803L22.9181 17.6378C22.7886 17.7025 22.7886 17.8319 22.7886 17.9613L21.9464 18.2849C21.8816 18.1554 21.7521 18.0907 21.5577 18.0907C21.4929 18.0907 21.3634 18.0907 21.2986 18.1554L20.003 17.12C20.003 17.0553 20.003 17.0553 20.003 16.9906C19.9382 16.7965 19.8734 16.6671 19.7438 16.6024ZM19.096 8.70758L22.5942 10.0018L20.8451 12.0726C20.7803 12.0726 20.7156 12.0079 20.6508 12.0079H20.586L19.0312 8.77228C19.096 8.77228 19.096 8.70758 19.096 8.70758ZM22.8533 10.0665L24.732 10.7783V10.8431L21.1042 12.202L22.8533 10.0665ZM24.9264 11.2313L23.1772 17.5083H23.1125L20.9747 12.7844C21.1043 12.7197 21.1042 12.5903 21.1042 12.4608C21.1042 12.4608 21.1042 12.4608 21.1042 12.3961L24.732 11.0372C24.7968 11.1019 24.8616 11.1666 24.9264 11.2313ZM22.9181 18.3496L21.2986 23.0088L21.5577 18.9967C21.7521 18.932 21.9464 18.8026 21.9464 18.5437L22.7886 18.2201C22.8534 18.2849 22.8534 18.2849 22.9181 18.3496ZM23.6307 27.5386L19.7438 31.0977L21.169 24.3677C21.2338 24.3677 21.2338 24.3677 21.2986 24.3677L23.6307 27.5386ZM20.6508 23.9147C20.6508 24.0442 20.7156 24.1089 20.7156 24.1736L16.1808 29.8682L19.4847 17.573L20.9099 23.5265C20.7803 23.5912 20.6508 23.7853 20.6508 23.9147ZM16.1808 14.2728L20.2621 12.7197C20.3269 12.7844 20.3269 12.7844 20.3916 12.8491L19.4199 16.5377C19.3551 16.5377 19.2256 16.5377 19.1608 16.6024L16.1808 14.2728ZM16.0513 9.03113L20.1973 12.2667C20.1973 12.3314 20.1325 12.3961 20.1325 12.4608C20.1325 12.4608 20.1325 12.4608 20.1325 12.5255L15.9865 14.1433V9.03113H16.0513ZM16.0513 2.43057L17.023 5.14845C16.8934 5.21316 16.8287 5.34258 16.8287 5.53671C16.8287 5.66614 16.8934 5.79556 17.023 5.86027L16.0513 8.18988V2.43057ZM17.7356 5.53671C17.7356 5.472 17.7356 5.472 17.7356 5.53671L21.3634 3.91893L18.8369 7.99575C18.7721 7.99575 18.7721 7.99575 18.7073 7.99575H18.6425L17.606 5.86027C17.6708 5.79556 17.7356 5.66614 17.7356 5.53671ZM21.752 3.78951L22.7886 4.56604L19.2903 7.73691L21.752 3.78951ZM25.0559 7.08979L22.7886 9.80767L19.2256 8.51344L25.0559 7.08979ZM27.2585 13.1727L26.6107 13.9492L25.315 11.3607C25.3798 11.3607 25.4446 11.296 25.5094 11.2313L27.2585 11.8784V13.1727ZM26.4163 14.0786L23.3716 17.4436L25.0559 11.3607L26.4163 14.0786ZM26.5459 14.3375L27.4529 16.1494C27.3881 16.2141 27.3233 16.3435 27.3233 16.4729C27.3233 16.4729 27.3233 16.4729 27.3233 16.5377L23.566 17.7025L26.5459 14.3375ZM29.2019 18.2849L28.1007 16.7318C28.1007 16.6671 28.1654 16.6671 28.1654 16.6024L29.2019 16.6671V18.2849ZM27.388 16.7965L24.6672 19.8379L23.5012 18.2849C23.5659 18.2202 23.6307 18.0907 23.6307 17.9613L27.388 16.7965ZM24.4729 19.9674L21.4281 23.3971L23.1125 18.4143C23.1773 18.4143 23.1773 18.4143 23.2421 18.4143L24.4729 19.9674ZM24.6024 20.2262L27.388 23.9147L21.5577 23.85C21.5577 23.7853 21.5577 23.7853 21.4929 23.7206L24.6024 20.2262ZM27.1289 24.6913L24.7968 28.7034L23.9546 27.6033L27.1289 24.6913ZM24.6024 28.8328L20.1973 30.9683L23.7603 27.7327L24.6024 28.8328ZM19.4199 31.2919L16.1161 30.3859L20.8451 24.4324L19.4199 31.2919ZM16.0513 29.5446V14.5316L19.0312 16.7965C19.0312 16.8612 18.9664 16.9259 18.9664 16.9906C18.9664 17.1848 19.096 17.3142 19.2256 17.3789L16.0513 29.5446ZM16.8287 0.942209L18.1243 1.84816L17.2821 5.08373L16.1161 1.78346L16.8287 0.942209ZM20.9099 2.81884L17.606 5.14845C17.606 5.14845 17.5412 5.14845 17.5412 5.08373L18.3186 1.97759L18.9017 2.68942L20.9099 2.81884ZM21.5577 3.59537L18.3834 4.95431L21.2986 2.94826L21.5577 3.59537ZM25.1207 6.76624L19.1608 8.18988L22.9829 4.69547L25.1207 6.76624ZM26.3516 9.4194L25.315 10.4548L25.4446 8.51344L26.3516 9.4194ZM28.1007 14.0139L27.7768 16.0847C27.7768 16.0847 27.7767 16.0847 27.712 16.0847L26.7402 14.1433L27.388 13.3668L28.1007 14.0139ZM27.5824 23.7853L24.7968 20.0321L27.5824 16.9259C27.6472 16.9259 27.712 16.9906 27.7768 16.9906C27.8415 16.9906 27.9063 16.9906 27.9063 16.9906L29.2019 18.8025L27.5824 23.7853Z" fill="#878787"/>
<path d="M39.2431 4.37195H42.3526L49.3491 23.5265H46.4986L44.4256 17.9613H37.2349L35.3562 23.5265H32.5058L39.2431 4.37195ZM43.5835 15.6964L40.9274 7.67222L37.8179 15.6964H43.5835Z" fill="#878787"/>
<path d="M50.2559 7.80164H52.7177V26.9562H50.2559V7.80164Z" fill="#878787"/>
<path d="M54.4668 4.37195H64.184C65.5444 4.37195 66.6458 4.82493 67.6175 5.66617C68.5892 6.50742 69.1074 7.73693 69.3018 9.29C69.3018 9.61355 69.3018 9.93711 69.237 10.3254C69.1722 10.7136 69.1074 11.0372 69.0426 11.4255C68.9131 11.9432 68.654 12.3961 68.2653 12.8491C67.8766 13.3021 67.3583 13.6904 66.6458 14.0786C67.6175 14.5316 68.2005 15.1787 68.4596 15.8905C68.7188 16.6671 68.8483 17.4436 68.9131 18.2202C68.9131 18.2849 68.9131 18.3496 68.9131 18.4143C68.9131 18.479 68.9131 18.5437 68.9131 18.6084C68.9131 18.7378 68.9131 18.8026 68.9131 18.932C68.9131 19.0614 68.9131 19.1908 68.9131 19.2555C68.9131 20.0321 68.9131 20.6792 68.9779 21.391C69.0427 22.0381 69.3666 22.5558 69.8848 22.9441V23.5912H66.7753C66.6457 23.2676 66.581 22.8794 66.5162 22.4911C66.4514 22.1028 66.3866 21.7793 66.3866 21.391C66.3866 21.1969 66.3866 21.0027 66.3218 20.8733C66.3218 20.6792 66.3218 20.485 66.3218 20.3556C66.3218 20.2909 66.3218 20.2262 66.3218 20.2262C66.3218 20.1615 66.3218 20.1615 66.3218 20.0968C66.2571 18.9967 66.1275 17.9613 65.8684 17.1201C65.6092 16.2141 64.7023 15.6964 63.2771 15.5023H56.8637V23.7206H54.402V4.37195H54.4668ZM63.5362 13.0433C63.601 13.0433 63.6658 13.0433 63.6658 13.0433C63.7306 13.0433 63.7954 13.0433 63.7954 13.0433C64.5727 13.0433 65.2853 12.7197 65.8036 12.0726C66.3218 11.4255 66.6458 10.6489 66.6458 9.87241C66.6458 9.87241 66.6458 9.8724 66.6458 9.80769C66.6458 9.80769 66.6458 9.80769 66.6458 9.74297C66.6458 9.74297 66.6458 9.74298 66.6458 9.67827C66.6458 9.67827 66.6458 9.67827 66.6458 9.61355C66.6458 8.90173 66.3218 8.25462 65.7388 7.60751C65.1558 6.9604 64.184 6.63684 62.8236 6.57213H56.8637V12.9785H63.5362V13.0433Z" fill="#878787"/>
<path d="M71.0509 7.80164H79.9259C81.2863 7.80164 82.4524 8.25462 83.4241 9.22529C84.3958 10.196 84.9141 11.4255 84.9141 12.9785C84.9141 13.0433 84.9141 13.108 84.9141 13.1727C84.9141 13.2374 84.9141 13.3021 84.9141 13.3668C84.9141 13.6904 84.9141 14.0139 84.8493 14.3375C84.7845 14.7258 84.7197 15.0493 84.5254 15.4376C84.2015 16.2788 83.748 16.9907 83.0354 17.7025C82.3228 18.3496 81.3511 18.7378 80.1203 18.7378H73.5126V26.9562H71.0509V7.80164ZM73.5126 16.6024H79.9259C79.9907 16.6024 80.1203 16.5377 80.3794 16.4083C80.6385 16.2788 80.8976 16.0847 81.1568 15.8258C81.4807 15.5023 81.8046 15.114 82.0637 14.661C82.3228 14.1433 82.4524 13.6257 82.3876 12.9138C82.2581 12.0726 81.9989 11.4255 81.4807 10.9725C80.9624 10.4548 80.3146 10.2607 79.4725 10.2607H73.5126V16.6024Z" fill="#878787"/>
</svg>
