<svg width="52" height="52" viewBox="0 0 52 52" fill="none" xmlns="http://www.w3.org/2000/svg">
<path d="M9.68538 48.1464C9.68538 48.9877 9.49104 49.7642 9.03757 50.3466C8.58409 50.929 8.00106 51.3173 7.35324 51.5761C6.64065 51.835 5.86327 51.8997 5.02111 51.8997C3.33678 51.8997 1.91159 51.6408 0.875083 51.0584C0.551175 50.8643 0.421612 50.6054 0.551175 50.2819L1.06943 48.7288C1.19899 48.3405 1.45812 48.2111 1.84681 48.4053C2.68897 48.7288 3.46635 48.9229 4.24373 48.9229C5.4098 48.9229 5.92805 48.6641 5.92805 48.2111C5.92805 48.017 5.79848 47.8229 5.53936 47.6934C5.28023 47.564 4.82676 47.3699 4.24373 47.1757C3.79026 47.0463 3.46635 46.9169 3.14244 46.7875C2.81853 46.658 2.49462 46.5286 2.17072 46.2698C1.78203 46.0757 1.5229 45.8168 1.32855 45.558C1.13421 45.2991 0.939865 44.9755 0.810302 44.5226C0.680739 44.1343 0.615957 43.6166 0.615957 43.0989C0.615957 40.7693 2.17072 39.6045 5.21545 39.6045C6.70543 39.6045 7.93628 39.8633 8.908 40.381C9.23191 40.5752 9.36147 40.834 9.23191 41.1576L8.64888 42.6459C8.51931 43.0342 8.26019 43.0989 7.8715 42.9695C7.1589 42.7107 6.38152 42.6459 5.60414 42.6459C5.15067 42.6459 4.82676 42.7106 4.63242 42.7754C4.43807 42.8401 4.30851 43.0342 4.30851 43.2931C4.30851 43.4872 4.43807 43.6813 4.6972 43.8107C4.95632 43.9402 5.4098 44.1343 5.99283 44.3931C6.38152 44.5226 6.57586 44.652 6.77021 44.652C6.89977 44.7167 7.09412 44.7814 7.41803 44.9108C7.74193 45.0403 7.93628 45.1697 8.06584 45.2344C8.1954 45.2991 8.38975 45.4285 8.5841 45.6227C8.77844 45.7521 8.97278 45.9462 9.10235 46.0756C9.23191 46.2051 9.29669 46.3992 9.42626 46.658C9.55582 46.8522 9.6206 47.111 9.68538 47.3699C9.68538 47.564 9.68538 47.8229 9.68538 48.1464Z" fill="#878787"/>
<path d="M17.4592 51.1223V47.3044H14.7383V51.1223C14.7383 51.5106 14.544 51.7047 14.1553 51.7047H11.6936C11.3049 51.7047 11.1106 51.5106 11.1106 51.1223V40.3156C11.1106 39.9273 11.3049 39.7332 11.6936 39.7332H14.1553C14.544 39.7332 14.7383 39.9273 14.7383 40.3156V44.0041H17.4592V40.3156C17.4592 39.9273 17.6535 39.7332 18.0422 39.7332H20.5039C20.8926 39.7332 21.0869 39.9273 21.0869 40.3156V51.0576C21.0869 51.4459 20.8926 51.64 20.5039 51.64H18.0422C17.6535 51.7047 17.4592 51.5106 17.4592 51.1223Z" fill="#878787"/>
<path d="M24.0669 41.0274C25.0386 39.9921 26.399 39.5391 28.1481 39.5391C29.8972 39.5391 31.2576 40.0568 32.2294 41.0274C33.2011 42.0628 33.7193 43.6159 33.7193 45.6866C33.7193 47.8221 33.2011 49.3752 32.2294 50.3459C31.2576 51.3812 29.8972 51.8342 28.1481 51.8342C26.399 51.8342 25.0386 51.3165 24.0669 50.3459C23.0952 49.3105 22.5769 47.7574 22.5769 45.6866C22.5769 43.6159 23.0952 41.9981 24.0669 41.0274ZM26.7877 48.0162C27.1116 48.4692 27.5003 48.7281 28.1481 48.7281C28.7312 48.7281 29.1846 48.4692 29.5085 48.0162C29.8324 47.5633 29.962 46.7867 29.962 45.6866C29.962 44.5865 29.8324 43.81 29.5085 43.357C29.1846 42.9041 28.7959 42.6452 28.1481 42.6452C27.5651 42.6452 27.1116 42.9041 26.7877 43.357C26.4638 43.81 26.3342 44.5865 26.3342 45.6866C26.3342 46.7867 26.5286 47.5633 26.7877 48.0162Z" fill="#878787"/>
<path d="M41.6227 39.7332H43.6957C44.0844 39.7332 44.3435 39.9273 44.4731 40.2509L45.38 44.3277L45.8983 47.1103H45.9631L46.4813 44.3277L47.3235 40.2509C47.3883 39.8626 47.6474 39.6685 48.1009 39.6685H50.6273C51.0808 39.6685 51.2104 39.9273 51.0808 40.3803L48.2304 51.1224C48.1009 51.5107 47.9065 51.6401 47.5178 51.6401H44.9266C44.5379 51.6401 44.2787 51.4459 44.214 51.1224L43.1775 47.175L42.724 45.0395H42.6592L42.2057 47.175L41.1692 51.1224C41.0397 51.5107 40.8453 51.6401 40.4566 51.6401H37.8654C37.4767 51.6401 37.2175 51.4459 37.1528 51.1224L34.3024 40.3803C34.1728 39.8626 34.3024 39.6685 34.7558 39.6685H37.2823C37.671 39.6685 37.9301 39.8626 38.0597 40.2509L38.9019 44.3277L39.4201 47.1103H39.4849L40.0032 44.3277L40.9101 40.2509C40.9101 39.8626 41.1692 39.7332 41.6227 39.7332Z" fill="#878787"/>
<path d="M7.54759 37.4683V33.262H4.56764V37.4683C4.56764 37.9213 4.37329 38.1154 3.91982 38.1154H1.19899C0.745523 38.1154 0.551178 37.9213 0.551178 37.4683V25.7555C0.551178 25.3025 0.745523 25.1084 1.19899 25.1084H3.91982C4.37329 25.1084 4.56764 25.3025 4.56764 25.7555V29.7676H7.54759V25.7555C7.54759 25.3025 7.74194 25.1084 8.19541 25.1084H10.9162C11.3697 25.1084 11.564 25.3025 11.564 25.7555V37.4683C11.564 37.9213 11.3697 38.1154 10.9162 38.1154H8.19541C7.80672 38.1154 7.54759 37.8565 7.54759 37.4683Z" fill="#878787"/>
<path d="M14.7383 26.4674C15.7749 25.3673 17.2648 24.7849 19.1435 24.7849C21.0222 24.7849 22.5121 25.3673 23.5486 26.4674C24.5852 27.5675 25.1682 29.25 25.1682 31.5796C25.1682 33.9092 24.6499 35.5917 23.5486 36.6918C22.5121 37.7919 21.0222 38.3743 19.1435 38.3743C17.2648 38.3743 15.7749 37.7919 14.7383 36.6918C13.7018 35.5917 13.1188 33.9092 13.1188 31.5796C13.1836 29.25 13.7018 27.5675 14.7383 26.4674ZM17.7183 34.1033C18.0422 34.621 18.4957 34.8799 19.2083 34.8799C19.8561 34.8799 20.3743 34.621 20.6983 34.1033C21.0222 33.5856 21.1517 32.7444 21.1517 31.5796C21.1517 30.4148 21.0222 29.5736 20.6983 29.0559C20.3743 28.5382 19.9209 28.2793 19.2083 28.2793C18.5605 28.2793 18.0422 28.5382 17.7183 29.0559C17.3944 29.5736 17.2648 30.4148 17.2648 31.5796C17.2648 32.7444 17.3944 33.5856 17.7183 34.1033Z" fill="#878787"/>
<path d="M33.525 35.6563C33.3307 35.6563 33.1363 35.5916 33.0716 35.3975L30.7394 31.4501V37.4683C30.7394 37.9213 30.5451 38.1154 30.0916 38.1154H27.5651C27.1116 38.1154 26.9173 37.9213 26.9173 37.4683V25.7555C26.9173 25.3025 27.1116 25.1084 27.5651 25.1084H30.0268C30.4155 25.1084 30.6098 25.2378 30.8042 25.4967L33.6546 30.4147L36.505 25.4967C36.6345 25.2378 36.8937 25.1084 37.2824 25.1084H39.7441C40.1975 25.1084 40.3919 25.3025 40.3919 25.7555V37.4683C40.3919 37.9213 40.1975 38.1154 39.7441 38.1154H37.2176C36.7641 38.1154 36.5698 37.9213 36.5698 37.4683V31.4501L34.2376 35.3975C33.9137 35.5916 33.7194 35.6563 33.525 35.6563Z" fill="#878787"/>
<path d="M50.3034 33.0679H46.1574V34.8151H50.6921C51.1456 34.8151 51.34 35.0092 51.34 35.4622V37.4683C51.34 37.9213 51.1456 38.1154 50.6921 38.1154H42.8536C42.4001 38.1154 42.2057 37.9213 42.2057 37.4683V25.7555C42.2057 25.3025 42.4001 25.1084 42.8536 25.1084H50.5626C51.016 25.1084 51.2104 25.3025 51.2104 25.7555V27.7616C51.2104 28.2145 51.016 28.4087 50.5626 28.4087H46.1574V29.9618H50.3034C50.7569 29.9618 50.9513 30.1559 50.9513 30.6089V32.4855C50.9513 32.8738 50.6921 33.0679 50.3034 33.0679Z" fill="#878787"/>
<path d="M33.7841 12.7485L29.2494 9.31884V3.88311H26.3343V7.18336L17.9774 0.841675L0.292053 14.1075L1.39334 15.5958L17.9774 3.17128L33.2011 14.5604H50.3682V12.7485H33.7841Z" fill="#878787"/>
<path d="M8.1954 12.4249H27.5003L17.8479 5.30664L8.1954 12.4249Z" fill="#878787"/>
<path d="M37.2823 7.1189C37.088 7.1189 36.9584 7.05417 36.9584 6.86004V6.08351H34.7559C34.5615 6.08351 34.4967 6.0188 34.4967 5.82467V5.04812C34.4967 4.9187 34.5615 4.78928 34.6263 4.72457L36.8937 1.74784C36.9584 1.61841 37.088 1.55371 37.2823 1.55371H38.5132C38.7075 1.55371 38.8371 1.61842 38.8371 1.81255V4.78928H39.2906C39.4849 4.78928 39.5497 4.85399 39.5497 5.04812V5.75995C39.5497 5.95409 39.4849 6.01879 39.2906 6.01879H38.8371V6.79534C38.8371 6.98947 38.7075 7.05418 38.5132 7.05418H37.2823V7.1189ZM35.7924 4.854H37.0232V3.30091L35.7924 4.854Z" fill="#878787"/>
<path d="M44.0844 2.20066C44.4731 2.65364 44.7322 3.36546 44.7322 4.40085C44.7322 5.43623 44.5379 6.14806 44.0844 6.60104C43.6957 7.05402 43.0479 7.24815 42.3353 7.24815C41.5579 7.24815 40.9749 7.05402 40.5862 6.60104C40.1975 6.14806 39.9384 5.43623 39.9384 4.40085C39.9384 3.36546 40.1327 2.65364 40.5862 2.20066C40.9749 1.74768 41.6227 1.55354 42.3353 1.55354C43.1127 1.48883 43.6957 1.74768 44.0844 2.20066ZM42.7888 5.56565C42.8536 5.37151 42.9183 4.98325 42.9183 4.40085C42.9183 3.81844 42.8536 3.43018 42.7888 3.23605C42.724 3.04191 42.5296 2.91249 42.3353 2.91249C42.141 2.91249 42.0114 3.04191 41.8818 3.23605C41.8171 3.43018 41.7523 3.81844 41.7523 4.40085C41.7523 4.98325 41.8171 5.37151 41.8818 5.56565C41.9466 5.75978 42.141 5.88921 42.3353 5.88921C42.5296 5.88921 42.6592 5.75978 42.7888 5.56565Z" fill="#878787"/>
<path d="M46.4813 5.24197V6.0185C46.4813 6.08322 46.4813 6.14792 46.5461 6.21263C46.5461 6.21263 46.6109 6.27734 46.6757 6.27734C46.6757 6.27734 46.6757 6.27734 46.7405 6.27734C46.8052 6.27734 46.8052 6.27734 46.8052 6.27734C46.9348 6.27734 46.9348 6.34206 46.9348 6.40677V6.79504C46.9348 6.85975 46.87 6.92445 46.8052 6.92445C46.6757 6.92445 46.5461 6.98917 46.3518 6.98917C46.0279 6.98917 45.7687 6.92446 45.6392 6.79504C45.5096 6.66562 45.4448 6.47149 45.4448 6.14793V5.24197H45.3153C45.1857 5.24197 45.1857 5.17727 45.1857 5.11256V4.65957C45.1857 4.59486 45.2505 4.53016 45.3153 4.53016H45.4448V4.01247C45.4448 3.94776 45.5096 3.88306 45.6392 3.88306H46.287C46.4166 3.88306 46.4813 3.94776 46.4813 4.01247V4.53016H46.8052C46.9348 4.53016 46.9996 4.59486 46.9996 4.65957V5.11256C46.9996 5.17727 46.9348 5.24197 46.8052 5.24197H46.4813Z" fill="#878787"/>
<path d="M49.85 6.79512C49.85 6.85983 49.7852 6.92453 49.6556 6.92453H49.0078C48.8783 6.92453 48.8135 6.85983 48.8135 6.79512V5.43619C48.8135 5.30676 48.8135 5.24206 48.7487 5.17735C48.7487 5.11264 48.6839 5.11263 48.5544 5.11263C48.36 5.11263 48.2952 5.24206 48.2952 5.5009V6.79512C48.2952 6.85983 48.2305 6.92453 48.1009 6.92453H47.4531C47.3235 6.92453 47.2587 6.85983 47.2587 6.79512V3.7537C47.2587 3.68899 47.3235 3.62427 47.4531 3.62427H48.1009C48.2305 3.62427 48.2952 3.68899 48.2952 3.7537V4.53024C48.4248 4.40081 48.6839 4.27138 49.0078 4.27138C49.5261 4.27138 49.85 4.59495 49.85 5.17735V6.79512Z" fill="#878787"/>
<path d="M36.8289 10.7425C36.8289 10.8072 36.7641 10.8719 36.6345 10.8719H36.1163C35.9867 10.8719 35.922 10.8072 35.922 10.7425L35.8572 10.6131C35.7276 10.8072 35.4685 10.8719 35.1446 10.8719C34.8854 10.8719 34.6911 10.8072 34.5615 10.6778C34.432 10.5484 34.3672 10.3542 34.3672 10.0954C34.3672 9.96594 34.3672 9.83654 34.432 9.70711C34.4968 9.57769 34.5615 9.51296 34.6263 9.44825C34.6911 9.38354 34.8207 9.31884 34.9502 9.31884C35.0798 9.25413 35.2094 9.25413 35.3389 9.25413C35.4685 9.25413 35.6628 9.25413 35.8572 9.25413V9.1247C35.8572 9.05999 35.8572 8.99529 35.7924 8.99529C35.7276 8.93058 35.6628 8.93057 35.5333 8.93057C35.3389 8.93057 35.1446 8.99529 34.8854 9.06C34.7559 9.06 34.6911 9.06 34.6911 8.93057L34.6263 8.5423C34.6263 8.47759 34.6263 8.41289 34.7559 8.34818C35.015 8.28347 35.3389 8.21875 35.7276 8.21875C36.1163 8.21875 36.4402 8.28347 36.6345 8.41289C36.8289 8.54232 36.8937 8.73645 36.8937 9.06V10.7425H36.8289ZM35.8572 9.77181C35.6628 9.77181 35.5333 9.77181 35.4685 9.83652C35.4037 9.90123 35.3389 9.96594 35.3389 10.0954C35.3389 10.2895 35.4037 10.3542 35.598 10.3542C35.7276 10.3542 35.7924 10.3542 35.7924 10.2895C35.8572 10.2248 35.8572 10.1601 35.8572 10.0307V9.77181Z" fill="#878787"/>
<path d="M39.8089 10.7425C39.8089 10.8072 39.7441 10.8719 39.6145 10.8719H38.9667C38.8371 10.8719 38.7723 10.8072 38.7723 10.7425V9.38353C38.7723 9.25411 38.7723 9.18938 38.7076 9.12467C38.7076 9.05996 38.6428 9.05997 38.5132 9.05997C38.3189 9.05997 38.2541 9.18938 38.2541 9.44823V10.7425C38.2541 10.8072 38.1893 10.8719 38.0597 10.8719H37.4119C37.2824 10.8719 37.2176 10.8072 37.2176 10.7425V8.47756C37.2176 8.41284 37.2824 8.34814 37.4119 8.34814H37.995C38.1245 8.34814 38.1893 8.41284 38.1893 8.47756L38.2541 8.60699C38.3837 8.41285 38.6428 8.34814 38.9667 8.34814C39.4849 8.34814 39.8089 8.60698 39.8089 9.18939V10.7425Z" fill="#878787"/>
<path d="M42.724 10.7425C42.724 10.8072 42.6592 10.8719 42.5297 10.8719H41.8819C41.7523 10.8719 41.6875 10.8072 41.6875 10.7425V9.38353C41.6875 9.25411 41.6875 9.18938 41.6227 9.12467C41.6227 9.05996 41.5579 9.05997 41.4284 9.05997C41.234 9.05997 41.1693 9.18938 41.1693 9.44823V10.7425C41.1693 10.8072 41.1045 10.8719 40.9749 10.8719H40.3271C40.1975 10.8719 40.1328 10.8072 40.1328 10.7425V8.47756C40.1328 8.41284 40.1975 8.34814 40.3271 8.34814H40.9101C41.0397 8.34814 41.1045 8.41284 41.1045 8.47756L41.1693 8.60699C41.2988 8.41285 41.5579 8.34814 41.8819 8.34814C42.4001 8.34814 42.724 8.60698 42.724 9.18939V10.7425Z" fill="#878787"/>
<path d="M43.1127 8.47755C43.1127 8.41284 43.1775 8.34814 43.307 8.34814H43.9549C44.0844 8.34814 44.1492 8.41284 44.1492 8.47755V9.9012C44.1492 10.0306 44.1492 10.0953 44.214 10.16C44.214 10.2247 44.2788 10.2247 44.4083 10.2247C44.6027 10.2247 44.6675 10.0953 44.6675 9.9012V8.54227C44.6675 8.47756 44.7322 8.41286 44.8618 8.41286H45.5096C45.6392 8.41286 45.704 8.47756 45.704 8.54227V10.8071C45.704 10.8719 45.6392 10.9366 45.5096 10.9366H44.9266C44.797 10.9366 44.7322 10.8719 44.7322 10.8071L44.6675 10.6777C44.5379 10.8719 44.2788 10.9366 44.0196 10.9366C43.7605 10.9366 43.5014 10.8718 43.3718 10.7424C43.2423 10.613 43.1775 10.4189 43.1775 10.0953V8.47755H43.1127Z" fill="#878787"/>
<path d="M48.4248 10.7425C48.4248 10.8072 48.36 10.8719 48.2305 10.8719H47.7122C47.5826 10.8719 47.5179 10.8072 47.5179 10.7425L47.4531 10.6131C47.3235 10.8072 47.0644 10.8719 46.7405 10.8719C46.4814 10.8719 46.287 10.8072 46.1574 10.6778C46.0279 10.5484 45.9631 10.3542 45.9631 10.0954C45.9631 9.96594 45.9631 9.83654 46.0279 9.70711C46.0927 9.57769 46.1574 9.51296 46.2222 9.44825C46.287 9.38354 46.4166 9.31884 46.5461 9.31884C46.6757 9.25413 46.8053 9.25413 46.9348 9.25413C47.0644 9.25413 47.2587 9.25413 47.4531 9.25413V9.1247C47.4531 9.05999 47.4531 8.99529 47.3883 8.99529C47.3235 8.93058 47.2587 8.93057 47.1292 8.93057C46.9348 8.93057 46.7405 8.99529 46.4814 9.06C46.3518 9.06 46.287 9.06 46.287 8.93057L46.2222 8.5423C46.2222 8.47759 46.2222 8.41289 46.3518 8.34818C46.6109 8.28347 46.9348 8.21875 47.3235 8.21875C47.7122 8.21875 48.0361 8.28347 48.2305 8.41289C48.4248 8.54232 48.4896 8.73645 48.4896 9.06V10.7425H48.4248ZM47.4531 9.77181C47.2587 9.77181 47.1292 9.77181 47.0644 9.83652C46.9996 9.90123 46.9348 9.96594 46.9348 10.0954C46.9348 10.2895 46.9996 10.3542 47.194 10.3542C47.3235 10.3542 47.3883 10.3542 47.3883 10.2895C47.4531 10.2248 47.4531 10.1601 47.4531 10.0307V9.77181Z" fill="#878787"/>
<path d="M49.85 10.7425C49.85 10.8072 49.7852 10.8719 49.6556 10.8719H49.0078C48.8783 10.8719 48.8135 10.8072 48.8135 10.7425V7.70109C48.8135 7.63637 48.8783 7.57166 49.0078 7.57166H49.6556C49.7852 7.57166 49.85 7.63637 49.85 7.70109V10.7425Z" fill="#878787"/>
<path d="M1.65247 16.9556H2.6242C3.20723 16.9556 3.59592 17.085 3.79027 17.3438C3.98461 17.6027 4.11417 18.0557 4.11417 18.6381C4.11417 19.544 3.85505 20.0617 3.27201 20.1911L4.04939 21.8736C4.11417 22.0031 4.04939 22.0031 3.98461 22.0031H3.53114C3.46636 22.0031 3.40158 21.9383 3.3368 21.8736L2.55942 20.1911H2.17073V21.8089C2.17073 21.8736 2.10595 21.9384 2.04116 21.9384H1.58769C1.52291 21.9384 1.45813 21.8736 1.45813 21.8089V16.9556C1.52291 17.0203 1.58769 16.9556 1.65247 16.9556ZM2.23551 19.6735H2.68898C3.01289 19.6735 3.20723 19.6087 3.3368 19.4793C3.46636 19.3499 3.53114 19.091 3.53114 18.6381C3.53114 18.2498 3.46636 17.991 3.3368 17.7968C3.20723 17.6674 3.01289 17.6027 2.68898 17.6027H2.30029V19.6735H2.23551Z" fill="#878787"/>
<path d="M1.65247 16.9556H2.6242C3.20723 16.9556 3.59592 17.085 3.79027 17.3438C3.98461 17.6027 4.11417 18.0557 4.11417 18.6381C4.11417 19.544 3.85505 20.0617 3.27201 20.1911L4.04939 21.8736C4.11417 22.0031 4.04939 22.0031 3.98461 22.0031H3.53114C3.46636 22.0031 3.40158 21.9383 3.3368 21.8736L2.55942 20.1911H2.17073V21.8089C2.17073 21.8736 2.10595 21.9384 2.04116 21.9384H1.58769C1.52291 21.9384 1.45813 21.8736 1.45813 21.8089V16.9556C1.52291 17.0203 1.58769 16.9556 1.65247 16.9556ZM2.23551 19.6735H2.68898C3.01289 19.6735 3.20723 19.6087 3.3368 19.4793C3.46636 19.3499 3.53114 19.091 3.53114 18.6381C3.53114 18.2498 3.46636 17.991 3.3368 17.7968C3.20723 17.6674 3.01289 17.6027 2.68898 17.6027H2.30029V19.6735H2.23551Z" fill="#878787"/>
<path d="M9.68541 16.89C10.2037 16.89 10.5923 17.0842 10.8515 17.4724C11.1106 17.8607 11.2402 18.5725 11.2402 19.5432C11.2402 20.5139 11.1106 21.2257 10.8515 21.614C10.5923 22.0022 10.2037 22.1964 9.68541 22.1964C9.3615 22.1964 9.03759 22.1316 8.84324 21.9375C8.6489 21.8081 8.45455 21.4845 8.32499 21.0963C8.19543 20.708 8.13065 20.1903 8.13065 19.5432C8.13065 18.8961 8.19543 18.3784 8.32499 17.9901C8.45455 17.6018 8.58412 17.343 8.84324 17.1489C9.03759 17.0195 9.3615 16.89 9.68541 16.89ZM9.68541 21.5492C9.94453 21.5492 10.2037 21.4198 10.2684 21.0963C10.398 20.8374 10.4628 20.255 10.4628 19.5432C10.4628 18.7666 10.398 18.249 10.2684 17.9901C10.1389 17.7313 9.94453 17.5371 9.68541 17.5371C9.42628 17.5371 9.16715 17.6666 9.03759 17.9901C8.90803 18.249 8.84324 18.7666 8.84324 19.5432C8.84324 20.3197 8.90803 20.8374 9.03759 21.0963C9.16715 21.4198 9.3615 21.5492 9.68541 21.5492Z" fill="#878787"/>
<path d="M9.68541 16.89C10.2037 16.89 10.5923 17.0842 10.8515 17.4724C11.1106 17.8607 11.2402 18.5725 11.2402 19.5432C11.2402 20.5139 11.1106 21.2257 10.8515 21.614C10.5923 22.0022 10.2037 22.1964 9.68541 22.1964C9.3615 22.1964 9.03759 22.1316 8.84324 21.9375C8.6489 21.8081 8.45455 21.4845 8.32499 21.0963C8.19543 20.708 8.13065 20.1903 8.13065 19.5432C8.13065 18.8961 8.19543 18.3784 8.32499 17.9901C8.45455 17.6018 8.58412 17.343 8.84324 17.1489C9.03759 17.0195 9.3615 16.89 9.68541 16.89ZM9.68541 21.5492C9.94453 21.5492 10.2037 21.4198 10.2684 21.0963C10.398 20.8374 10.4628 20.255 10.4628 19.5432C10.4628 18.7666 10.398 18.249 10.2684 17.9901C10.1389 17.7313 9.94453 17.5371 9.68541 17.5371C9.42628 17.5371 9.16715 17.6666 9.03759 17.9901C8.90803 18.249 8.84324 18.7666 8.84324 19.5432C8.84324 20.3197 8.90803 20.8374 9.03759 21.0963C9.16715 21.4198 9.3615 21.5492 9.68541 21.5492Z" fill="#878787"/>
<path d="M16.9409 21.5492C17.0705 21.5492 17.2648 21.5492 17.4592 21.4845C17.5887 21.4845 17.5887 21.4845 17.5887 21.614V21.9375C17.5887 22.0022 17.5887 22.0022 17.5887 22.0669C17.5887 22.0669 17.524 22.1316 17.4592 22.1316C17.2648 22.1963 17.0705 22.1964 16.8114 22.1964C16.2283 22.1964 15.7749 22.0022 15.5157 21.614C15.2566 21.2257 15.127 20.5786 15.127 19.5432C15.127 18.5725 15.2566 17.8607 15.5157 17.4724C15.7749 17.0842 16.1636 16.89 16.7466 16.89C16.9409 16.89 17.2001 16.89 17.3944 16.9547C17.4592 16.9547 17.4592 17.0194 17.524 17.0194C17.524 17.0194 17.524 17.0842 17.524 17.1489V17.4724C17.524 17.6019 17.4592 17.6018 17.3944 17.6018C17.2001 17.5371 17.0705 17.5371 16.8761 17.5371C16.4875 17.5371 16.2283 17.6666 16.0988 17.9254C15.9692 18.1842 15.9044 18.7019 15.9044 19.4785C15.9044 20.255 15.9692 20.7727 16.0988 21.0316C16.2283 21.3551 16.5522 21.5492 16.9409 21.5492Z" fill="#878787"/>
<path d="M16.9409 21.5492C17.0705 21.5492 17.2648 21.5492 17.4592 21.4845C17.5887 21.4845 17.5887 21.4845 17.5887 21.614V21.9375C17.5887 22.0022 17.5887 22.0022 17.5887 22.0669C17.5887 22.0669 17.524 22.1316 17.4592 22.1316C17.2648 22.1963 17.0705 22.1964 16.8114 22.1964C16.2283 22.1964 15.7749 22.0022 15.5157 21.614C15.2566 21.2257 15.127 20.5786 15.127 19.5432C15.127 18.5725 15.2566 17.8607 15.5157 17.4724C15.7749 17.0842 16.1636 16.89 16.7466 16.89C16.9409 16.89 17.2001 16.89 17.3944 16.9547C17.4592 16.9547 17.4592 17.0194 17.524 17.0194C17.524 17.0194 17.524 17.0842 17.524 17.1489V17.4724C17.524 17.6019 17.4592 17.6018 17.3944 17.6018C17.2001 17.5371 17.0705 17.5371 16.8761 17.5371C16.4875 17.5371 16.2283 17.6666 16.0988 17.9254C15.9692 18.1842 15.9044 18.7019 15.9044 19.4785C15.9044 20.255 15.9692 20.7727 16.0988 21.0316C16.2283 21.3551 16.5522 21.5492 16.9409 21.5492Z" fill="#878787"/>
<path d="M22.253 19.0255L23.4839 17.0841C23.5487 17.0194 23.6134 16.9547 23.6782 16.9547H24.1317C24.1965 16.9547 24.1965 16.9547 24.2613 17.0194C24.2613 17.0841 24.2613 17.0841 24.2613 17.1489L22.8361 19.349L24.2613 21.9375C24.2613 22.0022 24.2613 22.0022 24.2613 22.0669C24.2613 22.0669 24.1965 22.1316 24.1317 22.1316H23.6134C23.5487 22.1316 23.4839 22.0669 23.4191 22.0022L22.1882 19.7373V21.9375C22.1882 22.0022 22.1235 22.0669 22.0587 22.0669H21.6052C21.5404 22.0669 21.4756 22.0022 21.4756 21.9375V17.0841C21.4756 17.0194 21.5404 16.9547 21.6052 16.9547H22.0587C22.1235 16.9547 22.1882 17.0194 22.1882 17.0841V19.0255H22.253Z" fill="#878787"/>
<path d="M22.253 19.0255L23.4839 17.0841C23.5487 17.0194 23.6134 16.9547 23.6782 16.9547H24.1317C24.1965 16.9547 24.1965 16.9547 24.2613 17.0194C24.2613 17.0841 24.2613 17.0841 24.2613 17.1489L22.8361 19.349L24.2613 21.9375C24.2613 22.0022 24.2613 22.0022 24.2613 22.0669C24.2613 22.0669 24.1965 22.1316 24.1317 22.1316H23.6134C23.5487 22.1316 23.4839 22.0669 23.4191 22.0022L22.1882 19.7373V21.9375C22.1882 22.0022 22.1235 22.0669 22.0587 22.0669H21.6052C21.5404 22.0669 21.4756 22.0022 21.4756 21.9375V17.0841C21.4756 17.0194 21.5404 16.9547 21.6052 16.9547H22.0587C22.1235 16.9547 22.1882 17.0194 22.1882 17.0841V19.0255H22.253Z" fill="#878787"/>
<path d="M30.2859 19.8667H28.9903V21.9375C28.9903 22.0022 28.9255 22.0669 28.8607 22.0669H28.4073C28.3425 22.0669 28.2777 22.0022 28.2777 21.9375V17.0841C28.2777 17.0194 28.3425 16.9547 28.4073 16.9547H30.3507C30.4155 16.9547 30.4803 17.0194 30.4803 17.0841V17.4724C30.4803 17.5371 30.4155 17.6018 30.3507 17.6018H28.9903V19.2196H30.2859C30.3507 19.2196 30.4155 19.2843 30.4155 19.3491V19.7373C30.4155 19.8668 30.3507 19.8667 30.2859 19.8667Z" fill="#878787"/>
<path d="M30.2859 19.8667H28.9903V21.9375C28.9903 22.0022 28.9255 22.0669 28.8607 22.0669H28.4073C28.3425 22.0669 28.2777 22.0022 28.2777 21.9375V17.0841C28.2777 17.0194 28.3425 16.9547 28.4073 16.9547H30.3507C30.4155 16.9547 30.4803 17.0194 30.4803 17.0841V17.4724C30.4803 17.5371 30.4155 17.6018 30.3507 17.6018H28.9903V19.2196H30.2859C30.3507 19.2196 30.4155 19.2843 30.4155 19.3491V19.7373C30.4155 19.8668 30.3507 19.8667 30.2859 19.8667Z" fill="#878787"/>
<path d="M35.9219 16.89C36.4402 16.89 36.8289 17.0842 37.088 17.4724C37.3471 17.8607 37.4767 18.5725 37.4767 19.5432C37.4767 20.5139 37.3471 21.2257 37.088 21.614C36.8289 22.0022 36.4402 22.1964 35.9219 22.1964C35.598 22.1964 35.2741 22.1316 35.0798 21.9375C34.8854 21.8081 34.6911 21.4845 34.5615 21.0963C34.432 20.708 34.3672 20.1903 34.3672 19.5432C34.3672 18.8961 34.432 18.3784 34.5615 17.9901C34.6911 17.6018 34.8207 17.343 35.0798 17.1489C35.3389 17.0195 35.598 16.89 35.9219 16.89ZM35.9219 21.5492C36.1811 21.5492 36.4402 21.4198 36.505 21.0963C36.6345 20.8374 36.6993 20.255 36.6993 19.5432C36.6993 18.7666 36.6345 18.249 36.505 17.9901C36.3754 17.7313 36.1811 17.5371 35.9219 17.5371C35.6628 17.5371 35.4037 17.6666 35.2741 17.9901C35.1446 18.249 35.0798 18.7666 35.0798 19.5432C35.0798 20.3197 35.1446 20.8374 35.2741 21.0963C35.4685 21.4198 35.6628 21.5492 35.9219 21.5492Z" fill="#878787"/>
<path d="M35.9219 16.89C36.4402 16.89 36.8289 17.0842 37.088 17.4724C37.3471 17.8607 37.4767 18.5725 37.4767 19.5432C37.4767 20.5139 37.3471 21.2257 37.088 21.614C36.8289 22.0022 36.4402 22.1964 35.9219 22.1964C35.598 22.1964 35.2741 22.1316 35.0798 21.9375C34.8854 21.8081 34.6911 21.4845 34.5615 21.0963C34.432 20.708 34.3672 20.1903 34.3672 19.5432C34.3672 18.8961 34.432 18.3784 34.5615 17.9901C34.6911 17.6018 34.8207 17.343 35.0798 17.1489C35.3389 17.0195 35.598 16.89 35.9219 16.89ZM35.9219 21.5492C36.1811 21.5492 36.4402 21.4198 36.505 21.0963C36.6345 20.8374 36.6993 20.255 36.6993 19.5432C36.6993 18.7666 36.6345 18.249 36.505 17.9901C36.3754 17.7313 36.1811 17.5371 35.9219 17.5371C35.6628 17.5371 35.4037 17.6666 35.2741 17.9901C35.1446 18.249 35.0798 18.7666 35.0798 19.5432C35.0798 20.3197 35.1446 20.8374 35.2741 21.0963C35.4685 21.4198 35.6628 21.5492 35.9219 21.5492Z" fill="#878787"/>
<path d="M41.5579 16.9547H42.5297C43.1127 16.9547 43.5014 17.0841 43.6957 17.343C43.9548 17.6018 44.0196 18.0548 44.0196 18.6372C44.0196 19.5432 43.7605 20.0609 43.1775 20.1903L43.9548 21.8728C44.0196 22.0022 43.9548 22.0022 43.8901 22.0022H43.4366C43.3718 22.0022 43.307 21.9375 43.2422 21.8728L42.4649 20.1903H42.0762V21.8081C42.0762 21.8728 42.0114 21.9375 41.9466 21.9375H41.4932C41.4284 21.9375 41.3636 21.8728 41.3636 21.8081V16.9547C41.4284 17.0194 41.4932 16.9547 41.5579 16.9547ZM42.141 19.6726H42.5297C42.8536 19.6726 43.0479 19.6079 43.1775 19.4785C43.307 19.349 43.3718 19.0902 43.3718 18.6372C43.3718 18.2489 43.307 17.9901 43.1775 17.796C43.0479 17.6665 42.8536 17.6018 42.5297 17.6018H42.141V19.6726Z" fill="#878787"/>
<path d="M41.5579 16.9547H42.5297C43.1127 16.9547 43.5014 17.0841 43.6957 17.343C43.9548 17.6018 44.0196 18.0548 44.0196 18.6372C44.0196 19.5432 43.7605 20.0609 43.1775 20.1903L43.9548 21.8728C44.0196 22.0022 43.9548 22.0022 43.8901 22.0022H43.4366C43.3718 22.0022 43.307 21.9375 43.2422 21.8728L42.4649 20.1903H42.0762V21.8081C42.0762 21.8728 42.0114 21.9375 41.9466 21.9375H41.4932C41.4284 21.9375 41.3636 21.8728 41.3636 21.8081V16.9547C41.4284 17.0194 41.4932 16.9547 41.5579 16.9547ZM42.141 19.6726H42.5297C42.8536 19.6726 43.0479 19.6079 43.1775 19.4785C43.307 19.349 43.3718 19.0902 43.3718 18.6372C43.3718 18.2489 43.307 17.9901 43.1775 17.796C43.0479 17.6665 42.8536 17.6018 42.5297 17.6018H42.141V19.6726Z" fill="#878787"/>
<path d="M49.1374 22.1317H48.1657C48.1009 22.1317 48.0361 22.067 48.0361 22.0023V17.149C48.0361 17.0843 48.1009 17.0195 48.1657 17.0195H49.1374C49.7204 17.0195 50.1739 17.2137 50.433 17.6019C50.6922 17.9902 50.8217 18.6373 50.8217 19.608C50.8217 20.5786 50.6922 21.2258 50.433 21.614C50.1739 21.9376 49.7852 22.1317 49.1374 22.1317ZM49.1374 17.6019H48.7487V21.4199H49.1374C49.3965 21.4199 49.5261 21.3552 49.7204 21.2905C49.85 21.161 49.9796 20.9669 50.0443 20.7081C50.1091 20.4492 50.1739 20.0609 50.1739 19.5433C50.1739 18.8314 50.1091 18.3138 49.9148 18.0549C49.7852 17.7314 49.5261 17.6019 49.1374 17.6019Z" fill="#878787"/>
<path d="M49.1374 22.1317H48.1657C48.1009 22.1317 48.0361 22.067 48.0361 22.0023V17.149C48.0361 17.0843 48.1009 17.0195 48.1657 17.0195H49.1374C49.7204 17.0195 50.1739 17.2137 50.433 17.6019C50.6922 17.9902 50.8217 18.6373 50.8217 19.608C50.8217 20.5786 50.6922 21.2258 50.433 21.614C50.1739 21.9376 49.7852 22.1317 49.1374 22.1317ZM49.1374 17.6019H48.7487V21.4199H49.1374C49.3965 21.4199 49.5261 21.3552 49.7204 21.2905C49.85 21.161 49.9796 20.9669 50.0443 20.7081C50.1091 20.4492 50.1739 20.0609 50.1739 19.5433C50.1739 18.8314 50.1091 18.3138 49.9148 18.0549C49.7852 17.7314 49.5261 17.6019 49.1374 17.6019Z" fill="#878787"/>
</svg>
