<svg width="73" height="34" viewBox="0 0 73 34" fill="none" xmlns="http://www.w3.org/2000/svg">
<path d="M30.7854 22.6029C29.425 22.6029 28.1293 22.344 27.0928 21.891C25.9915 21.4381 25.0846 20.7909 24.372 19.9497C23.6594 19.1084 23.0764 18.1378 22.6877 16.973C22.299 15.8082 22.1046 14.5786 22.1046 13.2844C22.1046 11.9902 22.299 10.7607 22.6877 9.59585C23.0764 8.49576 23.6594 7.46039 24.372 6.61914C25.0846 5.77789 26.0563 5.13077 27.0928 4.61308C28.1941 4.1601 29.425 3.90125 30.7854 3.90125C32.988 3.90125 34.8018 4.35423 36.1622 5.26019L35.7736 9.07817C34.2836 8.10749 32.7288 7.58981 31.1741 7.58981C29.7489 7.58981 28.6476 8.1075 27.8702 9.14288C27.0928 10.1783 26.7041 11.5372 26.7041 13.2844C26.7041 15.0316 27.0928 16.3906 27.8702 17.426C28.6476 18.4613 29.7489 18.979 31.1741 18.979C32.7936 18.979 34.2836 18.4613 35.7736 17.4907L36.1622 21.3086C34.8018 22.1499 32.988 22.6029 30.7854 22.6029Z" fill="#878787"/>
<path d="M71.7922 9.66054C71.4035 8.49573 70.8204 7.52506 70.0431 6.68381C69.2657 5.84256 68.3588 5.19546 67.2575 4.67777C66.1562 4.22479 64.9253 3.96594 63.5649 3.96594C61.9454 3.96594 60.4554 4.41893 59.1598 5.32489L58.7711 4.2895H54.8842V25.3207H59.3541V21.3733C60.5849 22.2146 61.9454 22.6028 63.5649 22.6028C64.9253 22.6028 66.221 22.344 67.3222 21.891C68.4235 21.438 69.3305 20.7262 70.1079 19.885C70.8205 19.0437 71.4035 18.073 71.7922 16.9082C72.1809 15.8081 72.3752 14.5786 72.3752 13.2844C72.3752 11.9902 72.1809 10.8253 71.7922 9.66054ZM66.6096 17.4259C65.8323 18.4613 64.731 18.979 63.3058 18.979C61.9454 18.979 60.9089 18.4613 60.1963 17.4906C59.4837 16.52 59.1598 15.0963 59.1598 13.3491C59.1598 11.6019 59.4837 10.243 60.1963 9.20757C60.9089 8.17219 61.8806 7.7192 63.3058 7.7192C64.731 7.7192 65.8323 8.23688 66.6096 9.27227C67.387 10.3076 67.7757 11.6666 67.7757 13.4138C67.7757 15.0316 67.387 16.3905 66.6096 17.4259Z" fill="#878787"/>
<path d="M2.08713 31.8566C1.76322 31.8566 1.5041 31.7919 1.30975 31.7272C1.05062 31.5978 0.856279 31.4684 0.661933 31.2742C0.467588 31.0801 0.33803 30.886 0.273248 30.6271C0.143685 30.3683 0.143677 30.1094 0.143677 29.7859C0.143677 29.4623 0.208467 29.2035 0.273248 28.9446C0.402812 28.6858 0.53237 28.4916 0.661933 28.2975C0.856279 28.1034 1.05062 27.9739 1.30975 27.8445C1.56888 27.7151 1.828 27.7151 2.08713 27.7151C2.47582 27.7151 2.86452 27.7798 3.18843 27.9739L3.12365 28.4916L2.79974 28.3622C2.60539 28.2975 2.34626 28.2328 2.08713 28.2328C1.89279 28.2328 1.63366 28.2975 1.5041 28.3622C1.30975 28.4269 1.18019 28.5563 1.05063 28.6858C0.921065 28.8152 0.856277 29.0093 0.791495 29.2035C0.726713 29.3976 0.726719 29.5917 0.726719 29.8506C0.726719 30.0447 0.726713 30.3036 0.791495 30.4977C0.856277 30.6918 0.921065 30.886 1.05063 31.0154C1.18019 31.1448 1.30975 31.2742 1.5041 31.3389C1.69844 31.4037 1.89279 31.4684 2.08713 31.4684C2.15191 31.4684 2.2167 31.4684 2.28148 31.4684C2.34626 31.4684 2.41104 31.4684 2.47583 31.4684H2.60539C2.60539 31.4684 2.67017 31.4684 2.73495 31.4037L2.86452 31.3389C2.86452 31.3389 2.9293 31.3389 2.99408 31.2742L3.12365 31.2095L3.18843 31.7272C2.86452 31.7919 2.47582 31.8566 2.08713 31.8566Z" fill="#878787"/>
<path d="M4.22493 28.3622H3.70667V27.8445H4.22493V28.3622ZM4.22493 31.7919H3.70667V29.0093H4.22493V31.7919Z" fill="#878787"/>
<path d="M7.33446 29.0093L6.29795 31.7919H5.71492L4.67841 29.0093H5.26145L6.03882 31.2095L6.8162 29.0093H7.33446Z" fill="#878787"/>
<path d="M8.24139 28.3622H7.72314V27.8445H8.24139V28.3622ZM8.24139 31.7919H7.72314V29.0093H8.24139V31.7919Z" fill="#878787"/>
<path d="M9.92572 31.4684L9.86094 31.8567H9.6666C9.40748 31.8567 9.21313 31.7919 9.08357 31.6625C8.954 31.5331 8.88922 31.4037 8.88922 31.2095V27.521H9.40747V30.886C9.40747 31.0154 9.40747 31.0801 9.40747 31.1448C9.40747 31.2095 9.40747 31.2742 9.47226 31.339C9.47226 31.4037 9.53703 31.4037 9.60182 31.4037C9.73138 31.4684 9.79616 31.4684 9.92572 31.4684Z" fill="#878787"/>
<path d="M14.2013 31.7919H11.7396V27.8445H14.2013V28.3622H12.3226V29.527H13.8126V30.0447H12.3226V31.4036H14.2661V31.7919H14.2013Z" fill="#878787"/>
<path d="M17.246 31.7919H16.7278V30.2388C16.7278 29.9153 16.663 29.7211 16.5335 29.5917C16.4039 29.4623 16.2095 29.3976 15.9504 29.3976C15.5617 29.3976 15.3026 29.527 15.173 29.7858V31.7919H14.6548V29.0093H15.0435L15.1083 29.3328C15.3674 29.074 15.6913 29.0093 16.0152 29.0093C16.7926 29.0093 17.1813 29.4623 17.1813 30.3035V31.7919H17.246Z" fill="#878787"/>
<path d="M18.9951 33.2156C18.8008 33.2156 18.6065 33.2157 18.4121 33.1509C18.2178 33.0862 18.0882 33.0215 18.0234 32.9568C17.8939 32.8921 17.8291 32.7627 17.7643 32.698C17.6995 32.5685 17.6995 32.5038 17.6995 32.3744C17.6995 32.0508 17.8939 31.8567 18.2178 31.7273C18.0234 31.6626 17.9586 31.5331 17.9586 31.4037C17.9586 31.339 17.9586 31.2743 18.0234 31.2096C18.0882 31.1449 18.153 31.0802 18.2825 31.0155C17.9586 30.7566 17.8291 30.4978 17.8291 30.1095C17.8291 29.9801 17.8291 29.7859 17.8939 29.6565C17.9586 29.5271 18.0234 29.3977 18.0882 29.2683C18.153 29.1388 18.2826 29.0741 18.4769 29.0094C18.6065 28.9447 18.8008 28.9447 18.9304 28.9447C19.1895 28.9447 19.4486 29.0094 19.643 29.1388C19.8373 29.0094 20.0964 29.0094 20.2908 29.0094H20.3555L20.2908 29.333H20.1612C20.0316 29.333 19.9021 29.333 19.8373 29.3977C20.0316 29.5918 20.0964 29.8506 20.0964 30.0448C20.0964 30.1742 20.0964 30.3036 20.0316 30.4978C19.9669 30.6272 19.9021 30.7566 19.8373 30.8213C19.7725 30.9508 19.6429 31.0155 19.5134 31.0802C19.3838 31.1449 19.1895 31.1449 19.0599 31.1449C18.9304 31.1449 18.8008 31.1449 18.6712 31.0802C18.6065 31.1449 18.5417 31.2096 18.5417 31.2743C18.5417 31.339 18.5417 31.339 18.5417 31.339C18.5417 31.339 18.6065 31.4037 18.6712 31.4037C18.736 31.4037 18.8008 31.4684 18.9304 31.4684C19.0599 31.4684 19.1895 31.5332 19.3838 31.5332C19.5134 31.5332 19.643 31.5979 19.7725 31.5979C19.9021 31.6626 20.0316 31.6626 20.1612 31.7273C20.2908 31.792 20.3556 31.8567 20.4203 31.9214C20.4851 31.9861 20.5499 32.1155 20.5499 32.245C20.5499 32.3744 20.4851 32.5038 20.4851 32.5685C20.4203 32.6979 20.3555 32.7627 20.226 32.8274C20.0964 32.8921 19.9669 32.9568 19.7725 33.0215C19.3838 33.2156 19.1895 33.2156 18.9951 33.2156ZM19.1247 31.9861C19.0599 31.9861 18.8656 31.9861 18.6065 31.9214C18.4769 31.9861 18.3473 32.0508 18.2825 32.1156C18.2178 32.1803 18.153 32.3097 18.153 32.3744C18.153 32.5038 18.2178 32.6332 18.3473 32.698C18.4769 32.7627 18.6712 32.8274 18.9951 32.8274C19.2543 32.8274 19.5134 32.7627 19.643 32.698C19.7725 32.6332 19.8373 32.5038 19.8373 32.3744C19.9021 32.1803 19.643 32.0508 19.1247 31.9861ZM18.8656 29.3977C18.6712 29.3977 18.4769 29.4624 18.4121 29.5918C18.2826 29.7212 18.2178 29.9154 18.2178 30.1095C18.2178 30.3036 18.2826 30.4978 18.4121 30.6272C18.5417 30.7566 18.6712 30.8213 18.8656 30.8213C19.0599 30.8213 19.2543 30.7566 19.319 30.6272C19.4486 30.4978 19.5134 30.3036 19.5134 30.1095C19.5134 29.9154 19.4486 29.7212 19.319 29.5918C19.2543 29.3977 19.1247 29.3977 18.8656 29.3977Z" fill="#878787"/>
<path d="M21.2625 28.3622H20.7443V27.8445H21.2625V28.3622ZM21.2625 31.7919H20.7443V29.0093H21.2625V31.7919Z" fill="#878787"/>
<path d="M24.4368 31.7919H23.9185V30.2388C23.9185 29.9153 23.8537 29.7211 23.7242 29.5917C23.5946 29.4623 23.4002 29.3976 23.1411 29.3976C22.7524 29.3976 22.4933 29.527 22.3638 29.7858V31.7919H21.9103V29.0093H22.299L22.3638 29.3328C22.6229 29.074 22.9468 29.0093 23.2707 29.0093C24.0481 29.0093 24.4368 29.4623 24.4368 30.3035V31.7919Z" fill="#878787"/>
<path d="M27.4815 30.433H25.4733C25.5381 31.0801 25.862 31.4036 26.5098 31.4036C26.7689 31.4036 27.0928 31.3389 27.2872 31.2095L27.352 31.5978C27.0281 31.7272 26.7041 31.7919 26.445 31.7919C26.1859 31.7919 25.9915 31.7272 25.7972 31.6625C25.6029 31.5978 25.4733 31.4684 25.3437 31.3389C25.2142 31.2095 25.0846 31.0801 25.0198 30.886C24.955 30.6918 24.8903 30.4977 24.8903 30.3035C24.8903 30.1094 24.8903 29.9153 24.955 29.7211C25.0198 29.527 25.0846 29.3976 25.2142 29.2682C25.3437 29.1388 25.4733 29.0093 25.6676 28.9446C25.862 28.8799 26.0563 28.8152 26.2507 28.8152C26.445 28.8152 26.5746 28.8152 26.7689 28.8799C26.8985 28.9446 27.0281 29.0093 27.1576 29.1387C27.2872 29.2682 27.352 29.3976 27.4167 29.527C27.4815 29.6564 27.4815 29.8506 27.4815 30.0447C27.5463 30.2388 27.5463 30.3683 27.4815 30.433ZM26.3154 29.3976C25.9268 29.3976 25.6676 29.5917 25.5381 30.0447H27.0281C27.0281 29.8506 26.9633 29.6564 26.8337 29.5917C26.7042 29.4623 26.5746 29.3976 26.3154 29.3976Z" fill="#878787"/>
<path d="M30.4615 30.433H28.3885C28.4532 31.0801 28.7771 31.4036 29.425 31.4036C29.6841 31.4036 30.008 31.3389 30.2023 31.2095L30.2671 31.5978C29.9432 31.7272 29.6193 31.7919 29.3602 31.7919C29.101 31.7919 28.9067 31.7272 28.7124 31.6625C28.518 31.5978 28.3884 31.4684 28.2589 31.3389C28.1293 31.2095 27.9998 31.0801 27.935 30.886C27.8702 30.6918 27.8054 30.4977 27.8054 30.3035C27.8054 30.1094 27.8054 29.9153 27.8702 29.7211C27.935 29.527 27.9998 29.3976 28.1293 29.2682C28.2589 29.1388 28.3884 29.0093 28.5828 28.9446C28.7771 28.8799 28.9715 28.8152 29.1658 28.8152C29.3602 28.8152 29.4897 28.8152 29.6841 28.8799C29.8136 28.9446 29.9432 29.0093 30.0728 29.1387C30.2023 29.2682 30.2671 29.3976 30.3319 29.527C30.3967 29.6564 30.3967 29.8506 30.3967 30.0447C30.4615 30.2388 30.4615 30.3683 30.4615 30.433ZM29.2306 29.3976C28.8419 29.3976 28.5828 29.5917 28.4532 30.0447H29.9432C29.9432 29.8506 29.8784 29.6564 29.7489 29.5917C29.6193 29.4623 29.4897 29.3976 29.2306 29.3976Z" fill="#878787"/>
<path d="M32.4697 28.9447L32.3401 29.5271H32.1458C32.081 29.5271 32.0162 29.5271 31.9515 29.5271C31.8867 29.5271 31.8219 29.5918 31.7571 29.5918C31.6923 29.6565 31.6275 29.6565 31.5628 29.7212C31.498 29.7859 31.498 29.7859 31.4332 29.8507V31.792H30.9797V29.0094H31.4332L31.498 29.4624C31.6923 29.2683 31.8219 29.1388 31.9515 29.0094C32.081 28.9447 32.2106 28.9447 32.4697 28.9447Z" fill="#878787"/>
<path d="M33.3119 28.3622H32.7936V27.8445H33.3119V28.3622ZM33.3119 31.7919H32.7936V29.0093H33.3119V31.7919Z" fill="#878787"/>
<path d="M36.5509 31.7919H36.0327V30.2388C36.0327 29.9153 35.9679 29.7211 35.8383 29.5917C35.7088 29.4623 35.5144 29.3976 35.2553 29.3976C34.8666 29.3976 34.6075 29.527 34.4779 29.7858V31.7919H33.9597V29.0093H34.3484L34.4131 29.3328C34.6723 29.074 34.9962 29.0093 35.3201 29.0093C36.0975 29.0093 36.4862 29.4623 36.4862 30.3035V31.7919H36.5509Z" fill="#878787"/>
<path d="M38.3 33.2156C38.1057 33.2156 37.9113 33.2157 37.717 33.1509C37.5227 33.0862 37.3931 33.0215 37.3283 32.9568C37.1987 32.8921 37.134 32.7627 37.0692 32.698C37.0044 32.5685 37.0044 32.5038 37.0044 32.3744C37.0044 32.0508 37.1988 31.8567 37.5227 31.7273C37.3283 31.6626 37.2635 31.5331 37.2635 31.4037C37.2635 31.339 37.2635 31.2743 37.3283 31.2096C37.3931 31.1449 37.4579 31.0802 37.5874 31.0155C37.2635 30.7566 37.134 30.4978 37.134 30.1095C37.134 29.9801 37.134 29.7859 37.1988 29.6565C37.2635 29.5271 37.3283 29.3977 37.3931 29.2683C37.4579 29.1388 37.5874 29.0741 37.7818 29.0094C37.9761 28.9447 38.1057 28.9447 38.2353 28.9447C38.4944 28.9447 38.7535 29.0094 38.9479 29.1388C39.1422 29.0094 39.4013 29.0094 39.5957 29.0094H39.6605L39.5957 29.333H39.4661C39.3366 29.333 39.207 29.333 39.1422 29.3977C39.3366 29.5918 39.4013 29.8506 39.4013 30.0448C39.4013 30.1742 39.4013 30.3036 39.3365 30.4978C39.2718 30.6272 39.207 30.7566 39.1422 30.8213C39.0774 30.9508 38.9479 31.0155 38.8183 31.0802C38.6887 31.1449 38.4944 31.1449 38.3648 31.1449C38.2353 31.1449 38.1057 31.1449 37.9761 31.0802C37.9113 31.1449 37.8466 31.2096 37.8466 31.2743C37.8466 31.339 37.8466 31.339 37.8466 31.339C37.8466 31.339 37.9113 31.4037 37.9761 31.4037C38.0409 31.4037 38.1057 31.4684 38.2353 31.4684C38.3648 31.4684 38.4944 31.5332 38.6887 31.5332C38.8183 31.5332 38.9479 31.5979 39.0774 31.5979C39.207 31.6626 39.3366 31.6626 39.4661 31.7273C39.5957 31.792 39.6605 31.8567 39.7252 31.9214C39.79 31.9861 39.8548 32.1155 39.8548 32.245C39.8548 32.3744 39.8548 32.5038 39.79 32.5685C39.7252 32.6979 39.6605 32.7627 39.5309 32.8274C39.4013 32.8921 39.2718 32.9568 39.0774 33.0215C38.7535 33.2156 38.5592 33.2156 38.3 33.2156ZM38.4296 31.9861C38.3648 31.9861 38.1705 31.9861 37.9114 31.9214C37.7818 31.9861 37.6522 32.0508 37.5874 32.1156C37.5227 32.1803 37.4579 32.3097 37.4579 32.3744C37.4579 32.5038 37.5226 32.6332 37.6522 32.698C37.7818 32.7627 37.9761 32.8274 38.3 32.8274C38.5592 32.8274 38.8183 32.7627 38.9479 32.698C39.0774 32.6332 39.1422 32.5038 39.1422 32.3744C39.207 32.1803 38.9479 32.0508 38.4296 31.9861ZM38.2353 29.3977C38.0409 29.3977 37.8466 29.4624 37.7818 29.5918C37.6522 29.7212 37.5874 29.9154 37.5874 30.1095C37.5874 30.3036 37.6522 30.4978 37.7818 30.6272C37.9113 30.7566 38.0409 30.8213 38.2353 30.8213C38.4296 30.8213 38.6239 30.7566 38.6887 30.6272C38.8183 30.4978 38.8831 30.3036 38.8831 30.1095C38.8831 29.9154 38.8183 29.7212 38.6887 29.5918C38.5592 29.3977 38.4296 29.3977 38.2353 29.3977Z" fill="#878787"/>
<path d="M41.9926 30.4329V31.8566H41.4095V27.8445H42.7052C42.8995 27.8445 43.0939 27.8445 43.2234 27.9092C43.4178 27.9092 43.5474 27.9739 43.6769 28.1033C43.8065 28.168 43.9361 28.2975 44.0008 28.4916C44.0656 28.6857 44.1304 28.8799 44.1304 29.1387C44.1304 29.3976 44.0656 29.5917 44.0008 29.7858C43.9361 29.98 43.8065 30.1094 43.6769 30.1741C43.5474 30.3035 43.4178 30.3682 43.2882 30.3682C43.1587 30.4329 43.0291 30.4329 42.8995 30.4329H41.9926ZM41.9926 28.2975V29.9153H42.77C43.0291 29.9153 43.2234 29.8505 43.353 29.7211C43.4826 29.5917 43.5474 29.3328 43.5474 29.074C43.5474 28.9446 43.5473 28.8151 43.4826 28.6857C43.4826 28.5563 43.4178 28.4916 43.353 28.4269C43.2882 28.3622 43.1587 28.2975 43.0939 28.2975C42.9643 28.2975 42.8348 28.2328 42.6404 28.2328H41.9926V28.2975Z" fill="#878787"/>
<path d="M46.0091 28.9447L45.8795 29.5271H45.6852C45.6204 29.5271 45.5556 29.5271 45.4908 29.5271C45.426 29.5271 45.3613 29.5918 45.2965 29.5918C45.2317 29.6565 45.1669 29.6565 45.1021 29.7212C45.0373 29.7859 45.0373 29.7859 44.9726 29.8507V31.792H44.4543V29.0094H44.9078L44.9726 29.4624C45.1669 29.2683 45.2965 29.1388 45.426 29.0094C45.6852 28.9447 45.8147 28.9447 46.0091 28.9447Z" fill="#878787"/>
<path d="M48.5356 31.4683C48.2764 31.7272 47.9525 31.8566 47.499 31.8566C47.3047 31.8566 47.1104 31.7919 46.916 31.7272C46.7217 31.6625 46.5921 31.533 46.4625 31.4036C46.333 31.2742 46.2682 31.1448 46.2034 30.9506C46.1386 30.7565 46.1386 30.5624 46.1386 30.3682C46.1386 30.1741 46.1386 29.98 46.2034 29.7858C46.2682 29.5917 46.333 29.4623 46.4625 29.3328C46.5921 29.2034 46.7217 29.074 46.916 29.0093C47.1104 28.9446 47.3047 28.8799 47.499 28.8799C47.6934 28.8799 47.8877 28.9446 48.0821 29.0093C48.2764 29.074 48.406 29.2034 48.5356 29.3328C48.6651 29.4623 48.7299 29.5917 48.7947 29.7858C48.8595 29.98 48.8595 30.1741 48.8595 30.3682C48.9242 30.8212 48.7947 31.2095 48.5356 31.4683ZM48.1469 29.6564C48.0173 29.4623 47.7582 29.3976 47.499 29.3976C47.2399 29.3976 46.9808 29.4623 46.8512 29.6564C46.7217 29.8505 46.6569 30.0447 46.6569 30.3682C46.6569 30.6918 46.7217 30.9506 46.8512 31.0801C46.9808 31.2742 47.2399 31.3389 47.499 31.3389C47.7582 31.3389 48.0173 31.2742 48.1469 31.0801C48.2764 30.8859 48.3412 30.6271 48.3412 30.3682C48.406 30.1094 48.3412 29.8505 48.1469 29.6564Z" fill="#878787"/>
<path d="M50.8677 29.3976H50.0903V31.7919H49.5721V29.3976H49.1186L49.1834 29.0093H49.5721V28.2975C49.5721 28.0387 49.6368 27.9093 49.7664 27.7151C49.896 27.5857 50.0255 27.521 50.2199 27.521C50.479 27.521 50.6734 27.521 50.8029 27.5857L50.7381 28.0387C50.6086 27.974 50.5438 27.974 50.4142 27.974C50.3494 27.974 50.2847 27.974 50.2847 27.974C50.2199 27.974 50.2199 28.0387 50.2199 28.0387C50.2199 28.1034 50.1551 28.1681 50.1551 28.2328C50.1551 28.2975 50.1551 28.427 50.1551 28.6211V28.9446H50.9325V29.3976H50.8677Z" fill="#878787"/>
<path d="M53.6533 30.433H51.645C51.7098 31.0801 52.0337 31.4036 52.6816 31.4036C52.9407 31.4036 53.2646 31.3389 53.4589 31.2095L53.5237 31.5978C53.1998 31.7272 52.8759 31.7919 52.6168 31.7919C52.3576 31.7919 52.1633 31.7272 51.9689 31.6625C51.7746 31.5978 51.6451 31.4684 51.5155 31.3389C51.3859 31.2095 51.2564 31.0801 51.1916 30.886C51.1268 30.6918 51.062 30.4977 51.062 30.3035C51.062 30.1094 51.062 29.9153 51.1268 29.7211C51.1916 29.527 51.2564 29.3976 51.3859 29.2682C51.5155 29.1388 51.6451 29.0093 51.8394 28.9446C52.0337 28.8799 52.2281 28.8152 52.4224 28.8152C52.6168 28.8152 52.7463 28.8152 52.9407 28.8799C53.0702 28.9446 53.1998 29.0093 53.3294 29.1387C53.4589 29.2682 53.5237 29.3976 53.5885 29.527C53.6533 29.6564 53.6533 29.8506 53.6533 30.0447C53.6533 30.2388 53.6533 30.3683 53.6533 30.433ZM52.4224 29.3976C52.0337 29.3976 51.7746 29.5917 51.645 30.0447H53.135C53.135 29.8506 53.0702 29.6564 52.9407 29.5917C52.8111 29.4623 52.6816 29.3976 52.4224 29.3976Z" fill="#878787"/>
<path d="M54.9489 31.8566C54.5602 31.8566 54.2363 31.7919 53.9772 31.5978L54.042 31.0801C54.1067 31.1448 54.2363 31.2095 54.3659 31.2742C54.4954 31.3389 54.6898 31.3389 54.8841 31.3389C55.2728 31.3389 55.4671 31.2095 55.4671 31.0154C55.4671 30.8212 55.2728 30.6271 54.8841 30.5624C54.7545 30.5624 54.6898 30.4977 54.5602 30.4977C54.4306 30.433 54.3659 30.4329 54.3011 30.3682C54.2363 30.3035 54.1715 30.2388 54.1067 30.1741C54.042 30.1094 54.042 29.98 54.042 29.8505C54.042 29.5917 54.1067 29.3976 54.3011 29.2681C54.4954 29.1387 54.7546 29.0093 55.0785 29.0093C55.3376 29.0093 55.5967 29.074 55.8558 29.2034L55.791 29.6564C55.5967 29.4623 55.3376 29.3976 55.0785 29.3976C54.6898 29.3976 54.5602 29.527 54.5602 29.7858C54.5602 29.8505 54.5602 29.9153 54.5602 29.9153C54.5602 29.98 54.625 29.98 54.6898 30.0447C54.7546 30.1094 54.8193 30.1094 54.8841 30.1094C54.9489 30.1094 55.0785 30.1741 55.208 30.2388C55.2728 30.2388 55.4024 30.3035 55.4671 30.3035C55.5319 30.3682 55.6615 30.3682 55.7263 30.433C55.7911 30.4977 55.8558 30.5624 55.9206 30.6918C55.9854 30.7565 55.9854 30.8859 55.9854 31.0154C55.9854 31.0801 55.9854 31.2095 55.9206 31.2742C55.9206 31.4036 55.8558 31.4684 55.7263 31.5331C55.6615 31.5978 55.5319 31.6625 55.4024 31.7272C55.3376 31.8566 55.208 31.8566 54.9489 31.8566Z" fill="#878787"/>
<path d="M57.3459 31.8566C56.9572 31.8566 56.6333 31.7919 56.3741 31.5978L56.4389 31.0801C56.5037 31.1448 56.6333 31.2095 56.7628 31.2742C56.8924 31.3389 57.0867 31.3389 57.2811 31.3389C57.6698 31.3389 57.8641 31.2095 57.8641 31.0154C57.8641 30.8212 57.6698 30.6271 57.2811 30.5624C57.1515 30.5624 57.0867 30.4977 56.9572 30.4977C56.8276 30.433 56.7628 30.4329 56.6981 30.3682C56.6333 30.3035 56.5685 30.2388 56.5037 30.1741C56.4389 30.1094 56.4389 29.98 56.4389 29.8505C56.4389 29.5917 56.5037 29.3976 56.6981 29.2681C56.8924 29.1387 57.1515 29.0093 57.4754 29.0093C57.7346 29.0093 57.9937 29.074 58.2528 29.2034L58.188 29.6564C57.9937 29.4623 57.7346 29.3976 57.4754 29.3976C57.0867 29.3976 56.9572 29.527 56.9572 29.7858C56.9572 29.8505 56.9572 29.9153 56.9572 29.9153C56.9572 29.98 57.022 29.98 57.0867 30.0447C57.1515 30.1094 57.2163 30.1094 57.2811 30.1094C57.3459 30.1094 57.4754 30.1741 57.605 30.2388C57.6698 30.2388 57.7994 30.3035 57.8641 30.3035C57.9289 30.3682 58.0585 30.3682 58.1233 30.433C58.188 30.4977 58.2528 30.5624 58.3176 30.6918C58.3824 30.7565 58.3824 30.8859 58.3824 31.0154C58.3824 31.0801 58.3824 31.2095 58.3176 31.2742C58.3176 31.4036 58.2528 31.4684 58.1233 31.5331C57.9937 31.5978 57.9289 31.6625 57.7993 31.7272C57.7346 31.8566 57.5402 31.8566 57.3459 31.8566Z" fill="#878787"/>
<path d="M59.4189 28.3622H58.9006V27.8445H59.4189V28.3622ZM59.4189 31.7919H58.9006V29.0093H59.4189V31.7919Z" fill="#878787"/>
<path d="M62.3341 31.4683C62.0749 31.7272 61.751 31.8566 61.2975 31.8566C61.1032 31.8566 60.9088 31.7919 60.7145 31.7272C60.5202 31.6625 60.3906 31.533 60.261 31.4036C60.1315 31.2742 60.0667 31.1448 60.0019 30.9506C59.9371 30.7565 59.9371 30.5624 59.9371 30.3682C59.9371 30.1741 59.9371 29.98 60.0019 29.7858C60.0667 29.5917 60.1315 29.4623 60.261 29.3328C60.3906 29.2034 60.5202 29.074 60.7145 29.0093C60.9088 28.9446 61.1032 28.8799 61.2975 28.8799C61.4919 28.8799 61.6862 28.9446 61.8806 29.0093C62.0749 29.074 62.2045 29.2034 62.3341 29.3328C62.4636 29.4623 62.5284 29.5917 62.5932 29.7858C62.658 29.98 62.658 30.1741 62.658 30.3682C62.7227 30.8212 62.5932 31.2095 62.3341 31.4683ZM61.9454 29.6564C61.8158 29.4623 61.5567 29.3976 61.2975 29.3976C61.0384 29.3976 60.7793 29.4623 60.6497 29.6564C60.5202 29.8505 60.4554 30.0447 60.4554 30.3682C60.4554 30.6918 60.5202 30.9506 60.6497 31.0801C60.7793 31.2742 61.0384 31.3389 61.2975 31.3389C61.5567 31.3389 61.8158 31.2742 61.9454 31.0801C62.0749 30.8859 62.1397 30.6271 62.1397 30.3682C62.2045 30.1094 62.1397 29.8505 61.9454 29.6564Z" fill="#878787"/>
<path d="M65.7675 31.7919H65.2492V30.2388C65.2492 29.9153 65.1844 29.7211 65.0549 29.5917C64.9253 29.4623 64.731 29.3976 64.4718 29.3976C64.0832 29.3976 63.824 29.527 63.6945 29.7858V31.7919H63.1762V29.0093H63.5649L63.6297 29.3328C63.8888 29.074 64.2127 29.0093 64.5366 29.0093C65.314 29.0093 65.7027 29.4623 65.7027 30.3035V31.7919H65.7675Z" fill="#878787"/>
<path d="M68.8122 31.4684L68.7474 31.8566H68.6826C68.553 31.8566 68.4883 31.8566 68.4235 31.8566C68.3587 31.8566 68.2939 31.7919 68.2291 31.7919C68.1643 31.7919 68.0996 31.7272 68.0996 31.6625C68.0348 31.5978 68.0348 31.5331 67.97 31.4684C67.7109 31.7272 67.4517 31.8566 67.1278 31.8566C66.8687 31.8566 66.6744 31.7919 66.48 31.6625C66.3504 31.5331 66.2209 31.3389 66.2209 31.0801C66.2209 30.8859 66.2857 30.7565 66.3505 30.6271C66.48 30.4977 66.6096 30.4329 66.7392 30.3035C66.8687 30.2388 67.0631 30.1741 67.2574 30.1094C67.4517 30.1094 67.6461 30.0447 67.8404 30.0447C67.8404 29.7858 67.7757 29.5917 67.7109 29.527C67.6461 29.4623 67.4517 29.3976 67.2574 29.3976C66.9983 29.3976 66.7391 29.4623 66.5448 29.6564L66.48 29.2681C66.7391 29.074 67.063 29.0093 67.4517 29.0093C67.6461 29.0093 67.7757 29.0093 67.9052 29.074C68.0348 29.1387 68.1643 29.2034 68.2291 29.3328C68.2939 29.4623 68.3587 29.5917 68.4235 29.7211C68.4883 29.9153 68.4883 30.1094 68.4883 30.3682V30.9506C68.4883 31.1448 68.4883 31.3389 68.553 31.4036C68.4883 31.4036 68.6178 31.4684 68.8122 31.4684ZM67.9052 31.0801V30.433C67.5165 30.433 67.1926 30.4977 66.9983 30.6271C66.8039 30.6918 66.7392 30.8859 66.7392 31.0801C66.7392 31.3389 66.8687 31.5331 67.1926 31.5331C67.3222 31.5331 67.4517 31.4683 67.5813 31.4036C67.7109 31.2742 67.8404 31.2095 67.9052 31.0801Z" fill="#878787"/>
<path d="M70.1078 31.4684L70.043 31.8567H69.8487C69.5896 31.8567 69.3952 31.7919 69.2656 31.6625C69.1361 31.5331 69.0713 31.4037 69.0713 31.2095V27.521H69.5896V30.886C69.5896 31.0154 69.5896 31.0801 69.5896 31.1448C69.5896 31.2095 69.5896 31.2742 69.6543 31.339C69.6543 31.4037 69.7191 31.4037 69.7839 31.4037C69.9782 31.4684 70.043 31.4684 70.1078 31.4684Z" fill="#878787"/>
<path d="M71.3387 31.8566C70.95 31.8566 70.6261 31.7919 70.3669 31.5978L70.4317 31.0801C70.4965 31.1448 70.6261 31.2095 70.7556 31.2742C70.8852 31.3389 71.0796 31.3389 71.2739 31.3389C71.6626 31.3389 71.8569 31.2095 71.8569 31.0154C71.8569 30.8212 71.6626 30.6271 71.2739 30.5624C71.1443 30.5624 71.0796 30.4977 70.95 30.4977C70.8204 30.433 70.7556 30.4329 70.6909 30.3682C70.6261 30.3035 70.5613 30.2388 70.4965 30.1741C70.4317 30.1094 70.4317 29.98 70.4317 29.8505C70.4317 29.5917 70.4965 29.3976 70.6909 29.2681C70.8852 29.1387 71.1443 29.0093 71.4682 29.0093C71.7274 29.0093 71.9865 29.074 72.2456 29.2034L72.1808 29.6564C71.9865 29.4623 71.7274 29.3976 71.4682 29.3976C71.0796 29.3976 70.95 29.527 70.95 29.7858C70.95 29.8505 70.95 29.9153 70.95 29.9153C70.95 29.98 71.0148 29.98 71.0795 30.0447C71.1443 30.1094 71.2091 30.1094 71.2739 30.1094C71.3387 30.1094 71.4682 30.1741 71.5978 30.2388C71.6626 30.2388 71.7922 30.3035 71.8569 30.3035C71.9217 30.3682 72.0513 30.3682 72.1161 30.433C72.1808 30.4977 72.2456 30.5624 72.3104 30.6918C72.3752 30.7565 72.3752 30.8859 72.3752 31.0154C72.3752 31.0801 72.3752 31.2095 72.3104 31.2742C72.3104 31.4036 72.2456 31.4684 72.1161 31.5331C72.0513 31.5978 71.9217 31.6625 71.7922 31.7272C71.7274 31.8566 71.533 31.8566 71.3387 31.8566Z" fill="#878787"/>
<path d="M53.3294 14.2551H41.6039C41.863 15.8082 42.5108 17.0377 43.5473 17.8142C44.5838 18.5907 45.7499 18.979 47.0455 18.979C47.4342 18.979 47.8877 18.9143 48.406 18.8496C48.8594 18.7849 49.3777 18.6555 49.8959 18.526C50.4142 18.3966 50.8677 18.2672 51.3859 18.0731C51.8394 17.8789 52.2929 17.6848 52.6815 17.4907L52.8759 21.3086C51.1268 22.2146 49.1186 22.6676 46.7864 22.6676C45.1669 22.6676 43.8065 22.4087 42.5756 21.9557C41.3448 21.5028 40.3083 20.7909 39.4661 19.9497C38.624 19.1084 37.9761 18.1378 37.5875 16.973C37.134 15.8082 36.9396 14.5786 36.9396 13.2844C36.9396 11.9902 37.134 10.7607 37.5227 9.59585C37.9114 8.43104 38.4944 7.46038 39.2718 6.61913C40.0491 5.77789 40.9561 5.06606 41.9926 4.61308C43.0939 4.16009 44.2599 3.90125 45.6204 3.90125C46.7864 3.90125 47.8229 4.09538 48.7946 4.48364C49.7664 4.87191 50.6085 5.3896 51.3211 6.10143C52.0337 6.81326 52.6168 7.58981 53.0054 8.56048C53.3941 9.53115 53.5885 10.6312 53.5885 11.7961C53.6533 12.4432 53.5237 13.2844 53.3294 14.2551ZM41.6687 11.2136H49.0538C49.0538 10.243 48.7947 9.46643 48.2764 8.68989C47.7582 7.97806 46.916 7.58981 45.8147 7.58981C44.7134 7.58981 43.8065 7.91336 43.0939 8.56048C42.3813 9.27231 41.9278 10.1135 41.6687 11.2136Z" fill="#878787"/>
<path d="M14.007 0.40686L0.402832 4.28956V8.36638L14.007 5.26023V0.40686Z" fill="#878787"/>
<path d="M14.9139 0.47168V5.32502L18.9303 6.16626V1.8306L14.9139 0.47168Z" fill="#878787"/>
<path d="M14.0069 7.13684L0.338013 9.98413V14.0609L14.0069 11.9255V7.13684Z" fill="#878787"/>
<path d="M14.9139 7.20154V12.0549L18.9303 12.9608V8.36633L14.9139 7.20154Z" fill="#878787"/>
<path d="M14.0069 13.8021L0.338013 15.6141V19.6909L14.0069 18.5908V13.8021Z" fill="#878787"/>
<path d="M14.9139 13.8668V18.7202L18.9303 19.1084V14.5786L14.9139 13.8668Z" fill="#878787"/>
<path d="M14.0069 20.4027L0.338013 21.1145V25.3208H14.0069V20.4027Z" fill="#878787"/>
<path d="M14.9139 20.4027V25.3208H19.1894V20.7263L14.9139 20.4027Z" fill="#878787"/>
</svg>
