<svg width="55" height="55" viewBox="0 0 55 55" fill="none" xmlns="http://www.w3.org/2000/svg">
<path d="M16.2467 0.518188C16.7002 1.1653 17.0889 1.61828 17.6071 2.07126C17.931 2.39481 18.3197 2.58895 18.7732 2.78309C19.2267 2.97722 19.6153 2.91251 20.004 2.71837C23.3079 1.10059 26.7413 0.453481 30.369 1.23002C31.6647 1.48886 32.9603 1.87713 34.1264 2.52425C35.2277 3.04194 36.1994 2.97723 37.1063 2.2654C37.5598 1.94185 38.0133 1.61829 38.4667 1.29473C38.7259 1.1006 38.9202 1.1653 38.9202 1.48886C39.0498 2.33011 38.9202 3.10665 38.6611 3.88319C38.5315 4.40088 38.402 4.85385 38.2076 5.37154C38.0781 5.6951 38.1428 5.82452 38.402 6.01866C40.5397 7.96 42.1593 10.2249 43.131 13.0075C43.2606 13.2663 43.3254 13.2663 43.5197 13.0722C44.1675 12.3604 44.8801 11.6486 45.5927 11.0014C45.787 10.8073 45.8518 10.6779 45.8518 10.419C45.9166 9.44835 46.0462 8.47769 46.6292 7.70116C47.0179 7.18346 47.4714 6.8599 48.1839 6.8599C48.7022 6.92461 48.9614 7.11875 49.0261 7.63644C49.0909 8.15413 48.9613 8.60712 48.8318 9.0601C48.8318 9.18952 48.7022 9.25423 48.8318 9.38366C48.8965 9.44837 49.0909 9.44837 49.1557 9.38366C49.4148 9.25423 49.6739 9.06009 49.8683 8.93067C50.4513 8.5424 50.9696 8.15414 51.4878 7.76587C52.1356 7.31289 52.8482 7.37759 53.2369 7.83057C53.6904 8.28355 53.6904 8.99538 53.3017 9.6425C52.9778 10.1602 52.4596 10.419 51.9413 10.6779C51.6174 10.8073 51.2935 11.0014 51.0343 11.2603C50.7752 11.5191 50.84 11.778 51.1639 11.9721C51.423 12.1015 51.6822 12.1015 51.9413 12.0368C52.2652 11.9721 52.5891 11.9721 52.9778 12.0368C53.9495 12.1662 54.403 13.0722 53.8199 13.9135C53.496 14.4311 52.9778 14.6253 52.4595 14.69C51.3583 14.8194 50.3865 14.4958 49.4796 14.0429C48.5726 13.5899 47.9248 13.5899 47.2122 14.3017C46.2405 15.2077 45.2688 16.1136 44.2323 16.9549C44.1027 17.0843 44.038 17.149 44.038 17.3431C44.2323 22.1965 42.6128 26.5322 40.3454 30.6737C39.7624 31.7091 39.1793 32.615 38.5315 33.5857C38.3372 33.8446 37.7541 34.0387 37.495 33.8446C37.3007 33.7798 37.4302 33.5857 37.4302 33.4563C37.495 32.8739 37.495 32.2268 37.3007 31.6444C37.0415 30.9325 36.5881 30.5443 35.8107 30.4795C35.0333 30.4148 34.256 30.5443 33.5434 30.9325C32.1182 31.5797 30.7578 32.2268 29.1382 32.4856C26.4174 32.8739 23.7614 32.5503 21.2349 31.3855C20.6518 31.1267 20.0688 30.7384 19.421 30.609C18.3845 30.3501 17.7367 30.609 17.2832 31.5149C16.9593 32.0326 16.8297 32.615 16.7002 33.2621C16.6354 33.3916 16.765 33.6504 16.5058 33.6504C16.2467 33.6504 15.9228 33.7798 15.7285 33.4563C15.275 32.8739 14.8215 32.2268 14.4976 31.5797C12.1655 27.3087 10.8698 22.7789 10.9346 17.9255C10.9346 17.6667 10.8699 17.4726 10.6755 17.2784C9.44466 16.1783 8.14903 15.0783 6.98296 13.8487C6.20558 13.0722 5.493 13.0722 4.65085 13.5252C3.67912 14.0429 2.64259 14.3017 1.5413 14.1076C0.569583 13.9134 -0.0134421 13.2663 0.0513393 12.4251C0.116121 11.9074 0.375254 11.6485 0.828725 11.5191C1.28219 11.3897 1.67088 11.4544 2.12435 11.5191C2.51304 11.5838 3.09608 11.6485 3.22565 11.1956C3.35521 10.7426 2.83696 10.6132 2.57783 10.3543C2.12436 10.0308 1.54132 9.83663 1.15263 9.38366C1.02307 9.18952 0.893522 9.06008 0.763959 8.80124C0.504833 8.21883 0.569607 7.57172 0.958295 7.18345C1.41177 6.79518 2.05958 6.73049 2.57783 7.11876C3.16086 7.50703 3.67912 7.89529 4.19737 8.34827C4.45649 8.5424 4.78038 8.80124 5.10428 8.93067C5.16907 8.99538 5.29864 8.99538 5.36343 8.93067C5.42821 8.86596 5.36343 8.73654 5.36343 8.67183C5.29864 8.34827 5.16909 8.02471 5.16909 7.70116C5.16909 7.24818 5.10429 6.79518 5.55776 6.53634C6.01123 6.3422 6.46473 6.40692 6.9182 6.66577C7.43645 6.98933 7.69557 7.50703 7.88992 8.08943C8.08426 8.73654 8.21383 9.38364 8.21383 10.0955C8.21383 10.3543 8.34336 10.5484 8.47293 10.7426C9.31509 11.6485 10.1573 12.4898 10.9994 13.3957C11.129 13.5252 11.1937 13.784 11.3881 13.7193C11.4529 13.7193 11.5176 13.4605 11.5824 13.331C12.295 10.8073 13.5259 8.60711 15.275 6.73048C15.6637 6.27751 16.1819 5.88924 16.6354 5.43626C16.765 5.30683 16.8945 5.30683 16.7649 5.04799C15.4693 3.36549 15.7284 2.00655 16.2467 0.518188ZM21.8179 9.57778C21.7531 12.8781 24.4092 15.5959 27.713 15.5959C31.0169 15.6606 33.7377 12.9428 33.7377 9.6425C33.8025 6.40693 31.0817 3.68904 27.8426 3.68904C24.5387 3.68904 21.8827 6.2775 21.8179 9.57778ZM19.0971 18.6374C20.2632 20.3846 21.5588 21.9377 23.2431 23.1025C23.4374 22.9083 23.2431 22.6495 23.4375 22.5201C23.6966 22.4553 23.8909 22.6495 24.0853 22.7789C24.3444 22.973 24.474 23.2966 24.6035 23.6202C24.6683 23.8143 24.7331 23.879 24.8626 23.9437C26.1583 24.4614 27.5187 24.7203 28.9439 24.2673C29.203 24.2026 29.2678 24.1378 29.2678 23.8143C29.2678 23.3613 29.2678 22.9083 29.2678 22.4553C29.2678 22.1318 29.3973 22.0671 29.6565 22.1318C30.3043 22.3259 30.693 22.7142 30.8225 23.3613C33.0251 22.0671 34.4503 20.1257 34.5798 18.1197C34.3207 18.1844 34.1264 18.3785 33.8673 18.3785C33.2842 18.4432 33.1547 18.7668 33.1547 19.2845C33.1547 19.7375 33.0251 20.1904 32.7012 20.514C32.6364 20.5787 32.5716 20.6434 32.4421 20.6434C32.3773 20.5787 32.3773 20.514 32.3773 20.4493C32.3773 19.9963 32.3773 19.5433 32.3773 19.0904C32.3773 18.8315 32.3125 18.7668 32.0534 18.8315C31.6647 18.8962 31.3408 18.9609 30.9521 18.9609C29.9804 19.0256 29.9804 19.0256 29.9804 19.9316C29.9804 19.9963 29.9804 20.061 29.9804 20.1904C29.9804 20.4493 29.9156 20.4493 29.7212 20.3199C29.3973 20.061 29.203 19.7375 29.1382 19.3492C29.0734 19.1551 29.0087 19.0904 28.8143 19.0904C27.8426 19.0904 26.9356 19.0904 25.9639 19.0904C25.7048 19.0904 25.64 19.1551 25.5752 19.3492C25.4457 19.6728 25.1865 19.9316 24.8626 20.1257C24.7331 20.1904 24.5387 20.3846 24.4092 20.2552C24.2796 20.1904 24.3444 19.9316 24.3444 19.8022C24.3444 18.9609 24.3444 19.0256 23.5022 18.8962C23.1135 18.8315 22.984 18.9609 22.984 19.3492C22.984 19.9316 22.984 20.5787 22.984 21.2258C22.2714 20.8376 21.5588 19.8669 21.2996 19.0256C21.2349 18.8315 21.2349 18.7021 20.9757 18.7021C20.4575 18.8315 19.8097 18.7021 19.0971 18.6374Z" fill="#878787"/>
<path d="M27.7778 13.0722C25.8991 13.0722 24.4092 11.5191 24.4092 9.64246C24.4092 7.70112 25.8992 6.27747 27.8426 6.27747C29.7213 6.27747 31.2113 7.83055 31.2113 9.70718C31.1465 11.5838 29.6565 13.0722 27.7778 13.0722ZM28.5552 9.96602C29.2678 9.96602 29.9157 9.38362 29.9157 8.67179C29.9157 7.95997 29.3326 7.31285 28.5552 7.31285C27.8426 7.31285 27.1948 7.89525 27.1948 8.60708C27.1948 9.38362 27.7778 9.96602 28.5552 9.96602Z" fill="#878787"/>
<path d="M21.2349 40.5097C21.8179 40.8333 22.3362 41.351 22.6601 41.9334C22.984 42.5158 23.1783 43.2276 23.1783 44.0042C23.1783 44.7807 22.984 45.4925 22.6601 46.0749C22.3362 46.6573 21.8827 47.175 21.2349 47.4986C20.6519 47.8221 19.9392 48.0163 19.1619 48.0163C18.3845 48.0163 17.6719 47.8221 17.0888 47.4986C16.5058 47.175 15.9876 46.6573 15.6637 46.0749C15.3398 45.4925 15.1454 44.7807 15.1454 44.0042C15.1454 43.2276 15.3398 42.5158 15.6637 41.9334C15.9876 41.351 16.441 40.8333 17.0888 40.5097C17.6719 40.1862 18.3845 39.9921 19.1619 39.9921C19.9392 40.0568 20.6519 40.1862 21.2349 40.5097ZM17.6719 41.351C17.2184 41.6099 16.8945 41.9981 16.6354 42.4511C16.3763 42.9041 16.2467 43.4218 16.2467 44.0042C16.2467 44.5866 16.3763 45.1043 16.6354 45.5572C16.8945 46.0102 17.2184 46.3985 17.6719 46.6573C18.1254 46.9162 18.6436 47.0456 19.2267 47.0456C19.8097 47.0456 20.3279 46.9162 20.7814 46.6573C21.2349 46.3985 21.5588 46.0102 21.8179 45.5572C22.0771 45.1043 22.2066 44.5866 22.2066 44.0042C22.2066 43.4218 22.0771 42.9041 21.8179 42.4511C21.5588 41.9981 21.2349 41.6099 20.7814 41.351C20.3279 41.0922 19.8097 40.9627 19.2267 40.9627C18.6436 40.9627 18.1254 41.0922 17.6719 41.351Z" fill="#878787"/>
<path d="M19.2267 48.1457C18.4493 48.1457 17.7367 47.9516 17.0888 47.628C16.441 47.3045 15.9876 46.7868 15.6637 46.1397C15.3398 45.4926 15.1454 44.7807 15.1454 44.0042C15.1454 43.2277 15.3398 42.5158 15.6637 41.8687C15.9876 41.2216 16.5058 40.7686 17.0888 40.3804C17.7367 40.0568 18.3845 39.8627 19.2267 39.8627C20.004 39.8627 20.7166 40.0568 21.2997 40.3804C21.9475 40.7039 22.4009 41.2216 22.7249 41.8687C23.0488 42.5158 23.2431 43.2277 23.2431 44.0042C23.2431 44.7807 23.0488 45.4926 22.7249 46.1397C22.4009 46.7868 21.8827 47.2398 21.2997 47.628C20.7166 47.9516 20.004 48.1457 19.2267 48.1457ZM19.2267 40.1215C18.4493 40.1215 17.8014 40.3157 17.2184 40.6392C16.6354 40.9628 16.1819 41.4158 15.858 41.9982C15.5341 42.5806 15.4045 43.2924 15.4045 44.0042C15.4045 44.7807 15.5989 45.4278 15.858 46.0102C16.1819 46.5927 16.6354 47.0456 17.2184 47.3692C17.8014 47.6927 18.4493 47.8869 19.2267 47.8869C20.004 47.8869 20.6518 47.6927 21.2349 47.3692C21.8179 47.0456 22.2714 46.5927 22.5953 46.0102C22.9192 45.4278 23.1136 44.716 23.1136 44.0042C23.1136 43.2277 22.9192 42.5806 22.5953 41.9982C22.2714 41.4158 21.8179 40.9628 21.2349 40.6392C20.5871 40.3157 19.9393 40.1215 19.2267 40.1215ZM19.2267 47.1751C18.6436 47.1751 18.1254 47.0456 17.6719 46.7868C17.2184 46.5279 16.8297 46.1397 16.5706 45.622C16.3115 45.169 16.1819 44.5866 16.1819 44.0042C16.1819 43.4218 16.3115 42.9041 16.5706 42.3864C16.8297 41.9334 17.2184 41.5452 17.6719 41.2216C18.1254 40.9628 18.6436 40.8333 19.2267 40.8333C19.8097 40.8333 20.3279 40.9628 20.7814 41.2216C21.2349 41.4805 21.6236 41.8687 21.8827 42.3864C22.1418 42.8394 22.2714 43.4218 22.2714 44.0042C22.2714 44.5866 22.1418 45.1043 21.8827 45.622C21.6236 46.075 21.2349 46.4632 20.7814 46.7868C20.3279 47.0456 19.7449 47.1751 19.2267 47.1751ZM19.2267 41.0922C18.7084 41.0922 18.1901 41.2216 17.7367 41.4805C17.2832 41.7393 16.9593 42.0629 16.7002 42.5158C16.441 42.9688 16.3115 43.4865 16.3115 44.0042C16.3115 44.5866 16.441 45.0396 16.7002 45.4926C16.9593 45.9455 17.2832 46.2691 17.7367 46.528C18.1901 46.7868 18.6436 46.9162 19.2267 46.9162C19.7449 46.9162 20.2632 46.7868 20.7166 46.528C21.1701 46.2691 21.494 45.9455 21.7531 45.4926C22.0123 45.0396 22.1418 44.5219 22.1418 44.0042C22.1418 43.4218 22.0123 42.9688 21.7531 42.5158C21.494 42.0629 21.1701 41.7393 20.7166 41.4805C20.2632 41.2216 19.7449 41.0922 19.2267 41.0922Z" fill="#878787"/>
<path d="M30.1747 40.2509C30.3043 40.1862 30.3691 40.1215 30.5634 40.1215C30.693 40.1215 30.8225 40.1862 30.9521 40.2509C31.0169 40.3156 31.0817 40.445 31.0817 40.6391V47.3691C31.0817 47.4985 31.0169 47.6279 30.9521 47.7574C30.8873 47.8221 30.7578 47.8868 30.5634 47.8868C30.4986 47.8868 30.4338 47.8868 30.369 47.8221C30.3043 47.8221 30.2395 47.7574 30.1747 47.6926L25.8343 41.9334V47.3691C25.8343 47.4985 25.7695 47.6279 25.7048 47.7574C25.64 47.8868 25.5104 47.8868 25.316 47.8868C25.1865 47.8868 25.0569 47.8221 24.9274 47.7574C24.8626 47.6927 24.7978 47.5632 24.7978 47.3691V40.6391C24.7978 40.5097 24.8626 40.3803 24.9274 40.2509C24.9921 40.1862 25.1217 40.1215 25.316 40.1215C25.3808 40.1215 25.4456 40.1214 25.5104 40.1862C25.5752 40.2509 25.64 40.2509 25.7048 40.3156L30.0451 46.0749V40.6391C30.0451 40.5097 30.1099 40.3803 30.1747 40.2509Z" fill="#878787"/>
<path d="M30.5635 48.0163C30.4987 48.0163 30.3691 48.0163 30.3043 47.9516C30.2396 47.8868 30.11 47.8868 30.11 47.7574L25.964 42.257V47.3692C25.964 47.5633 25.8992 47.6927 25.7696 47.8221C25.6401 47.9516 25.5105 48.0163 25.3162 48.0163C25.1218 48.0163 24.9922 47.9516 24.8627 47.8221C24.7331 47.6927 24.6683 47.5633 24.6683 47.3692V40.6392C24.6683 40.4451 24.7331 40.3156 24.8627 40.1862C24.9922 40.0568 25.1218 39.9921 25.3162 39.9921C25.3809 39.9921 25.5105 39.9921 25.5753 40.0568C25.6401 40.1215 25.7048 40.1215 25.7696 40.1862L29.9157 45.6867V40.5745C29.9157 40.3803 29.9804 40.2509 30.11 40.1215C30.2396 39.9921 30.3691 39.9274 30.5635 39.9274C30.7578 39.9274 30.8874 39.9921 31.0169 40.1215C31.1465 40.2509 31.2113 40.3803 31.2113 40.5745V47.3044C31.2113 47.4986 31.1465 47.628 31.0169 47.7574C30.8874 47.9516 30.7578 48.0163 30.5635 48.0163ZM25.7049 41.6099L30.2396 47.628C30.2396 47.6927 30.3043 47.6927 30.3691 47.7574C30.5635 47.8221 30.7578 47.8221 30.8226 47.6927C30.8874 47.628 30.9522 47.4986 30.9522 47.3692V40.6392C30.9522 40.5098 30.8874 40.4451 30.8226 40.3156C30.7578 40.2509 30.6283 40.1862 30.5635 40.1862C30.4339 40.1862 30.3691 40.2509 30.2396 40.3156C30.1748 40.3804 30.11 40.5098 30.11 40.6392V46.3985L25.5753 40.3804C25.5753 40.3156 25.5105 40.3156 25.4457 40.2509C25.3809 40.2509 25.3162 40.1862 25.2514 40.1862C25.1218 40.1862 25.057 40.2509 24.9922 40.3156C24.9275 40.3804 24.8627 40.5098 24.8627 40.6392V47.3692C24.8627 47.4986 24.9275 47.5633 24.9922 47.6927C25.057 47.7574 25.1866 47.8221 25.2514 47.8221C25.3809 47.8221 25.4457 47.7574 25.5753 47.6927C25.6401 47.628 25.7049 47.4986 25.7049 47.3692V41.6099Z" fill="#878787"/>
<path d="M33.2194 40.2509C33.349 40.1862 33.4138 40.1215 33.6081 40.1215C33.7377 40.1215 33.8673 40.1862 33.9968 40.2509C34.0616 40.3156 34.1264 40.445 34.1264 40.6391V45.2984C34.1264 45.6219 34.1912 45.9455 34.3855 46.2691C34.5798 46.5279 34.839 46.7867 35.1629 46.9162C35.4868 47.0456 35.8755 47.175 36.3289 47.175C36.7176 47.175 37.1063 47.1103 37.4302 46.9162C37.7541 46.7867 38.0133 46.5279 38.2076 46.2691C38.402 46.0102 38.4667 45.6866 38.4667 45.2984V40.6391C38.4667 40.5097 38.5315 40.3803 38.5963 40.2509C38.7258 40.1862 38.7906 40.1215 38.985 40.1215C39.1146 40.1215 39.2441 40.1862 39.3737 40.2509C39.4384 40.3156 39.5032 40.445 39.5032 40.6391V45.2984C39.5032 45.8161 39.3736 46.3338 39.1145 46.722C38.8554 47.175 38.4667 47.4986 38.0133 47.6927C37.5598 47.9515 36.9768 48.0163 36.3937 48.0163C35.7459 48.0163 35.2277 47.8868 34.7094 47.6927C34.1912 47.4338 33.8025 47.1103 33.5434 46.722C33.2842 46.3338 33.1547 45.8161 33.1547 45.2984V40.6391C33.0899 40.5097 33.0899 40.3803 33.2194 40.2509Z" fill="#878787"/>
<path d="M36.329 48.2104C35.6812 48.2104 35.0981 48.081 34.5799 47.8221C34.0616 47.5633 33.673 47.2397 33.349 46.7868C33.0899 46.3338 32.8956 45.8808 32.8956 45.2984V40.6392C32.8956 40.445 32.9603 40.3156 33.0899 40.1862C33.2195 40.0568 33.349 39.9921 33.5434 39.9921C33.7377 39.9921 33.8673 40.0568 33.9969 40.1862C34.1264 40.3156 34.1912 40.445 34.1912 40.6392V45.2984C34.1912 45.622 34.256 45.9455 34.4503 46.2044C34.6447 46.4632 34.9038 46.6573 35.1629 46.8515C35.4868 46.9809 35.8755 47.0456 36.2642 47.0456C36.6529 47.0456 37.0416 46.9809 37.3007 46.8515C37.6246 46.7221 37.819 46.5279 38.0133 46.2691C38.2077 46.0102 38.2724 45.6867 38.2724 45.3631V40.7039C38.2724 40.5098 38.3372 40.3803 38.4668 40.2509C38.5963 40.1215 38.7259 40.0568 38.9202 40.0568C39.1146 40.0568 39.2442 40.1215 39.3737 40.2509C39.5033 40.3803 39.5681 40.5098 39.5681 40.7039V45.3631C39.5681 45.9455 39.4385 46.3985 39.1794 46.8515C38.9203 47.3045 38.5316 47.628 38.0133 47.8869C37.4951 48.081 36.9768 48.2104 36.329 48.2104ZM33.6081 40.2509C33.4786 40.2509 33.4138 40.3156 33.2842 40.3803C33.2195 40.445 33.1547 40.5745 33.1547 40.7039V45.3631C33.1547 45.8808 33.2843 46.3338 33.5434 46.722C33.8025 47.1103 34.1912 47.4339 34.6447 47.6927C35.0981 47.9516 35.6812 48.0163 36.2642 48.0163C36.8472 48.0163 37.3655 47.8868 37.8838 47.6927C38.3372 47.4986 38.7259 47.175 38.985 46.722C39.2442 46.3338 39.3737 45.8808 39.3737 45.3631V40.7039C39.3737 40.5745 39.3089 40.5098 39.2441 40.3803C39.1794 40.3156 39.0498 40.2509 38.985 40.2509C38.8555 40.2509 38.7907 40.3156 38.6611 40.3803C38.5964 40.445 38.5316 40.5745 38.5316 40.7039V45.3631C38.5316 45.7514 38.402 46.0749 38.2077 46.3985C38.0133 46.722 37.7542 46.9162 37.4303 47.1103C37.1064 47.3045 36.7177 47.3692 36.2642 47.3692C35.8107 47.3692 35.4221 47.3045 35.0982 47.1103C34.7742 46.9162 34.4503 46.722 34.256 46.3985C34.0616 46.0749 33.9321 45.7514 33.9321 45.3631V40.7039C33.9321 40.5745 33.8673 40.5098 33.8025 40.3803C33.8025 40.2509 33.7377 40.2509 33.6081 40.2509Z" fill="#878787"/>
<path d="M46.8236 40.2509C46.8883 40.3156 46.9531 40.445 46.9531 40.5744C46.9531 40.7039 46.8883 40.8333 46.8236 40.898C46.7588 40.9627 46.6292 41.0274 46.4996 41.0274H44.3619V47.3044C44.3619 47.4338 44.2971 47.5633 44.2323 47.6927C44.1027 47.8221 44.038 47.8221 43.8436 47.8221C43.7141 47.8221 43.5845 47.7574 43.4549 47.6927C43.3253 47.5633 43.3253 47.4986 43.3253 47.3044V41.0274H41.1875C41.058 41.0274 40.9284 40.9627 40.8636 40.898C40.7989 40.8333 40.7341 40.7039 40.7341 40.5744C40.7341 40.445 40.7989 40.3156 40.8636 40.2509C40.9284 40.1862 41.058 40.1215 41.1875 40.1215H46.4996C46.6292 40.1215 46.694 40.1862 46.8236 40.2509Z" fill="#878787"/>
<path d="M43.7788 48.0163C43.5845 48.0163 43.4549 47.9516 43.3253 47.8221C43.1958 47.6927 43.131 47.5633 43.131 47.3692V41.1569H41.058C40.8636 41.1569 40.7341 41.0922 40.6693 40.9627C40.5397 40.8333 40.475 40.7039 40.475 40.5745C40.475 40.3803 40.5397 40.2509 40.6693 40.1862C40.7989 40.0568 40.9284 39.9921 41.058 39.9921H46.3701C46.5644 39.9921 46.694 40.0568 46.7588 40.1862C46.8884 40.3156 46.9531 40.445 46.9531 40.5745C46.9531 40.7686 46.8884 40.898 46.7588 40.9627C46.6292 41.0922 46.4996 41.1569 46.3701 41.1569H44.3619V47.3692C44.3619 47.5633 44.2971 47.6927 44.1675 47.8221C44.1027 47.9516 43.9732 48.0163 43.7788 48.0163ZM41.1228 40.2509C40.9932 40.2509 40.9284 40.3156 40.8636 40.3803C40.7989 40.445 40.7341 40.5098 40.7341 40.6392C40.7341 40.7686 40.7989 40.8333 40.8636 40.898C40.9284 40.9627 40.9932 41.0275 41.1228 41.0275H43.3901V47.4339C43.3901 47.5633 43.4549 47.628 43.5197 47.7574C43.5845 47.8221 43.7141 47.8869 43.8436 47.8869C43.9732 47.8869 44.038 47.8221 44.1675 47.7574C44.2323 47.6927 44.2971 47.5633 44.2971 47.4339V40.9627H46.5644C46.694 40.9627 46.7588 40.898 46.8236 40.8333C46.8883 40.7686 46.9531 40.7039 46.9531 40.5745C46.9531 40.445 46.8883 40.3803 46.8236 40.3156C46.7588 40.2509 46.694 40.1862 46.5644 40.1862H41.1228V40.2509Z" fill="#878787"/>
<path d="M17.6719 48.9869C18.1253 49.2458 18.4492 49.5693 18.7083 50.0223C18.9675 50.4753 19.097 50.993 19.097 51.5754C19.097 52.1578 18.9675 52.6755 18.7083 53.1284C18.4492 53.5814 18.1253 53.9697 17.6719 54.2285C17.2184 54.4874 16.7001 54.6168 16.1171 54.6168C15.5341 54.6168 15.0159 54.4874 14.5624 54.2285C14.1089 53.9697 13.785 53.6461 13.5259 53.1284C13.2668 52.6755 13.1372 52.1578 13.1372 51.5754C13.1372 50.993 13.2668 50.4753 13.5259 50.0223C13.785 49.5693 14.1089 49.181 14.5624 48.9869C15.0159 48.7281 15.5341 48.5986 16.1171 48.5986C16.7001 48.5986 17.2184 48.7281 17.6719 48.9869ZM14.9511 49.634C14.6272 49.8282 14.368 50.087 14.1737 50.4753C13.9793 50.7988 13.9146 51.1871 13.9146 51.6401C13.9146 52.0931 13.9793 52.4813 14.1737 52.8049C14.368 53.1284 14.6272 53.452 14.9511 53.6461C15.275 53.8403 15.6636 53.9697 16.1171 53.9697C16.5706 53.9697 16.8945 53.8403 17.2832 53.6461C17.6071 53.452 17.8662 53.1932 18.0605 52.8049C18.2549 52.4813 18.3197 52.0931 18.3197 51.6401C18.3197 51.1871 18.2549 50.7988 18.0605 50.4753C17.8662 50.1517 17.6071 49.8282 17.2832 49.634C16.9593 49.4399 16.5706 49.3105 16.1171 49.3105C15.7284 49.3105 15.3397 49.4399 14.9511 49.634Z" fill="#878787"/>
<path d="M16.1171 54.6815C15.5341 54.6815 15.0158 54.5521 14.4976 54.2932C14.0441 54.0344 13.6555 53.6461 13.3963 53.1931C13.1372 52.7402 13.0076 52.1578 13.0076 51.5754C13.0076 50.993 13.1372 50.4753 13.3963 49.9576C13.6555 49.5046 14.0441 49.1164 14.4976 48.8575C14.9511 48.5987 15.4693 48.4692 16.1171 48.4692C16.7002 48.4692 17.2184 48.5987 17.6719 48.8575C18.1254 49.1164 18.5141 49.5046 18.7732 49.9576C19.0323 50.4106 19.1619 50.9283 19.1619 51.5754C19.1619 52.1578 19.0323 52.6755 18.7732 53.1931C18.5141 53.6461 18.1254 54.0344 17.6719 54.2932C17.2832 54.5521 16.7002 54.6815 16.1171 54.6815ZM16.1171 48.6634C15.5341 48.6634 15.0159 48.7928 14.6272 49.0516C14.1737 49.3105 13.8498 49.634 13.5907 50.087C13.3316 50.54 13.202 51.0577 13.202 51.5754C13.202 52.1578 13.3316 52.6755 13.5907 53.0637C13.8498 53.5167 14.1737 53.8403 14.6272 54.0991C15.0806 54.3579 15.5989 54.4874 16.1171 54.4874C16.7002 54.4874 17.2184 54.3579 17.6071 54.0991C18.0606 53.8403 18.3845 53.5167 18.6436 53.0637C18.9027 52.6108 19.0323 52.0931 19.0323 51.5754C19.0323 50.993 18.9027 50.4753 18.6436 50.087C18.3845 49.634 18.0606 49.3105 17.6071 49.0516C17.2184 48.7928 16.7002 48.6634 16.1171 48.6634ZM16.1171 54.0344C15.6637 54.0344 15.275 53.905 14.9511 53.7109C14.6272 53.5167 14.3033 53.1931 14.1089 52.8696C13.9146 52.4813 13.785 52.0931 13.785 51.6401C13.785 51.1871 13.9146 50.7988 14.1089 50.4106C14.3033 50.0223 14.5624 49.7635 14.9511 49.5693C15.275 49.3752 15.7284 49.2458 16.1171 49.2458C16.5706 49.2458 16.9593 49.3752 17.2832 49.5693C17.6071 49.7635 17.931 50.087 18.1254 50.4106C18.3197 50.7988 18.4493 51.1871 18.4493 51.6401C18.4493 52.0931 18.3197 52.4813 18.1254 52.8696C17.931 53.2579 17.6719 53.5167 17.2832 53.7109C16.9593 53.905 16.5706 54.0344 16.1171 54.0344ZM16.1171 49.3752C15.7284 49.3752 15.3398 49.5046 15.0159 49.634C14.692 49.8282 14.4328 50.087 14.2385 50.4106C14.0441 50.7341 13.9794 51.1224 13.9794 51.5754C13.9794 51.9636 14.0441 52.3519 14.2385 52.7402C14.4328 53.0637 14.692 53.3226 15.0159 53.5167C15.3398 53.7108 15.7284 53.8403 16.1171 53.8403C16.5058 53.8403 16.8945 53.7108 17.2184 53.5167C17.5423 53.3226 17.8015 53.0637 17.9958 52.7402C18.1902 52.4166 18.2549 52.0283 18.2549 51.5754C18.2549 51.1871 18.1902 50.7988 17.9958 50.4106C17.8015 50.087 17.5423 49.8282 17.2184 49.634C16.8945 49.5046 16.5706 49.3752 16.1171 49.3752Z" fill="#878787"/>
<path d="M24.4092 48.7928C24.474 48.7281 24.6035 48.6633 24.6683 48.6633C24.7979 48.6633 24.8627 48.7281 24.9274 48.7928C24.9922 48.8575 25.057 48.9869 25.057 49.0516V54.1638C25.057 54.2932 24.9922 54.3579 24.9274 54.4226C24.8627 54.4873 24.7331 54.5521 24.6683 54.5521C24.6035 54.5521 24.5387 54.5521 24.474 54.4873C24.4092 54.4873 24.3444 54.4226 24.3444 54.3579L21.0405 50.0223V54.0991C21.0405 54.2285 20.9757 54.2932 20.9109 54.3579C20.8462 54.4226 20.7166 54.4873 20.6518 54.4873C20.5222 54.4873 20.4575 54.4226 20.3927 54.3579C20.3279 54.2932 20.2631 54.1638 20.2631 54.0991V48.9869C20.2631 48.8575 20.3279 48.7928 20.3927 48.7281C20.4575 48.6634 20.587 48.5986 20.6518 48.5986C20.7166 48.5986 20.7814 48.5986 20.8462 48.6633C20.911 48.6633 20.9757 48.7281 20.9757 48.7928L24.2796 53.1284V48.9869C24.2796 48.9869 24.3444 48.8575 24.4092 48.7928Z" fill="#878787"/>
<path d="M24.6683 54.6168C24.6035 54.6168 24.5387 54.6168 24.474 54.5521C24.4092 54.5521 24.3444 54.4874 24.2796 54.4227L21.1701 50.2811V54.1638C21.1701 54.2933 21.1053 54.4227 21.0405 54.4874C20.9757 54.5521 20.8462 54.6168 20.7166 54.6168C20.587 54.6168 20.4575 54.5521 20.3927 54.4874C20.3279 54.4227 20.2631 54.2933 20.2631 54.1638V49.0516C20.2631 48.9222 20.3279 48.7928 20.3927 48.7281C20.4575 48.6634 20.587 48.5986 20.7166 48.5986C20.7814 48.5986 20.8462 48.5986 20.9109 48.6633C20.9757 48.7281 21.0405 48.7281 21.0405 48.7928L24.15 52.9343V49.0516C24.15 48.9222 24.2148 48.7928 24.2796 48.7281C24.3444 48.6634 24.474 48.5986 24.6035 48.5986C24.7331 48.5986 24.8627 48.6634 24.9274 48.7281C24.9922 48.7928 25.057 48.9222 25.057 49.0516V54.1638C25.057 54.2933 24.9922 54.4227 24.9274 54.4874C24.9274 54.6168 24.7979 54.6168 24.6683 54.6168ZM21.0405 49.8282L24.474 54.358C24.474 54.4227 24.5387 54.4227 24.5387 54.4227C24.6683 54.4874 24.7978 54.4227 24.8626 54.358C24.9274 54.2933 24.9274 54.2285 24.9274 54.1638V49.0516C24.9274 48.9869 24.9274 48.8575 24.8626 48.8575C24.7978 48.7928 24.7331 48.7928 24.6683 48.7928C24.6035 48.7928 24.5387 48.7928 24.474 48.8575C24.4092 48.9222 24.4092 48.9869 24.4092 49.0516V53.3873L20.9757 48.8575C20.9757 48.8575 20.911 48.7928 20.8462 48.7928C20.7814 48.7928 20.7814 48.7281 20.7166 48.7281C20.6518 48.7281 20.587 48.7281 20.5223 48.7928C20.4575 48.8575 20.4575 48.9222 20.4575 48.9869V54.0991C20.4575 54.1638 20.4575 54.2933 20.5223 54.2933C20.587 54.358 20.6518 54.358 20.7166 54.358C20.7814 54.358 20.9109 54.358 20.9109 54.2933C20.9757 54.2286 20.9757 54.1638 20.9757 54.0991V49.8282H21.0405Z" fill="#878787"/>
<path d="M30.4338 48.8575C30.7578 49.0516 30.9521 49.3105 31.2112 49.634C31.276 49.6987 31.276 49.8281 31.276 49.8929C31.276 50.0223 31.2112 50.087 31.1464 50.1517C31.0816 50.2164 31.0169 50.2164 30.9521 50.2164C30.8873 50.2164 30.8225 50.2164 30.7578 50.1517C30.693 50.087 30.6282 50.087 30.6282 50.0223C30.4986 49.8282 30.3043 49.634 30.1099 49.5046C29.9156 49.3752 29.6565 49.3105 29.3325 49.3105C28.9439 49.3105 28.6199 49.3752 28.4256 49.5046C28.1665 49.634 28.1017 49.8929 28.1017 50.1517C28.1017 50.4106 28.2312 50.6047 28.4256 50.7988C28.6199 50.993 29.0086 51.0577 29.5269 51.1224C30.1099 51.1871 30.5634 51.3812 30.9521 51.6401C31.276 51.9636 31.4703 52.3519 31.4703 52.8696C31.4703 53.2578 31.3408 53.5167 31.1464 53.7755C30.9521 54.0344 30.6929 54.2285 30.369 54.3579C30.0451 54.4874 29.7212 54.5521 29.3325 54.5521C28.8143 54.5521 28.4256 54.4226 28.0369 54.2285C27.6482 54.0344 27.3891 53.7108 27.1947 53.3873C27.1947 53.3226 27.1299 53.2578 27.1299 53.2578C27.1299 53.1931 27.13 53.1284 27.1947 53.0637C27.2595 52.999 27.3243 52.999 27.3891 52.9343H27.4539C27.5186 52.9343 27.5834 52.9343 27.713 52.999C27.7778 53.0637 27.8426 53.1284 27.8426 53.1931C27.9074 53.3873 28.1017 53.5814 28.3608 53.7108C28.6199 53.8402 28.9439 53.905 29.2678 53.905C29.6565 53.905 29.9804 53.8402 30.2395 53.6461C30.4986 53.452 30.6282 53.2578 30.6282 52.9343C30.6282 52.6754 30.4986 52.4166 30.3043 52.2225C30.1099 52.0283 29.7213 51.8989 29.2678 51.8342C28.62 51.7695 28.1665 51.5754 27.7778 51.3165C27.4539 50.993 27.2595 50.6047 27.2595 50.1517C27.2595 49.8282 27.3243 49.5693 27.5187 49.3105C27.713 49.0516 27.9721 48.9222 28.296 48.7928C28.62 48.6634 28.9438 48.5986 29.3973 48.5986C29.786 48.5986 30.1747 48.7281 30.4338 48.8575Z" fill="#878787"/>
<path d="M29.2678 54.6815C28.7495 54.6815 28.296 54.5521 27.9073 54.358C27.5187 54.0991 27.1948 53.8403 27.0652 53.452C27.0652 53.3873 27.0004 53.3226 27.0004 53.2579C27.0004 53.1932 27.0652 53.0637 27.13 52.999C27.1947 52.9343 27.2595 52.8696 27.3891 52.8696H27.4539C27.5186 52.8696 27.6482 52.8696 27.713 52.9343C27.7778 52.999 27.8426 53.0637 27.9073 53.1931C27.9721 53.3873 28.1665 53.5167 28.4256 53.6461C28.6847 53.7756 28.9439 53.8403 29.2678 53.8403C29.6565 53.8403 29.9156 53.7756 30.1747 53.5814C30.4338 53.452 30.4986 53.1932 30.4986 52.9343C30.4986 52.6755 30.369 52.4813 30.1747 52.2872C29.9804 52.0931 29.6564 51.9636 29.203 51.9636C28.5552 51.8989 28.0369 51.7048 27.713 51.3812C27.3243 51.0577 27.13 50.6694 27.13 50.1517C27.13 49.8282 27.2595 49.5046 27.4539 49.2458C27.6482 48.9869 27.9073 48.7928 28.2313 48.6634C28.5552 48.5339 28.9439 48.4692 29.3325 48.4692C29.786 48.4692 30.1747 48.5339 30.4338 48.7281C30.7577 48.9222 31.0169 49.1811 31.2112 49.5046C31.276 49.634 31.3408 49.6988 31.3408 49.8282C31.3408 49.9576 31.276 50.087 31.1464 50.1517C31.0169 50.2164 30.8225 50.2164 30.6282 50.1517C30.5634 50.087 30.4986 50.0223 30.4338 49.9576C30.3043 49.7635 30.1747 49.5693 29.9804 49.5046C29.786 49.3752 29.5269 49.3105 29.2678 49.3105C28.8791 49.3105 28.62 49.3752 28.3608 49.5046C28.1665 49.634 28.0369 49.8282 28.0369 50.087C28.0369 50.3459 28.1017 50.54 28.2961 50.6694C28.4904 50.8635 28.8791 50.9283 29.3973 50.993C30.0451 51.0577 30.4986 51.2518 30.8225 51.5754C31.1464 51.8989 31.3408 52.2872 31.3408 52.8049C31.3408 53.1931 31.2112 53.5167 31.0169 53.7755C30.8225 54.0344 30.5634 54.2285 30.1747 54.358C29.9804 54.6168 29.5917 54.6815 29.2678 54.6815ZM27.4539 53.0637C27.3891 53.0637 27.3891 53.0637 27.4539 53.0637C27.3243 53.0637 27.2595 53.1284 27.1948 53.1931C27.13 53.2579 27.13 53.2579 27.13 53.3226C27.13 53.3226 27.13 53.3873 27.13 53.452C27.2595 53.7755 27.5187 54.0344 27.9073 54.2932C28.296 54.4874 28.7495 54.6168 29.203 54.6168C29.5917 54.6168 29.9156 54.5521 30.2395 54.4227C30.5634 54.2932 30.8225 54.0991 30.9521 53.8403C31.1464 53.5814 31.2112 53.3226 31.2112 52.9343C31.2112 52.4813 31.0817 52.0931 30.7577 51.7695C30.4338 51.5107 29.9803 51.3165 29.3973 51.2518C28.8143 51.1871 28.4256 51.0577 28.2313 50.8635C27.9721 50.6694 27.9073 50.4106 27.9073 50.1517C27.9073 49.8282 28.0369 49.634 28.2961 49.4399C28.5552 49.3105 28.8791 49.1811 29.2678 49.1811C29.5917 49.1811 29.8508 49.2458 30.1099 49.3752C30.3043 49.5046 30.4986 49.6987 30.6282 49.8929C30.6282 49.9576 30.693 49.9576 30.7577 50.0223C30.8873 50.087 31.0169 50.087 31.0817 50.0223C31.1464 49.9576 31.2112 49.8929 31.2112 49.8282C31.2112 49.7635 31.2112 49.6987 31.1464 49.5693C30.9521 49.2458 30.693 48.9869 30.4338 48.8575C30.1747 48.6634 29.786 48.5986 29.3973 48.5986C29.0086 48.5986 28.6847 48.6634 28.3608 48.7928C28.0369 48.9222 27.8426 49.0516 27.6482 49.3105C27.4539 49.5046 27.3891 49.7635 27.3891 50.087C27.3891 50.54 27.5834 50.8635 27.9073 51.1871C28.2313 51.4459 28.7495 51.6401 29.3325 51.7048C29.786 51.7695 30.1747 51.8989 30.369 52.0931C30.6282 52.2872 30.7577 52.546 30.7577 52.8696C30.7577 53.1931 30.6282 53.452 30.3043 53.6461C30.0451 53.8403 29.7212 53.905 29.3325 53.905C29.0086 53.905 28.6847 53.8403 28.4256 53.7109C28.1665 53.5814 27.9721 53.3873 27.8426 53.1931C27.8426 53.1284 27.7778 53.0637 27.713 53.0637C27.5834 53.0637 27.5186 53.0637 27.4539 53.0637Z" fill="#878787"/>
<path d="M12.4902 48.8576C12.555 48.9223 12.6198 49.0517 12.6198 49.1164V54.2286C12.6198 54.358 12.555 54.4227 12.4902 54.4875C12.4255 54.5522 12.2959 54.6169 12.2311 54.6169C12.1015 54.6169 12.0368 54.5522 11.972 54.4875C11.9072 54.4227 11.8424 54.2933 11.8424 54.2286V50.4754L10.0285 54.1639C9.96374 54.2933 9.83418 54.358 9.70461 54.358C9.51027 54.358 9.44546 54.2933 9.3159 54.0992L7.502 50.4754V54.1639C7.502 54.2933 7.43721 54.358 7.37243 54.4227C7.30765 54.4874 7.17811 54.5522 7.11333 54.5522C6.98376 54.5522 6.91896 54.4874 6.85418 54.4227C6.7894 54.358 6.72461 54.2286 6.72461 54.1639V49.0517C6.72461 48.9223 6.7894 48.8576 6.85418 48.7929C6.91896 48.7282 7.04854 48.6635 7.11333 48.6635C7.24289 48.6635 7.37245 48.7282 7.43724 48.8576L9.63981 53.3227L11.8424 48.8576C11.9072 48.7282 12.0368 48.6635 12.1663 48.6635C12.2959 48.7282 12.3607 48.7282 12.4902 48.8576Z" fill="#878787"/>
<path d="M12.1655 54.6816C12.0359 54.6816 11.9063 54.6169 11.8415 54.5522C11.7768 54.4875 11.712 54.358 11.712 54.2286V50.8636L10.0276 54.2286C9.89807 54.4228 9.76849 54.4875 9.63892 54.4875C9.44457 54.4875 9.31504 54.4228 9.18547 54.2286L7.56591 50.9283V54.2286C7.56591 54.358 7.50112 54.4875 7.43633 54.5522C7.37155 54.6169 7.24199 54.6816 7.11242 54.6816C6.98286 54.6816 6.85329 54.6169 6.78851 54.5522C6.72373 54.4875 6.65894 54.358 6.65894 54.2286V49.1164C6.65894 48.987 6.72373 48.8576 6.78851 48.7929C6.85329 48.7282 6.98286 48.6635 7.11242 48.6635C7.30677 48.6635 7.43632 48.7282 7.5011 48.9223L9.63892 53.258L11.712 48.9223C11.7768 48.7282 11.9711 48.6635 12.1007 48.6635C12.2303 48.6635 12.3598 48.7282 12.4246 48.7929C12.4894 48.8576 12.5541 48.987 12.5541 49.1164V54.2286C12.5541 54.358 12.4894 54.4875 12.4246 54.5522C12.4246 54.6169 12.295 54.6816 12.1655 54.6816ZM11.8415 50.0871V54.1639C11.8415 54.2286 11.8415 54.2933 11.9063 54.3581C11.9711 54.4228 12.0359 54.4227 12.1007 54.4227C12.1655 54.4227 12.2302 54.4228 12.295 54.3581C12.3598 54.2933 12.3598 54.2286 12.3598 54.1639V49.0517C12.3598 48.987 12.3598 48.9223 12.295 48.8576C12.2302 48.7929 12.1655 48.7929 12.1007 48.7929C11.9711 48.7929 11.9063 48.8576 11.8415 48.987L9.57415 53.5815L7.24199 48.987C7.17721 48.8576 7.11241 48.7929 6.98285 48.7929C6.91807 48.7929 6.85329 48.7929 6.78851 48.8576C6.72373 48.9223 6.7237 48.987 6.7237 49.0517V54.1639C6.7237 54.2286 6.72373 54.2933 6.78851 54.3581C6.85329 54.4228 6.91807 54.4227 6.98285 54.4227C7.04763 54.4227 7.11241 54.4228 7.17719 54.3581C7.24197 54.2933 7.24199 54.2286 7.24199 54.1639V50.1518L9.18547 54.0345C9.25026 54.1639 9.31502 54.2286 9.44458 54.2286C9.57415 54.2286 9.63894 54.1639 9.70373 54.0992L11.8415 50.0871Z" fill="#878787"/>
<path d="M11.9711 40.7687C12.6837 41.0922 13.2019 41.5452 13.5906 42.1276C13.9793 42.71 14.1736 43.3571 14.1736 44.1337C14.1736 44.9102 13.9793 45.5573 13.5906 46.1397C13.2019 46.7221 12.6837 47.1751 11.9711 47.4986C11.2585 47.8222 10.4811 48.0163 9.63893 48.0163H7.50115C7.3068 48.0163 7.17723 47.9516 7.04767 47.8869C6.91811 47.7575 6.85333 47.6928 6.85333 47.4986V40.7687C6.85333 40.6393 6.91811 40.5098 7.04767 40.3804C7.17723 40.3157 7.3068 40.251 7.50115 40.251H9.63893C10.4811 40.251 11.2585 40.4451 11.9711 40.7687ZM11.3233 46.7221C11.8415 46.4633 12.2302 46.1397 12.5541 45.6867C12.8132 45.2337 13.0076 44.7161 13.0076 44.1337C13.0076 43.5513 12.878 43.0336 12.5541 42.5806C12.295 42.1276 11.8415 41.804 11.3233 41.5452C10.805 41.2864 10.222 41.1569 9.57417 41.1569H8.0842V47.1104H9.57417C10.222 47.1104 10.805 46.9809 11.3233 46.7221Z" fill="#878787"/>
<path d="M9.57417 48.1458H7.43638C7.24203 48.1458 7.0477 48.081 6.91813 47.9516C6.78857 47.8222 6.72375 47.6928 6.72375 47.4987V40.7687C6.72375 40.5746 6.78857 40.4451 6.91813 40.3157C7.0477 40.1863 7.24203 40.1216 7.43638 40.1216H9.57417C10.4811 40.1216 11.2585 40.3157 11.9711 40.6393C12.6837 40.9628 13.2019 41.4805 13.6554 42.0629C14.0441 42.6453 14.2385 43.3571 14.2385 44.1337C14.2385 44.9102 14.0441 45.622 13.6554 46.2044C13.2667 46.7868 12.6837 47.3045 11.9711 47.6281C11.3233 47.9516 10.4811 48.1458 9.57417 48.1458ZM7.43638 40.3804C7.30681 40.3804 7.17723 40.4451 7.04766 40.5098C6.98288 40.5745 6.91813 40.704 6.91813 40.7687V47.4987C6.91813 47.6281 6.98288 47.6928 7.04766 47.7575C7.17723 47.8222 7.24203 47.8869 7.43638 47.8869H9.57417C10.4163 47.8869 11.1937 47.6928 11.9063 47.3692C12.5541 47.0457 13.0724 46.5927 13.4611 46.0103C13.8498 45.4279 14.0441 44.7808 14.0441 44.0689C14.0441 43.3571 13.8498 42.71 13.4611 42.1276C13.0724 41.5452 12.5541 41.0923 11.9063 40.7687C11.2585 40.4451 10.4811 40.251 9.57417 40.251H7.43638V40.3804ZM9.57417 47.2398H7.95462V41.0923H9.57417C10.222 41.0923 10.8698 41.2217 11.3881 41.4805C11.9063 41.7393 12.3598 42.1276 12.6189 42.5806C12.9428 43.0336 13.0724 43.616 13.0724 44.1984C13.0724 44.7808 12.9428 45.2985 12.6189 45.8162C12.295 46.2691 11.9063 46.6574 11.3881 46.9163C10.8698 47.1104 10.2868 47.2398 9.57417 47.2398ZM8.21377 46.981H9.63893C10.2868 46.981 10.8698 46.8515 11.3233 46.5927C11.8415 46.3339 12.2302 46.0103 12.4893 45.5573C12.7485 45.1043 12.878 44.6514 12.878 44.0689C12.878 43.5513 12.7485 43.0336 12.4893 42.5806C12.2302 42.1276 11.8415 41.8041 11.3233 41.5452C10.805 41.2864 10.2868 41.1569 9.63893 41.1569H8.21377V46.981Z" fill="#878787"/>
<path d="M36.9129 48.7929C36.9777 48.8576 37.0425 48.9223 37.0425 49.0517C37.0425 49.1811 36.9777 49.2459 36.9129 49.3106C36.8481 49.3753 36.7833 49.44 36.6538 49.44H35.0342V54.1639C35.0342 54.2933 34.9695 54.358 34.9047 54.4228C34.8399 54.4875 34.7104 54.5522 34.6456 54.5522C34.5808 54.5522 34.4512 54.4875 34.3864 54.4228C34.3216 54.358 34.2569 54.2286 34.2569 54.1639V49.44H32.6373C32.5078 49.44 32.443 49.3753 32.3782 49.3106C32.3134 49.2459 32.2487 49.1811 32.2487 49.0517C32.2487 48.9223 32.3134 48.8576 32.3782 48.7929C32.443 48.7282 32.5078 48.6635 32.6373 48.6635H36.6538C36.7833 48.7282 36.8481 48.7282 36.9129 48.7929Z" fill="#878787"/>
<path d="M34.6447 54.6816C34.5151 54.6816 34.3856 54.6169 34.3208 54.5522C34.256 54.4875 34.1912 54.358 34.1912 54.2286V49.5694H32.6364C32.5069 49.5694 32.3773 49.5047 32.3125 49.44C32.2477 49.3753 32.183 49.2459 32.183 49.1164C32.183 48.987 32.2477 48.8576 32.3125 48.7929C32.3773 48.7282 32.5069 48.6635 32.6364 48.6635H36.6529C36.7825 48.6635 36.912 48.7282 36.9768 48.7929C37.0416 48.8576 37.1064 48.987 37.1064 49.1164C37.1064 49.2459 37.0416 49.3753 36.9768 49.44C36.912 49.5047 36.7825 49.5694 36.6529 49.5694H35.0982V54.2286C35.0982 54.358 35.0334 54.4875 34.9686 54.5522C34.9038 54.6169 34.7742 54.6816 34.6447 54.6816ZM32.6364 48.7929C32.5716 48.7929 32.5069 48.7929 32.4421 48.8576C32.3773 48.9223 32.3773 48.987 32.3773 49.0517C32.3773 49.1164 32.3773 49.1811 32.4421 49.2458C32.5069 49.3106 32.5716 49.3106 32.6364 49.3106H34.3208V54.1639C34.3208 54.2286 34.3208 54.2933 34.3855 54.3581C34.4503 54.4228 34.5151 54.4227 34.5799 54.4227C34.6447 54.4227 34.7095 54.4228 34.7743 54.3581C34.839 54.2933 34.839 54.2286 34.839 54.1639V49.3753H36.5233C36.5881 49.3753 36.6529 49.3753 36.7177 49.3106C36.7825 49.2459 36.7825 49.1812 36.7825 49.1164C36.7825 49.0517 36.7825 48.987 36.7177 48.9223C36.6529 48.8576 36.5881 48.8576 36.5233 48.8576H32.6364V48.7929Z" fill="#878787"/>
<path d="M41.9659 53.9706C42.0307 54.0353 42.0955 54.1 42.0955 54.2295C42.0955 54.3589 42.0307 54.4236 41.9659 54.4883C41.9012 54.553 41.7716 54.6177 41.7068 54.6177H38.3381C38.2086 54.6177 38.1438 54.553 38.079 54.4883C38.0142 54.4236 37.9494 54.2942 37.9494 54.2295V49.1173C37.9494 48.9879 38.0142 48.9231 38.079 48.8584C38.1438 48.7937 38.2733 48.729 38.3381 48.729H41.7068C41.8364 48.729 41.9012 48.7937 41.9659 48.8584C42.0307 48.9231 42.0955 48.9879 42.0955 49.1173C42.0955 49.2467 42.0307 49.3114 41.9659 49.3761C41.9012 49.4408 41.7716 49.5055 41.7068 49.5055H38.7268V51.3175H40.8646C40.9942 51.3175 41.059 51.3822 41.1238 51.4469C41.1886 51.5116 41.2534 51.5763 41.2534 51.7057C41.2534 51.8352 41.1886 51.8999 41.1238 51.9646C41.059 52.0293 40.9294 52.094 40.8646 52.094H38.7268V53.9706H41.7068C41.7716 53.8412 41.9012 53.9059 41.9659 53.9706Z" fill="#878787"/>
<path d="M41.7058 54.6816H38.3372C38.2076 54.6816 38.0781 54.6169 38.0133 54.5522C37.9485 54.4875 37.8837 54.358 37.8837 54.2286V49.1164C37.8837 48.987 37.9485 48.8576 38.0133 48.7929C38.0781 48.7282 38.2076 48.6635 38.3372 48.6635H41.7058C41.8354 48.6635 41.9649 48.7282 42.0297 48.7929C42.0945 48.8576 42.1593 48.987 42.1593 49.1164C42.1593 49.2459 42.0945 49.3753 42.0297 49.44C41.9649 49.5047 41.8354 49.5694 41.7058 49.5694H38.7906V51.2519H40.8637C40.9932 51.2519 41.1228 51.3166 41.1876 51.3813C41.2524 51.446 41.3171 51.5755 41.3171 51.7049C41.3171 51.8343 41.2524 51.9637 41.1876 52.0284C41.1228 52.0932 40.9932 52.1579 40.8637 52.1579H38.7906V53.9051H41.7058C41.8354 53.9051 41.9649 53.9698 42.0297 54.0345C42.0945 54.0992 42.1593 54.2286 42.1593 54.3581C42.1593 54.4875 42.0945 54.6169 42.0297 54.6816C41.9649 54.6169 41.8354 54.6816 41.7058 54.6816ZM38.2724 48.7929C38.2076 48.7929 38.1428 48.7929 38.0781 48.8576C38.0133 48.9223 38.0133 48.987 38.0133 49.0517V54.1639C38.0133 54.2286 38.0133 54.2933 38.0781 54.3581C38.1428 54.4228 38.2076 54.4227 38.2724 54.4227H41.6411C41.7058 54.4227 41.8354 54.4228 41.8354 54.3581C41.9002 54.2933 41.9002 54.2286 41.9002 54.1639C41.9002 54.0992 41.9002 54.0345 41.8354 53.9698C41.7706 53.9051 41.7058 53.9051 41.6411 53.9051H38.5315V51.8343H40.7989C40.8637 51.8343 40.9285 51.8343 40.9932 51.7696C41.058 51.7049 41.058 51.6402 41.058 51.5755C41.058 51.5107 41.058 51.446 40.9932 51.3813C40.9285 51.3166 40.8637 51.3166 40.7989 51.3166H38.5315V49.3753H41.6411C41.7058 49.3753 41.8354 49.3753 41.8354 49.3106C41.9002 49.2459 41.9002 49.1812 41.9002 49.1164C41.9002 49.0517 41.9002 48.987 41.8354 48.9223C41.7706 48.8576 41.7058 48.8576 41.6411 48.8576H38.2724V48.7929Z" fill="#878787"/>
<path d="M47.0179 54.2286C47.0179 54.358 46.9532 54.4227 46.8884 54.4875C46.8236 54.5522 46.7588 54.6169 46.6293 54.6169C46.4997 54.6169 46.3701 54.5522 46.3054 54.4227L45.0097 52.352H44.8802H43.9084V54.2286C43.9084 54.358 43.8436 54.4227 43.7789 54.4875C43.7141 54.5522 43.5845 54.6169 43.5198 54.6169C43.3902 54.6169 43.3254 54.5522 43.2606 54.4875C43.1958 54.4227 43.131 54.2933 43.131 54.2286V49.1164C43.131 48.987 43.1958 48.9223 43.2606 48.8576C43.3254 48.7929 43.455 48.7281 43.5198 48.7281H44.8802C45.2688 48.7281 45.5928 48.7929 45.8519 48.987C46.1758 49.1164 46.3701 49.3753 46.5645 49.6341C46.7588 49.8929 46.8236 50.2165 46.8236 50.6048C46.8236 50.9283 46.7588 51.2519 46.5645 51.5754C46.3701 51.8343 46.111 52.0284 45.8519 52.2226L47.0179 54.0992C47.0179 54.0992 47.0179 54.1639 47.0179 54.2286ZM44.8802 51.5754C45.2041 51.5754 45.528 51.5107 45.7223 51.3166C45.9167 51.1225 46.0462 50.8636 46.0462 50.5401C46.0462 50.2165 45.9167 49.9577 45.7223 49.6988C45.528 49.5047 45.2041 49.3753 44.8802 49.3753H43.9084V51.5107H44.8802V51.5754Z" fill="#878787"/>
<path d="M46.694 54.6816C46.4997 54.6816 46.3701 54.6169 46.3054 54.4875L45.0097 52.4814H44.038V54.2933C44.038 54.4228 43.9732 54.5522 43.9084 54.6169C43.8437 54.6816 43.7141 54.7463 43.5845 54.7463C43.455 54.7463 43.3254 54.6816 43.2606 54.6169C43.1958 54.5522 43.131 54.4228 43.131 54.2933V49.1811C43.131 49.0517 43.1958 48.9223 43.2606 48.8576C43.3254 48.7929 43.455 48.7281 43.5845 48.7281H44.9449C45.3336 48.7281 45.6575 48.7929 45.9815 48.987C46.3054 49.1811 46.4997 49.3753 46.694 49.6988C46.8884 50.0224 46.9532 50.3459 46.9532 50.6695C46.9532 51.0578 46.8884 51.3813 46.694 51.6402C46.4997 51.899 46.3054 52.0931 45.9815 52.2226L47.0828 53.9698C47.1475 54.0345 47.1475 54.1639 47.1475 54.2286C47.1475 54.358 47.0827 54.4228 47.018 54.5522C46.9532 54.6169 46.8236 54.6816 46.694 54.6816ZM43.8437 52.2226H45.0745L46.3701 54.3581C46.4349 54.4875 46.4997 54.4875 46.6293 54.4875C46.6941 54.4875 46.8236 54.4875 46.8236 54.4228C46.8884 54.358 46.8884 54.2933 46.8884 54.2286C46.8884 54.1639 46.8884 54.0992 46.8236 54.0345L45.5927 52.0932L45.6575 52.0284C45.9815 51.899 46.1758 51.7049 46.3701 51.446C46.5645 51.1872 46.6293 50.8636 46.6293 50.5401C46.6293 50.2165 46.5645 49.893 46.3701 49.6341C46.2406 49.3753 45.9814 49.1811 45.7223 48.987C45.4632 48.8576 45.1393 48.7929 44.7506 48.7929H43.3902C43.3254 48.7929 43.2606 48.7929 43.1958 48.8576C43.1311 48.9223 43.131 48.987 43.131 49.0517V54.1639C43.131 54.2286 43.1311 54.2933 43.1958 54.3581C43.2606 54.4228 43.3254 54.4228 43.3902 54.4228C43.455 54.4228 43.5845 54.4228 43.5845 54.3581C43.6493 54.2933 43.6493 54.2286 43.6493 54.1639V52.2226H43.8437ZM44.8802 51.7049H43.8437V49.3753H44.8802C45.2688 49.3753 45.528 49.5047 45.7871 49.6988C46.0462 49.893 46.1758 50.2165 46.1758 50.5401C46.1758 50.8636 46.0462 51.1225 45.7871 51.3813C45.5928 51.5755 45.2688 51.7049 44.8802 51.7049ZM44.038 51.5107H44.9449C45.2688 51.5107 45.528 51.446 45.7223 51.2519C45.9167 51.0578 46.0462 50.8636 46.0462 50.5401C46.0462 50.2165 45.9167 49.9577 45.7223 49.7635C45.528 49.5694 45.2688 49.44 44.9449 49.44H44.038V51.5107Z" fill="#878787"/>
</svg>
