<svg width="52" height="58" viewBox="0 0 52 58" fill="none" xmlns="http://www.w3.org/2000/svg">
<path d="M29.379 0.860345C21.67 -1.85753 13.054 2.54283 10.2036 10.6965C7.35324 18.8501 11.2401 27.6508 19.0139 30.3687C19.3378 30.4981 19.597 30.5628 19.9209 30.6276C20.9574 30.8864 21.9939 31.0805 23.0304 31.1452C27.5651 31.0805 31.9055 27.845 33.7193 22.7975C34.108 21.6327 34.3672 20.4032 34.4319 19.2384C34.4319 18.9148 34.4319 18.5912 34.4319 18.2677C34.4319 18.1383 34.4319 18.0735 34.4319 17.9441C34.4319 17.8147 34.4319 17.6853 34.4319 17.6206C34.4319 17.4911 34.4319 17.3617 34.4319 17.2323C34.3672 17.8147 34.1728 18.4618 33.9785 19.0442C32.2294 23.9623 26.8525 26.5507 21.8643 24.8035C21.8643 24.8035 16.2931 22.8622 15.5157 15.5498C15.4509 15.1615 15.4509 14.7733 15.4509 14.7733C15.4509 14.385 15.4509 13.6732 15.5805 12.5731C15.7101 11.473 15.9692 9.91991 16.2931 9.01395C18.0422 4.03118 22.3178 0.795622 26.7877 0.666199C27.1116 0.666199 27.5003 0.666203 27.889 0.730914C28.7312 0.795626 29.5085 0.989767 30.2211 1.1839C30.2211 1.1839 30.2211 1.1839 30.2859 1.1839C29.962 1.05448 29.7029 0.989767 29.379 0.860345Z" fill="#878787"/>
<path d="M27.8242 17.6853C27.8242 17.8148 27.7594 17.8795 27.7594 18.0089C27.7594 18.1383 27.6946 18.203 27.6299 18.3325C27.5651 18.4619 27.5003 18.5266 27.5003 18.656C27.4355 18.7207 27.3707 18.8502 27.306 18.9149C27.2412 18.9796 27.1764 19.109 27.1116 19.1737C27.0468 19.2384 26.982 19.3678 26.8525 19.4325C26.6581 19.6267 26.5286 19.7561 26.3342 19.8208C26.1399 19.9502 25.9455 20.0797 25.7512 20.1444C25.6216 20.2091 25.5568 20.2091 25.4273 20.2738C25.2977 20.3385 25.2329 20.3385 25.1034 20.3385C24.6499 20.4032 24.1964 20.4032 23.743 20.3385C23.6134 20.3385 23.5486 20.2738 23.4191 20.2738C23.2895 20.2091 23.2247 20.2091 23.0951 20.1444C22.9008 20.0797 22.7065 19.9502 22.5121 19.8208C22.3825 19.7561 22.3178 19.6914 22.253 19.6267C22.1882 19.562 22.0586 19.4973 21.9939 19.4325C21.9291 19.3678 21.8643 19.2384 21.7995 19.1737C21.7347 19.109 21.67 18.9796 21.6052 18.9149C21.4756 18.7854 21.4108 18.5913 21.2813 18.3325C21.2165 18.2678 21.2165 18.1383 21.1517 18.0089C21.0869 17.8795 21.0869 17.8148 21.0869 17.6853C21.0221 17.4912 21.0221 17.2324 21.0221 16.9735V15.4205C21.0221 15.2263 21.0221 14.9675 21.0869 14.7733C21.0869 14.6439 21.1517 14.5792 21.1517 14.4498C21.2165 14.3204 21.2165 14.2556 21.2813 14.1262C21.346 13.9321 21.4756 13.7379 21.6052 13.5438C21.7347 13.3497 21.8643 13.2203 21.9939 13.0261C22.0586 12.9614 22.1882 12.8967 22.253 12.832C22.3178 12.7673 22.4473 12.7026 22.5121 12.6378C22.7065 12.5084 22.9008 12.4437 23.0951 12.3143C23.2895 12.2496 23.5486 12.1849 23.743 12.1202C24.1964 11.9907 24.6499 11.9907 25.1034 12.1202C25.2977 12.1849 25.5568 12.2496 25.7512 12.3143C25.9455 12.4437 26.1399 12.5084 26.3342 12.6378C26.399 12.7026 26.5286 12.7673 26.5934 12.832C26.6581 12.8967 26.7229 12.9614 26.8525 13.0261C27.0468 13.1555 27.1764 13.3497 27.2412 13.5438C27.3707 13.7379 27.4355 13.8674 27.5651 14.1262C27.6299 14.3204 27.6946 14.5145 27.7594 14.7733H27.8242L30.8689 13.2202C30.8042 13.0908 30.8042 12.9614 30.7394 12.832C30.545 12.379 30.3507 12.0555 30.0916 11.7319C29.8324 11.3436 29.5733 11.0201 29.2494 10.7612C28.9255 10.4377 28.6016 10.1788 28.2129 9.91998C27.889 9.66114 27.5003 9.46699 27.0468 9.33756C26.8525 9.27285 26.6581 9.20815 26.399 9.14344C26.2047 9.07873 25.9455 9.01402 25.7512 8.94931C24.8442 8.75518 23.9373 8.75518 23.0304 8.94931C22.836 9.01402 22.5769 9.01402 22.3825 9.14344C22.1882 9.20815 21.9291 9.27285 21.7347 9.33756C21.346 9.5317 20.9574 9.72585 20.5687 9.91998C20.18 10.1788 19.8561 10.4377 19.5322 10.7612C19.4026 10.8906 19.2082 11.0848 19.0787 11.2142C18.9491 11.4083 18.8196 11.5378 18.69 11.7319C18.5604 11.926 18.4309 12.1202 18.3661 12.3143C18.2365 12.5084 18.1717 12.7026 18.0422 12.8967C17.9774 13.0908 17.9126 13.285 17.8478 13.5438C17.7831 13.7379 17.7183 13.9968 17.6535 14.1909C17.5887 14.6439 17.5239 15.0969 17.5239 15.5499V17.1029C17.5239 17.5559 17.5887 18.0089 17.6535 18.4619C17.7831 18.9149 17.9126 19.3678 18.0422 19.7561C18.2365 20.1444 18.4309 20.5326 18.69 20.9209C18.9491 21.3092 19.2082 21.6327 19.5322 21.8916C19.6617 22.021 19.8561 22.2151 19.9856 22.3446C20.18 22.474 20.3095 22.6034 20.5039 22.7328C20.6982 22.8623 20.8926 22.9917 21.0869 23.0564C21.2813 23.1858 21.4756 23.2505 21.6699 23.3799C21.8643 23.4447 22.0586 23.5094 22.3178 23.5741C22.5121 23.6388 22.7712 23.7035 22.9656 23.7682C23.1599 23.8329 23.4191 23.8329 23.6134 23.8976C23.8725 23.8976 24.0669 23.9623 24.326 23.9623C24.5851 23.9623 24.7795 23.9623 25.0386 23.8976C25.2329 23.8976 25.4921 23.8329 25.7512 23.7682C25.9455 23.7035 26.2047 23.7035 26.399 23.5741C26.5934 23.5094 26.8525 23.4447 27.0468 23.3799C27.2412 23.3152 27.4355 23.1858 27.6299 23.0564C27.8242 22.927 28.0186 22.8623 28.2129 22.7328C28.4072 22.6034 28.6016 22.474 28.7311 22.3446C28.9255 22.2151 29.0551 22.0857 29.1846 21.8916C29.3142 21.7622 29.5085 21.568 29.6381 21.4386C29.7677 21.2445 29.8972 21.1151 30.0268 20.9209C30.2859 20.5326 30.4803 20.1444 30.6746 19.7561C30.8042 19.4325 30.9337 19.0443 31.0633 18.656L27.8242 17.6853Z" fill="#878787"/>
<path d="M26.5286 16.391L33.5898 18.4618L31.7111 15.8733L33.0715 13.026L26.5286 16.391Z" fill="#878787"/>
<path d="M24.4556 53.1471C24.1317 53.1471 23.8726 53.1471 23.5486 53.0824C23.2247 53.0177 22.9656 53.0177 22.7065 52.953C22.4474 52.8883 22.1234 52.8236 21.8643 52.7588C21.6052 52.6941 21.3461 52.5647 21.0869 52.5C20.8278 52.3706 20.5687 52.2412 20.3743 52.1117C20.1152 51.9823 19.8561 51.8529 19.597 51.6587C19.3378 51.5293 19.1435 51.3352 18.9491 51.2058C18.7548 51.0116 18.5605 50.8175 18.3661 50.6233C17.9774 50.2351 17.5887 49.8468 17.3296 49.3938C17.0057 48.9409 16.7466 48.4232 16.4874 47.9055C16.2931 47.3878 16.0988 46.8701 15.9692 46.2877C15.8396 45.77 15.8396 45.1876 15.8396 44.5405V42.5344C15.8396 41.952 15.9044 41.3697 15.9692 40.7873C16.034 40.5284 16.0988 40.2048 16.1635 39.946C16.2283 39.6871 16.3579 39.4283 16.4227 39.1695C16.5522 38.9106 16.6818 38.6518 16.8114 38.4576C16.9409 38.1988 17.0705 38.0047 17.2648 37.7458C17.3944 37.487 17.5887 37.2928 17.7831 37.0987C17.9774 36.9046 18.1718 36.7104 18.3661 36.5163C18.7548 36.128 19.1435 35.8045 19.6617 35.4809C20.1152 35.1574 20.6335 34.8985 21.1517 34.7044C21.4108 34.5749 21.67 34.5102 21.9291 34.4455C22.1882 34.3808 22.5121 34.3161 22.7713 34.2514C23.9373 33.9925 25.1034 33.9925 26.2695 34.2514C26.5286 34.3161 26.8525 34.3808 27.1116 34.4455C27.3708 34.5102 27.6299 34.6397 27.889 34.7044C28.4073 34.8985 28.9255 35.2221 29.379 35.4809C29.8325 35.8045 30.2859 36.128 30.6746 36.5163C31.0633 36.9045 31.3872 37.2928 31.7111 37.8105C32.035 38.1988 32.2942 38.7165 32.4885 39.2342C32.6828 39.7519 32.8772 40.2695 33.0068 40.8519L28.7312 41.6932C28.6664 41.4343 28.6016 41.1755 28.472 40.9166C28.3425 40.6578 28.2129 40.399 28.0186 40.2048C27.889 40.0107 27.6947 39.7519 27.5003 39.5577C27.4355 39.4283 27.306 39.3636 27.1764 39.2989C27.0468 39.2341 26.9821 39.1695 26.8525 39.04C26.6582 38.9106 26.399 38.7812 26.1399 38.6517C25.8808 38.5223 25.6217 38.4576 25.2977 38.3929C24.7147 38.2635 24.1317 38.2635 23.5486 38.3929C23.2895 38.4576 22.9656 38.5223 22.7065 38.6517C22.4474 38.7812 22.1882 38.9106 21.9939 39.04C21.8643 39.1047 21.7348 39.2341 21.67 39.2989C21.5404 39.3636 21.4756 39.493 21.3461 39.5577C21.1517 39.7519 20.9574 39.946 20.8278 40.2048C20.6335 40.4637 20.5039 40.7225 20.4391 40.9166C20.3743 41.0461 20.3096 41.1755 20.3096 41.3049C20.2448 41.4344 20.2448 41.5638 20.18 41.6932C20.1152 42.0167 20.1152 42.2756 20.1152 42.5344V44.5405C20.1152 44.8641 20.1152 45.1229 20.18 45.4464C20.2448 45.5759 20.2448 45.7053 20.3096 45.8347C20.3743 45.9641 20.3743 46.0936 20.4391 46.223C20.5687 46.5465 20.6983 46.7407 20.8278 46.9348C20.8926 47.0642 21.0222 47.1937 21.0869 47.2584C21.1517 47.3878 21.2813 47.4525 21.3461 47.5819C21.4756 47.6466 21.5404 47.776 21.67 47.8408C21.7995 47.9055 21.8643 48.0349 21.9939 48.0996C22.253 48.2938 22.5121 48.4232 22.7065 48.4879C22.836 48.5526 22.9656 48.6173 23.0952 48.6173C23.2247 48.682 23.3543 48.682 23.4839 48.7467C24.0669 48.8762 24.6499 48.8762 25.233 48.7467C25.3625 48.682 25.4921 48.682 25.6217 48.6173C25.7512 48.5526 25.8808 48.5526 26.0103 48.4879C26.2695 48.4232 26.5286 48.2938 26.7229 48.0996C26.9173 47.9702 27.1764 47.7761 27.3708 47.5819C27.5003 47.4525 27.5651 47.3878 27.6947 47.2584C27.7594 47.129 27.889 47.0642 27.9538 46.9348C28.0186 46.8054 28.1481 46.7407 28.1481 46.6113C28.2129 46.4818 28.2777 46.3524 28.3425 46.223C28.4073 46.0936 28.472 45.9641 28.472 45.8347C28.5368 45.7053 28.5368 45.5759 28.6016 45.4464L32.8772 46.2877C32.7476 46.8701 32.6181 47.3878 32.3589 47.9055C32.1646 48.4232 31.9055 48.8762 31.5816 49.3938C31.452 49.588 31.2577 49.8468 31.0633 50.041C30.869 50.2351 30.6746 50.4292 30.4803 50.6233C30.2859 50.8175 30.0916 51.0116 29.8972 51.2058C29.7029 51.3999 29.4438 51.5293 29.1846 51.6587C28.9255 51.7882 28.7312 51.9823 28.472 52.1117C28.2129 52.2412 27.9538 52.3706 27.7594 52.5C27.5003 52.6294 27.2412 52.6941 26.9821 52.7588C26.7229 52.8236 26.399 52.8883 26.1399 52.953C25.816 53.0177 25.5569 53.0177 25.233 53.0824C25.0386 53.1471 24.7147 53.1471 24.4556 53.1471Z" fill="#878787"/>
<path d="M42.724 53.1471C42.4001 53.1471 42.141 53.1471 41.817 53.0824C41.4931 53.0177 41.234 53.0177 40.9749 52.953C40.7158 52.8883 40.3918 52.8236 40.1327 52.7588C39.8736 52.6941 39.6145 52.5647 39.3553 52.5C39.0962 52.3706 38.8371 52.2412 38.6427 52.1117C38.3836 51.9823 38.1245 51.8529 37.8654 51.6587C37.6062 51.5293 37.4119 51.3352 37.2176 51.2058C37.0232 51.0116 36.8289 50.8175 36.6345 50.6233C36.2458 50.2351 35.8571 49.8468 35.598 49.3938C35.2741 48.9409 35.015 48.4232 34.7558 47.9055C34.5615 47.3878 34.3672 46.8701 34.2376 46.2877C34.108 45.77 34.108 45.1876 34.108 44.5405V42.5344C34.108 41.952 34.1728 41.3697 34.2376 40.7873C34.3024 40.5284 34.3672 40.2048 34.4319 39.946C34.4967 39.6871 34.6263 39.4283 34.6911 39.1695C34.8206 38.9106 34.9502 38.6518 35.0798 38.4576C35.2093 38.1988 35.3389 38.0047 35.5332 37.7458C35.6628 37.487 35.8571 37.2928 36.0515 37.0987C36.2458 36.9046 36.4402 36.7104 36.6345 36.5163C37.0232 36.128 37.4119 35.8045 37.9301 35.4809C38.3836 35.1574 38.9019 34.8985 39.4201 34.7044C39.6792 34.5749 39.9384 34.5102 40.1975 34.4455C40.4566 34.3808 40.7805 34.3161 41.0397 34.2514C42.2057 33.9925 43.3718 33.9925 44.5379 34.2514C44.797 34.3161 45.1209 34.3808 45.38 34.4455C45.6392 34.5102 45.8983 34.6397 46.1574 34.7044C46.6757 34.8985 47.1939 35.2221 47.6474 35.4809C48.1009 35.8045 48.5543 36.128 48.943 36.5163C49.3317 36.9045 49.6556 37.2928 49.9795 37.8105C50.3034 38.1988 50.5626 38.7165 50.7569 39.2342C50.9512 39.7519 51.1456 40.2695 51.2752 40.8519L46.9996 41.6932C46.9348 41.4343 46.87 41.1755 46.7404 40.9166C46.6109 40.6578 46.4813 40.399 46.287 40.2048C46.1574 40.0107 45.9631 39.7519 45.7687 39.5577C45.7039 39.4283 45.5744 39.3636 45.4448 39.2989C45.3152 39.2341 45.2505 39.1695 45.1209 39.04C44.9266 38.9106 44.6674 38.7812 44.4083 38.6517C44.1492 38.5223 43.8901 38.4576 43.5661 38.3929C42.9831 38.2635 42.4001 38.2635 41.817 38.3929C41.5579 38.4576 41.234 38.5223 40.9749 38.6517C40.7158 38.7812 40.4566 38.9106 40.2623 39.04C40.1327 39.1047 40.0032 39.2341 39.9384 39.2989C39.8088 39.3636 39.744 39.493 39.6145 39.5577C39.4201 39.7519 39.2258 39.946 39.0962 40.2048C38.9019 40.4637 38.7723 40.7225 38.7075 40.9166C38.6427 41.0461 38.578 41.1755 38.578 41.3049C38.5132 41.4344 38.5132 41.5638 38.4484 41.6932C38.3836 42.0167 38.3836 42.2756 38.3836 42.5344V44.5405C38.3836 44.8641 38.3836 45.1229 38.4484 45.4464C38.5132 45.5759 38.5132 45.7053 38.578 45.8347C38.6427 45.9641 38.6427 46.0936 38.7075 46.223C38.8371 46.5465 38.9667 46.7407 39.0962 46.9348C39.161 47.0642 39.2906 47.1937 39.3553 47.2584C39.4201 47.3878 39.5497 47.4525 39.6145 47.5819C39.744 47.6466 39.8088 47.776 39.9384 47.8408C40.0679 47.9055 40.1327 48.0349 40.2623 48.0996C40.5214 48.2938 40.7805 48.4232 40.9749 48.4879C41.1044 48.5526 41.234 48.6173 41.3636 48.6173C41.4931 48.682 41.6227 48.682 41.7523 48.7467C42.3353 48.8762 42.9183 48.8762 43.5014 48.7467C43.6309 48.682 43.7605 48.682 43.8901 48.6173C44.0196 48.5526 44.1492 48.5526 44.2787 48.4879C44.5379 48.4232 44.797 48.2938 44.9913 48.0996C45.1857 47.9702 45.4448 47.7761 45.6392 47.5819C45.7687 47.4525 45.8335 47.3878 45.9631 47.2584C46.0278 47.129 46.1574 47.0642 46.2222 46.9348C46.287 46.8054 46.4165 46.7407 46.4165 46.6113C46.4813 46.4818 46.5461 46.3524 46.6109 46.223C46.6757 46.0936 46.7404 45.9641 46.7404 45.8347C46.8052 45.7053 46.8052 45.5759 46.87 45.4464L51.1456 46.2877C51.016 46.8701 50.8865 47.3878 50.6273 47.9055C50.433 48.4232 50.1739 48.8762 49.85 49.3938C49.7204 49.588 49.5261 49.8468 49.3317 50.041C49.1374 50.2351 48.943 50.4292 48.7487 50.6233C48.5543 50.8175 48.36 51.0116 48.1656 51.2058C47.9713 51.3999 47.7122 51.5293 47.453 51.6587C47.1939 51.7882 46.9996 51.9823 46.7404 52.1117C46.4813 52.2412 46.2222 52.3706 46.0278 52.5C45.7687 52.6294 45.5096 52.6941 45.2505 52.7588C44.9913 52.8236 44.6674 52.8883 44.4083 52.953C44.0844 53.0177 43.8253 53.0177 43.5014 53.0824C43.307 53.1471 43.0479 53.1471 42.724 53.1471Z" fill="#878787"/>
<path d="M7.67714 53.2119C6.70542 53.2119 5.79847 53.0177 4.89153 52.6942C3.98459 52.3059 3.27199 51.8529 2.55939 51.2058C1.91158 50.6234 1.32854 49.9116 0.939855 49.0703C0.551165 48.2291 0.35682 47.3879 0.35682 46.4819H4.76197C4.76197 46.8055 4.82675 47.0643 5.0211 47.3878C5.21544 47.6467 5.40979 47.9055 5.66891 48.1644C5.92804 48.3585 6.25195 48.5526 6.57585 48.6821C6.89976 48.8115 7.28845 48.8762 7.67714 48.8762C8.00105 48.8762 8.38974 48.8115 8.71365 48.6821C9.03755 48.5526 9.36146 48.3585 9.62059 48.1644C9.87972 47.9702 10.1388 47.7114 10.2684 47.3878C10.4628 47.129 10.5275 46.8055 10.5275 46.4819C10.398 46.3525 10.2036 46.2877 9.9445 46.223C9.68537 46.1583 9.36146 46.0289 9.03755 45.9642C8.71365 45.8995 8.38974 45.8348 8.06583 45.77C7.74192 45.7053 7.41802 45.6406 7.15889 45.5759C6.44629 45.4465 5.73369 45.3171 4.89153 45.1229C4.11415 44.9288 3.33677 44.67 2.62418 44.2817C1.91158 43.8934 1.32854 43.4404 0.875073 42.858C0.421602 42.2756 0.162476 41.4991 0.162476 40.5284C0.162476 39.6225 0.35682 38.7812 0.74551 37.94C1.1342 37.0987 1.65245 36.3869 2.36505 35.8045C3.01287 35.1574 3.79025 34.7044 4.69719 34.3161C5.60413 33.9279 6.51107 33.7985 7.4828 33.7985C8.45452 33.7985 9.36146 33.9926 10.2684 34.3809C11.1753 34.7691 11.8879 35.2221 12.6005 35.8692C13.2484 36.5163 13.8314 37.2281 14.2201 38.0047C14.6088 38.8459 14.8031 39.6872 14.8031 40.5931H10.4628C10.4628 40.2696 10.398 39.946 10.2036 39.6872C10.0093 39.3636 9.81493 39.1048 9.55581 38.9107C9.29668 38.7165 8.97277 38.5224 8.64887 38.393C8.32496 38.2636 7.93627 38.1988 7.54758 38.1988C7.15889 38.1988 6.83498 38.2636 6.44629 38.393C6.12238 38.5224 5.79847 38.7165 5.53935 38.9107C5.28022 39.1048 5.0211 39.3636 4.89153 39.6872C4.69719 39.946 4.63241 40.2696 4.63241 40.5931C4.76197 40.7226 4.95631 40.7873 5.21544 40.852C5.47457 40.9167 5.79847 41.0461 6.12238 41.1109C6.44629 41.1756 6.7702 41.2403 7.09411 41.305C7.41801 41.3697 7.74192 41.4344 8.00105 41.4991C8.64887 41.6285 9.42625 41.8227 10.2036 41.9521C10.981 42.1462 11.7584 42.4051 12.4062 42.7933C13.1188 43.1816 13.637 43.6346 14.1553 44.217C14.6088 44.7994 14.8679 45.5759 14.8679 46.5466C14.8679 47.4525 14.6736 48.2938 14.2849 49.135C13.8962 49.9763 13.3779 50.6881 12.6653 51.2705C11.9527 51.8529 11.2401 52.3706 10.3332 52.7589C9.55581 53.0177 8.58408 53.2119 7.67714 53.2119Z" fill="#878787"/>
<path d="M1.65246 56.318C1.8468 56.3827 1.97636 56.3827 2.04115 56.4474C2.17071 56.5121 2.23549 56.5769 2.30027 56.6416C2.36505 56.7063 2.42983 56.771 2.42983 56.8357C2.42983 56.9004 2.42983 56.9651 2.42983 57.0298C2.42983 57.0945 2.42983 57.224 2.36505 57.2887C2.30027 57.3534 2.23549 57.4181 2.17071 57.4828C2.10593 57.5475 1.97636 57.6122 1.91158 57.6122C1.78202 57.677 1.71724 57.6769 1.58767 57.6769C1.45811 57.6769 1.39333 57.677 1.26377 57.6122C1.1342 57.6122 1.06942 57.5475 1.00464 57.4828C0.939858 57.4181 0.875077 57.3534 0.810296 57.2887C0.745514 57.224 0.745514 57.1592 0.745514 57.0298L1.00464 56.9651C1.00464 57.0945 1.1342 57.1592 1.19898 57.2239C1.32855 57.2887 1.45811 57.3534 1.58767 57.3534C1.65246 57.3534 1.71724 57.3534 1.78202 57.3534C1.8468 57.3534 1.91158 57.2887 1.97636 57.2887C2.04114 57.224 2.04115 57.224 2.10593 57.1593C2.10593 57.0945 2.17071 57.0945 2.17071 57.0298C2.17071 56.8357 1.97636 56.6415 1.58767 56.5768C1.52289 56.5768 1.39333 56.5121 1.32855 56.5121C1.26377 56.5121 1.1342 56.4474 1.06942 56.3827C1.00464 56.318 0.939858 56.2533 0.875077 56.1886C0.810295 56.1239 0.810296 55.9944 0.810296 55.9297C0.810296 55.865 0.810295 55.7356 0.875077 55.6709C0.939858 55.6062 0.939859 55.5414 1.06942 55.4767C1.1342 55.412 1.19898 55.3473 1.32855 55.3473C1.45811 55.2826 1.52289 55.2826 1.65246 55.2826C1.78202 55.2826 1.8468 55.2826 1.97636 55.3473C2.04114 55.3473 2.17071 55.412 2.23549 55.4767C2.30027 55.5414 2.36505 55.6062 2.42983 55.6709C2.49462 55.7356 2.49462 55.8003 2.49462 55.9297L2.23549 55.9944C2.23549 55.865 2.17071 55.8003 2.04115 55.7356C1.97636 55.6709 1.8468 55.6062 1.71724 55.6062C1.58767 55.6062 1.45811 55.6709 1.39333 55.7356C1.32855 55.8003 1.26377 55.865 1.26377 55.9944C1.26377 56.0592 1.26377 56.0591 1.26377 56.1238C1.26377 56.1886 1.32855 56.1886 1.32855 56.1886C1.39333 56.1886 1.39333 56.2533 1.52289 56.2533C1.45811 56.2533 1.52289 56.2533 1.65246 56.318Z" fill="#878787"/>
<path d="M4.24371 55.6708V56.3827H5.40978V56.7062H4.24371V57.418H5.47456V57.7416H3.9198V55.412H5.47456V55.7355H4.24371V55.6708Z" fill="#878787"/>
<path d="M8.77842 55.3474V57.677H8.45452L7.28845 55.8651V57.677H6.96454V55.3474H7.28845L8.45452 57.1593V55.3474H8.77842Z" fill="#878787"/>
<path d="M10.4627 55.3474H10.7866V57.677H10.4627V55.3474Z" fill="#878787"/>
<path d="M13.5075 55.2826C13.7018 55.2826 13.8314 55.3473 13.961 55.412C14.0905 55.4767 14.2201 55.5415 14.3496 55.6709C14.4792 55.8003 14.544 55.9297 14.6088 56.0591C14.6736 56.1886 14.7383 56.3827 14.7383 56.5121C14.7383 56.7063 14.6736 56.8357 14.6088 56.9651C14.544 57.0946 14.4792 57.224 14.3496 57.3534C14.2201 57.4828 14.0905 57.5475 13.961 57.6122C13.8314 57.677 13.637 57.7416 13.5075 57.7416C13.3131 57.7416 13.1836 57.677 12.9892 57.6122C12.8597 57.5475 12.7301 57.4828 12.6005 57.3534C12.471 57.224 12.4062 57.0946 12.3414 56.9651C12.2766 56.8357 12.2119 56.6416 12.2119 56.5121C12.2119 56.318 12.2766 56.1886 12.3414 56.0591C12.4062 55.9297 12.471 55.8003 12.6005 55.6709C12.7301 55.5415 12.8597 55.4767 12.9892 55.412C13.1836 55.2826 13.3779 55.2826 13.5075 55.2826ZM13.5075 57.4181C13.637 57.4181 13.7666 57.4181 13.8962 57.3534C14.0257 57.2887 14.0905 57.224 14.2201 57.1593C14.2849 57.0945 14.3496 56.9651 14.4144 56.8357C14.4792 56.7063 14.4792 56.5768 14.4792 56.4474C14.4792 56.318 14.4792 56.1886 14.4144 56.0591C14.3496 55.9297 14.2849 55.865 14.2201 55.7356C14.1553 55.6709 14.0257 55.6062 13.8962 55.5415C13.7666 55.4767 13.637 55.4767 13.5075 55.4767C13.3779 55.4767 13.2484 55.4767 13.1188 55.5415C12.9892 55.6062 12.9244 55.6709 12.7949 55.7356C12.7301 55.8003 12.6653 55.9297 12.6005 56.0591C12.5358 56.1886 12.5358 56.318 12.5358 56.4474C12.5358 56.5768 12.5358 56.7063 12.6005 56.8357C12.6653 56.9651 12.7301 57.0298 12.7949 57.1593C12.8597 57.224 12.9892 57.2887 13.1188 57.3534C13.3131 57.4181 13.3779 57.4181 13.5075 57.4181Z" fill="#878787"/>
<path d="M18.0422 56.0592C18.0422 56.1239 18.0422 56.2534 17.9774 56.3181C17.9126 56.3828 17.9126 56.4475 17.8479 56.5122C17.7831 56.5769 17.7183 56.6416 17.6535 56.7064C17.5887 56.7711 17.4592 56.771 17.3944 56.771L18.0422 57.677H17.6535L17.0057 56.8358H16.617V57.677H16.2931V55.3474H17.3296C17.4592 55.3474 17.5239 55.3474 17.5887 55.4121C17.6535 55.4768 17.7831 55.4768 17.8479 55.5415C17.9126 55.6063 17.9774 55.6709 17.9774 55.8004C18.0422 55.8651 18.0422 55.9945 18.0422 56.0592ZM17.3296 56.5122C17.3944 56.5122 17.4592 56.5122 17.5239 56.4475C17.5887 56.4475 17.5887 56.3828 17.6535 56.3828C17.7183 56.3181 17.7183 56.3181 17.7183 56.2534C17.7183 56.1886 17.7183 56.1239 17.7183 56.0592C17.7183 55.9945 17.7183 55.9298 17.7183 55.8651C17.7183 55.8004 17.6535 55.7357 17.6535 55.7357C17.5887 55.671 17.5887 55.671 17.5239 55.671C17.4592 55.671 17.3944 55.6062 17.3296 55.6062H16.617V56.4475H17.3296V56.5122Z" fill="#878787"/>
<path d="M22.1882 57.4181C22.3826 57.4181 22.5121 57.3535 22.6417 57.2887C22.7712 57.224 22.9008 57.0946 22.9656 56.9652L23.2247 57.1593C23.1599 57.224 23.0952 57.3534 23.0304 57.4181C22.9656 57.4828 22.9008 57.5476 22.7713 57.6123C22.7065 57.677 22.5769 57.677 22.5121 57.7417C22.3826 57.7417 22.3178 57.8064 22.1882 57.8064C21.9939 57.8064 21.8643 57.7417 21.7347 57.677C21.6052 57.6123 21.4756 57.5476 21.3461 57.4181C21.2165 57.2887 21.1517 57.1593 21.0869 57.0299C21.0221 56.9005 20.9574 56.7063 20.9574 56.5769C20.9574 56.3828 21.0221 56.2533 21.0869 56.1239C21.1517 55.9945 21.2165 55.8651 21.3461 55.7357C21.4756 55.6062 21.6052 55.5415 21.7347 55.4768C21.8643 55.4121 22.0587 55.3474 22.1882 55.3474C22.3826 55.3474 22.5769 55.4121 22.7713 55.4768C22.9656 55.5415 23.0952 55.7357 23.2247 55.8651L22.9656 56.0592C22.9008 55.9298 22.7712 55.8004 22.6417 55.7357C22.5121 55.671 22.3826 55.6062 22.1882 55.6062C22.0587 55.6062 21.9291 55.6063 21.7995 55.671C21.67 55.7357 21.6052 55.8004 21.4756 55.8651C21.4108 55.9298 21.3461 56.0592 21.2813 56.1886C21.2165 56.3181 21.2165 56.4475 21.2165 56.5769C21.2165 56.7063 21.2165 56.8358 21.2813 56.9652C21.3461 57.0946 21.4108 57.1593 21.4756 57.2887C21.5404 57.4182 21.67 57.4182 21.7995 57.4829C21.9939 57.4182 22.0587 57.4181 22.1882 57.4181Z" fill="#878787"/>
<path d="M25.816 55.2826C26.0103 55.2826 26.1399 55.3473 26.2695 55.412C26.399 55.4767 26.5286 55.5415 26.6581 55.6709C26.7877 55.8003 26.8525 55.9297 26.9173 56.0591C26.9821 56.1886 27.0468 56.3827 27.0468 56.5121C27.0468 56.7063 26.9821 56.8357 26.9173 56.9651C26.8525 57.0946 26.7877 57.224 26.6581 57.3534C26.5286 57.4828 26.399 57.5475 26.2695 57.6122C26.1399 57.677 25.9455 57.7416 25.816 57.7416C25.6216 57.7416 25.4921 57.677 25.2977 57.6122C25.1682 57.5475 25.0386 57.4828 24.909 57.3534C24.7795 57.224 24.7147 57.0946 24.6499 56.9651C24.5851 56.8357 24.5204 56.6416 24.5204 56.5121C24.5204 56.318 24.5851 56.1886 24.6499 56.0591C24.7147 55.9297 24.7795 55.8003 24.909 55.6709C25.0386 55.5415 25.1682 55.4767 25.2977 55.412C25.4921 55.2826 25.6864 55.2826 25.816 55.2826ZM25.816 57.4181C25.9455 57.4181 26.0751 57.4181 26.2047 57.3534C26.3342 57.2887 26.399 57.224 26.5286 57.1593C26.5934 57.0945 26.6581 56.9651 26.7229 56.8357C26.7877 56.7063 26.7877 56.5768 26.7877 56.4474C26.7877 56.318 26.7877 56.1886 26.7229 56.0591C26.6581 55.9297 26.5934 55.865 26.5286 55.7356C26.4638 55.6709 26.3342 55.6062 26.2047 55.5415C26.0751 55.4767 25.9455 55.4767 25.816 55.4767C25.6864 55.4767 25.5569 55.4767 25.4273 55.5415C25.2977 55.6062 25.233 55.6709 25.1034 55.7356C25.0386 55.8003 24.9738 55.9297 24.909 56.0591C24.8443 56.1886 24.8443 56.318 24.8443 56.4474C24.8443 56.5768 24.8443 56.7063 24.909 56.8357C24.9738 56.9651 25.0386 57.0298 25.1034 57.1593C25.1682 57.224 25.2977 57.2887 25.4273 57.3534C25.6216 57.4181 25.6864 57.4181 25.816 57.4181Z" fill="#878787"/>
<path d="M30.8042 55.3474V57.677H30.4803V55.9298L29.7029 57.1593L28.9255 55.9298V57.677H28.6016V55.3474H28.9255L29.7029 56.5769L30.4803 55.3474H30.8042Z" fill="#878787"/>
<path d="M33.3954 55.3474C33.525 55.3474 33.5898 55.3474 33.7193 55.4121C33.8489 55.4768 33.9137 55.5415 33.9785 55.6062C34.0433 55.6709 34.108 55.7357 34.1728 55.8651C34.2376 55.9945 34.2376 56.0592 34.2376 56.1887C34.2376 56.3181 34.2376 56.3828 34.1728 56.5122C34.108 56.6416 34.0433 56.7063 33.9785 56.771C33.9137 56.8358 33.8489 56.9005 33.7193 56.9652C33.5898 57.0299 33.525 57.0299 33.3954 57.0299H32.8124V57.7417H32.4885V55.4121H33.3954V55.3474ZM33.3954 56.6417C33.4602 56.6417 33.525 56.6416 33.5898 56.5769C33.6546 56.5122 33.7193 56.5122 33.7193 56.4475C33.7841 56.3828 33.7841 56.3181 33.8489 56.2534C33.8489 56.1886 33.9137 56.1239 33.9137 56.0592C33.9137 55.9945 33.9137 55.9298 33.8489 55.8651C33.8489 55.8004 33.7841 55.7357 33.7193 55.671C33.6546 55.6063 33.5898 55.6063 33.5898 55.5415C33.525 55.5415 33.4602 55.4768 33.3954 55.4768H32.8124V56.5122H33.3954V56.6417Z" fill="#878787"/>
<path d="M37.7358 55.3474V56.7064C37.7358 56.9005 37.7358 57.0299 37.671 57.1593C37.6062 57.2888 37.5415 57.4182 37.4767 57.4829C37.4119 57.5476 37.2823 57.677 37.1528 57.677C37.0232 57.7417 36.8936 57.7417 36.7641 57.7417C36.4402 57.7417 36.181 57.677 36.0515 57.4829C35.8571 57.2888 35.7924 57.0299 35.7924 56.7064V55.3474H36.0515V55.8651V56.6417C36.0515 57.1594 36.3106 57.4182 36.7641 57.4182C36.8936 57.4182 36.9584 57.4182 37.0232 57.3535C37.088 57.3535 37.1528 57.2888 37.2176 57.224C37.2823 57.1593 37.2823 57.0946 37.3471 57.0946C37.3471 57.0299 37.4119 56.9652 37.4119 56.9005C37.4119 56.8358 37.4119 56.771 37.4119 56.771C37.4119 56.7063 37.4119 56.7064 37.4119 56.6417V55.8651V55.3474H37.7358Z" fill="#878787"/>
<path d="M40.4566 57.4181C40.651 57.4181 40.7806 57.3535 40.9101 57.2887C41.0397 57.224 41.1692 57.0946 41.234 56.9652L41.4932 57.1593C41.4284 57.224 41.3636 57.3534 41.2988 57.4181C41.234 57.4828 41.1692 57.5476 41.0397 57.6123C40.9749 57.677 40.8453 57.677 40.7806 57.7417C40.651 57.7417 40.5862 57.8064 40.4566 57.8064C40.2623 57.8064 40.1327 57.7417 40.0032 57.677C39.8736 57.6123 39.7441 57.5476 39.6145 57.4181C39.4849 57.2887 39.4201 57.1593 39.3554 57.0299C39.2906 56.9005 39.2258 56.7063 39.2258 56.5769C39.2258 56.3828 39.2906 56.2533 39.3554 56.1239C39.4201 55.9945 39.4849 55.8651 39.6145 55.7357C39.7441 55.6062 39.8736 55.5415 40.0032 55.4768C40.1327 55.4121 40.3271 55.3474 40.4566 55.3474C40.651 55.3474 40.8453 55.4121 41.0397 55.4768C41.234 55.6062 41.3636 55.7357 41.4932 55.8651L41.234 56.0592C41.1692 55.9298 41.0397 55.8004 40.9101 55.7357C40.7806 55.671 40.651 55.6062 40.4566 55.6062C40.3271 55.6062 40.1975 55.6063 40.068 55.671C39.9384 55.7357 39.8736 55.8004 39.744 55.8651C39.6793 55.9298 39.6145 56.0592 39.5497 56.1886C39.4849 56.3181 39.4849 56.4475 39.4849 56.5769C39.4849 56.7063 39.4849 56.8358 39.5497 56.9652C39.6145 57.0946 39.6793 57.1593 39.744 57.2887C39.8088 57.3535 39.9384 57.4182 40.068 57.4829C40.1975 57.5476 40.3271 57.4181 40.4566 57.4181Z" fill="#878787"/>
<path d="M44.0196 55.3474L44.9913 57.677H44.6674L44.4083 57.0299H43.3718L43.1127 57.677H42.7888L43.7605 55.3474H44.0196ZM43.5014 56.7064H44.2787L43.89 55.8004L43.5014 56.7064Z" fill="#878787"/>
<path d="M48.1656 56.0592C48.1656 56.1239 48.1656 56.2534 48.1009 56.3181C48.0361 56.3828 48.0361 56.4475 47.9713 56.5122C47.9065 56.5769 47.8417 56.6416 47.7769 56.7064C47.7122 56.7711 47.5826 56.771 47.5178 56.771L48.1656 57.677H47.7769L47.1291 56.8358H46.7404V57.677H46.4165V55.3474H47.453C47.5826 55.3474 47.6474 55.3474 47.7122 55.4121C47.7769 55.4768 47.9065 55.4768 47.9713 55.5415C48.0361 55.6063 48.1009 55.6709 48.1009 55.8004C48.1656 55.8651 48.1656 55.9945 48.1656 56.0592ZM47.453 56.5122C47.5178 56.5122 47.5826 56.5122 47.6474 56.4475C47.7122 56.4475 47.7122 56.3828 47.7769 56.3828C47.8417 56.3181 47.8417 56.3181 47.8417 56.2534C47.8417 56.1886 47.8417 56.1239 47.8417 56.0592C47.8417 55.9945 47.8417 55.9298 47.8417 55.8651C47.8417 55.8004 47.7769 55.7357 47.7769 55.7357C47.7122 55.671 47.7122 55.671 47.6474 55.671C47.5826 55.671 47.5178 55.6062 47.453 55.6062H46.7404V56.4475H47.453V56.5122Z" fill="#878787"/>
<path d="M49.85 55.6708V56.3827H51.016V56.7062H49.85V57.418H51.0808V57.7416H49.5261V55.412H51.0808V55.7355H49.85V55.6708Z" fill="#878787"/>
<path d="M21.1517 31.4688C28.8607 34.1867 37.4767 29.7863 40.3271 21.6327C43.1775 13.4791 39.2906 4.67836 31.5168 1.96048C31.1929 1.83106 30.9337 1.76635 30.6098 1.70164C29.5733 1.4428 28.5368 1.24867 27.5003 1.18396C22.9656 1.24867 18.6252 4.48423 16.8114 9.53171C16.4227 10.6965 16.1635 11.926 16.0988 13.0908C16.0988 13.4144 16.0988 13.7379 16.0988 14.0615C16.0988 14.1909 16.0988 14.2556 16.0988 14.3851C16.0988 14.5145 16.0988 14.6439 16.0988 14.7086C16.0988 14.838 16.0988 14.9675 16.0988 15.0969C16.1635 14.5145 16.3579 13.8674 16.5522 13.285C18.3013 8.3669 23.6782 5.77845 28.6664 7.52566C28.6664 7.52566 34.2376 9.46698 35.015 16.7794C35.0798 17.1676 35.0798 17.5559 35.0798 17.5559C35.0798 17.9442 35.0798 18.656 34.9502 19.7561C34.8206 20.8562 34.5615 22.4092 34.2376 23.3152C32.4885 28.298 28.2129 31.5335 23.743 31.6629C23.4191 31.6629 23.0304 31.663 22.6417 31.5982C21.7995 31.5335 21.0222 31.3394 20.3096 31.1453C20.3096 31.1453 20.3096 31.1453 20.2448 31.1453C20.5687 31.2747 20.8926 31.3394 21.1517 31.4688Z" fill="#878787"/>
</svg>
