<svg width="84" height="45" viewBox="0 0 84 45" fill="none" xmlns="http://www.w3.org/2000/svg">
<path d="M0.572476 44.2584C0.961166 44.2584 1.22029 44.1937 1.41464 44.129C1.60898 44.0643 1.80332 43.9349 1.99767 43.7407C2.19201 43.5466 2.32158 43.2878 2.38636 42.9642C2.45114 42.6407 2.51592 42.1877 2.51592 41.5406V34.7459C2.51592 34.0988 2.45114 33.5811 2.38636 33.2575C2.32158 32.9339 2.12723 32.6751 1.93288 32.481C1.60898 32.2221 1.15551 32.0927 0.572476 32.028V31.8339H5.69022C6.79151 31.8339 7.56889 31.8338 7.82801 31.8986C9.12365 32.028 10.2249 32.3515 11.1319 32.9987C11.974 33.5811 12.6866 34.4223 13.1401 35.393C13.5936 36.3637 13.8527 37.4637 13.8527 38.6286C13.8527 39.4698 13.7231 40.3111 13.464 41.0229C13.2049 41.7994 12.8162 42.3818 12.2979 42.8995C11.5853 43.6113 10.7432 44.0643 9.70668 44.2584C8.9293 44.3879 8.15192 44.4526 7.37455 44.4526H0.50769V44.2584H0.572476ZM4.58893 32.1574V41.3464C4.58893 41.9288 4.65371 42.3818 4.7185 42.7054C4.78328 43.0289 4.91284 43.2878 5.10719 43.4819C5.49588 43.9349 6.14369 44.1937 7.05064 44.1937C7.82802 44.1937 8.47583 44.0643 8.99409 43.8055C9.51234 43.5466 10.0306 43.1583 10.4193 42.5759C10.808 42.0582 11.1319 41.4111 11.391 40.6993C11.5853 39.9875 11.7149 39.2757 11.7149 38.4991C11.7149 37.5932 11.5853 36.8166 11.3262 35.9754C11.0671 35.1988 10.6784 34.487 10.1602 33.9046C9.44756 33.0634 8.67018 32.5457 7.69845 32.2868C7.1802 32.1574 6.53238 32.0927 5.69022 32.0927H4.58893V32.1574Z" fill="#878787"/>
<path d="M17.6748 37.9167C17.8692 37.5284 18.1283 37.2049 18.4522 37.0107C18.9704 36.6225 19.5535 36.493 20.2013 36.493C20.59 36.493 20.9139 36.5577 21.1082 36.7519C21.3026 36.8813 21.3674 37.1401 21.3674 37.3343C21.3674 37.5284 21.3026 37.6578 21.173 37.7873C21.0435 37.9167 20.9139 37.9814 20.7195 37.9814C20.5252 37.9814 20.3309 37.9167 20.2013 37.7225L19.9422 37.399C19.683 37.1401 19.4239 37.0107 19.1648 37.0107C18.7761 37.0107 18.3874 37.2696 18.1931 37.852C17.9339 38.3697 17.8692 39.1462 17.8692 40.1169V41.8641V42.5759C17.8692 42.9641 17.8692 43.2877 17.9339 43.4818C17.9987 43.676 18.0635 43.8054 18.1931 43.9348C18.3874 44.129 18.7113 44.2584 19.1648 44.3231V44.5172H15.0836V44.3231C15.4722 44.2584 15.7314 44.1937 15.8609 44.129C15.9905 44.0642 16.1201 43.8701 16.2496 43.676C16.3144 43.5466 16.3792 43.3524 16.3792 43.0289C16.3792 42.77 16.444 42.317 16.444 41.7993V39.5344C16.444 38.8873 16.444 38.4344 16.3792 38.1755C16.3792 37.9167 16.2496 37.7225 16.1848 37.5284C16.0553 37.3343 15.9257 37.2049 15.7962 37.1402C15.6666 37.0754 15.4075 37.0107 15.1483 37.0107V36.8166L17.5453 36.493C17.61 37.0107 17.6748 37.5284 17.6748 37.9167Z" fill="#878787"/>
<path d="M29.5299 43.6113L29.6594 43.676C29.4651 44.3231 28.9468 44.6467 28.1046 44.6467C27.6512 44.6467 27.3273 44.5172 27.0034 44.3231C26.809 44.1937 26.6147 43.9349 26.4203 43.6113C26.0316 43.9996 25.7077 44.1937 25.5134 44.3231C25.1247 44.5172 24.6712 44.6467 24.0882 44.6467C23.4404 44.6467 22.8573 44.4525 22.4687 44.129C22.08 43.8054 21.8856 43.3524 21.8856 42.8348C21.8856 42.3171 22.08 41.8641 22.4039 41.5405C22.5982 41.3464 22.7926 41.217 23.0517 41.0875C23.3108 40.9581 23.6347 40.8287 24.0882 40.764C24.6064 40.6346 24.9951 40.5051 25.2543 40.4404C25.5134 40.3757 25.7077 40.2463 25.9021 40.1169C26.0964 39.9874 26.226 39.7933 26.2908 39.5992C26.3555 39.4051 26.4203 39.1462 26.4203 38.8226C26.4203 38.1108 26.2908 37.5931 26.0316 37.2695C25.9021 37.1401 25.7725 37.0107 25.5782 36.8813C25.3838 36.8166 25.1895 36.7519 24.9951 36.7519C24.736 36.7519 24.5417 36.8166 24.3473 36.946C24.153 37.0754 24.0234 37.2696 23.8938 37.4637L23.6347 37.9814C23.5052 38.2402 23.3108 38.4344 22.9869 38.4344C22.7926 38.4344 22.5982 38.3696 22.4687 38.2402C22.3391 38.1108 22.2743 37.9167 22.2743 37.7225C22.2743 37.399 22.4686 37.1401 22.9221 36.946C23.1812 36.8166 23.4404 36.7519 23.8291 36.6872C24.153 36.6225 24.5417 36.5577 24.8656 36.5577C25.2543 36.5577 25.643 36.6225 26.0316 36.6872C26.4203 36.8166 26.809 36.8813 27.0682 37.0754C27.4568 37.3343 27.716 37.5931 27.8455 37.9814C27.9103 38.1755 27.9103 38.4991 27.9103 38.8873V42.3171C27.9103 42.8995 27.9103 43.2877 27.9751 43.4819C28.1047 43.9348 28.3638 44.129 28.7525 44.129C28.9468 44.129 29.0764 44.0643 29.2059 43.9996C29.2707 43.9348 29.4003 43.8054 29.5299 43.6113ZM26.4851 39.9227C26.1612 40.1816 25.7725 40.4404 25.3838 40.6346C24.9304 40.8934 24.6065 41.0875 24.4769 41.1522C24.2825 41.2817 24.153 41.4111 24.0234 41.6052C23.7643 41.9935 23.5699 42.3818 23.5699 42.8348C23.5699 43.223 23.6995 43.5466 23.8938 43.8701C24.0882 44.129 24.4121 44.2584 24.736 44.2584C25.0599 44.2584 25.319 44.1937 25.5782 43.9996C25.8373 43.8054 26.0316 43.5466 26.1612 43.223C26.3555 42.8347 26.4203 42.1876 26.4203 41.4111V39.9227H26.4851Z" fill="#878787"/>
<path d="M32.445 36.946V41.7993V42.5112C32.445 42.8994 32.445 43.223 32.5098 43.4171C32.5746 43.6112 32.6394 43.7407 32.7689 43.8701C32.9633 44.0642 33.2872 44.1937 33.7407 44.2584V44.4525H29.6594V44.2584C30.0481 44.1937 30.3072 44.1289 30.4368 44.0642C30.5664 43.9995 30.6959 43.8054 30.8255 43.6113C30.8903 43.4819 30.9551 43.2877 30.9551 42.9642C30.9551 42.7053 31.0198 42.2523 31.0198 41.7346V36.946H29.6594V36.6224H31.0198V34.3575C31.0198 33.8398 31.0846 33.3869 31.2142 33.0633C31.3437 32.7398 31.6029 32.4809 31.9915 32.2221C32.3155 31.9632 32.7042 31.8338 33.1576 31.7044C33.6111 31.575 34.1293 31.5103 34.6476 31.5103C35.1011 31.5103 35.4898 31.575 35.8137 31.7691C36.0728 31.9632 36.2671 32.1574 36.2671 32.4162C36.2671 32.6103 36.2024 32.7398 36.0728 32.8692C35.9432 32.9986 35.8137 33.0633 35.6193 33.0633C35.425 33.0633 35.2954 32.9986 35.1659 32.9339C35.0363 32.8692 34.9067 32.6751 34.7772 32.4809C34.5828 32.2221 34.4533 32.0279 34.3237 31.8985C34.1941 31.8338 34.0646 31.7691 33.8702 31.7691C33.6111 31.7691 33.4168 31.8338 33.2224 31.8985C33.0281 31.9632 32.8337 32.0926 32.7041 32.2868C32.5746 32.4809 32.5098 32.675 32.445 32.9339C32.3802 33.1927 32.3802 33.6457 32.3802 34.1634V36.6224H34.1941V36.946H32.445Z" fill="#878787"/>
<path d="M37.3684 36.6224H39.7006V36.9459H37.3684V42.317C37.3684 42.9641 37.498 43.4171 37.6923 43.6759C37.8219 43.8054 37.9514 43.9348 38.1458 44.0642C38.3401 44.1289 38.5345 44.1936 38.7936 44.1936C39.0527 44.1936 39.3119 44.1289 39.5062 43.9995C39.7006 43.8701 39.8949 43.6759 40.0892 43.3524L40.2188 43.4818C40.0245 43.8701 39.7006 44.1289 39.3767 44.323C38.988 44.5172 38.5345 44.5819 38.0162 44.5819C37.3036 44.5819 36.7854 44.4525 36.3967 44.1289C36.2024 43.9995 36.0728 43.8054 36.0728 43.6112C36.008 43.4171 36.008 43.0288 36.008 42.5111V36.8812H35.0363V36.7518C35.425 36.6224 35.8137 36.3635 36.1376 35.9752C36.3319 35.7164 36.5263 35.5223 36.6558 35.3281C36.7854 35.134 36.915 34.8104 36.9797 34.4869L37.0445 34.1633H37.3684V36.6224Z" fill="#878787"/>
<path d="M40.5427 44.4525V40.6346H40.7371C40.9962 41.6052 41.3201 42.3818 41.644 42.8995C42.2918 43.9348 43.134 44.4525 44.1705 44.4525C44.8831 44.4525 45.4661 44.1937 45.9196 43.7407C46.3731 43.2877 46.6322 42.6406 46.6322 41.9288C46.6322 41.6052 46.5674 41.2817 46.5026 40.9581C46.3731 40.6346 46.2435 40.3757 46.1139 40.1169C45.9196 39.858 45.6605 39.6639 45.3366 39.4051C45.0127 39.2109 44.4944 38.8874 43.8466 38.5638C43.2636 38.2402 42.8101 38.0461 42.4862 37.7873C42.1623 37.5932 41.9031 37.399 41.7088 37.1402C41.1905 36.5578 40.9314 35.8459 40.9314 35.0047C40.9314 34.487 41.061 33.9693 41.2553 33.5163C41.4497 33.0633 41.7736 32.6104 42.0975 32.2868C42.7453 31.7044 43.5227 31.3809 44.4296 31.3809C44.6887 31.3809 45.0127 31.3809 45.207 31.4456C45.4661 31.5103 45.79 31.6397 46.1787 31.7691C46.5026 31.8986 46.697 31.9633 46.8266 32.028C46.9561 32.0927 47.0209 32.0927 47.1505 32.0927C47.3448 32.0927 47.5391 31.9633 47.6039 31.6397H47.7983L47.863 35.3282H47.6687C47.4744 34.7458 47.3448 34.2929 47.2152 33.9693C47.0857 33.6458 46.9561 33.3869 46.7618 33.1281C46.4379 32.6751 46.1139 32.2868 45.79 32.0927C45.4014 31.8338 45.0127 31.7691 44.5592 31.7691C43.8466 31.7691 43.3283 32.028 42.9397 32.481C42.7453 32.6751 42.6157 32.8692 42.551 33.1281C42.4862 33.3869 42.4214 33.6458 42.4214 33.9046C42.4214 34.94 43.0692 35.7812 44.4296 36.3636L45.7253 37.0107C46.697 37.4637 47.4744 37.9814 47.9278 38.5638C48.4461 39.2109 48.7052 39.9227 48.7052 40.8287C48.7052 41.4111 48.5757 41.9288 48.3813 42.4465C48.0574 43.1583 47.6039 43.7407 46.9561 44.129C46.3083 44.5173 45.5309 44.7114 44.6887 44.7114C43.9114 44.7114 43.134 44.582 42.4214 44.2584C42.0327 44.0643 41.8383 43.9996 41.7088 43.9996C41.644 43.9996 41.5792 43.9349 41.4497 43.9349C41.1258 43.9349 40.9314 44.0643 40.8666 44.3878H40.5427V44.4525Z" fill="#878787"/>
<path d="M52.333 36.493C52.4625 36.946 52.5273 37.3343 52.5273 37.7873C52.916 37.399 53.3695 37.0754 53.8229 36.8166C54.2764 36.6225 54.7947 36.493 55.3129 36.493C55.896 36.493 56.3494 36.6224 56.7381 36.946C56.9972 37.1401 57.2564 37.4637 57.5155 37.852C57.969 37.399 58.4872 37.0107 58.9407 36.8166C59.3942 36.6225 59.9124 36.493 60.4954 36.493C61.208 36.493 61.8559 36.6872 62.3093 37.0754C62.7628 37.4637 63.0219 37.9814 63.0219 38.6285V41.7346V42.4464C63.0219 42.8347 63.0219 43.1583 63.0867 43.3524C63.1515 43.5465 63.2163 43.676 63.3458 43.8054C63.5402 43.9995 63.8641 44.1289 64.3176 44.1937V44.3878H60.2363V44.1937C60.625 44.1289 60.8841 44.0642 61.0137 43.9995C61.1433 43.9348 61.2728 43.7407 61.4024 43.5465C61.4672 43.4171 61.5319 43.223 61.5319 42.8994C61.5319 42.6406 61.5967 42.1876 61.5967 41.6699V39.9227C61.5967 39.2109 61.5967 38.7579 61.5319 38.4344C61.4672 38.1108 61.4024 37.852 61.2728 37.6578C61.0137 37.1401 60.4955 36.8813 59.7829 36.8813C59.0055 36.8813 58.4872 37.1401 58.0985 37.7225C57.7746 38.2402 57.6451 38.952 57.6451 39.9874V41.7993V42.5112C57.6451 42.8994 57.6451 43.223 57.7098 43.4171C57.7746 43.6112 57.8394 43.7407 57.969 43.8701C58.1633 44.0642 58.4872 44.1937 58.9407 44.2584V44.4525H54.8595V44.2584C55.2481 44.1937 55.5073 44.1289 55.6368 44.0642C55.7664 43.9995 55.896 43.8054 56.0255 43.6113C56.0903 43.4819 56.1551 43.2877 56.1551 42.9642C56.1551 42.7053 56.2199 42.2523 56.2199 41.7346V40.0522C56.2199 39.3403 56.2199 38.8226 56.1551 38.4991C56.0903 38.1755 56.0255 37.9167 55.896 37.6578C55.7664 37.4637 55.572 37.2696 55.3129 37.1402C55.0538 37.0107 54.7947 36.946 54.4708 36.946C54.1469 36.946 53.7582 37.0107 53.499 37.2048C53.1751 37.399 52.916 37.5931 52.7864 37.852C52.5921 38.1108 52.5273 38.4344 52.4625 38.7579C52.3978 39.0815 52.333 39.5992 52.333 40.1169V41.7993V42.5112C52.333 42.8994 52.333 43.223 52.3977 43.4171C52.4625 43.6112 52.5273 43.7407 52.6569 43.8701C52.8512 44.0642 53.1751 44.1937 53.6286 44.2584V44.4525H49.5474V44.2584C49.9361 44.1937 50.1952 44.1289 50.3247 44.0642C50.4543 43.9995 50.5839 43.8054 50.7134 43.6113C50.7782 43.4819 50.843 43.2877 50.843 42.9642C50.843 42.7053 50.9078 42.2523 50.9078 41.7346V39.4697C50.9078 38.8226 50.9078 38.3697 50.843 38.1108C50.843 37.852 50.7134 37.6578 50.6487 37.4637C50.5191 37.2696 50.3895 37.1401 50.26 37.0754C50.1304 37.0107 49.8713 36.946 49.6121 36.946V36.7519L52.333 36.493Z" fill="#878787"/>
<path d="M64.9654 36.8166L67.6214 36.493V41.7993V42.5112C67.6214 42.8994 67.6214 43.223 67.6862 43.4171C67.751 43.6112 67.8158 43.7407 67.9453 43.8701C68.1397 44.0642 68.4636 44.1937 68.9171 44.2584V44.4525H64.8358V44.2584C65.2245 44.1937 65.4836 44.1289 65.6132 44.0642C65.7428 43.9995 65.8723 43.8054 66.0019 43.6113C66.0667 43.4819 66.1314 43.2877 66.1314 42.9642C66.1314 42.7053 66.1962 42.2523 66.1962 41.7346V39.4697C66.1962 38.8226 66.1962 38.3697 66.1314 38.1108C66.1314 37.852 66.0019 37.6578 65.9371 37.4637C65.8075 37.2696 65.678 37.1401 65.5484 37.0754C65.4189 37.0107 65.1597 36.946 64.9006 36.946V36.8166H64.9654ZM66.9088 33.1927C66.6497 33.1927 66.4553 33.128 66.3258 32.9339C66.1962 32.8045 66.0667 32.6103 66.0667 32.3515C66.0667 32.0926 66.1314 31.8985 66.3258 31.7691C66.4553 31.6397 66.7145 31.5103 66.9088 31.5103C67.168 31.5103 67.3623 31.575 67.4919 31.7691C67.6214 31.8985 67.751 32.0926 67.751 32.3515C67.751 32.6103 67.6862 32.8045 67.4919 32.9339C67.3623 33.0633 67.168 33.1927 66.9088 33.1927Z" fill="#878787"/>
<path d="M71.8322 36.6224H74.1644V36.9459H71.8322V42.317C71.8322 42.9641 71.9618 43.4171 72.1561 43.6759C72.2857 43.8054 72.4153 43.9348 72.6096 44.0642C72.804 44.1289 72.9983 44.1936 73.2574 44.1936C73.5166 44.1936 73.7757 44.1289 73.97 43.9995C74.1644 43.8701 74.3587 43.6759 74.5531 43.3524L74.6826 43.4818C74.4883 43.8701 74.1644 44.1289 73.8405 44.323C73.4518 44.5172 72.9983 44.5819 72.48 44.5819C71.7675 44.5819 71.2492 44.4525 70.8605 44.1289C70.6662 43.9995 70.5366 43.8054 70.5366 43.6112C70.4718 43.4171 70.4718 43.0288 70.4718 42.5111V36.8812H69.5001V36.7518C69.8888 36.6224 70.2775 36.3635 70.6014 35.9752C70.7957 35.7164 70.9901 35.5223 71.1197 35.3281C71.2492 35.134 71.3788 34.8104 71.4436 34.4869L71.5083 34.1633H71.8322V36.6224Z" fill="#878787"/>
<path d="M77.1443 31.5103V37.852C77.3386 37.5931 77.533 37.399 77.7273 37.2048C77.9217 37.0754 78.116 36.946 78.3104 36.8166C78.7638 36.6225 79.2821 36.493 79.8651 36.493C80.5777 36.493 81.2255 36.6224 81.679 36.946C82.0029 37.1401 82.2621 37.399 82.3916 37.7225C82.5212 38.0461 82.586 38.4991 82.586 39.1462V41.8641V42.5759C82.586 42.9641 82.586 43.2877 82.6507 43.4818C82.7155 43.676 82.7803 43.8054 82.9099 43.9348C83.1042 44.129 83.4281 44.2584 83.8816 44.3231V44.5172H79.8004V44.3231C80.1243 44.2584 80.3834 44.2584 80.513 44.1936C80.6425 44.1289 80.7721 43.9995 80.9016 43.8701C81.0312 43.7407 81.096 43.4818 81.1608 43.223C81.2256 42.9641 81.2255 42.5759 81.2255 42.0582V39.1462C81.2255 38.6932 81.1608 38.3697 81.096 38.1108C81.0312 37.852 80.9016 37.6578 80.7721 37.4637C80.4482 37.0754 79.9947 36.946 79.4117 36.946C77.9217 36.946 77.2091 38.1108 77.2091 40.4404V41.9288V42.6406C77.2091 43.0289 77.2091 43.3524 77.2739 43.5465C77.3387 43.7407 77.4034 43.8701 77.533 43.9995C77.7273 44.1937 78.0512 44.3231 78.5047 44.3878V44.5819H74.4235V44.3878C74.8122 44.3231 75.0713 44.2584 75.2009 44.1936C75.3304 44.1289 75.46 43.9348 75.5895 43.7407C75.6543 43.6112 75.7191 43.4171 75.7191 43.0935C75.7191 42.8347 75.7839 42.3817 75.7839 41.8641V34.6164C75.7839 33.9693 75.7839 33.5163 75.7191 33.2574C75.7191 32.9986 75.5895 32.8045 75.5248 32.6103C75.3952 32.4162 75.2656 32.2868 75.1361 32.2221C75.0065 32.1574 74.7474 32.0927 74.4882 32.0927V31.8985L77.1443 31.5103Z" fill="#878787"/>
<path d="M46.5674 26.5274H21.0435V0.254639H46.5674V26.5274ZM21.173 26.398H46.4378V0.384069H21.173V26.398Z" fill="#878787"/>
<path d="M20.3957 7.11398C18.6466 7.11398 17.2214 5.69035 17.2214 3.94316C17.2214 2.19597 18.6466 0.772339 20.3957 0.772339C22.1448 0.772339 23.5699 2.19597 23.5699 3.94316C23.5699 5.69035 22.1448 7.11398 20.3957 7.11398ZM20.3957 0.837034C18.7113 0.837034 17.3509 2.19597 17.3509 3.87845C17.3509 5.56093 18.7113 6.91986 20.3957 6.91986C22.08 6.91986 23.4404 5.56093 23.4404 3.87845C23.4404 2.19597 22.08 0.837034 20.3957 0.837034Z" fill="#878787"/>
<path d="M20.4604 26.0097C18.7113 26.0097 17.2861 24.586 17.2861 22.8388C17.2861 21.0916 18.7113 19.668 20.4604 19.668C22.2095 19.668 23.6347 21.0916 23.6347 22.8388C23.6995 24.586 22.2095 26.0097 20.4604 26.0097ZM20.4604 19.7974C18.7761 19.7974 17.4157 21.1563 17.4157 22.8388C17.4157 24.5213 18.7761 25.8803 20.4604 25.8803C22.1448 25.8803 23.5052 24.5213 23.5052 22.8388C23.5052 21.1563 22.1448 19.7974 20.4604 19.7974Z" fill="#878787"/>
<path d="M31.1494 1.22528H31.0198C31.0198 1.03114 31.0198 0.966431 31.0198 0.966431H31.1494C31.1494 0.966431 31.1494 1.09585 31.1494 1.22528Z" fill="#878787"/>
<path d="M30.0481 2.77832L29.9833 2.64891C30.1129 2.58419 30.2425 2.51947 30.372 2.45475L30.4368 2.58419C30.372 2.6489 30.1777 2.71361 30.0481 2.77832ZM30.8255 2.1959L30.6959 2.13119C30.7607 2.00176 30.8255 1.87235 30.8903 1.74292L31.0198 1.80762C31.0198 1.93704 30.9551 2.06648 30.8255 2.1959Z" fill="#878787"/>
<path d="M29.2708 2.90778V2.77832C29.3355 2.77832 29.4651 2.77832 29.5299 2.77832V2.90778C29.4651 2.90778 29.3355 2.90778 29.2708 2.90778Z" fill="#878787"/>
<path d="M29.206 24.1978V24.0684C29.206 24.0684 29.3355 24.0684 29.5299 24.0684V24.1978C29.3355 24.1978 29.206 24.1978 29.206 24.1978Z" fill="#878787"/>
<path d="M30.8903 25.1685C30.8255 25.039 30.7607 24.9096 30.6959 24.7802L30.8255 24.7155C30.8903 24.8449 31.0198 24.9743 31.0846 25.1685H30.8903ZM30.372 24.4566C30.2424 24.3919 30.1129 24.3272 29.9833 24.2625L30.0481 24.1331C30.2424 24.1978 30.372 24.2625 30.5016 24.3272L30.372 24.4566Z" fill="#878787"/>
<path d="M31.1494 25.8803H31.0198C31.0198 25.8156 31.0198 25.6862 31.0198 25.6215H31.1494C31.1494 25.6862 31.1494 25.8156 31.1494 25.8803Z" fill="#878787"/>
<path d="M46.412 0.337867L23.1869 24.1698L23.2797 24.2601L46.5049 0.428145L46.412 0.337867Z" fill="#878787"/>
<path d="M23.273 2.53713L23.1801 2.62732L46.4304 26.529L46.5233 26.4388L23.273 2.53713Z" fill="#878787"/>
<path d="M46.5026 13.3264H21.1082V13.4558H46.5026V13.3264Z" fill="#878787"/>
<path d="M46.4379 13.5204C46.4379 24.3919 38.2754 26.4627 30.8903 26.4627H21.1082V25.8156C22.7278 25.8156 23.8938 23.8743 23.8938 21.3505V5.43153C23.8938 3.10192 22.7278 0.966449 21.1082 0.966449V0.319336H30.8903C38.2754 0.319336 46.4379 2.64894 46.4379 13.5204ZM39.9597 13.5204C39.9597 1.93712 34.518 0.966449 30.8903 0.966449H29.2707V25.8156H30.8903C34.518 25.8156 39.9597 25.0391 39.9597 13.5204Z" fill="#878787"/>
<path d="M50.0657 25.1038C50.1305 24.9744 50.1952 24.9097 50.1952 24.9097L50.26 24.9744C50.26 24.9744 50.1952 25.0391 50.0657 25.1038Z" fill="#878787"/>
<path d="M49.677 25.8156H49.6122C49.6122 25.6862 49.677 25.4921 49.7418 25.3627L49.8065 25.4274C49.7417 25.5568 49.677 25.6862 49.677 25.8156Z" fill="#878787"/>
<path d="M49.7418 26.4627C49.7418 26.398 49.677 26.3333 49.677 26.2686H49.7418C49.7418 26.3333 49.8065 26.398 49.8065 26.4627H49.7418Z" fill="#878787"/>
<path d="M65.0949 1.61356L65.0302 1.54884C65.0302 1.54884 65.0949 1.48414 65.1597 1.41943L65.2245 1.48413C65.1597 1.54884 65.0949 1.61356 65.0949 1.61356Z" fill="#878787"/>
<path d="M65.5484 1.16061L65.4836 1.09592C65.5484 0.966494 65.6132 0.837066 65.6132 0.707642H65.678C65.678 0.901778 65.6132 1.03119 65.5484 1.16061Z" fill="#878787"/>
<path d="M65.5484 0.384094C65.5484 0.319381 65.4836 0.254655 65.4836 0.189942L65.5484 0.125244C65.5484 0.189958 65.6132 0.254663 65.6132 0.319377L65.5484 0.384094Z" fill="#878787"/>
<path d="M67.2975 26.5275H47.7983V0.0605469H67.2975V26.5275ZM47.863 26.3981H67.168V0.189958H47.863V26.3981Z" fill="#878787"/>
<path d="M58.552 25.7509C56.8029 25.7509 55.3777 24.3272 55.3777 22.58C55.3777 20.8328 56.8029 19.4092 58.552 19.4092C60.3011 19.4092 61.7263 20.8328 61.7263 22.58C61.7263 24.3272 60.3011 25.7509 58.552 25.7509ZM58.552 19.5386C56.8677 19.5386 55.5073 20.8975 55.5073 22.58C55.5073 24.2625 56.8677 25.6214 58.552 25.6214C60.2363 25.6214 61.5967 24.2625 61.5967 22.58C61.5967 20.8975 60.2363 19.5386 58.552 19.5386Z" fill="#878787"/>
<path d="M56.479 7.24359C54.7299 7.24359 53.3047 5.81992 53.3047 4.07271C53.3047 2.3255 54.7299 0.901855 56.479 0.901855C58.2281 0.901855 59.6533 2.3255 59.6533 4.07271C59.7181 5.81992 58.2281 7.24359 56.479 7.24359ZM56.479 1.03129C54.7947 1.03129 53.4343 2.39022 53.4343 4.07271C53.4343 5.75521 54.7947 7.11416 56.479 7.11416C58.1633 7.11416 59.5237 5.75521 59.5237 4.07271C59.5237 2.39022 58.1633 1.03129 56.479 1.03129Z" fill="#878787"/>
<path d="M47.9935 26.4635L47.8639 26.3988L67.104 0.125977L67.2336 0.255388L47.9935 26.4635Z" fill="#878787"/>
<path d="M67.104 26.4628L47.8639 0.189958L47.9287 0.0605469L67.1688 26.3981L67.104 26.4628Z" fill="#878787"/>
<path d="M67.2328 13.3264H47.7983V13.4558H67.2328V13.3264Z" fill="#878787"/>
<path d="M65.8723 23.4213C65.8723 23.4213 64.188 26.398 58.3577 26.398C51.2965 26.398 48.4461 24.1331 48.4461 24.1331V17.1443H49.0939C49.8713 19.3445 51.9443 25.7509 58.4225 25.7509C62.3094 25.7509 63.4754 20.5093 59.0703 17.2738L53.4991 13.7793C48.3165 10.5438 46.4379 6.91993 49.4178 2.97254C49.4178 2.97254 51.1669 0.189941 56.9325 0.189941C63.1515 0.189941 66.261 1.93716 66.261 1.93716V8.02002H65.6132C64.9006 6.07868 62.698 0.837055 56.9325 0.837055C53.0456 0.837055 51.6204 5.6257 56.2847 8.66713L61.8559 12.3557C66.6497 15.5265 68.5932 19.4739 65.8723 23.4213Z" fill="#878787"/>
</svg>
