<svg width="79" height="39" viewBox="0 0 79 39" fill="none" xmlns="http://www.w3.org/2000/svg">
<path d="M3.9162 38.9107H3.46272L1.90797 35.8692H1.26015V38.9107H0.87146V32.6984H1.26015V35.481H1.84318L3.26838 32.6984H3.72184L2.16709 35.6751L3.9162 38.9107Z" fill="#878787"/>
<path d="M5.27661 38.8459H4.88793V34.7044H4.56403V34.2514H5.27661V38.8459ZM4.95271 33.3454C4.88793 33.3454 4.82314 33.3454 4.75836 33.2807C4.69358 33.216 4.69357 33.1513 4.69357 33.0866C4.69357 33.0219 4.69358 32.9572 4.75836 32.8925C4.82314 32.8278 4.88793 32.8278 4.95271 32.8278C5.01749 32.8278 5.08226 32.8278 5.14704 32.8925C5.21182 32.9572 5.21183 33.0219 5.21183 33.0866C5.21183 33.1513 5.21182 33.216 5.14704 33.2807C5.08226 33.3454 5.01749 33.3454 4.95271 33.3454Z" fill="#878787"/>
<path d="M7.73832 38.9107C7.54397 38.9107 7.34963 38.846 7.22006 38.7813C7.0905 38.7166 6.96093 38.6519 6.83136 38.5225C6.70179 38.393 6.63702 38.2636 6.57223 38.1342C6.50745 38.0047 6.50745 37.8106 6.50745 37.6165V33.0867H6.89615V34.3162H7.86789V34.7045H6.89615V37.6165C6.89615 37.7459 6.89613 37.8753 6.96091 37.94C7.0257 38.0695 7.0257 38.1342 7.09049 38.1989C7.15527 38.2636 7.22005 38.3283 7.34961 38.393C7.4144 38.4577 7.54396 38.4577 7.60874 38.4577H7.67353V38.9107H7.73832Z" fill="#878787"/>
<path d="M10.0704 38.9106C9.87607 38.9106 9.74651 38.8459 9.55216 38.7812C9.4226 38.7165 9.29305 38.6518 9.16348 38.5224C9.03391 38.3929 8.96912 38.2635 8.90433 38.1341C8.83955 38.0046 8.77478 37.8105 8.77478 37.6164V35.4809C8.77478 35.2868 8.83955 35.1573 8.90433 34.9632C8.96912 34.8338 9.03391 34.7043 9.16348 34.5749C9.29305 34.4455 9.4226 34.3808 9.55216 34.3161C9.87607 34.1866 10.2648 34.1866 10.5239 34.3161C10.6535 34.3808 10.7831 34.4455 10.9126 34.5749C11.0422 34.7043 11.1069 34.8338 11.1717 34.9632C11.2365 35.0926 11.3013 35.2868 11.3013 35.4809V35.5456H10.9126V35.4809C10.9126 35.3515 10.9126 35.222 10.8478 35.1573C10.783 35.0279 10.7183 34.9632 10.6535 34.8985C10.5887 34.8338 10.4591 34.769 10.3943 34.7043C10.2 34.6396 9.94085 34.6396 9.7465 34.7043C9.61694 34.769 9.55218 34.8338 9.48739 34.8985C9.42261 34.9632 9.35782 35.0926 9.29303 35.1573C9.22825 35.2868 9.22825 35.3515 9.22825 35.4809V37.6164C9.22825 37.7458 9.22825 37.8752 9.29303 37.9399C9.35782 38.0694 9.42261 38.1341 9.48739 38.1988C9.55218 38.2635 9.68172 38.3282 9.7465 38.3929C9.94085 38.4576 10.2 38.4576 10.3943 38.3929C10.5239 38.3282 10.5887 38.2635 10.6535 38.1988C10.7183 38.1341 10.783 38.0046 10.8478 37.9399C10.9126 37.8105 10.9126 37.7458 10.9126 37.6164H11.3013V37.6811C11.3013 37.8752 11.2365 38.0047 11.1717 38.1988C11.1069 38.3282 11.0422 38.4576 10.9126 38.5871C10.7831 38.7165 10.6535 38.7812 10.5239 38.8459C10.3943 38.9106 10.2 38.9106 10.0704 38.9106Z" fill="#878787"/>
<path d="M14.7995 38.9107H14.4108V35.5456C14.4108 35.4162 14.4108 35.2868 14.346 35.2221C14.2813 35.0927 14.2165 35.0279 14.1517 34.9632C14.0869 34.8985 13.9573 34.8338 13.8926 34.7691C13.6982 34.7044 13.4391 34.7044 13.2447 34.7691C13.1152 34.8338 13.0504 34.8985 12.9856 34.9632C12.9208 35.0279 12.856 35.1574 12.7913 35.2221C12.7265 35.3515 12.7265 35.4162 12.7265 35.5456V38.9107H12.273V32.3748H12.6617V34.6397C12.7265 34.575 12.856 34.5103 12.9856 34.4455C13.3095 34.3161 13.6982 34.3161 14.0221 34.4455C14.1517 34.5103 14.2812 34.575 14.4108 34.7044C14.5404 34.8338 14.6052 34.9632 14.67 35.0927C14.7347 35.2221 14.7995 35.4162 14.7995 35.6104V38.9107Z" fill="#878787"/>
<path d="M17.5851 36.3869C17.5203 36.3869 17.4555 36.4516 17.326 36.5163C17.1964 36.581 17.0669 36.6458 16.9373 36.6458C16.8077 36.7105 16.6782 36.7752 16.4838 36.8399C16.3543 36.9046 16.2247 36.9046 16.1599 36.9693V37.7459C16.1599 37.8753 16.1599 38.0047 16.2247 38.0694C16.2895 38.1989 16.3543 38.2635 16.419 38.3283C16.4838 38.393 16.6134 38.4577 16.6782 38.5224C16.8077 38.5871 16.9373 38.5871 17.0021 38.5871C17.1316 38.5871 17.2612 38.5871 17.326 38.5224C17.4555 38.4577 17.5203 38.393 17.5851 38.3283C17.6499 38.2635 17.7147 38.1341 17.7794 38.0694C17.8442 37.94 17.8442 37.8106 17.8442 37.7459H18.1681C18.1681 37.94 18.1681 38.0694 18.1034 38.1989C18.0386 38.3283 17.9738 38.4577 17.8442 38.5871C17.7147 38.7165 17.5851 38.7813 17.4555 38.846C17.326 38.9107 17.1316 38.9107 17.0021 38.9107C16.8077 38.9107 16.6781 38.9107 16.5486 38.846C16.419 38.7813 16.2895 38.7165 16.1599 38.5871C16.0303 38.4577 15.9655 38.3283 15.9008 38.1989C15.836 38.0694 15.836 37.8753 15.836 37.7459V35.6104C15.836 35.4162 15.836 35.2868 15.9008 35.1574C15.9655 35.028 16.0303 34.8985 16.1599 34.7691C16.2895 34.6397 16.419 34.575 16.5486 34.5103C16.6781 34.4456 16.8725 34.4456 17.0021 34.4456C17.1964 34.4456 17.326 34.4456 17.4555 34.5103C17.5851 34.575 17.7147 34.6397 17.8442 34.7691C17.9738 34.8985 18.0386 35.028 18.1034 35.1574C18.1681 35.2868 18.1681 35.4809 18.1681 35.6104C18.2977 35.9339 18.0386 36.1928 17.5851 36.3869ZM17.0669 34.6397C16.9373 34.6397 16.8077 34.6397 16.743 34.7044C16.6134 34.7691 16.5486 34.8338 16.4838 34.8985C16.419 34.9632 16.3543 35.0927 16.2895 35.1574C16.2247 35.2868 16.2247 35.4162 16.2247 35.481V36.5163C16.2895 36.4516 16.419 36.4516 16.5486 36.3869C16.6781 36.3222 16.8077 36.2575 16.9373 36.2575C17.0669 36.1928 17.1964 36.1928 17.326 36.1281C17.4555 36.0634 17.5203 36.0634 17.5851 36.0634C17.7147 35.9986 17.7795 35.9339 17.909 35.8692C18.0386 35.8045 18.1034 35.6751 18.1034 35.5456C18.1034 35.4162 18.1034 35.2868 18.0386 35.2221C17.9738 35.0927 17.909 35.028 17.8442 34.9632C17.7794 34.8985 17.6499 34.8338 17.5851 34.7691C17.326 34.7044 17.1964 34.6397 17.0669 34.6397Z" fill="#878787"/>
<path d="M17.0669 38.9106C16.8725 38.9106 16.7429 38.8458 16.5486 38.7811C16.419 38.7164 16.2895 38.6517 16.1599 38.5223C16.0304 38.3929 15.9656 38.2634 15.9008 38.134C15.836 38.0046 15.7712 37.8105 15.7712 37.6163V35.4809C15.7712 35.2867 15.836 35.1573 15.9008 34.9632C15.9656 34.8338 16.0304 34.7043 16.1599 34.5749C16.2895 34.4455 16.419 34.3808 16.5486 34.3161C16.8725 34.1866 17.2612 34.1866 17.5203 34.3161C17.6499 34.3808 17.7795 34.4455 17.9091 34.5749C18.0386 34.7043 18.1034 34.8338 18.1682 34.9632C18.2329 35.0926 18.2977 35.2867 18.2977 35.4809C18.2977 35.8691 18.0386 36.1927 17.5851 36.3868C17.5204 36.3868 17.4556 36.4515 17.326 36.5162C17.1964 36.5809 17.0669 36.6457 16.9373 36.6457C16.8078 36.7104 16.6782 36.7751 16.4838 36.7751C16.3543 36.8398 16.2895 36.8398 16.2247 36.9045V37.6163C16.2247 37.7458 16.2247 37.8752 16.2895 37.9399C16.3543 38.0693 16.419 38.134 16.4838 38.1988C16.5486 38.2635 16.6782 38.3282 16.743 38.3929C16.9373 38.4576 17.1965 38.4576 17.3908 38.3929C17.5204 38.3282 17.5851 38.2635 17.6499 38.1988C17.7147 38.134 17.7795 38.0046 17.8442 37.9399C17.909 37.8105 17.9091 37.7458 17.9091 37.6163H18.2977V37.681C18.2977 37.8752 18.2329 38.0046 18.1682 38.1988C18.1034 38.3282 18.0386 38.4576 17.9091 38.587C17.7795 38.7164 17.6499 38.7812 17.5203 38.8459C17.3908 38.9106 17.2612 38.9106 17.0669 38.9106ZM17.0669 34.4455C16.9373 34.4455 16.743 34.4455 16.6134 34.5102C16.4838 34.5749 16.3543 34.6396 16.2247 34.769C16.0951 34.8985 16.0304 34.9632 15.9656 35.1573C15.9008 35.2867 15.9008 35.4162 15.9008 35.6103V37.7458C15.9008 37.8752 15.9008 38.0693 15.9656 38.1988C16.0304 38.3282 16.0951 38.4576 16.2247 38.587C16.3543 38.7164 16.4191 38.7812 16.6134 38.8459C16.8725 38.9753 17.2612 38.9753 17.5203 38.8459C17.6499 38.7812 17.7795 38.7164 17.9091 38.587C18.0386 38.4576 18.1034 38.3929 18.1682 38.1988C18.2329 38.0693 18.233 37.9399 18.233 37.8105H18.0386C18.0386 37.9399 18.0386 38.0046 17.9738 38.134C17.909 38.2634 17.8443 38.3282 17.7795 38.4576C17.7147 38.5223 17.5851 38.587 17.4556 38.6517C17.1964 38.7811 16.9373 38.7811 16.6782 38.6517C16.5486 38.587 16.4838 38.5223 16.3543 38.4576C16.2895 38.3929 16.2247 38.2634 16.1599 38.134C16.0951 38.0046 16.0952 37.8752 16.0952 37.7458V36.9045H16.1599C16.2247 36.9045 16.3543 36.8398 16.4838 36.7751C16.6134 36.7104 16.743 36.6457 16.9373 36.581C17.0669 36.5163 17.1964 36.4515 17.326 36.4515C17.4556 36.3868 17.5204 36.3868 17.5851 36.3221C18.0386 36.1927 18.233 35.9338 18.233 35.5456C18.233 35.4161 18.2329 35.222 18.1682 35.0926C18.1034 34.9632 18.0386 34.8338 17.9091 34.7043C17.7795 34.5749 17.7147 34.5102 17.5203 34.4455C17.3908 34.4455 17.1965 34.4455 17.0669 34.4455ZM16.0952 36.7104V35.6103C16.0952 35.4809 16.0951 35.3514 16.1599 35.222C16.2247 35.0926 16.2895 35.0279 16.3543 34.8985C16.419 34.8337 16.5486 34.769 16.6782 34.7043C16.9373 34.5749 17.1964 34.5749 17.4556 34.7043C17.5851 34.769 17.6499 34.8337 17.7795 34.8985C17.8443 34.9632 17.909 35.0926 17.9738 35.222C18.0386 35.3514 18.0386 35.4809 18.0386 35.6103C18.0386 35.8044 17.9738 35.9338 17.8442 35.9986C17.7147 36.0633 17.6499 36.128 17.5203 36.1927L17.2612 36.2574C17.1317 36.3221 17.0021 36.3221 16.8725 36.3868C16.7429 36.4515 16.6134 36.5162 16.4838 36.5162C16.3543 36.5809 16.2247 36.581 16.1599 36.6457L16.0952 36.7104ZM17.0669 34.7043C16.9373 34.7043 16.8078 34.7043 16.743 34.769C16.6134 34.8338 16.5486 34.8985 16.4838 34.9632C16.419 35.0279 16.3543 35.1573 16.2895 35.222C16.2247 35.3514 16.2247 35.4161 16.2247 35.5456V36.5162C16.2895 36.5162 16.3543 36.4515 16.4838 36.3868C16.6134 36.3221 16.7429 36.2574 16.8725 36.2574C17.0021 36.1927 17.1317 36.1927 17.2612 36.128L17.5203 36.0633C17.6499 35.9986 17.7147 35.9338 17.8442 35.8691C17.909 35.8044 17.9738 35.675 17.9738 35.5456C17.9738 35.4161 17.9738 35.3514 17.9091 35.222C17.8443 35.0926 17.7795 35.0279 17.7147 34.9632C17.6499 34.8985 17.5203 34.8338 17.4556 34.769C17.326 34.7043 17.1965 34.7043 17.0669 34.7043Z" fill="#878787"/>
<path d="M21.8607 38.9106H21.4721V35.5457C21.4721 35.4162 21.472 35.2868 21.4073 35.2221C21.3425 35.0927 21.2777 35.028 21.2129 34.9633C21.1481 34.8985 21.0186 34.8338 20.9538 34.7691C20.7595 34.7044 20.5003 34.7044 20.306 34.7691C20.1764 34.8338 20.1116 34.8985 20.0469 34.9633C19.9821 35.028 19.9173 35.1574 19.8525 35.2221C19.7877 35.3515 19.7877 35.4162 19.7877 35.5457V38.9106H19.399V34.3809H19.7877V34.6397C19.8525 34.575 19.9821 34.5103 20.1116 34.4456C20.4355 34.3162 20.8242 34.3162 21.1482 34.4456C21.2777 34.5103 21.4073 34.575 21.5368 34.7044C21.6664 34.8338 21.7312 34.9633 21.796 35.0927C21.8607 35.2221 21.9255 35.4162 21.9255 35.6104V38.9106H21.8607Z" fill="#878787"/>
<path d="M26.1363 34.3808C26.3307 34.3808 26.4602 34.3808 26.5897 34.4455C26.7193 34.5102 26.8489 34.5749 26.9136 34.7043C27.0432 34.8337 27.108 34.9632 27.1728 35.0926C27.2376 35.222 27.2375 35.4161 27.2375 35.5456V36.581V37.6164V38.7812H26.9136V38.3929C26.7841 38.5223 26.6545 38.5871 26.525 38.7165C26.3954 38.7812 26.2011 38.8459 26.0067 38.8459C25.8124 38.8459 25.6828 38.8459 25.5533 38.7812C25.4237 38.7165 25.2942 38.6518 25.1646 38.5224C25.035 38.3929 24.9702 38.2635 24.9055 38.1341C24.8407 38.0046 24.8407 37.8105 24.8407 37.6811V37.4222C24.8407 37.034 25.0998 36.7751 25.5533 36.581C25.618 36.581 25.6828 36.5163 25.8124 36.4516C25.942 36.3868 26.0715 36.3221 26.2011 36.3221C26.3306 36.2574 26.4602 36.1927 26.6545 36.128C26.7841 36.0633 26.9137 36.0633 26.9785 35.9986V35.4809C26.9785 35.222 26.9137 35.0279 26.7193 34.8337C26.5898 34.6396 26.3954 34.5749 26.1363 34.5749C26.0067 34.5749 25.8772 34.5749 25.8124 34.6396C25.6828 34.7043 25.618 34.769 25.5533 34.8337C25.4885 34.8985 25.4237 35.0279 25.3589 35.0926C25.2942 35.222 25.2941 35.3514 25.2941 35.4162H24.9702C24.9702 35.222 24.9703 35.0926 25.035 34.9632C25.0998 34.8337 25.1646 34.7043 25.2941 34.5749C25.4237 34.4455 25.5533 34.3808 25.6828 34.316C25.8124 34.3808 26.0067 34.3808 26.1363 34.3808ZM26.9785 36.581V36.3868C26.9137 36.4515 26.7841 36.4515 26.6545 36.5163C26.525 36.581 26.3954 36.6457 26.2658 36.6457C26.1363 36.7104 26.0067 36.7751 25.8772 36.7751C25.7476 36.8398 25.6828 36.8398 25.618 36.8398C25.4885 36.9045 25.4237 36.9692 25.2941 37.0339C25.1646 37.0987 25.0998 37.2281 25.0998 37.3575V37.6164C25.0998 37.7458 25.0998 37.8752 25.1646 37.9399C25.2294 38.0694 25.2942 38.1341 25.3589 38.1988C25.4237 38.2635 25.5533 38.3282 25.618 38.3929C25.7476 38.4576 25.8772 38.4576 25.9419 38.4576C26.0715 38.4576 26.2011 38.4576 26.2658 38.3929C26.3954 38.3282 26.4602 38.2635 26.525 38.1988C26.5898 38.1341 26.6545 38.0046 26.7193 37.9399C26.7841 37.8105 26.7841 37.6811 26.7841 37.6164V36.581H26.9785Z" fill="#878787"/>
<path d="M26.0715 38.9106C25.8772 38.9106 25.7476 38.8459 25.5533 38.7812C25.4237 38.7165 25.2942 38.6518 25.1646 38.5224C25.035 38.3929 24.9702 38.2635 24.9054 38.1341C24.8407 38.0046 24.7759 37.8105 24.7759 37.6164V37.3575C24.7759 36.9692 25.035 36.6457 25.4885 36.5163C25.5533 36.5163 25.618 36.4515 25.7476 36.3868C25.8772 36.3221 26.0067 36.2574 26.1363 36.2574C26.2659 36.1927 26.3954 36.128 26.5897 36.0633C26.7193 35.9986 26.7841 35.9986 26.8489 35.9339V35.4809C26.8489 35.222 26.7841 35.0279 26.6546 34.8985C26.525 34.7043 26.3306 34.6396 26.0715 34.6396C25.9419 34.6396 25.8772 34.6396 25.7476 34.7043C25.618 34.769 25.5533 34.8338 25.4885 34.8985C25.4237 34.9632 25.3589 35.0926 25.2941 35.1573C25.2293 35.2868 25.2294 35.3515 25.2294 35.4809V35.5456H24.8407V35.4809C24.8407 35.2868 24.9054 35.1573 24.9702 34.9632C25.035 34.8338 25.0998 34.7043 25.2294 34.5749C25.3589 34.4455 25.4885 34.3808 25.618 34.3161C25.9419 34.1866 26.3306 34.1866 26.5897 34.3161C26.7193 34.3808 26.8489 34.4455 26.9785 34.5749C27.108 34.7043 27.1728 34.8338 27.2376 34.9632C27.3023 35.0926 27.3024 35.2868 27.3024 35.4809V38.8459H26.9137V38.5871C26.8489 38.6518 26.7193 38.7165 26.5897 38.7812C26.4602 38.9106 26.2659 38.9106 26.0715 38.9106ZM26.1363 34.5749C26.3954 34.5749 26.6546 34.6396 26.7841 34.8338C26.9785 35.0279 27.0432 35.222 27.0432 35.5456V36.0633H26.9785C26.9137 36.0633 26.7841 36.128 26.6546 36.1927C26.525 36.2574 26.3954 36.3221 26.2011 36.3221C26.0715 36.3868 25.942 36.4516 25.8124 36.4516C25.6828 36.5163 25.618 36.5163 25.5533 36.581C25.0998 36.7104 24.9054 36.9692 24.9054 37.3575V37.6164C24.9054 37.7458 24.9054 37.9399 24.9702 38.0694C25.035 38.1988 25.0998 38.3282 25.2294 38.4576C25.3589 38.587 25.4237 38.6518 25.618 38.7165C25.8772 38.8459 26.2659 38.8459 26.525 38.7165C26.6545 38.6518 26.7841 38.5223 26.9137 38.4576L27.0432 38.3282V38.7812H27.2376V35.5456C27.2376 35.4162 27.2376 35.222 27.1728 35.0926C27.108 34.9632 27.0432 34.8338 26.9785 34.7043C26.9137 34.5749 26.7841 34.5102 26.6546 34.4455C26.3954 34.3161 26.0715 34.3161 25.7476 34.4455C25.618 34.5102 25.4885 34.5749 25.3589 34.7043C25.2294 34.8338 25.1646 34.8985 25.0998 35.0926C25.035 35.222 25.035 35.3515 25.035 35.4809H25.2294C25.2294 35.3515 25.2293 35.2868 25.2941 35.1573C25.3589 35.0279 25.4237 34.9632 25.4885 34.8338C25.5533 34.7691 25.6828 34.7043 25.8124 34.6396C25.8772 34.6396 26.0067 34.5749 26.1363 34.5749ZM26.0715 38.6518C25.9419 38.6518 25.8124 38.6518 25.6828 38.5871C25.5533 38.5223 25.4885 38.4576 25.3589 38.3929C25.2941 38.3282 25.2294 38.1988 25.1646 38.0694C25.0998 37.9399 25.0998 37.8105 25.0998 37.6811V37.4222C25.0998 37.2281 25.1646 37.0987 25.2941 37.034C25.4237 36.9692 25.5532 36.9045 25.618 36.8398C25.6828 36.8398 25.7476 36.7751 25.8772 36.7751L26.2658 36.6457C26.3954 36.581 26.525 36.5163 26.6546 36.5163C26.7841 36.4516 26.9137 36.4515 26.9785 36.3868L27.0432 36.3221V37.6811C27.0432 37.8105 27.0432 37.9399 26.9785 38.0694C26.9137 38.1988 26.8489 38.2635 26.7841 38.3929C26.7193 38.4576 26.5898 38.5223 26.4602 38.5871C26.3307 38.5871 26.2011 38.6518 26.0715 38.6518ZM26.9137 36.4516C26.8489 36.4516 26.7841 36.5163 26.6546 36.5163C26.525 36.581 26.3954 36.6457 26.2658 36.6457L25.8772 36.7751C25.7476 36.8398 25.6828 36.8398 25.618 36.8398C25.4885 36.9045 25.4237 36.9692 25.2941 37.034C25.2293 37.0987 25.1646 37.2281 25.1646 37.3575V37.6164C25.1646 37.7458 25.1646 37.8752 25.2294 37.9399C25.2941 38.0694 25.3589 38.1341 25.4237 38.1988C25.4885 38.2635 25.6181 38.3282 25.6828 38.3929C25.8772 38.4576 26.1363 38.4576 26.3306 38.3929C26.4602 38.3282 26.525 38.2635 26.5897 38.1988C26.6545 38.1341 26.7193 38.0046 26.7841 37.9399C26.8489 37.8105 26.8489 37.7458 26.8489 37.6164V36.4516H26.9137Z" fill="#878787"/>
<path d="M30.9301 38.9106H30.5414V35.5457C30.5414 35.4162 30.5414 35.2868 30.4766 35.2221C30.4118 35.0927 30.3471 35.028 30.2823 34.9633C30.2175 34.8985 30.088 34.8338 30.0232 34.7691C29.8288 34.7044 29.5697 34.7044 29.3753 34.7691C29.2458 34.8338 29.181 34.8985 29.1162 34.9633C29.0514 35.028 28.9866 35.1574 28.9219 35.2221C28.8571 35.3515 28.8571 35.4162 28.8571 35.5457V38.9106H28.4684V34.3809H28.8571V34.6397C28.9218 34.575 29.0514 34.5103 29.181 34.4456C29.5049 34.3162 29.8936 34.3162 30.2175 34.4456C30.3471 34.5103 30.4766 34.575 30.6062 34.7044C30.7358 34.8338 30.8005 34.9633 30.8653 35.0927C30.9301 35.2221 30.9949 35.4162 30.9949 35.6104V38.9106H30.9301Z" fill="#878787"/>
<path d="M34.4284 32.3748V35.5456V37.6811V38.846H34.1045V38.4577C33.9749 38.5871 33.8453 38.6518 33.7158 38.7812C33.5862 38.846 33.3919 38.9107 33.1975 38.9107C33.0032 38.9107 32.8736 38.9107 32.7441 38.846C32.6145 38.7813 32.485 38.7165 32.3554 38.5871C32.2258 38.4577 32.161 38.3283 32.0963 38.1989C32.0315 38.0694 32.0315 37.8753 32.0315 37.7459V35.6104C32.0315 35.4162 32.0315 35.2868 32.0963 35.1574C32.161 35.028 32.2258 34.8985 32.3554 34.7691C32.485 34.6397 32.6145 34.575 32.7441 34.5103C32.8736 34.4456 33.068 34.4455 33.1975 34.4455C33.3919 34.4455 33.5214 34.5102 33.7158 34.575C33.8453 34.6397 33.9749 34.7691 34.1045 34.8985V32.5042H34.4284V32.3748ZM33.1975 38.5871C33.3271 38.5871 33.4567 38.5871 33.5214 38.5224C33.651 38.4577 33.7158 38.393 33.7806 38.3283C33.8454 38.2635 33.9101 38.1341 33.9749 38.0694C34.0397 37.94 34.0397 37.8106 34.0397 37.7459V35.6104C34.0397 35.4809 34.0397 35.3515 33.9749 35.2868C33.9101 35.1574 33.8454 35.0927 33.7806 35.028C33.7158 34.9632 33.5862 34.8985 33.5214 34.8338C33.3919 34.7691 33.2623 34.7691 33.1975 34.7691C33.068 34.7691 32.9384 34.7691 32.8736 34.8338C32.7441 34.8985 32.6793 34.9632 32.6145 35.028C32.5498 35.0927 32.4849 35.2221 32.4202 35.2868C32.3554 35.4162 32.3554 35.5456 32.3554 35.6104V37.7459C32.3554 37.8753 32.3554 38.0047 32.4202 38.0694C32.4849 38.1989 32.5498 38.2635 32.6145 38.3283C32.6793 38.393 32.8089 38.4577 32.8736 38.5224C32.9384 38.5871 33.068 38.5871 33.1975 38.5871Z" fill="#878787"/>
<path d="M33.1975 38.9107C33.0031 38.9107 32.8736 38.8459 32.6792 38.7812C32.5497 38.7165 32.4201 38.6518 32.2906 38.5224C32.161 38.393 32.0962 38.2635 32.0314 38.1341C31.9666 38.0047 31.9019 37.8106 31.9019 37.6164V35.4809C31.9019 35.2868 31.9666 35.1574 32.0314 34.9632C32.0962 34.8338 32.161 34.7044 32.2906 34.575C32.4201 34.4455 32.5497 34.3808 32.6792 34.3161C33.0031 34.1867 33.3918 34.1867 33.7157 34.3161C33.8453 34.3808 33.9101 34.4456 34.0396 34.5103V32.2454H34.4283V38.9107H34.0396V38.6518C33.9749 38.7165 33.8453 38.7812 33.7157 38.846C33.5862 38.9107 33.3918 38.9107 33.1975 38.9107ZM33.1975 34.4456C33.0679 34.4456 32.8736 34.4456 32.744 34.5103C32.6144 34.575 32.4849 34.6397 32.3553 34.7691C32.2258 34.8985 32.161 34.9633 32.0962 35.1574C32.0314 35.2868 32.0314 35.4162 32.0314 35.6104V37.7459C32.0314 37.8753 32.0314 38.0694 32.0962 38.1988C32.161 38.3283 32.2258 38.4577 32.3553 38.5871C32.4849 38.7165 32.5497 38.7812 32.744 38.846C33.0031 38.9754 33.3918 38.9754 33.651 38.846C33.7805 38.7812 33.9101 38.6518 34.0396 38.5871L34.1692 38.4577V38.9107H34.3635V32.4395H34.1692V34.8985L34.0396 34.7691C33.9101 34.6397 33.7805 34.575 33.651 34.5103C33.5214 34.4456 33.3918 34.4456 33.1975 34.4456ZM33.1975 38.6518C33.0679 38.6518 32.9384 38.6518 32.8088 38.5871C32.6792 38.5224 32.6145 38.4577 32.4849 38.393C32.4201 38.3283 32.3553 38.1988 32.2906 38.0694C32.2258 37.94 32.2258 37.8105 32.2258 37.6811V35.5456C32.2258 35.4162 32.2258 35.2868 32.2906 35.1574C32.3553 35.028 32.4201 34.9633 32.4849 34.8338C32.5497 34.7691 32.6792 34.7044 32.8088 34.6397C33.0679 34.5103 33.3271 34.5103 33.5862 34.6397C33.7158 34.7044 33.7805 34.7691 33.9101 34.8338C33.9749 34.8985 34.0397 35.028 34.1044 35.1574C34.1692 35.2868 34.1692 35.4162 34.1692 35.5456V37.6811C34.1692 37.8105 34.1692 37.94 34.1044 38.0694C34.0397 38.1988 33.9749 38.2635 33.9101 38.393C33.8453 38.4577 33.7158 38.5224 33.5862 38.5871C33.4566 38.5871 33.327 38.6518 33.1975 38.6518ZM33.1975 34.7044C33.0679 34.7044 32.9384 34.7044 32.8736 34.7691C32.744 34.8338 32.6793 34.8985 32.6145 34.9632C32.5497 35.028 32.4849 35.1574 32.4201 35.2221C32.3553 35.3515 32.3553 35.4162 32.3553 35.5456V37.6811C32.3553 37.8105 32.3553 37.94 32.4201 38.0047C32.4849 38.1341 32.5497 38.1988 32.6145 38.2635C32.6793 38.3282 32.8088 38.393 32.8736 38.4577C33.0679 38.5224 33.327 38.5224 33.5214 38.4577C33.651 38.393 33.7157 38.3282 33.7805 38.2635C33.8453 38.1988 33.9101 38.0694 33.9749 38.0047C34.0396 37.8753 34.0396 37.8105 34.0396 37.6811V35.5456C34.0396 35.4162 34.0396 35.2868 33.9749 35.2221C33.9101 35.0927 33.8453 35.028 33.7805 34.9632C33.7157 34.8985 33.5862 34.8338 33.5214 34.7691C33.4566 34.7044 33.327 34.7044 33.1975 34.7044Z" fill="#878787"/>
<path d="M39.3517 35.0928C39.6108 35.1575 39.8052 35.3516 39.9995 35.5458C40.1291 35.7399 40.2587 35.9987 40.2587 36.3223V37.5518C40.2587 37.746 40.1939 37.8754 40.1291 38.0695C40.0643 38.1989 39.9347 38.393 39.87 38.4577C39.7404 38.5872 39.6108 38.6519 39.4813 38.7166C39.3517 38.7813 39.1574 38.846 38.963 38.846H37.797H37.6674H37.5378V32.7632H37.6674H37.797H38.6391C38.8335 32.7632 38.963 32.8279 39.1574 32.8926C39.2869 32.9573 39.4813 33.022 39.546 33.1515C39.6756 33.2809 39.7404 33.4103 39.8052 33.5397C39.87 33.6691 39.9348 33.8633 39.9348 34.0574C39.9348 34.2515 39.87 34.5104 39.8052 34.6398C39.6756 34.8339 39.5461 34.9634 39.3517 35.0928ZM37.7322 33.022V34.9634H38.6391C38.7687 34.9634 38.8982 34.8986 39.0278 34.8986C39.1574 34.8339 39.2221 34.7692 39.3517 34.7045C39.4165 34.6398 39.4813 34.5104 39.546 34.381C39.6108 34.2515 39.6109 34.1221 39.6109 33.9927C39.6109 33.8633 39.6108 33.7338 39.546 33.6044C39.4813 33.475 39.4165 33.4103 39.3517 33.2809C39.2869 33.2162 39.1574 33.1514 39.0278 33.0867C38.8982 33.022 38.7687 33.022 38.6391 33.022H37.7322ZM39.9348 36.3223C39.9348 36.1929 39.9347 36.0634 39.87 35.934C39.8052 35.8046 39.7404 35.7399 39.6756 35.6105C39.6108 35.5458 39.4813 35.4811 39.3517 35.4163C39.2221 35.3516 39.0926 35.3516 38.963 35.3516H38.7039H38.6391H37.797V38.5872H38.963C39.0926 38.5872 39.2221 38.5872 39.3517 38.5225C39.4813 38.4578 39.5461 38.393 39.6756 38.3283C39.7404 38.2636 39.87 38.1342 39.87 38.0048C39.9347 37.8753 39.9348 37.7459 39.9348 37.6165V36.3223Z" fill="#878787"/>
<path d="M38.8982 38.9107H37.3435V32.6984H38.5743C38.7687 32.6984 38.9631 32.7631 39.0926 32.8278C39.287 32.8925 39.4165 33.0219 39.5461 33.0866C39.6756 33.2161 39.7404 33.3455 39.87 33.5396C39.9348 33.7338 39.9995 33.8632 39.9995 34.0573C39.9995 34.3162 39.9348 34.5103 39.87 34.7044C39.8052 34.8339 39.6756 35.028 39.5461 35.0927C39.7404 35.2221 39.9348 35.3515 40.0644 35.5457C40.2587 35.8045 40.3235 36.0634 40.3235 36.3222V37.5518C40.3235 37.7459 40.2587 37.94 40.1939 38.0695C40.1291 38.2636 39.9995 38.393 39.87 38.5224C39.7404 38.6519 39.6109 38.7166 39.4165 38.7813C39.287 38.846 39.0926 38.9107 38.8982 38.9107ZM37.5378 38.7813H38.9631C39.1574 38.7813 39.287 38.7813 39.4165 38.7166C39.5461 38.6519 39.6756 38.5871 39.8052 38.4577C39.9348 38.3283 39.9996 38.1989 40.0644 38.0695C40.1291 37.94 40.1939 37.7459 40.1939 37.6165V36.3222C40.1939 36.0634 40.1291 35.8045 39.9348 35.6104C39.8052 35.4163 39.6109 35.2221 39.3517 35.1574L39.2222 35.0927L39.3517 35.028C39.5461 34.8986 39.6757 34.7691 39.7404 34.575C39.8052 34.3809 39.87 34.1867 39.87 33.9926C39.87 33.7985 39.8052 33.6691 39.7404 33.5396C39.6757 33.4102 39.6109 33.2808 39.4813 33.1514C39.3517 33.0219 39.2222 32.9572 39.0926 32.8925C38.9631 32.8278 38.7687 32.8278 38.6391 32.8278H37.5378V38.7813ZM38.8982 38.5871H37.6674V35.2221H38.8982C39.0278 35.2221 39.1574 35.2868 39.287 35.2868C39.4165 35.3515 39.5461 35.4163 39.6109 35.481C39.6757 35.5457 39.8052 35.6751 39.8052 35.8045C39.87 35.934 39.87 36.0634 39.87 36.1928V37.4223C39.87 37.5518 39.87 37.6812 39.8052 37.8106C39.7404 37.94 39.6756 38.0694 39.5461 38.1342C39.4813 38.1989 39.3517 38.3283 39.2222 38.3283C39.2222 38.5871 39.0926 38.5871 38.8982 38.5871ZM37.797 38.4577H38.8982C39.0278 38.4577 39.1574 38.4577 39.287 38.393C39.4165 38.3283 39.4813 38.2636 39.6109 38.1989C39.6757 38.1342 39.7404 38.0048 39.8052 37.8753C39.87 37.7459 39.87 37.6165 39.87 37.487V36.3222C39.87 36.1928 39.87 36.0634 39.8052 35.9987C39.7404 35.8692 39.6757 35.8045 39.6109 35.6751C39.5461 35.6104 39.4165 35.5457 39.3517 35.481C39.2222 35.4163 39.0926 35.4163 38.9631 35.4163H37.8618V38.4577H37.797ZM37.7322 35.0927L37.6674 33.0219H38.5743C38.7039 33.0219 38.8335 33.0219 38.9631 33.0866C39.0926 33.1514 39.2222 33.2161 39.287 33.2808C39.3517 33.3455 39.4813 33.4749 39.5461 33.6043C39.6108 33.7337 39.6109 33.8632 39.6109 33.9926C39.6109 34.122 39.6108 34.2515 39.5461 34.3809C39.4813 34.5103 39.4165 34.6397 39.3517 34.7044C39.2869 34.7691 39.1574 34.8986 39.0278 34.8986C38.8983 34.9633 38.7687 34.9633 38.6391 34.9633L37.7322 35.0927ZM37.797 34.9633H38.6391C38.7687 34.9633 38.8983 34.8986 38.9631 34.8986C39.0926 34.8339 39.1574 34.7691 39.2222 34.7044C39.2869 34.6397 39.3518 34.5103 39.4165 34.3809C39.4813 34.2515 39.4813 34.1867 39.4813 34.0573C39.4813 33.9279 39.4813 33.7985 39.4165 33.669C39.3518 33.5396 39.2869 33.4749 39.2222 33.3455C39.1574 33.2808 39.0278 33.2161 38.8982 33.1514C38.7687 33.0866 38.6391 33.0866 38.5096 33.0866H37.6674V34.9633H37.797Z" fill="#878787"/>
<path d="M42.6556 34.3808C42.85 34.3808 42.9795 34.3808 43.1091 34.4455C43.2386 34.5102 43.3682 34.5749 43.433 34.7043C43.5625 34.8337 43.6273 34.9632 43.6921 35.0926C43.7569 35.222 43.7569 35.4161 43.7569 35.5456V36.581V37.6164V38.7812H43.433V38.3929C43.3034 38.5223 43.1738 38.5871 43.0443 38.7165C42.9147 38.7812 42.7204 38.8459 42.526 38.8459C42.3317 38.8459 42.2021 38.8459 42.0726 38.7812C41.943 38.7165 41.8135 38.6518 41.6839 38.5224C41.5543 38.3929 41.4895 38.2635 41.4248 38.1341C41.36 38.0046 41.36 37.8105 41.36 37.6811V37.4222C41.36 37.034 41.6191 36.7751 42.0726 36.581C42.1373 36.581 42.2021 36.5163 42.3317 36.4516C42.4613 36.3868 42.5908 36.3221 42.7204 36.3221C42.8499 36.2574 42.9795 36.1927 43.1739 36.128C43.3034 36.0633 43.433 36.0633 43.4978 35.9986V35.4809C43.4978 35.222 43.433 35.0279 43.2386 34.8337C43.1091 34.6396 42.9147 34.5749 42.6556 34.5749C42.5261 34.5749 42.3965 34.5749 42.3317 34.6396C42.2021 34.7043 42.1373 34.769 42.0726 34.8337C42.0078 34.8985 41.943 35.0279 41.8782 35.0926C41.8134 35.222 41.8134 35.3514 41.8134 35.4162H41.4248C41.4248 35.222 41.4247 35.0926 41.4895 34.9632C41.5543 34.8337 41.6191 34.7043 41.7487 34.5749C41.8782 34.4455 42.0078 34.3808 42.1373 34.316C42.3317 34.3808 42.4613 34.3808 42.6556 34.3808ZM43.4978 36.581V36.3868C43.433 36.4515 43.3034 36.4515 43.1739 36.5163C43.0443 36.581 42.9147 36.6457 42.7851 36.6457C42.6556 36.7104 42.526 36.7751 42.3965 36.7751C42.2669 36.8398 42.2021 36.8398 42.1373 36.8398C42.0078 36.9045 41.943 36.9692 41.8134 37.0339C41.6839 37.0987 41.6191 37.2281 41.6191 37.3575V37.6164C41.6191 37.7458 41.6191 37.8752 41.6839 37.9399C41.7487 38.0694 41.8134 38.1341 41.8782 38.1988C41.943 38.2635 42.0725 38.3282 42.1373 38.3929C42.2669 38.4576 42.3965 38.4576 42.4612 38.4576C42.5908 38.4576 42.7204 38.4576 42.7851 38.3929C42.9147 38.3282 42.9795 38.2635 43.0443 38.1988C43.1091 38.1341 43.1738 38.0046 43.2386 37.9399C43.3034 37.8105 43.3034 37.6811 43.3034 37.6164V36.581H43.4978Z" fill="#878787"/>
<path d="M42.5908 38.9106C42.3965 38.9106 42.2669 38.8459 42.0726 38.7812C41.943 38.7165 41.8134 38.6518 41.6839 38.5224C41.5543 38.3929 41.4895 38.2635 41.4247 38.1341C41.36 38.0046 41.2952 37.8105 41.2952 37.6164V37.3575C41.2952 36.9692 41.5543 36.6457 42.0078 36.5163C42.0726 36.5163 42.1373 36.4515 42.2669 36.3868C42.3965 36.3221 42.5261 36.2574 42.6556 36.2574C42.7852 36.1927 42.9147 36.128 43.1091 36.0633C43.2386 35.9986 43.3034 35.9986 43.3682 35.9339V35.4809C43.3682 35.222 43.3034 35.0279 43.1739 34.8985C43.0443 34.7043 42.8499 34.6396 42.5908 34.6396C42.4612 34.6396 42.3965 34.6396 42.2669 34.7043C42.1373 34.769 42.0726 34.8338 42.0078 34.8985C41.943 34.9632 41.8782 35.0926 41.8134 35.1573C41.7486 35.2868 41.7486 35.3515 41.7486 35.4809V35.5456H41.36V35.4809C41.36 35.2868 41.4247 35.1573 41.4895 34.9632C41.5543 34.8338 41.6191 34.7043 41.7486 34.5749C41.8782 34.4455 42.0078 34.3808 42.1373 34.3161C42.4612 34.1866 42.8499 34.1866 43.1091 34.3161C43.2386 34.3808 43.3682 34.4455 43.4978 34.5749C43.6273 34.7043 43.6921 34.8338 43.7569 34.9632C43.8217 35.0926 43.8217 35.2868 43.8217 35.4809V38.8459H43.433V38.5871C43.3682 38.6518 43.2386 38.7165 43.1091 38.7812C42.9147 38.9106 42.7852 38.9106 42.5908 38.9106ZM43.6921 38.7812V35.5456C43.6921 35.4162 43.6921 35.222 43.6273 35.0926C43.5626 34.9632 43.4978 34.8338 43.433 34.7043C43.3682 34.5749 43.2386 34.5102 43.1091 34.4455C42.8499 34.3161 42.526 34.3161 42.2021 34.4455C42.0726 34.5102 41.943 34.5749 41.8134 34.7043C41.6839 34.8338 41.6191 34.8985 41.5543 35.0926C41.4895 35.222 41.4895 35.3515 41.4895 35.4809H41.6839C41.6839 35.3515 41.6839 35.2868 41.7486 35.1573C41.8134 35.0279 41.8782 34.9632 41.943 34.8338C42.0078 34.7691 42.1373 34.7043 42.2669 34.6396C42.3965 34.5749 42.5261 34.5749 42.6556 34.5749C42.9147 34.5749 43.1739 34.6396 43.3034 34.8338C43.4978 35.0279 43.5625 35.222 43.5625 35.5456V36.0633H43.4978C43.433 36.0633 43.3034 36.128 43.1739 36.1927C43.0443 36.2574 42.9147 36.3221 42.7204 36.3221C42.5908 36.3868 42.4613 36.4516 42.3317 36.4516C42.2021 36.5163 42.1373 36.5163 42.0726 36.581C41.6191 36.7104 41.4247 36.9692 41.4247 37.3575V37.6164C41.4247 37.7458 41.4247 37.9399 41.4895 38.0694C41.5543 38.1988 41.6191 38.3282 41.7486 38.4576C41.8782 38.587 41.943 38.6518 42.1373 38.7165C42.3965 38.8459 42.7852 38.8459 43.0443 38.7165C43.1739 38.6518 43.3034 38.5223 43.433 38.4576L43.5625 38.3282L43.6921 38.7812ZM42.5908 38.6518C42.4612 38.6518 42.3317 38.6518 42.2021 38.5871C42.0726 38.5223 42.0078 38.4576 41.8782 38.3929C41.8134 38.3282 41.7487 38.1988 41.6839 38.0694C41.6191 37.9399 41.6191 37.8105 41.6191 37.6811V37.4222C41.6191 37.2281 41.6839 37.0987 41.8134 37.034C41.943 36.9692 42.0725 36.9045 42.1373 36.8398C42.2021 36.8398 42.2669 36.7751 42.3965 36.7751L42.7851 36.6457C42.9147 36.581 43.0443 36.5163 43.1739 36.5163C43.3034 36.4516 43.433 36.4515 43.4978 36.3868L43.5625 36.3221V37.6811C43.5625 37.8105 43.5626 37.9399 43.4978 38.0694C43.433 38.1988 43.3682 38.2635 43.3034 38.3929C43.2387 38.4576 43.1091 38.5223 42.9795 38.5871C42.85 38.5871 42.7204 38.6518 42.5908 38.6518ZM43.433 36.4516C43.3682 36.4516 43.3034 36.5163 43.1739 36.5163C43.0443 36.581 42.9147 36.6457 42.7851 36.6457L42.3965 36.7751C42.2669 36.8398 42.2021 36.8398 42.1373 36.8398C42.0078 36.9045 41.943 36.9692 41.8134 37.034C41.7486 37.0987 41.6839 37.2281 41.6839 37.3575V37.6164C41.6839 37.7458 41.6839 37.8752 41.7486 37.9399C41.8134 38.0694 41.8782 38.1341 41.943 38.1988C42.0078 38.2635 42.1373 38.3282 42.2021 38.3929C42.3965 38.4576 42.6556 38.4576 42.85 38.3929C42.9795 38.3282 43.0443 38.2635 43.1091 38.1988C43.1738 38.1341 43.2387 38.0046 43.3034 37.9399C43.3682 37.8105 43.3682 37.7458 43.3682 37.6164V36.4516H43.433Z" fill="#878787"/>
<path d="M46.2186 38.9107C46.0242 38.9107 45.8299 38.846 45.7003 38.7813C45.5707 38.7166 45.4412 38.6519 45.3116 38.5225C45.1821 38.393 45.1173 38.2636 45.0525 38.1342C44.9877 38.0047 44.9877 37.8106 44.9877 37.6165V33.0867H45.3764V34.3162H46.3481V34.7045H45.3764V37.6165C45.3764 37.7459 45.3764 37.8753 45.4412 37.94C45.506 38.0695 45.506 38.1342 45.5708 38.1989C45.6356 38.2636 45.7003 38.3283 45.8299 38.393C45.8947 38.4577 46.0242 38.4577 46.089 38.4577H46.1538V38.9107H46.2186Z" fill="#878787"/>
<path d="M49.7816 38.9107H49.3929V35.5456C49.3929 35.4162 49.3929 35.2868 49.3281 35.2221C49.2633 35.0927 49.1986 35.0279 49.1338 34.9632C49.069 34.8985 48.9394 34.8338 48.8746 34.7691C48.6803 34.7044 48.4212 34.7044 48.2268 34.7691C48.0972 34.8338 48.0324 34.8985 47.9677 34.9632C47.9029 35.0279 47.8381 35.1574 47.7733 35.2221C47.7085 35.3515 47.7086 35.4162 47.7086 35.5456V38.9107H47.2551V32.3748H47.6437V34.6397C47.7085 34.575 47.8381 34.5103 47.9677 34.4455C48.2916 34.3161 48.6803 34.3161 49.0042 34.4455C49.1338 34.5103 49.2633 34.575 49.3929 34.7044C49.5225 34.8338 49.5873 34.9632 49.652 35.0927C49.7168 35.2221 49.7816 35.4162 49.7816 35.6104V38.9107Z" fill="#878787"/>
<path d="M54.0572 38.9108C53.8628 38.9108 53.6685 38.846 53.5389 38.7813C53.3446 38.7166 53.215 38.5872 53.0854 38.4578C52.9559 38.3284 52.8911 38.1989 52.7615 38.0048C52.6967 37.8106 52.632 37.6812 52.632 37.4871V37.4224H53.0207V37.4871C53.0207 37.6165 53.0207 37.746 53.0854 37.8754C53.1502 38.0048 53.215 38.0695 53.2798 38.1989C53.3446 38.2637 53.4741 38.3284 53.6037 38.3931C53.8628 38.5225 54.122 38.5225 54.3163 38.3931C54.4459 38.3284 54.5107 38.2637 54.6402 38.1989C54.705 38.1342 54.7698 38.0048 54.8346 37.8754C54.8993 37.746 54.8993 37.6165 54.8993 37.4871C54.8993 37.293 54.8993 37.0988 54.8346 36.9694C54.7698 36.84 54.705 36.6458 54.5754 36.5164C54.4459 36.387 54.3811 36.2576 54.2515 36.1282C54.1219 35.9987 53.9924 35.8693 53.8628 35.8046C53.7333 35.6752 53.6037 35.5457 53.4094 35.4163C53.2798 35.2869 53.1502 35.1575 53.0207 35.028C52.8911 34.8986 52.8263 34.7045 52.7615 34.5104C52.6967 34.3162 52.632 34.1221 52.632 33.8632C52.632 33.6691 52.6967 33.4749 52.7615 33.3455C52.8263 33.1514 52.9559 33.022 53.0854 32.8926C53.215 32.7631 53.3446 32.6984 53.5389 32.569C53.8628 32.4396 54.2515 32.4396 54.5754 32.569C54.7698 32.6337 54.8993 32.7631 55.0289 32.8278C55.1585 32.9573 55.2232 33.0867 55.3528 33.2808C55.4176 33.4749 55.4824 33.6044 55.4824 33.7985V33.8632H55.0937V33.7985C55.0937 33.6691 55.0937 33.5397 55.0289 33.4102C54.9641 33.2808 54.8993 33.2161 54.8346 33.0867C54.7698 33.022 54.6402 32.9573 54.5107 32.8926C54.3163 32.7631 53.9924 32.7631 53.798 32.8926C53.6685 32.9573 53.6037 33.022 53.4741 33.0867C53.4093 33.1514 53.3446 33.2808 53.2798 33.4102C53.215 33.5397 53.215 33.6691 53.215 33.7985C53.215 33.9927 53.215 34.1221 53.2798 34.3162C53.3446 34.4456 53.4094 34.5751 53.5389 34.7045C53.6037 34.8339 53.7333 34.9633 53.8628 35.028C53.9924 35.1575 54.1219 35.2222 54.2515 35.3516C54.3811 35.481 54.5754 35.6105 54.705 35.7399C54.8346 35.8693 54.9641 35.9987 55.0937 36.1929C55.2232 36.3223 55.288 36.5164 55.4176 36.7105C55.4824 36.9047 55.5471 37.0988 55.5471 37.3577C55.5471 37.5518 55.4824 37.746 55.4176 37.8754C55.3528 38.0695 55.2232 38.1989 55.0937 38.3283C54.9641 38.4578 54.8346 38.5225 54.6402 38.6519C54.4459 38.9108 54.2515 38.9108 54.0572 38.9108Z" fill="#878787"/>
<path d="M57.6849 38.8459C57.4906 38.8459 57.361 38.8459 57.2315 38.7812C57.1019 38.7165 56.9723 38.6518 56.8428 38.5224C56.7132 38.3929 56.6484 38.2635 56.5837 38.1341C56.5189 38.0047 56.5189 37.8105 56.5189 37.6811V35.5456C56.5189 35.3515 56.5189 35.2221 56.5837 35.0927C56.6484 34.9633 56.7132 34.8338 56.8428 34.7044C56.9723 34.575 57.1019 34.5103 57.2315 34.4456C57.361 34.3809 57.5554 34.3809 57.6849 34.3809C57.8793 34.3809 58.0088 34.3809 58.1384 34.4456C58.268 34.5103 58.3975 34.575 58.5271 34.7044C58.6567 34.8338 58.7214 34.9633 58.7862 35.0927C58.851 35.2221 58.851 35.4162 58.851 35.5456V37.6811C58.851 37.8752 58.851 38.0047 58.7862 38.1341C58.7214 38.2635 58.6567 38.3929 58.5271 38.5224C58.3975 38.6518 58.268 38.7165 58.1384 38.7812C58.0088 38.8459 57.8793 38.8459 57.6849 38.8459ZM57.6849 34.6397C57.5554 34.6397 57.4258 34.6397 57.361 34.7044C57.2314 34.7691 57.1667 34.8338 57.1019 34.8985C57.0371 34.9632 56.9724 35.0927 56.9076 35.1574C56.8428 35.2868 56.8428 35.4162 56.8428 35.4809V37.6164C56.8428 37.7458 56.8428 37.8752 56.9076 37.94C56.9724 38.0694 57.0371 38.1341 57.1019 38.1988C57.1667 38.2635 57.2962 38.3282 57.361 38.3929C57.4906 38.4576 57.6201 38.4576 57.6849 38.4576C57.8145 38.4576 57.944 38.4576 58.0088 38.3929C58.1384 38.3282 58.2032 38.2635 58.268 38.1988C58.3327 38.1341 58.3975 38.0047 58.4623 37.94C58.5271 37.8105 58.5271 37.6811 58.5271 37.6164V35.4809C58.5271 35.3515 58.5271 35.2221 58.4623 35.1574C58.3975 35.028 58.3327 34.9632 58.268 34.8985C58.2032 34.8338 58.0736 34.7691 58.0088 34.7044C57.944 34.7044 57.8145 34.6397 57.6849 34.6397Z" fill="#878787"/>
<path d="M57.6849 38.9106C57.4906 38.9106 57.361 38.8458 57.1667 38.7811C57.0371 38.7164 56.9076 38.6517 56.778 38.5223C56.6484 38.3929 56.5836 38.2634 56.5189 38.134C56.4541 38.0046 56.3893 37.8105 56.3893 37.6163V35.4809C56.3893 35.2867 56.4541 35.1573 56.5189 34.9632C56.5836 34.8338 56.6484 34.7043 56.778 34.5749C56.9076 34.4455 57.0371 34.3808 57.1667 34.3161C57.4906 34.1866 57.8793 34.1866 58.1384 34.3161C58.2679 34.3808 58.3975 34.4455 58.5271 34.5749C58.6567 34.7043 58.7214 34.8338 58.7862 34.9632C58.851 35.0926 58.9158 35.2867 58.9158 35.4809V37.6163C58.9158 37.8105 58.851 37.9399 58.7862 38.134C58.7214 38.2634 58.6567 38.3929 58.5271 38.5223C58.3975 38.6517 58.2679 38.7164 58.1384 38.7811C58.0736 38.9106 57.8793 38.9106 57.6849 38.9106ZM57.6849 34.4455C57.5553 34.4455 57.361 34.4455 57.2315 34.5102C57.1019 34.5749 56.9723 34.6396 56.8428 34.769C56.7132 34.8985 56.6484 34.9632 56.5837 35.1573C56.5189 35.2867 56.5189 35.4162 56.5189 35.6103V37.7458C56.5189 37.8752 56.5189 38.0693 56.5837 38.1988C56.6484 38.3282 56.7132 38.4576 56.8428 38.587C56.9723 38.7164 57.0371 38.7812 57.2315 38.8459C57.4906 38.9753 57.8793 38.9753 58.1384 38.8459C58.2679 38.7812 58.3975 38.7164 58.5271 38.587C58.6567 38.4576 58.7214 38.3929 58.7862 38.1988C58.851 38.0693 58.851 37.9399 58.851 37.7458V35.6103C58.851 35.4809 58.851 35.2867 58.7862 35.1573C58.7214 35.0279 58.6567 34.8985 58.5271 34.769C58.3975 34.6396 58.3327 34.5749 58.1384 34.5102C58.0088 34.4455 57.8793 34.4455 57.6849 34.4455ZM57.6849 38.6517C57.5553 38.6517 57.4258 38.6517 57.2962 38.587C57.1667 38.5223 57.1019 38.4576 56.9723 38.3929C56.9075 38.3282 56.8428 38.1987 56.778 38.0693C56.7132 37.9399 56.7132 37.8105 56.7132 37.681V35.5456C56.7132 35.4161 56.7132 35.2867 56.778 35.1573C56.8428 35.0279 56.9075 34.9632 56.9723 34.8338C57.0371 34.7691 57.1667 34.7043 57.2962 34.6396C57.5554 34.5102 57.8145 34.5102 58.0736 34.6396C58.2032 34.7043 58.268 34.7691 58.3975 34.8338C58.4623 34.8985 58.5271 35.0279 58.5919 35.1573C58.6566 35.2867 58.6566 35.4161 58.6566 35.5456V37.681C58.6566 37.8105 58.6566 37.9399 58.5919 38.0693C58.5271 38.1987 58.4623 38.2635 58.3975 38.3929C58.3327 38.4576 58.2032 38.5223 58.0736 38.587C57.9441 38.587 57.8145 38.6517 57.6849 38.6517ZM57.6849 34.7043C57.5553 34.7043 57.4258 34.7043 57.361 34.769C57.2314 34.8338 57.1667 34.8985 57.1019 34.9632C57.0371 35.0279 56.9723 35.1573 56.9076 35.222C56.8428 35.3514 56.8428 35.4161 56.8428 35.5456V37.681C56.8428 37.8105 56.8428 37.9399 56.9076 38.0046C56.9723 38.134 57.0371 38.1987 57.1019 38.2634C57.1667 38.3282 57.2962 38.3929 57.361 38.4576C57.5553 38.5223 57.8145 38.5223 58.0088 38.4576C58.1384 38.3929 58.2032 38.3282 58.268 38.2634C58.3327 38.1987 58.3975 38.0693 58.4623 38.0046C58.5271 37.8752 58.5271 37.8105 58.5271 37.681V35.5456C58.5271 35.4161 58.5271 35.2867 58.4623 35.222C58.3975 35.0926 58.3327 35.0279 58.268 34.9632C58.2032 34.8985 58.0736 34.8338 58.0088 34.769C57.944 34.7043 57.8145 34.7043 57.6849 34.7043Z" fill="#878787"/>
<path d="M60.0171 38.8459V32.3748H60.341V38.8459H60.0171Z" fill="#878787"/>
<path d="M60.4057 38.9107H60.0171V32.3748H60.4057V38.9107Z" fill="#878787"/>
<path d="M63.9688 34.3809V36.581V37.6164V38.7812H63.6448V38.3929C63.5153 38.5224 63.3857 38.5871 63.2562 38.7165C63.1266 38.7812 62.9323 38.8459 62.7379 38.8459C62.5436 38.8459 62.414 38.8459 62.2845 38.7812C62.1549 38.7165 62.0253 38.6518 61.8957 38.5224C61.7662 38.3929 61.7014 38.2635 61.6366 38.1341C61.5719 38.0047 61.5718 37.8105 61.5718 37.6811V36.6457V34.3809H61.8957V36.581V37.6164C61.8957 37.7458 61.8958 37.8752 61.9605 37.94C62.0253 38.0694 62.0901 38.1341 62.1549 38.1988C62.2197 38.2635 62.3492 38.3282 62.414 38.3929C62.5436 38.4576 62.6732 38.4576 62.7379 38.4576C62.8675 38.4576 62.9971 38.4576 63.0618 38.3929C63.1914 38.3282 63.2562 38.2635 63.3209 38.1988C63.3857 38.1341 63.4505 38.0047 63.5153 37.94C63.5801 37.8105 63.5801 37.6811 63.5801 37.6164V36.581V34.3809H63.9688Z" fill="#878787"/>
<path d="M62.8027 38.9107C62.6084 38.9107 62.4788 38.846 62.2845 38.7812C62.1549 38.7165 62.0253 38.6518 61.8958 38.5224C61.7662 38.393 61.7014 38.2636 61.6367 38.1341C61.5719 38.0047 61.5071 37.8106 61.5071 37.6165V34.2515H61.8958V37.6165C61.8958 37.7459 61.8958 37.8753 61.9606 37.94C62.0253 38.0694 62.0901 38.1342 62.1549 38.1989C62.2197 38.2636 62.3493 38.3283 62.414 38.393C62.6084 38.4577 62.8675 38.4577 63.0619 38.393C63.1914 38.3283 63.2562 38.2636 63.321 38.1989C63.3857 38.1342 63.4505 38.0047 63.5153 37.94C63.5801 37.8106 63.5801 37.7459 63.5801 37.6165V34.2515H63.9688V38.7812H63.5801V38.5224C63.5153 38.5871 63.3858 38.6518 63.2562 38.7165C63.1266 38.9107 62.9971 38.9107 62.8027 38.9107Z" fill="#878787"/>
<path d="M65.4587 36.5811V37.6165C65.4587 37.7459 65.4587 37.8753 65.5235 37.94C65.5883 38.0695 65.6531 38.1342 65.7178 38.1989C65.7826 38.2636 65.8474 38.3283 65.977 38.393C66.0418 38.4577 66.1713 38.4577 66.3009 38.4577V38.7813C66.1713 38.7813 66.0418 38.7813 65.8474 38.7166C65.6531 38.6519 65.5883 38.5871 65.5235 38.4577C65.3939 38.3283 65.3291 38.1989 65.2644 38.0695C65.1996 37.94 65.1996 37.7459 65.1996 37.6165V36.5811V34.6397V34.3809V33.1514H65.5235V34.3809H66.4952V34.7044H65.5235V36.5811H65.4587Z" fill="#878787"/>
<path d="M66.3009 38.9107C66.1066 38.9107 65.9122 38.846 65.7826 38.7813C65.6531 38.7166 65.5235 38.6519 65.394 38.5225C65.2644 38.393 65.1996 38.2636 65.1348 38.1342C65.0701 38.0047 65.0701 37.8106 65.0701 37.6165V33.0867H65.4587V34.3162H66.4305V34.7045H65.4587V37.6165C65.4587 37.7459 65.4588 37.8753 65.5235 37.94C65.5883 38.0695 65.5883 38.1342 65.6531 38.1989C65.7179 38.2636 65.7826 38.3283 65.9122 38.393C65.977 38.4577 66.1066 38.4577 66.1714 38.4577H66.2361V38.9107H66.3009Z" fill="#878787"/>
<path d="M67.5965 34.316H67.9204V34.6396V38.7811H67.5965V34.6396H67.2726V34.316H67.5965Z" fill="#878787"/>
<path d="M67.9204 38.8459H67.5317V34.7044H67.2078V34.2514H67.9204V38.8459ZM67.6613 33.3454C67.5965 33.3454 67.5317 33.3454 67.4669 33.2807C67.4021 33.216 67.4021 33.1513 67.4021 33.0866C67.4021 33.0219 67.4021 32.9572 67.4669 32.8925C67.5317 32.8278 67.5965 32.8278 67.6613 32.8278C67.726 32.8278 67.7908 32.8278 67.8556 32.8925C67.9204 32.9572 67.9204 33.0219 67.9204 33.0866C67.9204 33.1513 67.9204 33.216 67.8556 33.2807C67.7908 33.3454 67.726 33.3454 67.6613 33.3454Z" fill="#878787"/>
<path d="M70.2526 38.8459C70.0583 38.8459 69.9287 38.8459 69.7991 38.7812C69.6696 38.7165 69.54 38.6518 69.4105 38.5224C69.2809 38.3929 69.2161 38.2635 69.1513 38.1341C69.0865 38.0047 69.0865 37.8105 69.0865 37.6811V35.5456C69.0865 35.3515 69.0865 35.2221 69.1513 35.0927C69.2161 34.9633 69.2809 34.8338 69.4105 34.7044C69.54 34.575 69.6696 34.5103 69.7991 34.4456C69.9287 34.3809 70.1231 34.3809 70.2526 34.3809C70.447 34.3809 70.5765 34.3809 70.7061 34.4456C70.8357 34.5103 70.9652 34.575 71.0948 34.7044C71.2244 34.8338 71.2892 34.9633 71.3539 35.0927C71.4187 35.2221 71.4187 35.4162 71.4187 35.5456V37.6811C71.4187 37.8752 71.4187 38.0047 71.3539 38.1341C71.2892 38.2635 71.2244 38.3929 71.0948 38.5224C70.9652 38.6518 70.8357 38.7165 70.7061 38.7812C70.5765 38.8459 70.3822 38.8459 70.2526 38.8459ZM70.2526 34.6397C70.1231 34.6397 69.9935 34.6397 69.9287 34.7044C69.7991 34.7691 69.7343 34.8338 69.6696 34.8985C69.6048 34.9632 69.54 35.0927 69.4752 35.1574C69.4104 35.2868 69.4105 35.4162 69.4105 35.4809V37.6164C69.4105 37.7458 69.4104 37.8752 69.4752 37.94C69.54 38.0694 69.6048 38.1341 69.6696 38.1988C69.7343 38.2635 69.8639 38.3282 69.9287 38.3929C70.0583 38.4576 70.1878 38.4576 70.2526 38.4576C70.3822 38.4576 70.5118 38.4576 70.5765 38.3929C70.7061 38.3282 70.7709 38.2635 70.8357 38.1988C70.9005 38.1341 70.9652 38.0047 71.03 37.94C71.0948 37.8105 71.0948 37.6811 71.0948 37.6164V35.4809C71.0948 35.3515 71.0948 35.2221 71.03 35.1574C70.9652 35.028 70.9005 34.9632 70.8357 34.8985C70.7709 34.8338 70.6413 34.7691 70.5765 34.7044C70.447 34.7044 70.3822 34.6397 70.2526 34.6397Z" fill="#878787"/>
<path d="M70.2525 38.9106C70.0582 38.9106 69.9286 38.8459 69.7343 38.7812C69.6047 38.7165 69.4751 38.6518 69.3456 38.5224C69.216 38.3929 69.1513 38.2635 69.0865 38.1341C69.0217 38.0046 68.9569 37.8105 68.9569 37.6164V35.4809C68.9569 35.2868 69.0217 35.1573 69.0865 34.9632C69.1513 34.8338 69.216 34.7043 69.3456 34.5749C69.4751 34.4455 69.6047 34.3808 69.7343 34.3161C70.0582 34.1866 70.4469 34.1866 70.706 34.3161C70.8356 34.3808 70.9651 34.4455 71.0947 34.5749C71.2242 34.7043 71.289 34.8338 71.3538 34.9632C71.4186 35.0926 71.4834 35.2868 71.4834 35.4809V37.6164C71.4834 37.8105 71.4186 37.9399 71.3538 38.1341C71.289 38.2635 71.2242 38.3929 71.0947 38.5224C70.9651 38.6518 70.8356 38.7165 70.706 38.7812C70.5765 38.9106 70.3821 38.9106 70.2525 38.9106ZM69.1512 38.1341C69.216 38.2635 69.2808 38.3929 69.4104 38.5224C69.5399 38.6518 69.6047 38.7165 69.7991 38.7812C70.0582 38.9106 70.4469 38.9106 70.706 38.7812C70.8356 38.7165 70.9651 38.6518 71.0947 38.5224C71.2242 38.3929 71.289 38.3282 71.3538 38.1341C71.4186 38.0046 71.4186 37.8752 71.4186 37.6811V35.5456C71.4186 35.4162 71.4186 35.222 71.3538 35.0926C71.289 34.9632 71.2242 34.8338 71.0947 34.7043C70.9651 34.5749 70.9004 34.5102 70.706 34.4455C70.5765 34.3808 70.4469 34.3808 70.2525 34.3808C70.123 34.3808 69.9286 34.3808 69.7991 34.4455C69.6695 34.5102 69.5399 34.5749 69.4104 34.7043C69.2808 34.8338 69.216 34.8985 69.1512 35.0926C69.0865 35.222 69.0865 35.3514 69.0865 35.5456L69.1512 38.1341ZM70.2525 38.6518C70.123 38.6518 69.9934 38.6518 69.8639 38.5871C69.7343 38.5223 69.6695 38.4576 69.54 38.3929C69.4752 38.3282 69.4104 38.1988 69.3456 38.0694C69.2808 37.9399 69.2808 37.8105 69.2808 37.6811V35.5456C69.2808 35.4162 69.2808 35.2868 69.3456 35.1573C69.4104 35.0279 69.4752 34.9632 69.54 34.8338C69.6047 34.7691 69.7343 34.7043 69.8639 34.6396C70.123 34.5102 70.3821 34.5102 70.6412 34.6396C70.7708 34.7043 70.8356 34.7691 70.9651 34.8338C71.0299 34.8985 71.0947 35.0279 71.1595 35.1573C71.2243 35.2868 71.2243 35.4162 71.2243 35.5456V37.6811C71.2243 37.8105 71.2243 37.9399 71.1595 38.0694C71.0947 38.1988 71.0299 38.2635 70.9651 38.3929C70.9003 38.4576 70.7708 38.5223 70.6412 38.5871C70.5116 38.5871 70.3821 38.6518 70.2525 38.6518ZM70.2525 34.7043C70.123 34.7043 69.9934 34.7043 69.9286 34.7691C69.7991 34.8338 69.7343 34.8985 69.6695 34.9632C69.6047 35.0279 69.5399 35.1573 69.4752 35.222C69.4104 35.3514 69.4104 35.4162 69.4104 35.5456V37.6811C69.4104 37.8105 69.4104 37.9399 69.4752 38.0046C69.5399 38.1341 69.6047 38.1988 69.6695 38.2635C69.7343 38.3282 69.8638 38.3929 69.9286 38.4576C70.123 38.5223 70.3821 38.5223 70.5764 38.4576C70.706 38.3929 70.7708 38.3282 70.8356 38.2635C70.9004 38.1988 70.9651 38.0693 71.0299 38.0046C71.0947 37.8752 71.0947 37.8105 71.0947 37.6811V35.5456C71.0947 35.4162 71.0947 35.2867 71.0299 35.222C70.9651 35.0926 70.9004 35.0279 70.8356 34.9632C70.7708 34.8985 70.6412 34.8338 70.5764 34.7691C70.4469 34.7043 70.3173 34.7043 70.2525 34.7043Z" fill="#878787"/>
<path d="M75.0464 38.9106H74.6577V35.5457C74.6577 35.4162 74.6577 35.2868 74.5929 35.2221C74.5282 35.0927 74.4634 35.028 74.3986 34.9633C74.3338 34.8985 74.2042 34.8338 74.1395 34.7691C73.9451 34.7044 73.686 34.7044 73.4916 34.7691C73.3621 34.8338 73.2973 34.8985 73.2325 34.9633C73.1677 35.028 73.1029 35.1574 73.0381 35.2221C72.9734 35.3515 72.9734 35.4162 72.9734 35.5457V38.9106H72.5199V34.3809H72.9086V34.6397C72.9734 34.575 73.1029 34.5103 73.2325 34.4456C73.5564 34.3162 73.9451 34.3162 74.269 34.4456C74.3986 34.5103 74.5281 34.575 74.6577 34.7044C74.7873 34.8338 74.8521 34.9633 74.9168 35.0927C74.9816 35.2221 75.0464 35.4162 75.0464 35.6104V38.9106Z" fill="#878787"/>
<path d="M77.3138 38.9106C77.1195 38.9106 76.9899 38.8459 76.7955 38.7812C76.666 38.7165 76.5364 38.6518 76.4068 38.5224C76.2773 38.393 76.2125 38.2635 76.1477 38.1341C76.0829 38.0047 76.0182 37.8106 76.0182 37.6164H76.4068V37.6811C76.4068 37.8105 76.4068 37.94 76.4716 38.0047C76.5364 38.1341 76.6012 38.1988 76.666 38.2635C76.7308 38.3282 76.8603 38.3929 76.9251 38.4577C77.1194 38.5224 77.3786 38.5224 77.5729 38.4577C77.7025 38.3929 77.7673 38.3282 77.832 38.2635C77.8968 38.1988 77.9616 38.0694 78.0264 38.0047C78.0912 37.8752 78.0911 37.8105 78.0911 37.6811C78.0911 37.6164 78.0912 37.487 78.0264 37.4223C77.9616 37.3576 77.8968 37.2929 77.832 37.2282C77.7673 37.1635 77.6377 37.0987 77.5081 37.034C77.3786 36.9693 77.249 36.9046 77.1194 36.8399C76.9899 36.7752 76.8603 36.7105 76.7308 36.6458C76.6012 36.581 76.4716 36.4516 76.3421 36.3869C76.2125 36.3222 76.1477 36.1928 76.0829 36.0634C76.0182 35.9339 75.9534 35.8045 75.9534 35.6104C75.9534 35.4162 76.0182 35.2868 76.0829 35.0927C76.1477 34.9633 76.2125 34.8338 76.3421 34.7044C76.4716 34.575 76.6012 34.5103 76.7308 34.4456C77.0547 34.3162 77.4433 34.3162 77.7025 34.4456C77.832 34.5103 77.9616 34.575 78.0911 34.7044C78.2207 34.8338 78.2855 34.9633 78.3503 35.0927C78.4151 35.2221 78.4799 35.4162 78.4799 35.6104V35.6751H78.0911V35.6104C78.0911 35.4809 78.0912 35.3515 78.0264 35.2868C77.9616 35.1574 77.8968 35.0927 77.832 35.028C77.7673 34.9633 77.6377 34.8986 77.5729 34.8338C77.3786 34.7691 77.1194 34.7691 76.9251 34.8338C76.7955 34.8986 76.7308 34.9633 76.666 35.028C76.6012 35.0927 76.5364 35.2221 76.4716 35.2868C76.4068 35.4162 76.4068 35.4809 76.4068 35.6104C76.4068 35.6751 76.4068 35.8045 76.4716 35.8692C76.5364 35.9339 76.6012 35.9986 76.666 36.0634C76.7308 36.1281 76.8603 36.1928 76.9899 36.2575C77.1195 36.3222 77.249 36.3869 77.3786 36.4516C77.5081 36.5163 77.6377 36.581 77.7672 36.6458C77.8968 36.7105 78.0264 36.8399 78.1559 36.9046C78.2855 37.034 78.3503 37.0987 78.415 37.2282C78.4798 37.3576 78.5446 37.487 78.5446 37.6811C78.5446 37.8752 78.4798 38.0047 78.415 38.1988C78.3503 38.3283 78.2855 38.4577 78.1559 38.5871C78.0264 38.7165 77.8968 38.7812 77.7672 38.8459C77.7025 38.9107 77.5081 38.9106 77.3138 38.9106Z" fill="#878787"/>
<path d="M47.7086 21.8915C47.7086 27.0684 43.4978 31.2747 38.3152 31.2747H29.9584H26.3306V1.44275H31.5779H32.2257H34.7522C39.3517 1.44275 43.1738 5.13129 43.1738 9.7905C43.1738 11.0847 42.8499 12.379 42.2669 13.4791C45.506 14.9674 47.7086 18.1383 47.7086 21.8915ZM32.2905 12.5084H34.817C36.3718 12.5084 37.6026 11.2789 37.6026 9.72579C37.6026 8.17272 36.3718 6.94321 34.817 6.94321H32.2905V8.56099V10.9553V12.5084ZM42.1373 21.8915C42.1373 19.756 40.453 18.1383 38.38 18.1383H32.3553V25.6448H38.38C40.453 25.6448 42.1373 24.027 42.1373 21.8915Z" fill="#878787"/>
<path d="M61.7662 31.1461C60.924 30.8226 60.2114 30.3049 59.6284 29.7225C59.0453 29.1401 58.5271 28.4282 58.2032 27.587C57.8793 26.7457 57.6849 25.9045 57.6849 24.9985H59.2397C59.2397 25.7104 59.3692 26.3575 59.6284 27.0046C59.8875 27.6517 60.2762 28.1694 60.7296 28.6224C61.1831 29.0754 61.7662 29.4636 62.3492 29.7225C62.997 29.9813 63.6448 30.1107 64.3574 30.1107C65.07 30.1107 65.7178 29.9813 66.3657 29.7225C66.9487 29.4636 67.5317 29.0754 67.9852 28.6224C68.4387 28.1694 68.8274 27.587 69.0865 27.0046C69.3456 26.3575 69.4752 25.7104 69.4752 24.9985C69.4752 23.9631 69.3456 22.9925 69.0217 22.2159C68.6978 21.3747 68.2443 20.5982 67.726 19.951C67.2078 19.2392 66.56 18.5921 65.9122 18.0097C65.1996 17.4273 64.487 16.8449 63.7744 16.2625C63.0618 15.6801 62.2844 15.0977 61.5718 14.4506C60.8592 13.8035 60.2114 13.1563 59.6284 12.3798C59.0453 11.668 58.5919 10.8267 58.268 9.92078C57.944 9.01482 57.7497 7.97943 57.7497 6.81463C57.7497 5.90867 57.944 5.00271 58.268 4.22617C58.5919 3.38492 59.1101 2.6731 59.6932 2.0907C60.1466 1.63772 60.6649 1.24945 61.1831 0.990601H48.5507V31.2755H62.0253C61.9605 31.2108 61.831 31.2108 61.7662 31.1461Z" fill="#878787"/>
<path d="M67.5965 0.925049C68.1148 1.24861 68.633 1.57217 69.0217 2.02515C69.6047 2.60755 70.123 3.31937 70.4469 4.16062C70.7708 5.00187 70.9651 5.84312 70.9651 6.74908H69.4104C69.4104 6.03725 69.2808 5.39015 69.0217 4.74304C68.7626 4.16064 68.3739 3.57823 67.9204 3.12525C67.467 2.67227 66.9487 2.284 66.3009 2.02515C65.6531 1.76631 65.0052 1.63688 64.2926 1.63688C63.58 1.63688 62.9322 1.76631 62.2844 2.02515C61.6366 2.284 61.1184 2.67227 60.6649 3.12525C60.2114 3.57823 59.8227 4.09592 59.5636 4.74304C59.3045 5.39015 59.1749 6.03725 59.1749 6.74908C59.1749 7.71975 59.3045 8.62571 59.6284 9.33753C59.9523 10.1141 60.341 10.7612 60.8592 11.4083C61.3775 12.0554 61.9605 12.6378 62.6083 13.2202C63.2562 13.8026 63.9688 14.3203 64.6814 14.9027C65.4587 15.5498 66.2361 16.1322 66.9487 16.8441C67.7261 17.4912 68.3739 18.203 68.9569 19.0442C69.54 19.8208 70.0582 20.7267 70.3821 21.6974C70.7708 22.6681 70.9651 23.7682 70.9651 24.9977C70.9651 25.9037 70.7708 26.8096 70.4469 27.5862C70.123 28.4274 69.6047 29.1392 69.0217 29.7216C68.4387 30.304 67.7261 30.8217 66.9487 31.1453C66.8839 31.21 66.7543 31.21 66.6896 31.2747H78.9333V0.989764H67.5965V0.925049Z" fill="#878787"/>
<path d="M25.1646 31.2747H17.5203L10.4591 23.1858L6.7018 28.9451V31.2747H0.87146V1.89575H6.7018V18.3972L17.5851 1.89575H24.3872L13.763 18.1383L25.1646 31.2747Z" fill="#878787"/>
</svg>
