<svg width="90" height="27" viewBox="0 0 90 27" fill="none" xmlns="http://www.w3.org/2000/svg">
<path d="M54.6601 26.6842H55.243V0.993805H54.6601V26.6842Z" fill="#878787"/>
<path d="M58.6693 12.3031V12.109H58.9285C59.2524 12.109 59.4467 12.0443 59.5763 11.8501C59.6411 11.7207 59.7058 11.4619 59.7058 11.0736V6.60854C59.7058 6.15556 59.6411 5.89672 59.5763 5.7673C59.4467 5.63788 59.2524 5.57315 58.9285 5.57315H58.6693V5.37903H61.6492C62.7505 5.37903 63.5927 5.50845 64.111 5.70258C64.694 5.96143 65.1475 6.34969 65.4714 6.86738C65.7953 7.44978 65.9896 8.03219 65.9896 8.74402C65.9896 9.71468 65.6657 10.4912 65.0827 11.1383C64.3701 11.8501 63.3336 12.2384 61.9084 12.2384H58.6693V12.3031ZM60.7423 11.7854C61.1958 11.8501 61.5845 11.9149 61.9084 11.9149C62.7506 11.9149 63.3984 11.656 63.9814 11.0736C64.4997 10.4912 64.8236 9.77938 64.8236 8.80871C64.8236 7.83804 64.5644 7.06151 63.9814 6.54382C63.3984 6.02613 62.7506 5.70258 61.8436 5.70258C61.5197 5.70258 61.131 5.7673 60.7423 5.83201V11.7854Z" fill="#878787"/>
<path d="M67.6092 9.39114C67.6092 10.103 67.8035 10.6206 68.1274 11.0089C68.5161 11.3972 68.9048 11.5913 69.3583 11.5913C69.6822 11.5913 69.9413 11.5266 70.2005 11.3325C70.4596 11.1383 70.6539 10.8795 70.7835 10.4912L70.9778 10.6206C70.9131 11.0736 70.6539 11.5266 70.33 11.9149C69.9413 12.3031 69.4879 12.4973 68.9696 12.4973C68.3866 12.4973 67.8683 12.3031 67.4796 11.8501C67.0909 11.3972 66.8318 10.8148 66.8318 10.1029C66.8318 9.32641 67.0261 8.67931 67.4796 8.22633C67.9331 7.77336 68.4513 7.57922 69.0992 7.57922C69.6822 7.57922 70.0709 7.77337 70.4596 8.09692C70.7835 8.42048 70.9778 8.93815 70.9778 9.45583H67.6092V9.39114ZM67.6092 9.06759H69.8765C69.8765 8.74403 69.8118 8.5499 69.747 8.42048C69.6822 8.22634 69.5526 8.09691 69.3583 7.96749C69.164 7.83807 68.9696 7.77337 68.7752 7.77337C68.4513 7.77337 68.1922 7.90279 67.9979 8.09692C67.7388 8.35577 67.6092 8.67932 67.6092 9.06759Z" fill="#878787"/>
<path d="M73.31 7.44977V12.1737C73.31 12.9502 73.1156 13.5973 72.7917 13.9856C72.403 14.3739 71.9495 14.568 71.3665 14.568C71.0426 14.568 70.7835 14.5033 70.6539 14.3739C70.5244 14.2445 70.3948 14.115 70.3948 14.0503C70.3948 13.9209 70.4596 13.8562 70.5243 13.7268C70.5891 13.6621 70.7187 13.5974 70.8483 13.5974C70.913 13.5974 71.0426 13.5973 71.1074 13.662C71.1722 13.662 71.3017 13.7915 71.4313 13.9209C71.6257 14.0503 71.7552 14.115 71.8848 14.115C71.9496 14.115 72.0791 14.115 72.1439 14.0503C72.2087 13.9856 72.2734 13.8562 72.3382 13.7268C72.403 13.5973 72.403 13.2738 72.403 12.7561V9.39111C72.403 8.87342 72.403 8.54986 72.3382 8.42044C72.3382 8.29102 72.2735 8.22629 72.2087 8.16158C72.1439 8.09687 72.0791 8.09688 72.0143 8.09688C71.8848 8.09688 71.82 8.09687 71.6256 8.16158L71.5609 7.96745L73.0508 7.38505H73.31V7.44977ZM72.8565 4.99072C72.9861 4.99072 73.1156 5.05544 73.2452 5.12015C73.3747 5.24958 73.3748 5.379 73.3748 5.50843C73.3748 5.63785 73.31 5.76726 73.2452 5.89668C73.1156 6.0261 72.9861 6.02611 72.8565 6.02611C72.7269 6.02611 72.5974 5.96139 72.4678 5.89668C72.3382 5.83197 72.3382 5.70256 72.3382 5.50843C72.3382 5.379 72.403 5.24958 72.4678 5.12015C72.5974 5.05544 72.7269 4.99072 72.8565 4.99072Z" fill="#878787"/>
<path d="M77.456 11.656C76.9378 12.0442 76.6139 12.2384 76.4843 12.3031C76.2899 12.3678 76.0956 12.4325 75.8365 12.4325C75.5126 12.4325 75.1887 12.3031 74.9943 12.1089C74.8 11.9148 74.6704 11.5912 74.6704 11.203C74.6704 10.9441 74.7352 10.75 74.8 10.6206C74.9295 10.3617 75.1886 10.1676 75.5773 9.97346C75.966 9.77932 76.5491 9.52047 77.3913 9.19691V9.00278C77.3913 8.5498 77.3265 8.22624 77.1321 8.03211C77.0025 7.83797 76.7434 7.77327 76.4843 7.77327C76.2899 7.77327 76.0956 7.83797 75.966 7.96739C75.8365 8.09682 75.7717 8.22624 75.7717 8.35567V8.67923C75.7717 8.80865 75.7069 8.93808 75.6421 9.0675C75.5774 9.13221 75.4478 9.19691 75.3182 9.19691C75.1887 9.19691 75.0591 9.13221 74.9943 9.0675C74.9295 9.00279 74.8647 8.87336 74.8647 8.67923C74.8647 8.35567 74.9943 8.09681 75.3182 7.83796C75.6421 7.57911 76.0956 7.44971 76.6139 7.44971C77.0673 7.44971 77.3913 7.51441 77.7152 7.64383C77.9095 7.77326 78.1038 7.90267 78.1686 8.16152C78.2334 8.29094 78.2334 8.61452 78.2334 9.0675V10.6853C78.2334 11.1383 78.2334 11.3971 78.2334 11.5265C78.2334 11.656 78.2982 11.7207 78.2982 11.7207C78.363 11.7854 78.363 11.7854 78.4278 11.7854C78.4925 11.7854 78.5573 11.7854 78.5573 11.7207C78.6221 11.656 78.7517 11.5265 79.0108 11.3324V11.5913C78.6221 12.1089 78.2334 12.3678 77.8447 12.3678C77.6504 12.3678 77.5208 12.3031 77.456 12.1737C77.5208 12.1089 77.456 11.9148 77.456 11.656ZM77.456 11.2677V9.45575C76.9378 9.64989 76.5491 9.77932 76.4195 9.90874C76.1604 10.0382 75.966 10.2323 75.8365 10.3617C75.7069 10.5559 75.6421 10.6853 75.6421 10.8794C75.6421 11.1383 75.7069 11.3324 75.9012 11.4618C76.0308 11.656 76.2252 11.7207 76.4195 11.7207C76.6787 11.7854 77.0025 11.656 77.456 11.2677Z" fill="#878787"/>
<path d="M66.3783 15.6681V15.8623C66.1192 15.927 65.9248 15.9917 65.7952 16.1211C65.6009 16.3152 65.4066 16.5741 65.277 16.8976L62.7505 22.7863H62.5562L59.8354 16.7682C59.7058 16.4447 59.5762 16.2505 59.5115 16.1858C59.4467 16.0564 59.3171 15.9917 59.1876 15.9269C59.058 15.8622 58.8637 15.7975 58.6693 15.7975V15.6034H61.6492V15.7975C61.3253 15.7975 61.0662 15.8622 61.0014 15.9917C60.8719 16.0564 60.8719 16.1858 60.8719 16.3152C60.8719 16.5094 60.9366 16.7682 61.131 17.0918L63.0097 21.1686L64.7588 17.1565C64.9531 16.7682 65.0179 16.5094 65.0179 16.3152C65.0179 16.1858 64.9531 16.1211 64.8883 16.0564C64.7587 15.9917 64.6292 15.927 64.3701 15.8623H64.3053V15.6681H66.3783Z" fill="#878787"/>
<path d="M67.8683 17.8035V21.5568C67.8683 21.8803 67.8683 22.0745 67.9331 22.1392C67.9978 22.2686 68.0626 22.3333 68.1274 22.3333C68.1922 22.398 68.3865 22.398 68.5809 22.398V22.5922H66.184V22.398C66.4431 22.398 66.5727 22.398 66.6374 22.3333C66.7022 22.2686 66.767 22.2039 66.8318 22.1392C66.8966 22.0745 66.8966 21.8156 66.8966 21.5568V19.7449C66.8966 19.2272 66.8966 18.9036 66.8318 18.7742C66.8318 18.6448 66.767 18.58 66.7023 18.5153C66.6375 18.4506 66.5727 18.4506 66.5079 18.4506C66.3783 18.4506 66.3136 18.4506 66.1192 18.5153L66.0544 18.3212L67.5444 17.7388H67.8683V17.8035ZM67.4148 15.3445C67.5444 15.3445 67.6739 15.4092 67.8035 15.4739C67.9331 15.6033 67.9331 15.6681 67.9331 15.8622C67.9331 16.0563 67.8683 16.121 67.8035 16.2504C67.6739 16.3799 67.5444 16.3799 67.4148 16.3799C67.2853 16.3799 67.1557 16.3151 67.0262 16.2504C66.8966 16.121 66.8966 16.0563 66.8966 15.8622C66.8966 15.6681 66.9614 15.6033 67.0262 15.4739C67.1557 15.4092 67.2853 15.3445 67.4148 15.3445Z" fill="#878787"/>
<path d="M72.4031 17.8036V19.4214H72.2735C72.1439 18.9037 71.9496 18.5801 71.7553 18.386C71.5609 18.1919 71.3018 18.1271 70.9131 18.1271C70.654 18.1271 70.4596 18.1918 70.3301 18.3213C70.2005 18.4507 70.0709 18.5801 70.0709 18.7095C70.0709 18.9037 70.1357 19.0331 70.2653 19.2272C70.3949 19.3566 70.5892 19.4861 70.9131 19.6802L71.6905 20.0685C72.4031 20.392 72.7917 20.845 72.7917 21.4274C72.7917 21.8804 72.5974 22.2039 72.2735 22.4628C71.9496 22.7216 71.5609 22.851 71.1074 22.851C70.7835 22.851 70.4596 22.7863 70.0709 22.7216C69.9413 22.6569 69.8766 22.6569 69.8118 22.6569C69.747 22.6569 69.6823 22.7216 69.6175 22.7863H69.4231V21.1038H69.6175C69.747 21.5568 69.9414 21.9451 70.2005 22.2039C70.4596 22.4628 70.7835 22.5922 71.1722 22.5922C71.4313 22.5922 71.6257 22.5275 71.7553 22.3981C71.8848 22.2686 72.0144 22.0745 72.0144 21.8804C72.0144 21.6215 71.9496 21.4274 71.7553 21.298C71.5609 21.1686 71.237 20.9097 70.7187 20.7156C70.2005 20.4567 69.8766 20.2626 69.6822 20.0685C69.5527 19.8743 69.4231 19.6155 69.4231 19.3567C69.4231 18.9684 69.5527 18.6448 69.8118 18.386C70.0709 18.1271 70.4596 17.9977 70.9131 17.9977C71.1074 17.9977 71.3666 18.0624 71.6257 18.1271C71.82 18.1919 71.9496 18.1918 72.0144 18.1918C72.0791 18.1918 72.1439 18.1919 72.1439 18.1271C72.1439 18.1271 72.2087 18.0624 72.2735 17.9977H72.4031V17.8036Z" fill="#878787"/>
<path d="M74.9944 15.3445V18.7743C75.3831 18.386 75.707 18.0624 75.9661 17.9977C76.2252 17.8683 76.4196 17.8036 76.6787 17.8036C76.9378 17.8036 77.197 17.8683 77.3913 17.9977C77.5857 18.1271 77.7152 18.386 77.8448 18.7095C77.9095 18.9037 77.9743 19.3567 77.9743 19.9391V21.6216C77.9743 21.9451 77.9743 22.1393 78.0391 22.204C78.1039 22.2687 78.1039 22.3334 78.2335 22.3981C78.2982 22.4628 78.4926 22.4628 78.687 22.4628V22.657H76.29V22.4628H76.4196C76.6787 22.4628 76.8082 22.3981 76.873 22.3334C76.9378 22.2687 77.0026 22.1393 77.0674 22.0098C77.0674 21.9451 77.0674 21.8157 77.0674 21.5568V19.8743C77.0674 19.3567 77.0674 19.0331 77.0026 18.839C76.9378 18.7095 76.873 18.5801 76.7435 18.4507C76.6139 18.386 76.4843 18.3213 76.29 18.3213C76.0957 18.3213 75.9013 18.386 75.7718 18.4507C75.5774 18.5154 75.383 18.7095 75.0591 18.9684V21.4274C75.0591 21.751 75.0591 21.9451 75.1239 22.0098C75.1887 22.0745 75.2535 22.1393 75.3183 22.204C75.4478 22.2687 75.5774 22.2687 75.8365 22.2687V22.4628H73.3748V22.2687C73.5692 22.2687 73.7635 22.204 73.8931 22.1392C73.9578 22.0745 74.0226 22.0098 74.0874 21.9451C74.1522 21.8804 74.1522 21.6863 74.1522 21.3627V17.0918C74.1522 16.5741 74.1522 16.2505 74.0874 16.1211C74.0874 15.9917 74.0226 15.927 73.9578 15.8622C73.893 15.7975 73.8283 15.7975 73.7635 15.7975C73.6987 15.7975 73.5692 15.7975 73.3748 15.8622L73.31 15.6681L74.8 15.0857H74.9944V15.3445Z" fill="#878787"/>
<path d="M80.436 18.839C81.019 18.1919 81.5372 17.8683 82.0555 17.8683C82.3146 17.8683 82.5738 17.933 82.7681 18.0624C82.9624 18.1919 83.092 18.386 83.2216 18.7096C83.2864 18.9037 83.3511 19.2273 83.3511 19.6802V21.6863C83.3511 22.0098 83.3511 22.204 83.4159 22.2687C83.4807 22.3334 83.5455 22.3981 83.6102 22.4628C83.675 22.5275 83.8694 22.5275 84.1285 22.5275V22.7216H81.6668V22.5275H81.7964C82.0555 22.5275 82.1851 22.4628 82.2499 22.3981C82.3146 22.3334 82.3794 22.204 82.4442 22.0745C82.4442 22.0098 82.4442 21.8804 82.4442 21.6216V19.6802C82.4442 19.2273 82.3794 18.9684 82.2499 18.7743C82.1203 18.5801 81.9259 18.5154 81.6668 18.5154C81.2134 18.5154 80.8247 18.7095 80.3712 19.1625V21.6216C80.3712 21.9451 80.3712 22.1393 80.436 22.204C80.5008 22.3334 80.5656 22.3981 80.6304 22.3981C80.6951 22.4628 80.8895 22.4628 81.1486 22.4628V22.657H78.6869V22.4628H78.8165C79.0756 22.4628 79.2052 22.3981 79.3347 22.2687C79.3995 22.1393 79.4643 21.9451 79.4643 21.5569V19.8096C79.4643 19.2272 79.4643 18.9037 79.3995 18.7743C79.3995 18.6449 79.3347 18.5801 79.2699 18.5154C79.2052 18.4507 79.1404 18.4507 79.0756 18.4507C78.946 18.4507 78.8813 18.4507 78.6869 18.5154L78.6221 18.3213L80.1121 17.7389H80.3712V18.839H80.436Z" fill="#878787"/>
<path d="M84.2581 17.933H86.5254V18.1271H86.3959C86.2663 18.1271 86.1367 18.1918 86.0072 18.2565C85.9424 18.3213 85.8776 18.386 85.8776 18.5154C85.8776 18.6448 85.9424 18.839 86.0719 19.0978L87.238 21.4921L88.3393 18.9037C88.404 18.7742 88.4041 18.6448 88.4041 18.5154C88.4041 18.4507 88.404 18.386 88.3393 18.386C88.3393 18.3213 88.2745 18.3213 88.2097 18.3213C88.1449 18.3213 88.0154 18.2565 87.8858 18.2565V18.0624H89.5053V18.2565C89.3757 18.2565 89.2462 18.3213 89.1814 18.3213C89.1166 18.386 89.0519 18.4507 88.9223 18.5801C88.9223 18.6448 88.8575 18.7742 88.728 18.9684L86.7198 23.6276C86.5254 24.0806 86.2663 24.4041 85.9424 24.663C85.6185 24.9218 85.3594 24.9865 85.0355 24.9865C84.8411 24.9865 84.6468 24.9218 84.5172 24.7924C84.3877 24.663 84.3229 24.5335 84.3229 24.4041C84.3229 24.2747 84.3877 24.1453 84.4524 24.0806C84.582 24.0158 84.7116 23.9511 84.8411 23.9511C84.9707 23.9511 85.1002 24.0158 85.2946 24.0806C85.4241 24.1453 85.5537 24.1453 85.5537 24.1453C85.6833 24.1453 85.7481 24.0806 85.8776 24.0158C86.0072 23.8864 86.1367 23.6923 86.2663 23.3687L86.5902 22.5275L84.8411 18.9684C84.7764 18.8389 84.7116 18.7095 84.582 18.5801C84.5172 18.4507 84.3877 18.386 84.3877 18.3213C84.3229 18.2565 84.1933 18.1918 83.999 18.1918V17.933H84.2581Z" fill="#878787"/>
<path d="M50.183 0.978638V1.69045C49.276 1.81987 48.6282 2.14344 48.1747 2.53171C47.5269 3.11411 46.9439 4.08477 46.4256 5.31429L37.6153 26.7338H36.9028L27.4446 5.05545C26.9912 3.95535 26.6025 3.24352 26.4081 2.98467C26.0842 2.59641 25.6955 2.27285 25.2421 2.07872C24.7886 1.88459 24.2055 1.75516 23.4282 1.69045V0.978638H33.7284V1.69045C32.5624 1.81987 31.785 2.01402 31.4611 2.27287C31.1372 2.53171 30.9428 2.91997 30.9428 3.37295C30.9428 4.02006 31.202 4.92602 31.785 6.28496L38.1984 21.0392L44.1583 6.47911C44.7413 5.05546 45.0005 4.02007 45.0005 3.50238C45.0005 3.11411 44.8061 2.79055 44.4822 2.46699C44.0935 2.14343 43.5105 1.88459 42.6683 1.75516C42.6035 1.75516 42.474 1.75516 42.3444 1.69045V0.978638H50.183Z" fill="#878787"/>
<path d="M24.3998 6.60851C23.169 4.60246 21.5495 3.11411 19.5412 2.27286C17.533 1.43162 14.6179 0.978638 10.731 0.978638H0.236389V1.69045H1.20811C2.11505 1.69045 2.82764 1.9493 3.34589 2.40228H11.4436H11.5084C14.5531 2.40228 17.0148 3.43767 18.9582 5.50843C20.9017 7.5792 21.8734 10.3618 21.8734 13.9209C21.8734 17.48 20.9017 20.2626 18.9582 22.3334C17.0148 24.4041 14.5531 25.4395 11.6379 25.4395C10.5367 25.4395 9.17624 25.2454 7.62148 24.9218V15.7328L3.9937 19.2919V22.2687C3.9937 23.6923 3.86415 24.663 3.60503 25.0512C3.15156 25.7631 2.3742 26.0866 1.27292 26.0866H0.301194V26.7985H11.8323C16.8204 26.7985 20.5778 25.4395 22.9747 22.7864C25.1772 20.392 26.2137 17.4153 26.2137 13.7915C26.2137 11.0089 25.6307 8.67928 24.3998 6.60851Z" fill="#878787"/>
<path d="M4.90059 4.4082C5.09495 4.4082 5.28934 4.4082 5.4837 4.4082C5.4837 4.47291 5.4837 4.53762 5.4837 4.60233C5.4837 8.67915 5.4837 12.756 5.4837 16.8328C5.4837 16.9622 5.4837 17.0269 5.35412 17.0917C5.22454 17.2211 5.03017 17.4152 4.90059 17.6093C4.90059 17.6093 4.9006 17.6093 4.83582 17.6093C4.9006 13.209 4.90059 8.80859 4.90059 4.4082Z" fill="#878787"/>
<path d="M6.00195 4.40822C6.19628 4.40822 6.39058 4.40822 6.5849 4.34351C6.5849 4.40822 6.5849 4.47294 6.5849 4.53765C6.5849 8.22619 6.5849 11.9794 6.5849 15.668C6.5849 15.7974 6.52016 15.8621 6.45538 15.9268C6.32583 16.0562 6.19628 16.2504 6.00195 16.4445C6.00195 12.4324 6.00195 8.42032 6.00195 4.40822Z" fill="#878787"/>
<path d="M3.92889 18.58C3.92889 13.7914 3.92889 9.06746 3.92889 4.27881C4.12324 4.27881 4.2528 4.34352 4.44714 4.34352C4.44714 4.40824 4.44714 4.47296 4.44714 4.53767C4.44714 9.00276 4.44714 13.4678 4.44714 17.9329C4.44714 18.0624 4.44714 18.1271 4.31757 18.2565C4.18801 18.3212 4.05846 18.4506 3.92889 18.58Z" fill="#878787"/>
<path d="M7.10321 15.3445C7.10321 11.6559 7.10321 7.96735 7.10321 4.27881C7.29753 4.27881 7.42708 4.21411 7.6214 4.21411C7.6214 4.27882 7.6214 4.34353 7.6214 4.47295C7.6214 7.90265 7.6214 11.2676 7.6214 14.6973C7.6214 14.8268 7.62139 14.9562 7.49184 15.0209C7.36229 15.0856 7.23276 15.215 7.10321 15.3445Z" fill="#878787"/>
<path d="M7.8158 2.98462C7.75101 3.24346 7.68622 3.50232 7.55665 3.82587C6.39058 4.08471 5.15974 4.08472 3.92888 3.89058C3.8641 3.56703 3.73452 3.30817 3.66974 2.98462C5.09494 2.98462 6.45538 2.98462 7.8158 2.98462Z" fill="#878787"/>
</svg>
