<svg width="48" height="52" viewBox="0 0 48 52" fill="none" xmlns="http://www.w3.org/2000/svg">
<path d="M0.683044 36.0809H3.20954L5.4769 43.5228L7.74426 36.0809H10.2707L6.96687 46.176H3.98691L0.683044 36.0809Z" fill="#878787"/>
<path d="M13.3802 36.0809V46.176H11.0481V36.0809H13.3802Z" fill="#878787"/>
<path d="M20.7006 46.176L17.4615 41.5167V46.176H15.1293V36.0809H17.4615V40.4813L20.571 36.0809H23.227L19.7936 40.999L23.3566 46.176H20.7006Z" fill="#878787"/>
<path d="M26.5309 36.0809V46.176H24.1988V36.0809H26.5309Z" fill="#878787"/>
<path d="M36.2482 36.0809V46.176H34.4991L30.6122 40.6755V46.176H28.28V36.0809H30.0291L33.916 41.5814V36.0809H36.2482Z" fill="#878787"/>
<path d="M47.9736 41.452C47.9736 44.5581 45.8359 46.4348 42.9855 46.4348C39.8112 46.4348 37.5438 44.1052 37.5438 41.1932C37.5438 38.2812 39.8759 35.8868 42.8559 35.8868C44.7994 35.8868 46.4189 36.8575 47.2611 38.2164L45.3176 39.3165C44.9289 38.6694 43.9572 38.1517 42.8559 38.1517C41.1716 38.1517 39.8759 39.3813 39.8759 41.1932C39.8759 42.9404 41.1068 44.1699 43.0503 44.1699C44.4107 44.1699 45.2528 43.5875 45.6415 42.6168H42.9207V40.6108H47.9736V41.452Z" fill="#878787"/>
<path d="M2.36737 50.3175C2.36737 49.3468 3.14475 48.6997 4.0517 48.6997C4.82907 48.6997 5.28255 49.1527 5.4769 49.541L4.7643 49.8645C4.63473 49.6057 4.3756 49.4116 4.0517 49.4116C3.53344 49.4116 3.20954 49.7998 3.20954 50.3175C3.20954 50.8352 3.59822 51.2235 4.0517 51.2235C4.3756 51.2235 4.63473 51.0293 4.7643 50.7705L5.4769 51.0941C5.28255 51.4823 4.82907 51.9353 4.0517 51.9353C3.07997 52 2.36737 51.2882 2.36737 50.3175Z" fill="#878787"/>
<path d="M7.35559 48.6997C8.32732 48.6997 9.03992 49.3468 9.03992 50.3175C9.03992 51.2882 8.32732 51.9353 7.35559 51.9353C6.38387 51.9353 5.67126 51.2882 5.67126 50.3175C5.67126 49.3468 6.38387 48.6997 7.35559 48.6997ZM7.35559 49.4116C6.83734 49.4116 6.51342 49.7998 6.51342 50.3175C6.51342 50.8352 6.83734 51.2235 7.35559 51.2235C7.87384 51.2235 8.19774 50.8352 8.19774 50.3175C8.19774 49.7998 7.87384 49.4116 7.35559 49.4116Z" fill="#878787"/>
<path d="M12.279 49.7998L11.5016 51.9352H11.1129L10.3355 49.7998V51.9352H9.49335V48.7644H10.6594L11.3072 50.5763L11.9551 48.7644H13.1211V51.9352H12.279V49.7998Z" fill="#878787"/>
<path d="M16.4898 49.7998L15.7124 51.9352H15.3237L14.5463 49.7998V51.9352H13.7042V48.7644H14.8702L15.518 50.5763L16.1658 48.7644H17.3319V51.9352H16.4898V49.7998Z" fill="#878787"/>
<path d="M17.8502 48.7644H18.6923V50.641C18.6923 51.0293 18.8867 51.2881 19.3401 51.2881C19.7936 51.2881 19.988 51.0293 19.988 50.641V48.7644H20.8301V50.641C20.8301 51.4175 20.3766 52 19.3401 52C18.3036 52 17.8502 51.4175 17.8502 50.641V48.7644Z" fill="#878787"/>
<path d="M22.2553 49.9939V51.9352H21.4131V48.7644H22.2553L23.551 50.5763V48.7644H24.3931V51.9352H23.6157L22.2553 49.9939Z" fill="#878787"/>
<path d="M24.9114 48.7644H25.7535V51.9352H24.9114V48.7644Z" fill="#878787"/>
<path d="M26.1422 50.3175C26.1422 49.3468 26.9196 48.6997 27.8265 48.6997C28.6039 48.6997 29.0574 49.1527 29.2517 49.541L28.5391 49.8645C28.4096 49.6057 28.1504 49.4116 27.8265 49.4116C27.3083 49.4116 26.9844 49.7998 26.9844 50.3175C26.9844 50.8352 27.3731 51.2235 27.8265 51.2235C28.1504 51.2235 28.4096 51.0293 28.5391 50.7705L29.2517 51.0941C29.0574 51.4823 28.6039 51.9353 27.8265 51.9353C26.9196 52 26.1422 51.2882 26.1422 50.3175Z" fill="#878787"/>
<path d="M31.6487 51.4176H30.3531L30.1587 51.8706H29.2518L30.4826 48.6997H31.5191L32.75 51.8706H31.843L31.6487 51.4176ZM30.5474 50.7705H31.4543L31.0009 49.4763L30.5474 50.7705Z" fill="#878787"/>
<path d="M33.333 49.4762H32.426V48.7644H35.0173V49.4762H34.1751V51.9352H33.333V49.4762Z" fill="#878787"/>
<path d="M35.4708 48.7644H36.3129V51.9352H35.4708V48.7644Z" fill="#878787"/>
<path d="M38.3859 48.6997C39.3576 48.6997 40.0703 49.3468 40.0703 50.3175C40.0703 51.2882 39.3576 51.9353 38.3859 51.9353C37.4142 51.9353 36.7016 51.2882 36.7016 50.3175C36.7016 49.3468 37.4142 48.6997 38.3859 48.6997ZM38.3859 49.4116C37.8677 49.4116 37.5438 49.7998 37.5438 50.3175C37.5438 50.8352 37.8677 51.2235 38.3859 51.2235C38.9042 51.2235 39.2281 50.8352 39.2281 50.3175C39.2929 49.7998 38.9042 49.4116 38.3859 49.4116Z" fill="#878787"/>
<path d="M41.3659 49.9939V51.9352H40.5237V48.7644H41.3659L42.6616 50.5763V48.7644H43.5037V51.9352H42.7263L41.3659 49.9939Z" fill="#878787"/>
<path d="M44.2811 50.8352C44.5402 51.094 44.8641 51.2235 45.3176 51.2235C45.5767 51.2235 45.771 51.094 45.771 50.9646C45.771 50.7705 45.5767 50.7058 45.2528 50.6411C44.7345 50.5116 44.0219 50.3822 44.0219 49.6704C44.0219 49.1527 44.4754 48.6997 45.3176 48.6997C45.8358 48.6997 46.2893 48.8291 46.6132 49.1527L46.1597 49.7351C45.9006 49.541 45.5119 49.4116 45.2528 49.4116C44.9937 49.4116 44.8641 49.541 44.8641 49.6704C44.8641 49.8645 45.0584 49.8645 45.3823 49.9939C45.9006 50.1234 46.6132 50.2528 46.6132 50.9646C46.6132 51.6117 46.1597 52 45.2528 52C44.605 52 44.1515 51.8059 43.8276 51.4823L44.2811 50.8352Z" fill="#878787"/>
<path d="M38.6451 5.73134C37.3494 5.4725 36.0538 5.27836 34.6286 5.08423C36.1186 7.2197 36.9608 10.4552 36.7664 14.0791C36.6368 15.6321 36.3777 17.1205 35.9243 18.4794C35.7299 18.9971 35.5356 19.5148 35.3412 20.0325C35.6003 20.1619 35.8595 20.2267 36.1186 20.2914C36.3129 20.3561 36.4425 20.4208 36.6368 20.4855C36.7664 20.5502 36.9608 20.5502 37.0903 20.6149C37.2199 20.6796 37.4142 20.6796 37.5438 20.7443C37.6734 20.809 37.8677 20.809 37.9972 20.8737C38.1916 20.9385 38.3859 21.0032 38.5803 21.0032C38.7098 21.0032 38.8394 21.0032 38.969 21.0679C38.969 21.0679 38.969 21.0679 39.0338 21.0679C39.552 20.0325 40.0055 18.8677 40.2646 17.6382C40.4589 16.6675 40.6533 15.6969 40.7181 14.6615C40.9124 11.1024 40.0703 7.86681 38.6451 5.73134Z" fill="#878787"/>
<path d="M33.6569 4.95478C32.4261 4.82536 31.1952 4.69594 29.8996 4.63123C31.1952 6.44314 31.9078 9.03159 31.7782 11.9436C31.7782 12.5907 31.7135 13.2378 31.5839 13.8849C31.3895 15.0497 31.0656 16.1498 30.677 17.1852C30.677 17.3146 30.677 17.3794 30.677 17.4441C30.9361 17.6382 31.1952 17.8323 31.4543 18.0265C31.9078 18.2853 32.3613 18.6089 32.8147 18.8677H32.8795C33.2034 19.0619 33.5273 19.1913 33.8513 19.3854C33.9808 19.1913 34.1104 18.9324 34.2399 18.7383C35.0173 17.1852 35.6004 15.3086 35.7299 13.3025C35.989 9.93753 35.1469 6.89612 33.6569 4.95478Z" fill="#878787"/>
<path d="M27.5674 4.50183L27.2435 13.9497C27.3083 14.0144 27.3731 14.0791 27.4379 14.1438C27.5674 14.338 27.697 14.5321 27.8913 14.7262C28.0857 14.9851 28.3448 15.2439 28.5391 15.4381C28.7335 15.6969 28.9926 15.891 29.2517 16.0852C30.0291 14.6615 30.4826 12.979 30.6121 11.1671C30.8065 8.57864 30.1587 6.18434 28.9926 4.43713C28.4744 4.56656 28.0209 4.50183 27.5674 4.50183Z" fill="#878787"/>
<path d="M11.9551 14.0791C11.6959 10.4553 12.6029 7.15499 14.0928 5.08423C12.6677 5.27836 11.3072 5.4725 10.0764 5.73134C8.58641 7.86682 7.80904 11.0377 8.00339 14.6615C8.06817 15.6969 8.19772 16.7323 8.45684 17.703C8.78075 18.9325 9.16946 20.0973 9.68771 21.1327H9.75248C9.88204 21.0679 10.0116 21.0679 10.1412 21.0679C10.3355 21.0032 10.5299 20.9385 10.7242 20.9385C10.8538 20.8738 11.0481 20.8738 11.1777 20.8091C11.3072 20.7444 11.5016 20.7444 11.6312 20.6797C11.7607 20.615 11.9551 20.615 12.0846 20.5502C12.279 20.4855 12.4085 20.4208 12.6029 20.3561C12.862 20.2914 13.1211 20.162 13.3802 20.0973C13.1859 19.6443 12.9268 19.1266 12.7972 18.5442C12.3437 17.1206 12.0198 15.6322 11.9551 14.0791Z" fill="#878787"/>
<path d="M17.0728 13.8849C16.9432 13.2378 16.8784 12.5907 16.8784 11.9436C16.8137 9.03159 17.5263 6.44314 18.7571 4.63123C17.4615 4.69594 16.1658 4.82536 14.9998 4.95478C13.5098 6.89612 12.6676 9.93755 12.9268 13.2378C13.1211 15.2439 13.6394 17.1205 14.4167 18.6736C14.5463 18.8677 14.6759 19.1266 14.8054 19.3207C15.1293 19.1913 15.4533 18.9971 15.7772 18.803C15.7772 18.803 15.842 18.803 15.842 18.7383C16.2954 18.4794 16.7489 18.2206 17.2024 17.8971C17.4615 17.7029 17.7206 17.5088 17.9797 17.3146C17.9797 17.2499 17.9797 17.1205 17.9797 17.0558C17.591 16.1499 17.2671 15.0497 17.0728 13.8849Z" fill="#878787"/>
<path d="M19.7289 4.56648C18.5628 6.31369 17.915 8.70803 18.1093 11.2965C18.2389 13.1084 18.6924 14.7909 19.4697 16.2145C19.7289 16.0204 19.9232 15.7616 20.1823 15.5674C20.4415 15.3086 20.6358 15.1145 20.8301 14.8556C20.9597 14.6615 21.1541 14.4673 21.2836 14.2732C21.4132 14.0791 21.5428 13.9496 21.6723 13.7555L21.3484 4.56648C20.7654 4.50177 20.2471 4.50177 19.7289 4.56648Z" fill="#878787"/>
<path d="M37.7381 23.074C37.7381 22.9446 37.7381 22.7505 37.6733 22.621C37.6085 22.621 37.5438 22.621 37.479 22.621C37.4142 22.5563 37.2846 22.6211 37.1551 22.5563C37.0903 22.4916 36.9607 22.5563 36.8312 22.4916C36.6368 22.4916 36.5073 22.4269 36.3129 22.3622C36.1833 22.3622 36.0538 22.2975 35.9242 22.2975C35.7947 22.2328 35.6651 22.2328 35.5355 22.2328C35.406 22.1681 35.2764 22.1681 35.1468 22.1681C35.0173 22.1033 34.8877 22.1033 34.6934 22.0386C34.3047 21.9092 33.8512 21.7798 33.4625 21.6504C32.9443 21.4562 32.3612 21.1974 31.843 20.9386C31.4543 20.7444 31.0656 20.5503 30.6769 20.2914C30.4178 20.162 30.2234 19.9679 29.9643 19.8385C29.8995 19.7737 29.8347 19.709 29.77 19.709C29.7052 19.6443 29.6404 19.6443 29.5756 19.5796C29.5108 19.5149 29.4461 19.5149 29.3813 19.4502C29.3165 19.3855 29.1869 19.3208 29.1222 19.256C29.0574 19.1913 28.9278 19.1266 28.863 18.9972C28.6039 18.8031 28.4096 18.6089 28.1504 18.4148C27.9561 18.2207 27.7617 18.0265 27.5674 17.8324C27.4378 17.703 27.3083 17.5089 27.1787 17.3794L27.1139 17.3147L26.9196 22.1681C27.0491 22.2975 27.1787 22.3622 27.373 22.4916C27.6322 22.6857 27.8913 22.8152 28.1504 23.0093C28.3448 23.1387 28.6039 23.2682 28.7982 23.3976C29.1222 23.5917 29.4461 23.7211 29.77 23.9153C30.0939 24.1094 30.4826 24.2388 30.8065 24.433C31.2599 24.6271 31.7782 24.8212 32.2317 25.0154C32.3612 25.0801 32.4908 25.1448 32.6204 25.1448C32.8147 25.2095 33.009 25.2742 33.2034 25.3389C33.3977 25.4036 33.5921 25.4683 33.7864 25.5331C34.1751 25.6625 34.6286 25.7272 35.0173 25.8566C35.3412 25.9213 35.6003 25.986 35.9242 25.986C36.1834 26.1155 36.5073 26.0508 36.7664 26.1155C36.896 26.1155 36.9607 26.1155 37.0903 26.1802C37.1551 26.1802 37.2846 26.1802 37.3494 26.1802C37.3494 26.1155 37.3494 25.986 37.4142 25.9213C37.479 25.8566 37.4142 25.7272 37.479 25.6625C37.6086 25.4684 37.5438 25.2742 37.6085 25.0801C37.6733 24.8212 37.6733 24.6271 37.6733 24.3683C37.7381 23.7859 37.7381 23.3976 37.7381 23.074Z" fill="#878787"/>
<path d="M12.4085 25.7919C12.6028 25.7919 12.862 25.7272 13.0563 25.6625C13.0563 25.6625 13.1211 25.6625 13.1859 25.6625C13.3155 25.6625 13.3802 25.6625 13.5098 25.5978C13.5746 25.5978 13.5746 25.5978 13.6393 25.5978C13.7689 25.5978 13.8985 25.5978 14.028 25.5331C14.2224 25.4684 14.4167 25.4683 14.6111 25.4036C14.7406 25.4036 14.8054 25.3389 14.935 25.3389C14.9998 25.3389 15.1293 25.2742 15.2589 25.2742C15.4532 25.2095 15.7124 25.1448 15.9067 25.0801C16.2306 24.9507 16.5545 24.8859 16.8784 24.7565C17.5262 24.4977 18.1741 24.2388 18.7571 23.98C18.8867 23.9153 19.0162 23.8506 19.1458 23.7859C19.4049 23.6564 19.5993 23.5917 19.8584 23.4623C20.0527 23.3329 20.3119 23.2035 20.5062 23.074C20.6358 23.0093 20.7653 22.9446 20.8301 22.8799C21.0244 22.7505 21.2836 22.6211 21.4779 22.4269C21.6723 22.2975 21.8018 22.1681 21.9962 22.0386L21.8018 17.1853C21.6723 17.3794 21.5427 17.5089 21.3484 17.703C21.0892 18.0266 20.7653 18.2854 20.4414 18.609C20.3766 18.6737 20.3119 18.7384 20.2471 18.7384C20.1823 18.7384 20.1175 18.8031 20.0527 18.8678C19.988 18.9325 19.9879 18.9972 19.9232 18.9972C19.8584 18.9972 19.7936 19.1266 19.7936 19.1266C19.5345 19.3208 19.3401 19.5149 19.081 19.6444C18.8219 19.7738 18.6275 19.9032 18.4332 20.0326C18.2389 20.162 18.1093 20.2267 17.9149 20.3562C17.4615 20.615 17.0728 20.8738 16.5545 21.068C16.4897 21.068 16.425 21.1327 16.3602 21.1974C16.0363 21.3268 15.7772 21.4563 15.4532 21.5857C15.2589 21.6504 15.0646 21.7798 14.8054 21.8445C14.6111 21.9092 14.4167 21.9739 14.2224 22.0386C14.0281 22.1034 13.8337 22.1681 13.6393 22.2328C13.3154 22.2975 12.9268 22.4269 12.6029 22.4916C12.4733 22.4916 12.2789 22.5564 12.1494 22.5564C11.8255 22.6211 11.5016 22.6858 11.1777 22.6858C11.1129 22.7505 11.1129 22.8152 11.1129 22.8799C11.1129 23.2035 11.1129 23.4623 11.1129 23.7859C11.1129 24.0447 11.0481 24.3682 11.1777 24.6271C11.2424 24.7565 11.1777 24.886 11.2424 25.0154C11.3072 25.2095 11.3072 25.3389 11.3072 25.5331C11.3072 25.7272 11.372 25.8566 11.4368 25.9861C11.5663 25.9861 11.6311 25.9861 11.7607 25.9861C11.8255 25.9861 11.8255 25.9861 11.8903 25.9861C12.0198 25.7919 12.2142 25.7919 12.4085 25.7919Z" fill="#878787"/>
<path d="M36.3777 26.9567C36.2481 26.9567 36.1833 26.9566 36.0538 26.8919C35.7947 26.8272 35.5355 26.8272 35.2764 26.7625C34.8229 26.6331 34.3695 26.5684 33.9808 26.439C33.8512 26.439 33.7216 26.3742 33.6569 26.3742C33.4625 26.3095 33.2034 26.2448 33.0091 26.1801C32.6204 26.0507 32.2964 25.9213 31.9078 25.7919C31.5838 25.6624 31.2599 25.533 30.936 25.4036C30.7417 25.3389 30.6121 25.2742 30.4178 25.1447C30.0291 24.9506 29.6404 24.8212 29.3165 24.627C28.9278 24.4329 28.6039 24.2388 28.28 24.0446C28.1504 23.9152 27.9561 23.8505 27.8265 23.7211C27.697 23.6564 27.5026 23.5269 27.373 23.4622C27.3083 23.3975 27.3083 23.3975 27.2435 23.3328C27.1139 23.2681 27.0491 23.2034 26.9843 23.1387L26.8548 26.7625H26.9196C27.3083 26.9567 27.7617 27.2155 28.1504 27.4096C28.5391 27.6038 28.9926 27.7979 29.3813 27.992C29.6404 28.1214 29.8995 28.2509 30.2234 28.3156C30.4826 28.445 30.8065 28.5097 31.0656 28.6391C31.1304 28.6391 31.1952 28.7039 31.2599 28.7039C31.5191 28.7686 31.7782 28.8333 32.0373 28.9627C32.2317 29.0274 32.3612 29.0921 32.5556 29.0921C32.8147 29.1568 33.009 29.2215 33.2682 29.2862C33.4625 29.351 33.6569 29.4157 33.8512 29.4157C33.9808 29.4804 34.1751 29.4804 34.3047 29.4804C34.4342 29.5451 34.6286 29.5451 34.7581 29.6098C34.9525 29.6745 35.1468 29.6745 35.3412 29.7392C35.406 29.7392 35.4707 29.7392 35.5355 29.6745C35.6003 29.5451 35.7947 29.351 35.8594 29.2215C36.0538 29.0274 36.1833 28.7686 36.3129 28.5744C36.4425 28.445 36.5073 28.2509 36.572 28.1214C36.6368 27.992 36.7664 27.7979 36.8312 27.6685C36.8959 27.539 36.9607 27.3449 37.0255 27.2155C37.0903 27.1508 37.0903 27.0861 37.0903 27.0213C36.9607 27.0213 36.8959 26.9567 36.7664 26.9567C36.572 27.0214 36.4425 27.0214 36.3777 26.9567Z" fill="#878787"/>
<path d="M15.2589 29.4157C15.3885 29.4157 15.518 29.351 15.6476 29.2862C15.9715 29.2215 16.2306 29.1568 16.4898 29.0921C16.8137 28.9627 17.1376 28.9627 17.3967 28.8333C17.591 28.8333 17.7854 28.7038 17.9149 28.6391C18.1093 28.5744 18.3036 28.5097 18.498 28.445C18.8867 28.3156 19.2754 28.1214 19.6641 27.992C19.988 27.8626 20.3119 27.6685 20.6358 27.539C21.0245 27.3449 21.3484 27.1508 21.7371 26.9567C21.8666 26.8919 21.9962 26.8272 22.1257 26.7625L21.9962 23.1387C21.8666 23.2034 21.8019 23.2681 21.6723 23.3328C21.6723 23.3328 21.6723 23.3328 21.6075 23.3975C21.3484 23.527 21.154 23.7211 20.8949 23.8505C20.7006 23.9799 20.571 24.0447 20.3767 24.1741C20.2471 24.2388 20.0527 24.3682 19.9232 24.4329C19.7936 24.4976 19.664 24.627 19.4697 24.6918C19.2106 24.8212 18.9515 24.9506 18.6923 25.08C18.5628 25.1447 18.3684 25.2094 18.2388 25.2741C18.0445 25.3388 17.9149 25.4683 17.7206 25.533C17.5263 25.5977 17.3967 25.7271 17.2023 25.7271C17.0728 25.8565 16.8784 25.8565 16.6841 25.9212C16.425 25.986 16.1658 26.1154 15.9067 26.1801C15.6476 26.2448 15.4532 26.3095 15.1941 26.3742C14.8702 26.4389 14.4815 26.5684 14.1576 26.6331C13.8985 26.6978 13.6393 26.7625 13.3154 26.7625C13.1859 26.8272 12.9915 26.8272 12.862 26.8919C12.7324 26.9566 12.5381 26.9567 12.4085 26.9567C12.2142 26.9567 11.955 27.0861 11.7607 27.0213C11.7607 27.0861 11.7607 27.0861 11.7607 27.0861C11.8902 27.4743 12.0846 27.7979 12.2789 28.1214C12.4733 28.3803 12.6029 28.7038 12.862 28.9627C13.0563 29.2215 13.1859 29.4157 13.3802 29.6745C13.445 29.7392 13.5098 29.7392 13.5746 29.7392C13.7041 29.7392 13.7689 29.6745 13.8985 29.6745C14.0281 29.6098 14.0928 29.6745 14.2224 29.6098C14.352 29.5451 14.5463 29.5451 14.6759 29.5451C14.8702 29.4804 15.0645 29.4804 15.2589 29.4157Z" fill="#878787"/>
<path d="M33.7864 30.5804C33.5273 30.5804 33.2682 30.451 33.0091 30.3863C32.9443 30.3863 32.8795 30.3216 32.7499 30.3216C32.6851 30.3216 32.6204 30.2569 32.4908 30.2569C32.3612 30.2569 32.1669 30.1922 32.0373 30.1274C31.843 30.0627 31.7134 29.998 31.5191 29.9333C31.1304 29.8039 30.8065 29.6745 30.4178 29.5451C29.8996 29.3509 29.3813 29.1568 28.863 28.898C28.6039 28.7685 28.4096 28.7038 28.1505 28.5744C27.8913 28.445 27.697 28.3803 27.4379 28.2508C27.1787 28.1214 26.9196 27.992 26.6605 27.8625L26.5309 30.9687V31.0981C26.5309 31.0981 26.5309 31.0981 26.5957 31.0981C26.9196 31.2923 27.3083 31.4217 27.697 31.5511C27.9561 31.6805 28.1504 31.81 28.4096 31.8747C28.6687 31.9394 28.9278 32.0688 29.1869 32.1335C29.4461 32.1982 29.6404 32.3276 29.8995 32.3923C30.0291 32.4571 30.1587 32.4571 30.2882 32.5218C30.5474 32.6512 30.8713 32.7159 31.1304 32.7806C31.1952 32.7806 31.1952 32.7806 31.26 32.7806C31.4543 32.6512 31.6486 32.5218 31.843 32.4571C32.0373 32.3924 32.2317 32.1982 32.426 32.1335C32.7499 31.9394 33.0091 31.7452 33.2682 31.5511C33.5273 31.357 33.8512 31.0981 34.0456 30.8393C34.0456 30.8393 34.1103 30.7746 34.1751 30.7746C34.2399 30.7746 34.3047 30.7099 34.3695 30.6452C34.2399 30.5805 34.1104 30.5804 33.9808 30.5804C33.9808 30.6451 33.8512 30.5804 33.7864 30.5804Z" fill="#878787"/>
<path d="M22.1257 27.8625C22.061 27.9273 21.9314 27.992 21.8666 27.992C21.6723 28.1214 21.5427 28.1861 21.3484 28.3155C21.0892 28.445 20.8301 28.5744 20.571 28.7038C20.3766 28.8333 20.1823 28.8979 19.9232 28.9627C19.5993 29.0921 19.3401 29.2215 19.0162 29.351C18.9515 29.351 18.9515 29.3509 18.9515 29.4156C18.8867 29.4156 18.8867 29.4803 18.8219 29.4803C18.5628 29.5451 18.3684 29.6745 18.1093 29.7392C17.8502 29.8039 17.6558 29.8686 17.4615 29.9981C17.3319 30.0628 17.2024 30.0628 17.0728 30.1275C16.8784 30.1922 16.6193 30.2569 16.425 30.3216C16.2306 30.3863 16.0363 30.3863 15.9067 30.451C15.518 30.5157 15.1941 30.6452 14.8054 30.7099C14.7407 30.7099 14.6759 30.7746 14.6111 30.7746C14.5463 30.7746 14.5463 30.8393 14.6111 30.8393C14.7406 30.904 14.7407 30.9687 14.8054 31.0334C15.0646 31.2276 15.3237 31.4217 15.518 31.6159C15.5828 31.6159 15.5828 31.6806 15.6476 31.6806C15.9067 31.81 16.1011 32.0041 16.3602 32.1336C16.5545 32.263 16.6841 32.3277 16.8784 32.4571C17.1376 32.5865 17.3319 32.7159 17.591 32.8454C17.6558 32.8454 17.6558 32.8454 17.7206 32.8454C17.8502 32.7807 18.0445 32.7806 18.1741 32.7159C18.4332 32.5865 18.7571 32.5218 19.0162 32.4571C19.2754 32.3924 19.5345 32.263 19.8584 32.1982C20.1175 32.1335 20.3119 32.0041 20.5062 31.9394C20.6358 31.8747 20.8301 31.81 20.9597 31.7453C21.0892 31.6805 21.2836 31.6158 21.4131 31.5511C21.737 31.4217 22.061 31.2923 22.3849 31.1629C22.3849 31.1629 22.3849 31.1629 22.4496 31.1629V31.0981L22.1257 27.8625Z" fill="#878787"/>
<path d="M25.4944 2.36632L24.9762 1.58978L24.4579 0.748535L23.6805 1.91333L23.4214 2.36632L22.644 3.53112L22.3849 3.91937L22.4497 4.43709L22.5145 6.57256L22.7736 13.6261L22.8384 15.6322L23.0327 21.0679V22.2327L23.2271 26.0507V27.1508L23.2918 30.6452L23.3566 31.7453V32.1982L24.3931 34.1396H24.4579L25.4944 32.1982V31.7453L25.624 27.1508L25.6888 26.1154L25.8183 22.2974L25.8831 21.0679L26.0774 15.6322L26.1422 13.6908L26.3366 7.28437L26.4661 4.43709V3.91937L26.207 3.53112L25.4944 2.36632Z" fill="#878787"/>
</svg>
