<svg width="73" height="49" viewBox="0 0 73 49" fill="none" xmlns="http://www.w3.org/2000/svg">
<path d="M0.96915 26.3804V26.3157V26.251C0.904369 26.3157 0.8396 26.4451 0.8396 26.5745C0.8396 26.8334 0.969162 27.0275 1.16351 27.0275H1.22827L0.904365 26.4451C0.969146 26.4451 0.96915 26.3804 0.96915 26.3804Z" fill="#878787"/>
<path d="M72.3585 26.7686L72.2289 27.0274H72.2937C72.4233 27.0274 72.5528 26.898 72.6176 26.7039C72.5528 26.7686 72.4881 26.7686 72.4233 26.7686H72.3585Z" fill="#878787"/>
<path d="M69.3785 26.7686C69.3137 26.8333 69.1841 26.898 69.1194 26.898C69.0546 26.898 68.925 26.898 68.8603 26.898H68.7955C68.6659 26.898 68.5363 26.8333 68.4715 26.7686H1.35781C1.16346 26.7686 1.0339 26.5744 1.0339 26.3156C1.0339 26.2509 1.0339 26.1862 1.0339 26.1215C0.96912 26.1215 0.969116 26.1862 0.969116 26.1862V26.2509V26.3156V26.3803L1.29302 26.9627H72.2937L72.4232 26.7039H69.3785V26.7686Z" fill="#878787"/>
<path d="M4.53216 24.6978C4.27304 23.4683 4.40258 22.174 4.92083 21.0092C5.43908 19.8444 6.34603 18.8738 7.44731 18.2913C8.41903 17.7737 9.19637 17.0618 9.84418 16.2206C9.7794 16.1559 9.71465 16.0912 9.71465 16.0264C9.71465 15.897 9.71463 15.8323 9.77941 15.7676L9.71465 15.8323C9.06684 16.7382 8.22465 17.4501 7.25293 17.9678C6.08687 18.6149 5.11517 19.6503 4.59693 20.8798C4.0139 22.1093 3.88435 23.533 4.20825 24.8272C4.27304 25.2155 4.33781 25.6037 4.40259 25.9273H4.7265C4.66171 25.4743 4.59694 25.086 4.53216 24.6978Z" fill="#878787"/>
<path d="M5.6334 21.2681C6.08687 20.2328 6.86426 19.3915 7.83599 18.8738C9.00206 18.2267 9.90901 17.3855 10.6864 16.4148L10.7512 16.3501C10.6864 16.4795 10.5568 16.4795 10.4273 16.4795C10.3625 16.4795 10.2329 16.4795 10.1681 16.4148C9.52029 17.256 8.67814 17.9679 7.70642 18.4856C6.66991 19.068 5.82777 19.9739 5.3743 21.074C4.85604 22.1741 4.79126 23.4036 5.05039 24.5684C5.17995 25.0214 5.17994 25.4097 5.24472 25.8626H5.6334C5.56862 25.4097 5.50384 24.9567 5.43906 24.5037C5.05037 23.4683 5.17993 22.3035 5.6334 21.2681Z" fill="#878787"/>
<path d="M4.59692 24.6978C4.33779 23.4683 4.46734 22.1741 4.9856 21.0093C5.50385 19.8445 6.41081 18.8739 7.5121 18.2915C8.41904 17.7738 9.26121 17.0619 9.90903 16.2854C9.90903 16.2854 9.909 16.2854 9.84422 16.2207C9.19641 17.0619 8.35427 17.7091 7.44733 18.2915C6.34604 18.8739 5.43908 19.8445 4.92083 21.0093C4.40258 22.1741 4.27303 23.4683 4.53216 24.6978C4.59694 25.0861 4.66171 25.5391 4.72649 25.9274H4.79126C4.72648 25.4744 4.6617 25.0861 4.59692 24.6978Z" fill="#878787"/>
<path d="M4.92081 24.6331C4.66168 23.4682 4.79124 22.2387 5.24471 21.1386C5.76297 20.0385 6.54033 19.1326 7.57684 18.5502C8.54856 18.0325 9.39076 17.3207 10.0386 16.4794L9.77943 16.2853C9.13161 17.1265 8.35423 17.7737 7.3825 18.2914C6.28121 18.8738 5.37429 19.8444 4.85604 21.0092C4.33779 22.174 4.2082 23.4682 4.46733 24.6977C4.53211 25.086 4.59688 25.539 4.66166 25.9273H4.98557C5.11513 25.4743 5.05037 25.0213 4.92081 24.6331Z" fill="#878787"/>
<path d="M10.0386 15.5088H10.1034C10.1682 15.5088 10.2329 15.5088 10.2977 15.5735C10.8808 14.7323 11.2694 13.7616 11.4638 12.7262C11.7229 11.4967 12.3708 10.3319 13.2777 9.49063C14.2494 8.64939 15.4155 8.1317 16.6463 8.00228C17.8124 7.87286 18.9137 7.54932 19.9502 6.96692C20.9219 6.38451 21.7641 5.60795 22.4767 4.63728C23.1245 3.66661 24.0962 2.9548 25.1975 2.50182C25.1327 2.30768 25.2623 2.11354 25.4566 2.04883H25.3918C24.0962 2.50181 22.9949 3.27837 22.2176 4.37846C21.5697 5.28442 20.7924 6.06093 19.8206 6.57862C18.8489 7.09631 17.8124 7.41987 16.7111 7.54929C15.3507 7.67872 14.1198 8.26112 13.0833 9.16708C12.0468 10.073 11.399 11.3025 11.1399 12.5968C10.9455 13.6969 10.4921 14.7323 9.84425 15.5735L9.77948 15.6382C9.84426 15.5735 9.90906 15.5735 10.0386 15.5088Z" fill="#878787"/>
<path d="M11.4637 12.7262C11.7229 11.4967 12.3707 10.3319 13.2777 9.49066C14.2494 8.64941 15.4154 8.13173 16.6463 8.0023C17.8123 7.87288 18.9137 7.54934 19.9502 6.96694C20.9219 6.38453 21.764 5.60797 22.4766 4.6373C23.1244 3.73134 24.0962 2.9548 25.1327 2.56653C24.0314 2.9548 23.0597 3.73137 22.4119 4.70204C21.6993 5.67271 20.8571 6.44923 19.8854 7.03163C18.9136 7.61404 17.8124 7.93758 16.5815 8.067C15.3507 8.19642 14.1198 8.71415 13.2129 9.55539C12.2411 10.3966 11.5933 11.5614 11.399 12.791C11.2046 13.8263 10.8159 14.797 10.2329 15.6382H10.2977C10.8807 14.7323 11.2694 13.7616 11.4637 12.7262Z" fill="#878787"/>
<path d="M10.6864 16.3501C11.4638 15.3147 11.982 14.1499 12.2412 12.8557C12.4355 11.7556 13.0186 10.7849 13.8607 10.0084C14.7029 9.23185 15.7394 8.77887 16.8407 8.71416C18.1363 8.58474 19.3672 8.1965 20.4037 7.6141C21.5049 6.96698 22.4119 6.12572 23.1245 5.09034C23.7723 4.18438 24.6792 3.53727 25.7157 3.149H25.7805C25.7157 3.149 25.7157 3.149 25.6509 3.149C25.5862 3.149 25.5214 3.14901 25.4566 3.0843C25.3918 3.01959 25.3271 2.95485 25.2623 2.89014C24.2258 3.2784 23.3836 3.99023 22.7358 4.83148C22.0232 5.86686 21.1163 6.64343 20.0798 7.29054C19.0433 7.87294 17.8772 8.26119 16.6463 8.32591C15.4802 8.45533 14.3142 8.90832 13.472 9.74956C12.5651 10.5261 11.9821 11.6262 11.7229 12.791C11.5286 13.8911 11.0751 14.9265 10.4921 15.7677C10.7512 15.8971 10.816 16.156 10.6864 16.3501Z" fill="#878787"/>
<path d="M9.71469 15.9618C9.71469 16.0265 9.77944 16.1559 9.84422 16.1559C9.909 16.0912 9.97381 16.0265 10.0386 15.9618L10.1034 15.8971L10.1681 15.8323C10.2329 15.7029 10.2977 15.6382 10.3625 15.5088C10.2977 15.5088 10.2329 15.4441 10.1681 15.4441H10.1034C9.97379 15.4441 9.909 15.5088 9.84422 15.5735C9.71466 15.7676 9.64991 15.8971 9.71469 15.9618Z" fill="#878787"/>
<path d="M10.3625 16.5442C10.4921 16.5442 10.6217 16.4795 10.6865 16.4148C10.816 16.2206 10.7512 16.0265 10.6217 15.8971C10.5569 15.9618 10.4921 16.0912 10.4273 16.1559L10.3625 16.2207L10.2977 16.2854C10.233 16.3501 10.1682 16.4795 10.1034 16.5442C10.1682 16.4795 10.2978 16.5442 10.3625 16.5442Z" fill="#878787"/>
<path d="M10.0386 15.9617L10.1034 15.8323C10.1682 15.7676 10.2329 15.6382 10.2977 15.5735C10.2977 15.5735 10.2977 15.5735 10.233 15.5735C10.1682 15.7029 10.1034 15.7676 10.0386 15.897V15.9617H9.97382C9.90904 16.0265 9.84426 16.0912 9.77948 16.1559C9.77948 16.1559 9.77946 16.1559 9.84425 16.2206C9.90903 16.1559 9.97384 16.0912 10.0386 15.9617Z" fill="#878787"/>
<path d="M10.1034 16.4148C10.1681 16.3501 10.2329 16.2206 10.2977 16.1559L10.3625 16.0912L10.1034 15.8971L10.0386 15.9618C9.97382 16.0265 9.90902 16.1559 9.84424 16.2206L10.1034 16.4148Z" fill="#878787"/>
<path d="M10.5568 15.7676C11.1399 14.8617 11.5933 13.891 11.7877 12.7909C12.0468 11.6261 12.6298 10.5907 13.5368 9.7495C14.4437 8.97297 15.545 8.45527 16.7111 8.32585C17.9419 8.19642 19.108 7.87288 20.1445 7.29048C21.181 6.70808 22.088 5.8668 22.8006 4.83142C23.3836 3.92546 24.2905 3.27835 25.3271 2.89008L25.1975 2.56653C24.0962 3.01951 23.1893 3.73134 22.5414 4.6373C21.8289 5.60796 20.9867 6.38452 20.0149 6.96692C19.0432 7.54933 17.9419 7.87287 16.7111 8.00229C15.4802 8.13171 14.2494 8.64939 13.3424 9.49064C12.3707 10.3319 11.7229 11.4967 11.5286 12.7262C11.3342 13.7616 10.9455 14.7323 10.3625 15.6382L10.5568 15.7676Z" fill="#878787"/>
<path d="M10.4273 16.0912C10.4921 16.0264 10.5569 15.897 10.6216 15.8323L10.3625 15.6382C10.2978 15.7029 10.2329 15.8323 10.1682 15.897L10.1034 15.9617L10.4273 16.0912Z" fill="#878787"/>
<path d="M25.5862 2.04886C25.7806 2.04886 25.9101 2.1783 25.9749 2.30772C26.4932 2.1783 27.0114 2.11359 27.4649 2.11359C28.1127 2.11359 28.7605 2.24301 29.3436 2.43715C30.1857 2.696 31.0279 2.8901 31.87 2.8901C32.1291 2.8901 32.3883 2.89011 32.6474 2.8254C33.8135 2.69598 34.9148 2.3077 35.8865 1.7253C36.7934 1.20761 37.8299 0.884056 38.8664 0.884056C39.1256 0.884056 39.3199 0.884056 39.579 0.884056C40.8747 1.01348 42.0407 1.53116 42.9477 2.37241C43.7251 3.08424 44.632 3.66665 45.6037 3.9902C45.6685 3.86078 45.7333 3.79609 45.798 3.73138C45.8628 3.73138 45.9276 3.66665 45.9924 3.66665C46.0572 3.66665 46.0572 3.66665 46.1219 3.66665H46.0572C45.0207 3.34309 44.049 2.7607 43.2716 1.98416C42.2999 1.0782 41.0042 0.495794 39.6438 0.366371C39.4495 0.366371 39.1903 0.301636 38.996 0.301636C37.8299 0.301636 36.7286 0.625209 35.7569 1.20761C34.7852 1.79002 33.7487 2.11356 32.6474 2.24298C32.3883 2.24298 32.1292 2.30772 31.9348 2.30772C31.0927 2.30772 30.2505 2.17829 29.4083 1.85473C28.7605 1.66059 28.1127 1.53117 27.4001 1.53117C26.8171 1.72531 26.1693 1.85472 25.5862 2.04886H25.4567C25.5214 2.04886 25.5215 2.04886 25.5862 2.04886Z" fill="#878787"/>
<path d="M32.777 2.82538C33.943 2.69596 35.0443 2.30768 36.016 1.72528C36.8582 1.20758 37.8947 0.948745 38.9312 0.884033C37.8947 0.884033 36.8582 1.14287 35.9513 1.72528C34.9148 2.30768 33.8135 2.69596 32.7122 2.82538C32.4531 2.82538 32.1939 2.89008 31.9348 2.89008C32.1939 2.89008 32.5178 2.89009 32.777 2.82538Z" fill="#878787"/>
<path d="M26.0396 2.95481C25.9748 3.01952 25.9101 3.14893 25.7805 3.14893H25.8453C26.3635 2.9548 26.8818 2.89007 27.4648 2.89007C28.0479 2.89007 28.5661 2.9548 29.0844 3.14893C30.0561 3.47248 30.963 3.6666 31.9348 3.6666C32.1939 3.6666 32.5178 3.66662 32.7769 3.60191C34.0078 3.47249 35.2386 3.08423 36.3399 2.43713C37.1173 1.98416 38.0242 1.72529 38.9959 1.72529C39.1903 1.72529 39.3847 1.72529 39.5142 1.72529C40.6155 1.85471 41.652 2.30771 42.4942 3.08423C43.4659 3.99018 44.5672 4.57255 45.7332 4.96082H45.798C45.6037 4.8961 45.4741 4.63727 45.5389 4.44314C44.5024 4.05488 43.5955 3.4725 42.7533 2.76068C41.9111 1.98416 40.7451 1.46646 39.579 1.33704C38.4129 1.20762 37.1821 1.46647 36.1456 2.11358C35.1091 2.76068 33.943 3.14894 32.7769 3.27836C31.6109 3.40778 30.38 3.27835 29.2139 2.82538C28.1774 2.50182 27.0761 2.43711 26.0396 2.69595C26.1044 2.76066 26.1044 2.82538 26.0396 2.95481Z" fill="#878787"/>
<path d="M25.9749 2.30765C26.4931 2.17823 26.9466 2.11353 27.4648 2.11353C26.9466 2.11353 26.4283 2.17823 25.9749 2.30765Z" fill="#878787"/>
<path d="M25.1975 2.56647C25.2622 2.56647 25.3918 2.50177 25.4566 2.50177H25.5214H25.5862C25.7157 2.43706 25.8453 2.43705 25.9749 2.37234C25.9101 2.17821 25.7805 2.11353 25.5862 2.11353C25.5214 2.11353 25.5214 2.11353 25.4566 2.11353C25.2623 2.11353 25.1327 2.30763 25.1975 2.56647Z" fill="#878787"/>
<path d="M25.1975 2.56644C25.3271 2.50173 25.3919 2.50176 25.5214 2.43705H25.5862H25.651C25.7805 2.37234 25.8453 2.37231 25.9749 2.37231C25.8453 2.37231 25.7158 2.43703 25.5862 2.50174H25.5214H25.4566C25.3919 2.50174 25.2623 2.50173 25.1975 2.56644Z" fill="#878787"/>
<path d="M25.7157 2.76065H25.651C25.5214 2.82536 25.4566 2.82533 25.327 2.89004C25.3918 2.95475 25.4566 3.0842 25.5214 3.0842C25.5862 3.0842 25.6509 3.1489 25.7157 3.1489C25.7805 3.1489 25.7805 3.1489 25.8453 3.1489C25.9749 3.1489 26.0397 3.01948 26.1045 2.95477C26.1692 2.89006 26.1692 2.76064 26.1045 2.63123C25.9749 2.63123 25.9101 2.69592 25.7805 2.69592L25.7157 2.76065Z" fill="#878787"/>
<path d="M25.3271 2.89008C25.4566 2.82537 25.5214 2.8254 25.651 2.76069H25.7157L25.5862 2.43713H25.5214C25.3918 2.50184 25.3271 2.50181 25.1975 2.56652L25.3271 2.89008Z" fill="#878787"/>
<path d="M42.9476 2.43717C43.725 3.149 44.6967 3.73139 45.6685 4.11966C44.6967 3.73139 43.7898 3.21369 43.0124 2.50186C42.1054 1.66061 40.8746 1.14293 39.6437 1.0135C39.3846 1.0135 39.1903 0.94879 38.9312 1.0135C39.1255 1.0135 39.3846 1.0135 39.579 1.0135C40.8746 1.07821 42.0407 1.59592 42.9476 2.43717Z" fill="#878787"/>
<path d="M31.9348 2.89005C31.0926 2.89005 30.2505 2.76065 29.4083 2.43709C28.8253 2.24295 28.1775 2.11353 27.5297 2.11353C28.1775 2.11353 28.7605 2.24295 29.3435 2.43709C30.1209 2.69594 31.0278 2.89005 31.9348 2.89005Z" fill="#878787"/>
<path d="M26.0397 2.63126C27.0762 2.37241 28.2423 2.43713 29.214 2.76069C30.3801 3.14896 31.6109 3.27835 32.777 3.21364C33.943 3.08421 35.1091 2.69595 36.1456 2.04884C37.1821 1.46643 38.3482 1.20758 39.579 1.27229C40.7451 1.40171 41.9112 1.91941 42.7533 2.69595C43.5955 3.47249 44.5024 4.05492 45.5389 4.37848L45.6685 4.05492C44.6968 3.66665 43.7898 3.14893 42.9477 2.37239C42.0407 1.53114 40.8099 1.01346 39.579 0.884033C39.3847 0.884033 39.1256 0.884033 38.9312 0.884033C37.8947 0.884033 36.923 1.20758 36.016 1.72528C34.9795 2.30768 33.8783 2.69596 32.777 2.82538C32.5178 2.82538 32.1939 2.89008 31.9348 2.89008C31.0279 2.89008 30.1857 2.76069 29.3436 2.43713C28.7605 2.24299 28.1775 2.11357 27.5297 2.11357C27.0114 2.11357 26.4931 2.17827 26.0397 2.3077V2.63126Z" fill="#878787"/>
<path d="M25.7805 2.76062C25.9101 2.69591 25.9749 2.69588 26.1044 2.69588L25.9749 2.37231C25.8453 2.37231 25.7805 2.43705 25.6509 2.43705H25.5862L25.7157 2.76062H25.7805Z" fill="#878787"/>
<path d="M46.4459 4.05488C46.5106 4.11959 46.5106 4.24901 46.4459 4.37844C47.0937 4.57257 47.7415 4.63726 48.4541 4.63726C48.778 4.63726 49.1667 4.63727 49.4906 4.57256C49.7497 4.57256 49.9441 4.50783 50.2032 4.50783C51.2397 4.50783 52.2762 4.76668 53.1832 5.28437C54.2845 5.93148 55.1914 6.90215 55.6449 8.06695C56.0983 9.16704 56.811 10.073 57.6531 10.8496C58.4953 11.6261 59.5318 12.2085 60.6331 12.532C61.7343 12.8556 62.7061 13.5027 63.4187 14.4087C63.4834 14.344 63.5482 14.344 63.6778 14.344C63.8074 14.344 63.9369 14.4087 64.0017 14.4734L63.9369 14.4087C63.1595 13.3086 61.9935 12.4673 60.6978 12.0791C59.5965 11.7555 58.6248 11.2378 57.8475 10.4613C57.0701 9.74945 56.4222 8.84351 55.9688 7.80813C55.4505 6.57861 54.5436 5.54321 53.3127 4.83138C52.341 4.24898 51.2397 3.99014 50.1384 3.99014C49.8793 3.99014 49.685 3.99017 49.4258 4.05488C49.1019 4.11959 48.778 4.11958 48.5189 4.11958C47.7415 4.11958 46.9641 3.99017 46.1868 3.73132H46.1219C46.3163 3.86075 46.3811 3.92546 46.4459 4.05488Z" fill="#878787"/>
<path d="M49.5554 4.57254C49.7497 4.57254 50.0088 4.50781 50.2032 4.50781C49.9441 4.50781 49.7497 4.50784 49.4906 4.57254C49.1667 4.63725 48.778 4.63724 48.4541 4.63724C48.8428 4.63724 49.1667 4.63725 49.5554 4.57254Z" fill="#878787"/>
<path d="M45.9924 4.96088C45.9276 4.96088 45.9276 4.96088 45.8628 4.96088H45.9924C46.7697 5.21973 47.6767 5.34918 48.5836 5.34918C48.9075 5.34918 49.2962 5.34915 49.6849 5.28444C49.8792 5.28444 50.0736 5.21975 50.2679 5.21975C51.1749 5.21975 52.0818 5.47858 52.8592 5.93155C53.8309 6.51396 54.6083 7.35521 54.997 8.32588C55.5152 9.49069 56.2278 10.5261 57.1348 11.3673C58.0417 12.2086 59.143 12.791 60.4386 13.1792C61.4751 13.5028 62.4469 14.1499 63.0947 15.0559L63.1595 15.1206C63.0947 15.0559 63.0947 14.9264 63.0947 14.797C63.0947 14.6676 63.1595 14.6029 63.2242 14.5382C62.5116 13.6969 61.6047 13.0498 60.5682 12.791C59.4021 12.4027 58.3008 11.8203 57.4587 11.0438C56.5517 10.2672 55.9039 9.23185 55.3857 8.13176C54.9322 7.03166 54.09 6.1257 53.0535 5.5433C52.017 4.9609 50.7862 4.70203 49.6201 4.83145C48.5188 4.96088 47.4175 4.89619 46.381 4.57263C46.3163 4.83148 46.1219 4.96088 45.9924 4.96088Z" fill="#878787"/>
<path d="M45.8628 3.86072C45.798 3.92543 45.6685 3.99016 45.6685 4.11959C45.798 4.1843 45.8628 4.18431 45.9924 4.24902H46.0571H46.1219C46.2515 4.31374 46.3162 4.31372 46.4458 4.31372C46.4458 4.18429 46.4458 4.11958 46.4458 3.99015C46.381 3.92544 46.3163 3.79602 46.1867 3.79602C46.1219 3.79602 46.1219 3.79602 46.0571 3.79602C45.9923 3.86073 45.9276 3.86072 45.8628 3.86072Z" fill="#878787"/>
<path d="M45.798 4.96075C45.8628 4.96075 45.9276 4.96075 45.9276 4.96075C46.1219 4.96075 46.2515 4.83137 46.3163 4.70196C46.1868 4.70196 46.122 4.63723 45.9924 4.63723H45.9276H45.8628C45.7333 4.57253 45.6685 4.57252 45.5389 4.50781C45.5389 4.63722 45.6037 4.83134 45.798 4.96075Z" fill="#878787"/>
<path d="M45.6685 4.11963C45.7332 4.11963 45.8628 4.18433 45.9276 4.18433H45.9924H46.0571H45.9924C45.9276 4.18433 45.798 4.11963 45.6685 4.11963Z" fill="#878787"/>
<path d="M45.9924 4.57257L46.1219 4.24905H46.0571H45.9924C45.9276 4.24905 45.798 4.18433 45.7332 4.18433L45.6036 4.50784C45.6684 4.44314 45.798 4.50787 45.9924 4.57257Z" fill="#878787"/>
<path d="M46.4458 4.37842C47.0936 4.57253 47.7415 4.63721 48.4541 4.63721C47.7415 4.63721 47.0936 4.50782 46.4458 4.37842Z" fill="#878787"/>
<path d="M55.58 8.13164C56.0335 9.23174 56.7461 10.1377 57.5882 10.9142C58.4304 11.6908 59.4669 12.2732 60.5682 12.5967C61.6695 12.9203 62.6412 13.6321 63.4186 14.5381H63.4834C62.7708 13.6321 61.7342 12.985 60.6977 12.6614C59.5965 12.3379 58.56 11.7555 57.7178 10.9789C56.8756 10.2024 56.2278 9.29643 55.7096 8.19634C55.2561 7.03153 54.3492 6.06087 53.2479 5.41375C52.3409 4.89606 51.3044 4.63721 50.2679 4.63721C51.3044 4.63721 52.2762 4.89606 53.1831 5.41375C54.2196 5.99616 55.1266 6.96684 55.58 8.13164Z" fill="#878787"/>
<path d="M46.3163 4.70197C47.3528 4.96082 48.4541 5.09022 49.5554 4.9608C50.7214 4.83137 51.9523 5.09024 52.9888 5.67264C54.0253 6.25504 54.8675 7.22571 55.3209 8.26109C55.8392 9.42589 56.487 10.3966 57.3939 11.1731C58.3009 11.9496 59.3374 12.532 60.5035 12.9203C61.54 13.2438 62.4469 13.8262 63.1595 14.6675L63.4186 14.4734C62.706 13.5674 61.6696 12.8556 60.5683 12.532C59.467 12.2085 58.4304 11.6261 57.5883 10.8495C56.7461 10.073 56.0983 9.16702 55.5801 8.06693C55.1266 6.90212 54.2197 5.93146 53.1184 5.28435C52.2114 4.76666 51.2397 4.50781 50.2032 4.50781C50.0088 4.50781 49.7497 4.50783 49.5554 4.57254C49.1667 4.63725 48.8428 4.63724 48.4541 4.63724C47.7415 4.63724 47.0936 4.57255 46.4458 4.37842L46.3163 4.70197Z" fill="#878787"/>
<path d="M46.0571 4.24902C46.1867 4.31373 46.3162 4.31374 46.4458 4.37845C46.3162 4.37845 46.2515 4.31372 46.1219 4.31372L46.0571 4.24902Z" fill="#878787"/>
<path d="M45.9924 4.57258C46.1219 4.63728 46.1867 4.63727 46.3163 4.63727L46.4458 4.31374C46.3163 4.24904 46.1867 4.24903 46.0571 4.18433L45.9924 4.57258Z" fill="#878787"/>
<path d="M63.9369 15.1205C64.5847 16.0911 64.9086 17.2559 64.8439 18.356C64.8439 19.5208 65.0382 20.6857 65.4917 21.721C65.9452 22.7564 66.6578 23.7271 67.5647 24.5036C68.0182 24.8919 68.4069 25.3449 68.7308 25.8625H69.1843C68.8604 25.2154 68.4069 24.633 67.8238 24.1801C66.9816 23.4682 66.3338 22.5623 65.8804 21.5916C65.4269 20.6209 65.2325 19.5208 65.2325 18.4207C65.2325 17.0618 64.8439 15.7676 64.0017 14.6675L63.9369 14.6028C64.1312 14.7322 64.1312 14.991 63.9369 15.1205Z" fill="#878787"/>
<path d="M67.3703 24.7626C66.4634 23.9213 65.686 22.9506 65.2325 21.9153C64.779 20.8152 64.5199 19.6503 64.5199 18.4208C64.5199 17.3207 64.196 16.2854 63.613 15.3794C63.5482 15.4441 63.4834 15.4441 63.4186 15.4441H63.3539C63.2243 15.4441 63.1595 15.3794 63.0947 15.3147L63.1595 15.3794C63.8073 16.2854 64.196 17.3855 64.1313 18.4856C64.1313 19.7798 64.3904 21.0093 64.8438 22.1741C65.3621 23.3389 66.0747 24.3096 67.1112 25.1508C67.3703 25.4097 67.6294 25.6685 67.8886 25.9921H68.342C68.0829 25.4744 67.759 25.0861 67.3703 24.7626Z" fill="#878787"/>
<path d="M68.7308 26.9627H68.7955C68.8603 26.9627 68.9899 26.9627 69.0547 26.9627C69.1842 26.9627 69.249 26.898 69.3138 26.8333H68.4069C68.4716 26.898 68.6012 26.9627 68.7308 26.9627Z" fill="#878787"/>
<path d="M63.6778 14.4087C63.613 14.4087 63.4834 14.4087 63.4186 14.4734C63.4834 14.5381 63.5482 14.6675 63.613 14.7323L63.6778 14.797L63.7425 14.8616C63.8073 14.9264 63.8721 15.0558 63.9369 15.1205C64.1312 14.9911 64.1313 14.7322 64.0017 14.6028C63.9369 14.4734 63.8073 14.4087 63.6778 14.4087Z" fill="#878787"/>
<path d="M63.0299 14.9263C63.0299 15.0558 63.0299 15.1205 63.0947 15.2499C63.1595 15.3146 63.2243 15.3793 63.3538 15.3793H63.4186C63.4834 15.3793 63.5481 15.3793 63.6129 15.3146C63.5481 15.2499 63.4834 15.1205 63.4186 15.0558L63.3538 14.991L63.289 14.9263C63.2242 14.8616 63.1595 14.7322 63.0947 14.6675C63.0947 14.7322 63.0299 14.8616 63.0299 14.9263Z" fill="#878787"/>
<path d="M63.613 14.7322L63.6778 14.7969H63.7425L63.6778 14.7322C63.613 14.6675 63.5482 14.5381 63.4834 14.4734H63.4186C63.4834 14.6028 63.5482 14.6675 63.613 14.7322Z" fill="#878787"/>
<path d="M63.4187 14.9911L63.6778 14.797L63.613 14.7323C63.5482 14.6675 63.4834 14.6028 63.4187 14.4734L63.1595 14.6675C63.2243 14.7969 63.2891 14.8617 63.4187 14.9911Z" fill="#878787"/>
<path d="M64.7791 18.4209C64.7791 19.5857 64.9734 20.7505 65.4269 21.7859C65.8804 22.8213 66.5929 23.7919 67.4999 24.5685C67.9533 24.9567 68.342 25.4097 68.6659 25.9274H68.7307C68.4068 25.4097 68.0181 24.9567 67.5647 24.5685C66.6577 23.7919 65.9451 22.886 65.4917 21.7859C65.0382 20.7505 64.7791 19.5857 64.8439 18.4209C64.8439 17.2561 64.5199 16.156 63.8721 15.1853L63.8074 15.25C64.52 16.156 64.8439 17.2561 64.7791 18.4209Z" fill="#878787"/>
<path d="M63.613 15.3147C64.196 16.2207 64.5199 17.3208 64.5199 18.3562C64.5199 19.5857 64.7143 20.7505 65.2325 21.8506C65.686 22.9507 66.4634 23.9213 67.3703 24.6979C67.759 25.0214 68.0829 25.4097 68.342 25.798H68.6659C68.342 25.2803 67.9533 24.8273 67.4998 24.4391C66.5929 23.6625 65.8803 22.7565 65.4269 21.6564C64.9734 20.6211 64.7143 19.4563 64.7791 18.2915C64.7791 17.1914 64.4551 16.0266 63.8721 15.0559L63.613 15.3147C63.613 15.3147 63.6778 15.3147 63.613 15.3147Z" fill="#878787"/>
<path d="M63.6778 14.8617C63.7426 14.9911 63.8073 15.0558 63.8721 15.1852L63.9369 15.1205C63.8721 15.0558 63.8073 14.9264 63.7426 14.8617H63.6778Z" fill="#878787"/>
<path d="M63.4834 15.0559C63.5482 15.1206 63.613 15.25 63.6777 15.3147L63.8721 15.1206C63.8073 14.9911 63.7425 14.9264 63.6777 14.797L63.4834 15.0559Z" fill="#878787"/>
<path d="M62.5121 25.0861C62.5121 25.0861 62.4464 25.0861 62.5121 25.0861C62.4464 25.1515 62.5121 25.1515 62.5121 25.1515C62.5121 25.1515 62.5121 25.1515 62.5121 25.0861Z" fill="#878787"/>
<path d="M62.0582 23.9213C61.9934 23.9213 61.9934 23.986 61.9934 23.986C61.9934 24.0507 62.0582 24.0507 62.0582 24.0507C62.123 24.0507 62.123 23.986 62.123 23.986C62.123 23.9213 62.0582 23.9213 62.0582 23.9213Z" fill="#878787"/>
<path d="M61.54 22.7565C61.4752 22.7565 61.4104 22.8212 61.4104 22.8859C61.4104 22.9506 61.4752 23.0154 61.54 23.0154C61.6047 23.0154 61.6695 22.9506 61.6695 22.8859C61.6047 22.8212 61.6047 22.7565 61.54 22.7565Z" fill="#878787"/>
<path d="M61.0217 21.7212C60.957 21.7212 60.8922 21.7859 60.8922 21.8506C60.8922 21.9153 60.957 21.98 61.0217 21.98C61.0865 21.98 61.1513 21.9153 61.1513 21.8506C61.1513 21.7859 61.0865 21.7212 61.0217 21.7212Z" fill="#878787"/>
<path d="M56.0336 14.991C56.0336 14.7969 55.904 14.6675 55.7097 14.6675C55.5153 14.6675 55.3857 14.7969 55.3857 14.991C55.3857 15.1205 55.5153 15.2499 55.6448 15.3146C55.7096 15.3146 55.7096 15.3146 55.7744 15.3146C55.9688 15.2499 56.0336 15.1205 56.0336 14.991Z" fill="#878787"/>
<path d="M54.8675 14.4734C55.0618 14.4734 55.1913 14.344 55.1913 14.1499C55.1913 13.9557 55.0618 13.8263 54.8675 13.8263C54.6731 13.8263 54.5436 13.9557 54.5436 14.1499C54.5436 14.344 54.6731 14.4734 54.8675 14.4734Z" fill="#878787"/>
<path d="M53.8957 13.6969C54.09 13.6969 54.2196 13.5675 54.2196 13.3734C54.2196 13.1792 54.09 13.0498 53.8957 13.0498C53.7013 13.0498 53.5718 13.1792 53.5718 13.3734C53.5718 13.5675 53.7661 13.6969 53.8957 13.6969Z" fill="#878787"/>
<path d="M52.924 12.985C53.1183 12.985 53.2479 12.8556 53.2479 12.6615C53.2479 12.4673 53.1183 12.3379 52.924 12.3379C52.7297 12.3379 52.6001 12.4673 52.6001 12.6615C52.6001 12.7909 52.7297 12.985 52.924 12.985Z" fill="#878787"/>
<path d="M51.9523 12.2732C52.1466 12.2732 52.2762 12.1438 52.2762 11.885C52.2762 11.6261 52.1466 11.4967 51.9523 11.4967C51.7579 11.4967 51.5636 11.6261 51.5636 11.885C51.5636 12.1438 51.7579 12.2732 51.9523 12.2732Z" fill="#878787"/>
<path d="M50.9158 11.6261C51.1101 11.6261 51.3045 11.432 51.3045 11.2379C51.3045 11.0437 51.1101 10.8496 50.9158 10.8496C50.7214 10.8496 50.5271 11.0437 50.5271 11.2379C50.5271 11.4967 50.6567 11.6261 50.9158 11.6261Z" fill="#878787"/>
<path d="M49.8144 11.0438C50.0088 11.0438 50.2032 10.8496 50.2032 10.6555C50.2032 10.4613 50.0088 10.2672 49.8144 10.2672C49.6201 10.2672 49.4258 10.4613 49.4258 10.6555C49.4258 10.8496 49.6201 11.0438 49.8144 11.0438Z" fill="#878787"/>
<path d="M48.7131 10.4614C48.9075 10.4614 49.1019 10.2672 49.1019 10.0731C49.1019 9.87897 48.9075 9.68481 48.7131 9.68481C48.5188 9.68481 48.3245 9.87897 48.3245 10.0731C48.3245 10.332 48.5188 10.4614 48.7131 10.4614Z" fill="#878787"/>
<path d="M47.6119 10.0083C47.8063 10.0083 48.0006 9.81421 48.0006 9.62007C48.0006 9.42593 47.8063 9.23181 47.6119 9.23181C47.4176 9.23181 47.2232 9.42593 47.2232 9.62007C47.2232 9.81421 47.4176 10.0083 47.6119 10.0083Z" fill="#878787"/>
<path d="M46.4458 9.55536C46.6402 9.55536 46.8345 9.3612 46.8345 9.16706C46.8345 8.97293 46.6402 8.77881 46.4458 8.77881C46.2515 8.77881 46.0571 8.97293 46.0571 9.16706C46.0571 9.3612 46.2515 9.55536 46.4458 9.55536Z" fill="#878787"/>
<path d="M45.2798 9.16705C45.5389 9.16705 45.6685 8.97293 45.6685 8.7788C45.6685 8.51995 45.4741 8.3905 45.2798 8.3905C45.0207 8.3905 44.8911 8.58466 44.8911 8.7788C44.8911 8.97293 45.0854 9.16705 45.2798 9.16705Z" fill="#878787"/>
<path d="M44.1137 8.77875C44.3728 8.77875 44.5672 8.58461 44.5672 8.32578C44.5672 8.06694 44.3728 7.8728 44.1137 7.8728C43.8546 7.8728 43.6602 8.06694 43.6602 8.32578C43.725 8.58461 43.9194 8.77875 44.1137 8.77875Z" fill="#878787"/>
<path d="M42.9476 8.51996C43.2068 8.51996 43.4012 8.32581 43.4012 8.06697C43.4012 7.80812 43.2068 7.61401 42.9476 7.61401C42.6885 7.61401 42.4941 7.80812 42.4941 8.06697C42.4941 8.32581 42.6885 8.51996 42.9476 8.51996Z" fill="#878787"/>
<path d="M41.7168 8.2612C41.9759 8.2612 42.1703 8.06706 42.1703 7.80821C42.1703 7.54937 41.9759 7.35522 41.7168 7.35522C41.4577 7.35522 41.2633 7.54937 41.2633 7.80821C41.2633 8.06706 41.5224 8.2612 41.7168 8.2612Z" fill="#878787"/>
<path d="M40.486 7.22571C40.2268 7.22571 40.0325 7.41986 40.0325 7.67871C40.0325 7.93757 40.2268 8.13171 40.486 8.13171C40.7451 8.13171 40.9394 7.93757 40.9394 7.67871C40.9394 7.41986 40.7451 7.22571 40.486 7.22571Z" fill="#878787"/>
<path d="M39.3199 7.93762C39.579 7.93762 39.7734 7.74347 39.7734 7.48462C39.7734 7.22576 39.579 7.03162 39.3199 7.03162C39.0608 7.03162 38.8665 7.22576 38.8665 7.48462C38.8665 7.74347 39.0608 7.93762 39.3199 7.93762Z" fill="#878787"/>
<path d="M38.089 7.87283C38.3481 7.87283 38.5424 7.6787 38.5424 7.41986C38.5424 7.16102 38.3481 6.96692 38.089 6.96692C37.8298 6.96692 37.6355 7.16102 37.6355 7.41986C37.6355 7.6787 37.8298 7.87283 38.089 7.87283Z" fill="#878787"/>
<path d="M36.8581 7.80817C37.1173 7.80817 37.3116 7.61403 37.3116 7.35519C37.3116 7.09636 37.1173 6.90222 36.8581 6.90222C36.599 6.90222 36.4047 7.09636 36.4047 7.35519C36.4047 7.61403 36.599 7.80817 36.8581 7.80817Z" fill="#878787"/>
<path d="M35.6273 7.87283C35.8864 7.87283 36.0807 7.6787 36.0807 7.41986C36.0807 7.16102 35.8864 6.96692 35.6273 6.96692C35.3682 6.96692 35.1738 7.16102 35.1738 7.41986C35.1738 7.6787 35.3682 7.87283 35.6273 7.87283Z" fill="#878787"/>
<path d="M34.3965 7.93762C34.6556 7.93762 34.8499 7.74347 34.8499 7.48462C34.8499 7.22576 34.6556 7.03162 34.3965 7.03162C34.1373 7.03162 33.943 7.22576 33.943 7.48462C33.943 7.74347 34.1373 7.93762 34.3965 7.93762Z" fill="#878787"/>
<path d="M33.1656 8.06699C33.4248 8.06699 33.6191 7.87288 33.6191 7.61402C33.6191 7.35516 33.4248 7.16101 33.1656 7.16101C32.9065 7.16101 32.7122 7.35516 32.7122 7.61402C32.7122 7.87288 32.9065 8.06699 33.1656 8.06699Z" fill="#878787"/>
<path d="M31.9348 8.2612C32.1939 8.2612 32.3883 8.06706 32.3883 7.80821C32.3883 7.54937 32.1939 7.35522 31.9348 7.35522C31.6757 7.35522 31.4813 7.54937 31.4813 7.80821C31.5461 8.06706 31.7405 8.2612 31.9348 8.2612Z" fill="#878787"/>
<path d="M30.7687 8.51996C31.0279 8.51996 31.2222 8.32581 31.2222 8.06697C31.2222 7.80812 31.0279 7.61401 30.7687 7.61401C30.5096 7.61401 30.3152 7.80812 30.3152 8.06697C30.3152 8.32581 30.5096 8.51996 30.7687 8.51996Z" fill="#878787"/>
<path d="M29.5378 7.93762C29.2787 7.93762 29.0844 8.13172 29.0844 8.39056C29.0844 8.6494 29.2787 8.84354 29.5378 8.84354C29.797 8.84354 29.9913 8.6494 29.9913 8.39056C29.9913 8.13172 29.797 7.93762 29.5378 7.93762Z" fill="#878787"/>
<path d="M28.3718 9.16705C28.6309 9.16705 28.7604 8.97293 28.7604 8.7788C28.7604 8.51995 28.5661 8.3905 28.3718 8.3905C28.1127 8.3905 27.9831 8.58466 27.9831 8.7788C27.9831 8.97293 28.1127 9.16705 28.3718 9.16705Z" fill="#878787"/>
<path d="M27.2057 9.55536C27.4001 9.55536 27.5944 9.3612 27.5944 9.16706C27.5944 8.97293 27.4001 8.77881 27.2057 8.77881C27.0114 8.77881 26.817 8.97293 26.817 9.16706C26.817 9.3612 27.0114 9.55536 27.2057 9.55536Z" fill="#878787"/>
<path d="M26.0397 10.0083C26.234 10.0083 26.4283 9.81421 26.4283 9.62007C26.4283 9.42593 26.234 9.23181 26.0397 9.23181C25.8453 9.23181 25.651 9.42593 25.651 9.62007C25.651 9.81421 25.8453 10.0083 26.0397 10.0083Z" fill="#878787"/>
<path d="M21.0515 12.5968C21.0515 12.4026 20.9219 12.2732 20.7276 12.2732C20.5332 12.2732 20.4037 12.4026 20.4037 12.5968C20.4037 12.7909 20.5332 12.9203 20.7276 12.9203C20.9219 12.9203 21.0515 12.7909 21.0515 12.5968Z" fill="#878787"/>
<path d="M20.0797 13.3734C20.0797 13.1792 19.9502 13.0498 19.7558 13.0498C19.5615 13.0498 19.4319 13.1792 19.4319 13.3734C19.4319 13.5675 19.5615 13.6969 19.7558 13.6969C19.9502 13.6969 20.0797 13.5028 20.0797 13.3734Z" fill="#878787"/>
<path d="M18.525 14.1499C18.525 14.344 18.6545 14.4734 18.8489 14.4734C19.0432 14.4734 19.1728 14.344 19.1728 14.1499C19.1728 13.9557 19.0432 13.8263 18.8489 13.8263C18.6545 13.8263 18.525 13.9557 18.525 14.1499Z" fill="#878787"/>
<path d="M18.201 14.991C18.201 14.7969 18.0715 14.6675 17.8771 14.6675C17.6828 14.6675 17.5532 14.7969 17.5532 14.991C17.5532 15.0558 17.5532 15.1205 17.618 15.1852C17.8123 15.0558 18.0067 14.991 18.201 14.991Z" fill="#878787"/>
<path d="M17.2941 15.7029C17.2293 15.6382 17.1646 15.5735 17.035 15.5735C16.9055 15.5735 16.7759 15.7029 16.7759 15.8323C16.7759 15.9617 16.9055 16.0912 17.035 16.0912C17.0998 16.0912 17.2294 16.0264 17.2294 15.9617C17.2294 15.897 17.2293 15.7676 17.2941 15.7029Z" fill="#878787"/>
<path d="M16.1929 16.9972C16.336 16.9972 16.452 16.8813 16.452 16.7383C16.452 16.5954 16.336 16.4795 16.1929 16.4795C16.0498 16.4795 15.9337 16.5954 15.9337 16.7383C15.9337 16.8813 16.0498 16.9972 16.1929 16.9972Z" fill="#878787"/>
<path d="M15.1564 17.709C15.1564 17.8385 15.286 17.9679 15.4155 17.9679C15.5451 17.9679 15.6746 17.8385 15.6746 17.709C15.6746 17.5796 15.5451 17.4502 15.4155 17.4502C15.286 17.4502 15.1564 17.5796 15.1564 17.709Z" fill="#878787"/>
<path d="M14.8972 18.6797C14.8972 18.5503 14.8324 18.4856 14.7029 18.4856C14.6381 18.4856 14.5085 18.5503 14.5085 18.615C14.6381 18.6798 14.7677 18.7445 14.8972 18.8092C14.8325 18.7445 14.8972 18.6797 14.8972 18.6797Z" fill="#878787"/>
<path d="M13.9255 19.4562C13.796 19.4562 13.7311 19.5209 13.7311 19.6503C13.7311 19.7798 13.796 19.8445 13.9255 19.8445C14.0551 19.8445 14.1198 19.7798 14.1198 19.6503C14.1198 19.5856 14.0551 19.4562 13.9255 19.4562Z" fill="#878787"/>
<path d="M13.2777 20.5563C13.2129 20.5563 13.0833 20.621 13.0833 20.7504C13.0833 20.8151 13.1481 20.9445 13.2777 20.9445C13.3425 20.9445 13.472 20.8798 13.472 20.7504C13.472 20.621 13.4072 20.5563 13.2777 20.5563Z" fill="#878787"/>
<path d="M12.1116 22.7565C12.0468 22.7565 11.9821 22.8212 11.9821 22.8859C11.9821 22.9506 12.0468 23.0154 12.1116 23.0154C12.1764 23.0154 12.2412 22.9506 12.2412 22.8859C12.2412 22.8212 12.1764 22.7565 12.1116 22.7565Z" fill="#878787"/>
<path d="M11.5933 23.9213C11.5285 23.9213 11.5286 23.986 11.5286 23.986C11.5286 24.0507 11.5933 24.0507 11.5933 24.0507C11.6581 24.0507 11.6581 23.986 11.6581 23.986C11.7229 23.9213 11.6581 23.9213 11.5933 23.9213Z" fill="#878787"/>
<path d="M11.1403 25.0861C11.0746 25.1515 11.1403 25.1515 11.1403 25.1515C11.2059 25.1515 11.2059 25.1515 11.1403 25.0861C11.2059 25.0861 11.2059 25.0861 11.1403 25.0861Z" fill="#878787"/>
<path d="M32.3883 45.4054C32.3883 45.4054 32.3235 45.4701 32.2587 45.5995C32.3235 45.5348 32.3883 45.4701 32.3883 45.4054Z" fill="#878787"/>
<path d="M72.488 43.3994C72.6176 43.3346 72.6824 43.1405 72.6824 42.9464C72.6824 42.6875 72.5528 42.4287 72.3585 42.4287H72.2289L72.5528 43.1405C72.5528 43.2699 72.5528 43.3346 72.488 43.3994Z" fill="#878787"/>
<path d="M47.6767 43.5288H72.2937C72.3585 43.5288 72.4232 43.5288 72.488 43.4641C72.5528 43.3994 72.5528 43.3347 72.5528 43.2053L72.2289 42.4934H47.6119C47.6119 42.817 47.6767 43.1406 47.6767 43.5288Z" fill="#878787"/>
<path d="M0.96916 43.27V43.2053L1.29309 42.4934H1.16353C0.969172 42.4934 0.8396 42.6875 0.8396 43.0111C0.8396 43.1405 0.904374 43.27 0.96916 43.3994C0.96916 43.3994 0.96916 43.3994 0.96916 43.3346C0.96916 43.2699 0.96916 43.27 0.96916 43.27Z" fill="#878787"/>
<path d="M1.22827 43.5288H23.254C23.254 43.2053 23.3188 42.8817 23.3835 42.4934H1.35784L1.03394 43.2053V43.27V43.3347C1.03394 43.3347 1.03394 43.3347 1.03394 43.3994C1.03394 43.4641 1.09871 43.5288 1.22827 43.5288Z" fill="#878787"/>
<path d="M72.4881 25.8625H69.249C69.249 25.8625 69.249 25.9273 69.3138 25.9273H71.7755C71.8403 25.9273 71.9051 25.9273 71.9051 25.992C71.9698 25.992 72.0346 25.9273 72.0994 25.9273C72.2937 25.9273 72.4233 25.992 72.4881 26.1214C72.6176 26.1861 72.6824 26.3155 72.6824 26.5097C72.6824 26.5744 72.6824 26.6391 72.6824 26.6391C72.812 26.5744 72.8768 26.445 72.8768 26.2508C72.812 26.1214 72.6824 25.8625 72.4881 25.8625Z" fill="#878787"/>
<path d="M1.42264 25.9273H4.3378V25.8625H1.35785C1.29307 25.8625 1.16351 25.9273 1.16351 25.992C1.2283 25.992 1.29306 25.9273 1.29306 25.9273H1.42264Z" fill="#878787"/>
<path d="M1.2283 26.1215H4.40259C4.40259 26.0568 4.40259 25.9921 4.40259 25.9274H1.48744H1.35787C1.29309 25.9274 1.2283 25.9274 1.2283 25.9921C1.16352 26.0568 1.16354 26.1215 1.09875 26.1862C1.09875 26.1215 1.16352 26.1215 1.2283 26.1215Z" fill="#878787"/>
<path d="M72.2937 26.1214C72.3585 26.1214 72.4233 26.1214 72.488 26.1861C72.4233 26.0566 72.2289 25.9919 72.0994 25.9919C72.0346 25.9919 71.9698 25.992 71.905 26.0567C71.8402 26.0567 71.7754 25.9919 71.7754 25.9919H69.3137C69.3137 26.0567 69.3785 26.1214 69.3785 26.1861H72.2937V26.1214Z" fill="#878787"/>
<path d="M5.50391 25.8625C5.50391 25.9273 5.50391 25.992 5.50391 26.1214H67.9534C67.8886 26.0567 67.8238 25.992 67.8238 25.8625H5.50391Z" fill="#878787"/>
<path d="M72.488 26.1862C72.5528 26.2509 72.5528 26.3803 72.5528 26.445L72.3585 26.7686H72.4233C72.488 26.7686 72.5528 26.7686 72.6176 26.7039C72.6176 26.6392 72.6176 26.6392 72.6176 26.5745C72.6824 26.3803 72.6176 26.2509 72.488 26.1862Z" fill="#878787"/>
<path d="M68.0181 26.1215H5.56865C5.56865 26.1862 5.56865 26.2509 5.56865 26.3156C5.56865 26.445 5.50386 26.5744 5.43908 26.6391C5.3743 26.7038 5.30954 26.7039 5.17998 26.7039H5.11517C5.05039 26.7039 4.92085 26.7039 4.85607 26.7039C4.66173 26.7039 4.46736 26.5097 4.46736 26.3156C4.46736 26.2509 4.46736 26.1862 4.46736 26.1215H1.29306C1.22828 26.1215 1.16351 26.1214 1.16351 26.1862C1.16351 26.2509 1.16351 26.3156 1.16351 26.3803C1.16351 26.6392 1.29308 26.8333 1.48742 26.8333H68.4068C68.4068 26.8333 68.4068 26.7686 68.342 26.7686C68.2773 26.5097 68.1477 26.3156 68.0181 26.1215Z" fill="#878787"/>
<path d="M69.3137 26.1215C69.3785 26.1862 69.3785 26.2509 69.4433 26.3803C69.508 26.5097 69.508 26.6391 69.4433 26.7686L69.3785 26.8333H72.4232L72.6176 26.5097C72.6176 26.445 72.6176 26.3156 72.5528 26.2509C72.488 26.1862 72.4232 26.1862 72.3584 26.1862H69.3137V26.1215Z" fill="#878787"/>
<path d="M4.72653 25.9273V25.8625H4.40259V25.9273H4.72653Z" fill="#878787"/>
<path d="M4.79126 25.8625H4.72649V25.9273H4.40259C4.40259 25.992 4.40259 26.0567 4.40259 26.1214H4.79126C4.79126 26.0567 4.79126 25.992 4.79126 25.8625Z" fill="#878787"/>
<path d="M5.11517 25.8625C5.11517 25.9273 5.11517 25.992 5.11517 26.1214H5.50388C5.50388 26.0567 5.50388 25.992 5.50388 25.8625H5.11517Z" fill="#878787"/>
<path d="M4.79126 26.7039C4.85604 26.7039 4.98562 26.7039 5.0504 26.7039H5.11516C5.17995 26.7039 5.30952 26.7038 5.37431 26.6391C5.43909 26.5744 5.50388 26.445 5.50388 26.3156C5.50388 26.2509 5.50388 26.1862 5.50388 26.1215H5.11516C5.11516 26.1862 5.11516 26.2509 5.11516 26.3803C4.9856 26.3803 4.85604 26.3156 4.79126 26.3156C4.79126 26.2509 4.79126 26.1862 4.79126 26.1215H4.40259C4.40259 26.1862 4.40259 26.2509 4.40259 26.3156C4.40259 26.5097 4.59692 26.7039 4.79126 26.7039Z" fill="#878787"/>
<path d="M4.79126 25.8625C4.79126 25.9273 4.79126 25.992 4.79126 26.1214H5.11517C5.11517 26.0567 5.11517 25.992 5.11517 25.8625H4.79126Z" fill="#878787"/>
<path d="M4.79126 26.3156C4.92083 26.3156 5.05039 26.3156 5.11517 26.3803C5.11517 26.3156 5.11517 26.2509 5.11517 26.1215H4.79126C4.79126 26.1862 4.79126 26.2509 4.79126 26.3156Z" fill="#878787"/>
<path d="M68.7955 25.9273H69.249C69.249 25.9273 69.249 25.8625 69.1842 25.8625H68.7307C68.7307 25.9273 68.7955 25.9273 68.7955 25.9273Z" fill="#878787"/>
<path d="M67.8237 25.8625C67.8885 25.9273 67.9533 25.992 67.9533 26.1214H68.4068C68.342 26.0567 68.342 25.992 68.2772 25.8625H67.8237Z" fill="#878787"/>
<path d="M68.8603 26.1215H69.3138C69.3138 26.0568 69.249 25.9921 69.249 25.9274H68.7955C68.7955 25.9921 68.8603 26.0568 68.8603 26.1215Z" fill="#878787"/>
<path d="M69.4433 26.3803C69.3785 26.3156 69.3785 26.2509 69.3138 26.1215H68.8603C68.9251 26.2509 68.9898 26.3803 69.0546 26.5097C68.9251 26.5097 68.7955 26.5097 68.666 26.5744C68.6012 26.445 68.5364 26.3156 68.4068 26.1215H67.9534C68.0829 26.3156 68.2125 26.5097 68.2773 26.7039C68.2773 26.7039 68.2773 26.7686 68.3421 26.7686H69.3138L69.3785 26.7039C69.4433 26.6392 69.5081 26.5097 69.4433 26.3803Z" fill="#878787"/>
<path d="M68.7307 25.9273H68.7955C68.7955 25.9273 68.7955 25.8625 68.7307 25.8625H68.666C68.666 25.9273 68.7307 25.9273 68.7307 25.9273Z" fill="#878787"/>
<path d="M68.666 25.8625H68.342C68.4068 25.9273 68.4716 25.992 68.4716 26.1214H68.8603C68.8603 26.0567 68.7955 25.992 68.7955 25.9273H68.7307C68.7307 25.9273 68.666 25.9273 68.666 25.8625Z" fill="#878787"/>
<path d="M68.7307 26.5745C68.8603 26.5745 68.9898 26.5097 69.1194 26.5097C69.0546 26.3803 68.9898 26.2509 68.925 26.1215H68.5364C68.5364 26.2509 68.6659 26.3803 68.7307 26.5745Z" fill="#878787"/>
<path d="M52.5353 16.156C52.5353 15.8971 52.4057 15.703 52.2114 15.5089C52.0171 15.3794 51.7579 15.1853 51.4988 15.1853C50.7862 15.1853 50.0736 15.5736 49.4258 16.2207C48.9076 16.7384 48.4541 17.5149 48.0654 18.2915L48.4541 16.8031L48.778 15.3147L46.4458 15.703V15.8324H46.5106C46.5754 15.8324 46.5754 15.8324 46.6402 15.8324C46.705 15.8324 46.705 15.8324 46.705 15.8324C47.2232 15.8324 47.2232 16.0913 47.2232 16.2207C47.2232 16.2207 47.2232 16.2854 47.2232 16.4148L45.5389 23.6625C45.4741 23.9213 45.4093 24.1155 45.2798 24.1802C45.1502 24.2449 44.9559 24.3096 44.6968 24.3096H44.632V24.5037H47.4824L47.5471 24.3096H47.3528C46.8993 24.3096 46.8345 24.1154 46.8345 23.9213C46.8345 23.9213 46.8345 23.8566 46.8345 23.7272L47.7415 19.7798C48.0654 18.6797 48.8428 17.5149 49.4258 16.8031C50.0736 16.0265 50.6567 15.6383 51.1749 15.6383C51.5636 15.6383 51.6932 15.8971 51.6932 15.9618C51.6932 16.0913 51.6284 16.2207 51.5636 16.2854C51.4988 16.4148 51.3692 16.4148 51.2397 16.4148C51.1749 16.4148 51.1101 16.4148 51.0453 16.3501L50.9158 16.2854V16.4148C50.9158 16.5443 50.9805 16.6737 51.1101 16.8031C51.2397 16.9325 51.3692 16.9972 51.5636 16.9972C51.8227 16.9972 52.0818 16.9325 52.2762 16.7384C52.4705 16.609 52.5353 16.4148 52.5353 16.156Z" fill="#878787"/>
<path d="M19.3671 10.0731C18.5249 10.0731 17.618 10.2026 16.7758 10.5261C15.9337 10.785 15.1563 11.1732 14.4437 11.6909C13.7311 12.2086 13.2129 12.791 12.7594 13.5675C12.3059 14.344 12.1116 15.1206 12.1116 16.0266C12.1116 16.9325 12.4355 17.6443 13.0833 18.2915C13.7311 18.8739 14.5733 19.1974 15.6098 19.1974C16.5815 19.1974 17.4237 18.9386 18.1363 18.3561C18.8489 17.7737 19.2375 17.1266 19.2375 16.2854C19.2375 15.9618 19.108 15.6383 18.9136 15.4441C18.6545 15.1853 18.3954 15.0559 18.0715 15.0559C18.0715 15.1853 17.9419 15.3147 17.7476 15.3147C17.618 15.3147 17.5532 15.25 17.4885 15.1853C17.4237 15.25 17.3589 15.25 17.2941 15.3147C17.1645 15.4441 17.0997 15.5736 17.0997 15.7677C17.0997 15.8324 17.0997 15.8324 17.0997 15.8971C17.0997 15.9618 17.0998 16.0265 17.035 16.0913C17.035 16.2207 17.035 16.2854 17.035 16.2854L17.0997 16.4148L17.1645 16.2854C17.2941 16.0265 17.4884 15.8971 17.7476 15.8971C17.9419 15.8971 18.1362 15.9618 18.2658 16.156C18.3954 16.3501 18.4602 16.5442 18.4602 16.8031C18.4602 17.4502 18.1362 18.0326 17.618 18.4208C17.035 18.8091 16.3871 19.068 15.6745 19.068C15.2859 19.068 14.962 19.0033 14.7028 18.8738C14.638 18.9385 14.5733 19.0033 14.5085 19.0033C14.3789 19.0033 14.3142 18.9386 14.3142 18.8091V18.7444C14.2494 18.6797 14.1846 18.6797 14.1846 18.615C13.7311 18.2915 13.472 17.8385 13.2129 17.3855C13.0185 16.8678 12.889 16.3501 12.889 15.7677C12.889 15.0559 13.0185 14.3441 13.2129 13.7617C13.472 13.1793 13.7959 12.6615 14.1846 12.2733C14.5733 11.885 15.0915 11.4968 15.6098 11.2379C16.1928 10.9791 16.7758 10.7849 17.4237 10.6555C18.0715 10.5261 18.7193 10.4614 19.4319 10.4614C20.0797 10.4614 20.5332 10.6555 20.7275 10.7202L20.8571 10.3319C20.5979 10.0731 20.0149 10.0731 19.3671 10.0731Z" fill="#878787"/>
<path d="M29.2139 13.3734C29.2139 12.4027 28.8252 11.5615 28.1126 10.9791C27.3352 10.3967 26.2987 10.0731 24.9383 10.0731C24.744 10.0731 24.4201 10.0731 23.9018 10.1378C23.3835 10.1378 23.0596 10.2026 22.8005 10.2026C22.347 10.1378 21.764 10.1378 21.1162 10.0731L20.9866 10.4614C21.0514 10.4614 21.1162 10.5261 21.181 10.5261C21.4401 10.6555 21.5049 11.1085 21.3753 11.8203L21.2458 12.4674L18.5249 23.8566C18.4602 24.2449 18.2658 24.5037 18.0067 24.6979C17.7476 24.892 17.2941 24.9567 16.7758 24.9567H16.7111V25.1508L17.6828 25.0861C18.5897 25.0861 19.5614 25.1508 20.4684 25.2155C21.4401 25.2803 21.9584 25.345 22.0879 25.345C24.1609 25.345 25.8452 24.892 27.0113 24.0507C28.1774 23.2095 28.8252 22.1094 28.89 20.8799C28.89 19.974 28.6309 19.1974 28.1126 18.615C27.5296 17.9679 26.7522 17.5796 25.7157 17.3208C25.6509 17.3208 25.3918 17.2561 24.9383 17.1914C26.2987 17.1914 27.3352 16.8031 28.1126 16.0913C28.7604 15.25 29.1491 14.344 29.2139 13.3734ZM21.764 11.5615C21.9584 11.5615 22.1527 11.6909 22.1527 11.9497C22.1527 12.1439 22.0231 12.338 21.764 12.338C21.5697 12.338 21.3753 12.2086 21.3753 11.9497C21.3753 11.6909 21.5697 11.5615 21.764 11.5615ZM27.9183 13.3087C27.9183 13.4381 27.9183 13.5028 27.9183 13.6322C27.9183 13.8264 27.8535 14.0205 27.7887 14.2146C27.7239 14.344 27.7239 14.4735 27.6591 14.6029C27.6591 14.6676 27.5944 14.7323 27.5296 14.8617C27.4 15.1853 27.2057 15.4441 26.9465 15.7677L26.8818 15.8324C26.817 15.8971 26.817 15.8971 26.7522 15.9618C26.6226 16.0913 26.4283 16.2207 26.234 16.3501C26.1044 16.4148 25.9748 16.4795 25.8452 16.5442C25.7157 16.609 25.5861 16.6737 25.4566 16.6737C25.4566 16.6737 25.3918 16.6737 25.3918 16.7384C25.1326 16.8031 24.9383 16.8678 24.6144 16.9325C24.161 16.9972 23.5779 17.0619 22.9949 17.0619H22.8653L22.8005 17.2561H23.3836C25.9748 17.2561 27.2705 18.3562 27.2705 20.6211C27.2705 20.9446 27.2057 21.2035 27.1409 21.527C27.1409 21.5917 27.0761 21.6564 27.0761 21.7212C27.0761 21.7859 27.0113 21.8506 27.0113 21.9153C26.9465 22.1741 26.817 22.3682 26.6226 22.6271C26.5579 22.6918 26.4931 22.8212 26.4283 22.8859C26.3635 22.9507 26.3635 23.0154 26.2987 23.0801C26.1044 23.3389 25.91 23.5331 25.7157 23.7272C25.6509 23.7919 25.5213 23.9213 25.3918 23.986C25.0031 24.3096 24.4849 24.5685 23.837 24.7626C23.1892 24.9567 22.5414 25.0861 21.764 25.0861C21.6992 25.0861 21.6345 25.0861 21.5697 25.0861C21.3753 25.0861 21.181 25.0861 21.0514 25.0214C20.9867 25.0214 20.9866 25.0214 20.9219 25.0214C20.7275 25.0214 20.598 24.9567 20.4036 24.892C20.2093 24.8273 20.0149 24.6979 19.9501 24.5037C19.9501 24.439 19.8853 24.3743 19.8853 24.3096C19.8853 24.2449 19.8853 24.1802 19.8853 24.1155C19.8853 24.0508 19.8853 23.9213 19.8853 23.8566L21.0514 18.9386L22.8653 11.2379C22.9301 11.0438 22.9948 10.9144 23.1244 10.7849L23.1892 10.7202C23.3188 10.6555 23.3835 10.5261 23.5779 10.5261C23.6427 10.5261 23.7074 10.4614 23.7722 10.4614C23.837 10.4614 23.9018 10.4614 23.9666 10.3967C24.0962 10.3967 24.2257 10.3319 24.2905 10.3319H24.3553C24.4848 10.3319 24.6144 10.3319 24.8088 10.3319C25.0679 10.3319 25.2622 10.332 25.4566 10.3967C25.5214 10.3967 25.5861 10.3967 25.5861 10.3967C26.1692 10.5261 26.6226 10.785 27.0113 11.1732C27.4 11.5615 27.6591 12.0145 27.7239 12.5321C27.9183 12.791 27.9183 13.0498 27.9183 13.3087Z" fill="#878787"/>
<path d="M21.764 12.2732C21.9584 12.2732 22.1527 12.1438 22.1527 11.885C22.1527 11.6908 22.0232 11.4967 21.764 11.4967C21.5697 11.4967 21.3754 11.6261 21.3754 11.885C21.3754 12.0791 21.5697 12.2732 21.764 12.2732Z" fill="#878787"/>
<path d="M17.8772 15.25C18.0068 15.25 18.1363 15.1205 18.2011 14.9911C18.0068 14.9911 17.8124 15.0558 17.6829 15.1205C17.6829 15.1852 17.8124 15.25 17.8772 15.25Z" fill="#878787"/>
<path d="M17.2941 15.703C17.2941 15.7677 17.2941 15.8971 17.2941 15.9618C17.3589 15.8971 17.3589 15.8324 17.3589 15.7677C17.2942 15.7677 17.2941 15.7677 17.2941 15.703Z" fill="#878787"/>
<path d="M14.6381 18.8737C14.7028 18.8737 14.7676 18.809 14.8324 18.7443C14.7028 18.6796 14.5733 18.6149 14.4437 18.5502V18.6149C14.4437 18.7443 14.5085 18.8737 14.6381 18.8737Z" fill="#878787"/>
<path d="M23.5132 17.256C26.1044 17.256 27.4001 18.3561 27.4001 20.621C27.4001 20.9446 27.3353 21.2034 27.2705 21.527C27.3353 21.2034 27.4001 20.8798 27.4001 20.621C27.4001 18.2914 26.1044 17.256 23.5132 17.256H22.9301H23.5132Z" fill="#878787"/>
<path d="M22.9949 17.0618L22.9301 17.2559L22.9949 17.0618H23.1245C23.7075 17.0618 24.2258 16.9971 24.744 16.9324C24.2905 16.9971 23.7075 17.0618 23.1245 17.0618H22.9949Z" fill="#878787"/>
<path d="M26.817 15.8971C26.8818 15.8324 26.8818 15.8324 26.9466 15.7677L27.0114 15.703L26.9466 15.7677C26.8818 15.8324 26.817 15.8971 26.817 15.8971Z" fill="#878787"/>
<path d="M27.9183 13.3087C27.9183 13.4381 27.9183 13.5028 27.9183 13.6322C27.9183 13.5028 27.9183 13.4381 27.9183 13.3087C27.9183 13.0498 27.9183 12.791 27.8535 12.5321C27.9183 12.791 27.9183 13.0498 27.9183 13.3087Z" fill="#878787"/>
<path d="M25.8453 23.7272C26.0397 23.533 26.234 23.2742 26.4283 23.0801C26.2988 23.3389 26.0397 23.533 25.8453 23.7272Z" fill="#878787"/>
<path d="M27.5944 14.797C27.6591 14.7323 27.6592 14.6676 27.7239 14.5381C27.7887 14.4087 27.7887 14.2793 27.8535 14.1499C27.7887 14.2793 27.7887 14.4087 27.7239 14.5381C27.6592 14.6676 27.5944 14.7323 27.5944 14.797Z" fill="#878787"/>
<path d="M27.1409 21.9153C27.0761 22.1741 26.9466 22.3683 26.7523 22.6271C26.8818 22.3683 27.0113 22.1094 27.1409 21.9153Z" fill="#878787"/>
<path d="M25.9101 16.5442C25.7805 16.6089 25.6509 16.6736 25.5214 16.6736C25.6509 16.6089 25.7805 16.5442 25.9101 16.5442Z" fill="#878787"/>
<path d="M26.817 15.8971C26.6875 16.0265 26.4931 16.1559 26.2988 16.2854C26.4931 16.1559 26.6227 16.0265 26.817 15.8971Z" fill="#878787"/>
<path d="M23.6427 10.4613C23.5131 10.526 23.3835 10.5907 23.254 10.6554L23.1892 10.7202L23.254 10.6554C23.3835 10.5907 23.5131 10.526 23.6427 10.4613Z" fill="#878787"/>
<path d="M21.181 18.9385L20.015 23.8565C20.015 23.9859 20.015 24.0507 20.015 24.1154C20.015 24.0507 20.015 23.9212 20.015 23.8565L21.181 18.9385Z" fill="#878787"/>
<path d="M26.2988 16.2853C26.1692 16.35 26.0397 16.4147 25.9102 16.4794C26.0397 16.4147 26.1692 16.35 26.2988 16.2853Z" fill="#878787"/>
<path d="M20.015 24.5037C20.0797 24.6978 20.2741 24.8272 20.4684 24.8919C20.6628 24.9566 20.8571 25.0213 20.9867 25.0213C20.7923 25.0213 20.6628 24.9566 20.4684 24.8919C20.2741 24.8272 20.1445 24.6978 20.015 24.5037Z" fill="#878787"/>
<path d="M24.4201 10.3319H24.3553C24.2906 10.3319 24.161 10.3319 24.0314 10.3966C24.161 10.3966 24.2906 10.3319 24.3553 10.3319C24.4201 10.3319 24.4201 10.3319 24.4201 10.3319Z" fill="#878787"/>
<path d="M31.4165 22.4977C31.4813 22.1741 31.6109 21.6564 31.7405 21.074L33.1009 15.25L30.7687 15.6383V15.8324H30.8335C30.8983 15.8324 30.9631 15.8324 31.0278 15.8324C31.2222 15.8324 31.3518 15.8971 31.4813 15.9618C31.6109 16.0265 31.6109 16.2206 31.5461 16.4795L30.4448 21.1387C30.4448 21.2034 30.38 21.3976 30.3153 21.7211C30.2505 22.0447 30.1857 22.2388 30.1857 22.3683C30.1857 22.4977 30.1209 22.6918 30.1209 23.0154C30.0561 23.2742 30.0561 23.5331 30.1209 23.6625C30.1857 23.7919 30.2505 23.986 30.3153 24.1155C30.38 24.3096 30.5744 24.439 30.7687 24.5037C30.9631 24.5684 31.2222 24.6331 31.4813 24.6331C31.9348 24.6331 32.3235 24.5037 32.5178 24.1802L32.5826 24.1155L32.3883 24.0507V24.1155C32.2587 24.3096 32.0643 24.439 31.87 24.439C31.6756 24.439 31.5461 24.3743 31.4813 24.2449C31.4165 24.1154 31.3517 23.9213 31.3517 23.5977C31.3517 23.2095 31.3518 22.8859 31.4165 22.4977Z" fill="#878787"/>
<path d="M34.4612 11.7555C34.526 11.4319 34.4612 11.2378 34.2669 10.979C34.0726 10.7848 33.8782 10.6554 33.5543 10.6554C33.2952 10.6554 33.0361 10.7848 32.7769 10.979C32.5826 11.1731 32.3882 11.432 32.3882 11.6908C32.3235 12.0144 32.3882 12.2085 32.5826 12.4673C32.7769 12.6615 32.9713 12.7909 33.2952 12.7909C33.5543 12.7909 33.8782 12.6615 34.0726 12.4673C34.2669 12.2732 34.4612 12.0143 34.4612 11.7555Z" fill="#878787"/>
<path d="M40.1621 15.1205C40.0973 15.4441 39.9029 15.5735 39.5142 15.5735H39.4494C39.3199 15.5735 39.1256 15.5088 38.8664 15.4441C38.5425 15.3794 38.2834 15.3146 38.0242 15.3146C37.4412 15.3146 36.8582 15.5088 36.2752 15.8971C35.7569 16.2853 35.433 16.803 35.433 17.3207C35.433 17.6443 35.4978 17.9678 35.6921 18.3561C35.8865 18.7444 36.0808 19.0679 36.4047 19.4562C36.6638 19.7797 36.923 20.168 37.2469 20.4916C37.506 20.8151 37.7651 21.2034 37.9595 21.5917C38.1538 21.9799 38.2186 22.3035 38.2186 22.6918C38.2186 23.2094 38.0242 23.5977 37.6356 23.9212C37.2469 24.2448 36.7286 24.439 36.0808 24.439C35.433 24.439 34.9795 24.3095 34.7204 23.986C34.4613 23.7271 34.3317 23.3388 34.3317 22.9506C34.3317 22.5623 34.4613 22.2388 34.6556 22.0446C34.85 21.7858 35.1091 21.7211 35.3682 21.7211C35.6921 21.7211 35.8864 21.8505 35.8864 22.0446H36.016C36.0808 21.6564 36.016 21.3328 35.8217 21.0092C35.6273 20.7504 35.3034 20.5563 34.9147 20.5563C34.4612 20.5563 34.0725 20.6857 33.8134 21.0092C33.5543 21.3328 33.4247 21.7211 33.4247 22.1093C33.4247 22.6917 33.6839 23.2742 34.2021 23.7919C34.7204 24.3095 35.3682 24.5684 36.1456 24.5684C36.9877 24.5684 37.7651 24.2448 38.4129 23.6624C39.0608 23.08 39.3847 22.3682 39.3847 21.6563C39.3847 21.2034 39.2551 20.7504 38.9312 20.2974C38.6721 19.8444 38.3481 19.4562 38.0242 19.0679C37.7003 18.7443 37.3764 18.3561 37.1173 17.9031C36.8582 17.4501 36.7286 16.9971 36.7286 16.6089C36.7286 16.1559 36.8582 15.8323 37.1173 15.6382C37.3764 15.4441 37.6356 15.3146 37.9595 15.3146C38.4777 15.3146 38.9312 15.5735 39.1903 16.0912C39.5142 16.6089 39.5142 17.3207 39.3199 18.2267V18.2914H39.5142L40.2916 14.9264L40.1621 15.1205Z" fill="#878787"/>
<path d="M43.9842 24.0507C43.8546 24.2449 43.6603 24.3743 43.4659 24.3743C43.142 24.3743 42.9477 24.3096 42.8181 24.0507C42.4294 23.5977 42.4294 22.6271 42.8181 21.1387L44.049 15.9618H45.6037V15.6382H44.1137L44.6968 13.2439L43.3363 13.5675L42.8181 15.703H41.7816V16.0265H42.7533L41.5872 21.2034C41.4577 21.8506 41.3281 22.4977 41.3281 23.0154C41.3281 23.5331 41.4577 23.986 41.7816 24.2449C42.1055 24.5684 42.559 24.6978 43.2068 24.6978C43.6602 24.6978 44.049 24.5684 44.2433 24.2449L44.3081 24.1802L43.9842 24.0507Z" fill="#878787"/>
<path d="M60.7625 16.2853C60.6978 16.2206 60.633 16.0912 60.5682 16.0912C60.5034 16.0265 60.4386 16.0265 60.4386 16.0265C60.3091 15.9618 60.1147 15.9618 59.9204 15.9618C59.4669 15.9618 58.9486 16.0912 58.56 16.4148C58.4952 16.4795 58.3656 16.5442 58.3009 16.6089C57.8474 15.8324 57.07 15.3794 56.2278 15.3794C56.0983 15.3794 56.0335 15.3794 55.9039 15.3794H55.8391C55.58 15.4441 55.3857 15.5088 55.1266 15.5735C54.6731 15.7677 54.2844 16.0265 53.9605 16.3501C52.9888 17.256 52.2762 18.4855 51.9522 19.9092C51.6931 21.074 51.7579 22.1094 52.0818 23.08C52.4705 24.0507 53.1183 24.6331 54.1548 24.7625C54.2844 24.7625 54.3492 24.7625 54.4787 24.7625C55.1266 24.7625 55.7744 24.5037 56.2926 24.1154C57.7826 22.9506 58.6895 21.2034 58.8191 19.2621C58.8191 18.7444 58.8191 18.2914 58.7543 17.9678V17.7737C58.7543 17.6443 58.6895 17.5149 58.6895 17.3854L58.6248 17.256C58.6248 17.1913 58.56 17.0619 58.56 16.9972C59.0134 16.6736 59.5317 16.2853 60.0499 16.2853C59.9851 16.35 59.9851 16.4795 60.0499 16.6089C60.1147 16.8677 60.3738 17.1266 60.633 17.1266C60.7625 17.1266 60.8273 17.0619 60.8921 16.9972C60.9569 16.8678 60.9569 16.7383 60.9569 16.6089C60.8273 16.35 60.8273 16.35 60.7625 16.2853ZM55.7096 15.5735C55.9039 15.4441 56.0983 15.4441 56.2926 15.4441C56.6813 15.4441 57.07 15.7029 57.2643 16.1559C57.3291 16.2853 57.3939 16.4795 57.3939 16.6089C57.0052 16.4795 56.5517 16.35 56.163 16.2853C55.9687 16.2853 55.7744 16.2206 55.6448 16.2206C55.3209 16.2206 55.0618 16.2854 54.8026 16.3501C55.0618 16.0265 55.3209 15.7029 55.7096 15.5735ZM57.4587 17.9031C57.3291 19.6503 56.9404 21.2034 56.2926 22.627C56.0335 23.1447 55.7744 23.533 55.5152 23.8566C55.1913 24.1801 54.8674 24.3743 54.5435 24.439C54.4787 24.439 54.3492 24.5037 54.2844 24.5037C53.8309 24.5037 53.4422 24.2448 53.2479 23.8566C53.0535 23.4683 52.9888 23.0153 52.9888 22.3682C53.1831 20.4916 53.507 19.0032 54.0901 17.709C54.2196 18.0973 54.6731 18.4855 55.4505 18.4855C55.7096 18.4855 55.9039 18.4855 56.2278 18.4208C56.7461 18.2914 57.1996 18.0325 57.5235 17.7737C57.4587 17.709 57.4587 17.8384 57.4587 17.9031ZM55.6448 18.162C53.7014 18.4855 53.8957 16.2206 55.8391 16.5442C56.4222 16.6089 56.9404 16.8677 57.4587 17.1266C56.9404 17.5795 56.2926 18.0326 55.6448 18.162Z" fill="#878787"/>
<path d="M10.3625 38.6107C10.816 38.6107 11.2047 38.4166 11.5934 37.9636C11.9821 37.5753 12.2412 37.0576 12.3708 36.4752C12.5003 35.8928 12.4355 35.3751 12.2412 34.9221C12.0469 34.4692 11.7229 34.275 11.2695 34.275C10.816 34.275 10.4273 34.4692 10.0386 34.9221C9.64995 35.3104 9.39082 35.8281 9.26125 36.4105C9.13169 36.9929 9.19648 37.5106 9.39082 37.9636C9.58517 38.4166 9.90908 38.6107 10.3625 38.6107ZM9.90907 36.4752C10.0386 35.8281 10.233 35.3104 10.4921 34.9221C10.7512 34.5986 10.9456 34.4045 11.2047 34.4045C11.4638 34.4045 11.5934 34.5986 11.7229 34.9221C11.7877 35.2457 11.7877 35.7634 11.6582 36.4752C11.5286 37.1223 11.3343 37.64 11.0751 37.9636C10.816 38.2871 10.6217 38.4813 10.3625 38.4813C10.1034 38.4813 9.97383 38.2871 9.84426 37.9636C9.77948 37.64 9.77951 37.1223 9.90907 36.4752Z" fill="#878787"/>
<path d="M12.2411 38.4166V38.546H13.5368L13.6016 38.4166H13.472C13.4072 38.4166 13.3425 38.4166 13.2777 38.3519C13.2777 38.2872 13.2129 38.2871 13.2777 38.1577L13.7959 35.8928C14.1198 34.9868 14.5085 34.4692 14.962 34.4692H15.0267C15.1563 34.4692 15.2859 34.4692 15.3507 34.5339C15.4154 34.5986 15.4802 34.728 15.4802 34.8574C15.4802 34.9869 15.4802 35.1163 15.4802 35.2457C15.4802 35.3751 15.4155 35.5045 15.4155 35.6987L15.0915 37.0576L14.962 37.5106C14.962 37.5753 14.8972 37.7047 14.8972 37.7694C14.8972 37.8342 14.8972 37.9636 14.8972 38.0283C14.8972 38.2224 14.962 38.3518 15.0915 38.4813C15.2211 38.6107 15.4154 38.6107 15.6098 38.6107C15.8689 38.6107 15.9985 38.546 16.128 38.4166L16.1928 38.3519H16.0633C15.9985 38.4166 15.9337 38.4813 15.8041 38.4813C15.6746 38.4813 15.545 38.4813 15.545 38.1577C15.545 37.8989 15.6098 37.5753 15.7394 37.1223L16.128 35.634C16.1928 35.2457 16.1928 34.9222 16.0633 34.6633C15.9337 34.4045 15.6746 34.275 15.2859 34.275H15.2211C14.7676 34.275 14.3789 34.5986 14.055 35.181L14.2494 34.3398L13.1481 34.5339V34.6633H13.2129H13.2777C13.3425 34.6633 13.4072 34.6633 13.472 34.728C13.5368 34.7927 13.5368 34.8574 13.5368 34.9221L12.7594 38.2224C12.7594 38.3519 12.6946 38.4166 12.6299 38.4166C12.4355 38.4166 12.3707 38.4166 12.2411 38.4166Z" fill="#878787"/>
<path d="M20.8571 32.0749C20.9219 32.0749 20.9867 32.0749 21.0515 32.1396C21.1163 32.2043 21.1162 32.269 21.1162 32.3337L19.7558 38.1577C19.7558 38.2872 19.6911 38.3519 19.6263 38.3519C19.5615 38.3519 19.4967 38.4166 19.3671 38.4166H19.3024V38.546H20.598L20.6628 38.4166H20.5332C20.4684 38.4166 20.4036 38.4166 20.3389 38.3519C20.3389 38.2872 20.2741 38.2872 20.3389 38.1577L20.8571 35.8928C21.181 34.9222 21.5697 34.4692 22.0232 34.4045H22.088C22.2175 34.4045 22.3471 34.4045 22.4119 34.4692C22.4767 34.5339 22.5414 34.6634 22.5414 34.7928C22.5414 34.9222 22.5414 35.0516 22.5414 35.181C22.5414 35.3105 22.4766 35.4399 22.4766 35.634L22.1527 36.9929L22.0232 37.4459C22.0232 37.5106 21.9584 37.6401 21.9584 37.7048C21.9584 37.7695 21.9584 37.8989 21.9584 37.9636C21.9584 38.1577 22.0232 38.2872 22.1527 38.4166C22.2823 38.546 22.4767 38.546 22.671 38.546C22.9301 38.546 23.0597 38.4813 23.1893 38.3519L23.254 38.2872H23.1245C23.0597 38.3519 22.9949 38.4166 22.8654 38.4166C22.7358 38.4166 22.6062 38.4166 22.6062 38.093C22.6062 37.8342 22.671 37.5106 22.8005 37.0577L23.1893 35.5693C23.254 35.181 23.254 34.8575 23.1245 34.5986C22.9949 34.3398 22.7358 34.2104 22.3471 34.2104H22.2823C21.9584 34.2104 21.6345 34.3398 21.4402 34.5986C21.3106 34.728 21.181 34.9222 21.1162 35.1163L21.8936 31.7513L20.7923 31.9455V32.0749H20.8571C20.7923 32.0749 20.8571 32.0749 20.8571 32.0749Z" fill="#878787"/>
<path d="M24.3553 38.4814C24.744 38.6755 25.5214 38.6755 26.234 38.1578C26.9466 37.6401 26.9466 36.8636 26.8818 36.7342C26.817 36.5401 26.6874 36.4106 26.4283 36.4753C26.1692 36.54 26.234 36.993 26.234 36.993C26.234 36.993 26.2987 36.993 26.2987 36.9283C26.4283 36.7989 26.5579 36.8636 26.6226 36.993C26.6874 37.1224 26.5578 37.446 26.3635 37.7049C26.0396 38.0931 25.1975 38.5461 24.6792 38.2225C24.161 37.9637 24.0314 37.5107 24.0314 37.446C24.0962 37.446 26.0396 35.8282 26.5579 35.3105C26.9466 34.9223 26.4283 34.4693 26.234 34.4046C25.3918 34.0163 24.2257 34.534 23.7075 35.6988C23.254 36.8636 23.5131 38.0931 24.3553 38.4814ZM24.2905 35.9577C24.6792 35.1811 25.327 34.7282 25.9748 34.7929C26.1692 34.7929 26.2987 34.8576 26.3635 34.987C26.5578 35.3105 25.7805 35.9577 25.327 36.2812C24.6792 36.7989 24.0314 37.1871 23.9666 37.1871C24.0314 36.7989 24.0962 36.2812 24.2905 35.9577Z" fill="#878787"/>
<path d="M18.6546 38.6107C18.9137 38.6107 19.0432 38.546 19.1728 38.4166H19.108C19.0433 38.4813 18.9785 38.546 18.8489 38.546C18.7193 38.546 18.5898 38.4813 18.525 38.4166C18.3307 38.2225 18.3307 37.7695 18.525 37.0577L19.108 34.6634H19.8854V34.5339H19.1728L19.4319 33.4338L18.7841 33.5633L18.525 34.5339H18.0068V34.6634H18.4602L17.8772 36.9929C17.8124 37.3165 17.7476 37.5753 17.7476 37.8342C17.7476 38.093 17.8124 38.2872 17.942 38.4166C18.1363 38.546 18.3954 38.6107 18.6546 38.6107Z" fill="#878787"/>
<path d="M42.6886 29.2923C42.7534 29.4217 42.8181 29.5511 42.8181 29.6805C42.8181 29.81 42.8829 30.0041 43.0125 30.1335C43.2716 30.3924 43.7251 30.4571 43.9842 30.1335C44.3081 29.7452 44.3729 29.2923 43.9842 28.8393C43.8546 28.7098 43.7251 28.5804 43.5307 28.5157C42.3647 27.9333 40.8099 29.2923 39.903 30.263H39.9677C40.3564 30.0688 42.2351 28.6451 42.6886 29.2923Z" fill="#878787"/>
<path d="M38.1537 34.7281C39.6437 33.9516 39.9676 32.5279 39.9676 31.6867C39.9676 30.9748 39.7085 30.5866 39.7085 30.5866C39.4494 30.0042 39.1255 29.6159 38.8663 29.4218L38.8015 29.3571C38.2833 28.9041 37.3116 28.5805 36.7933 28.5805H36.7285C35.109 28.5158 33.619 29.5512 33.1656 30.5866C32.5177 31.7514 32.7121 33.1103 33.3599 33.8869C34.6556 35.3752 36.8581 35.3752 38.1537 34.7281ZM39.3846 30.9102C39.3846 30.9749 39.4493 31.0395 39.4493 31.0395C39.9676 32.722 38.1537 34.1457 38.2185 34.0163C38.4129 33.8222 39.5141 32.6573 39.255 31.2984C39.1255 30.3277 38.4128 29.5512 38.0242 29.1629C38.3481 29.4218 39.0607 29.9395 39.3846 30.9102ZM38.9311 31.1043C39.5789 32.7868 37.8298 33.8869 37.8946 33.8222C37.9594 33.7574 38.089 33.628 38.2833 33.4339C38.4776 33.2397 38.672 32.9809 38.8015 32.6573C38.9959 32.2043 39.0607 31.5573 38.7368 30.9102C38.5424 30.4572 38.0242 29.8748 37.8298 29.6806C38.3481 30.0042 38.7368 30.5219 38.9311 31.1043ZM34.2669 30.9748C34.7851 30.0689 35.4329 29.81 35.8864 29.7453C37.182 29.4865 37.7651 30.0042 38.089 30.3277C38.3481 30.5866 38.6072 31.0396 38.7368 31.622C38.8016 32.2044 38.672 33.0456 37.7651 33.628C37.7651 33.628 37.765 33.628 37.8298 33.628C36.9877 34.081 35.9512 34.0163 35.3681 33.8222C34.7203 33.628 34.3317 32.9162 34.3317 32.9809C33.6838 31.9455 34.2669 30.9748 34.2669 30.9748Z" fill="#878787"/>
<path d="M31.8052 47.2173C32.4531 47.6703 34.0726 48.3821 36.4695 48.188C37.0526 48.1232 37.8299 47.9291 38.3482 47.735C41.652 46.5702 42.3646 43.4641 42.3646 43.5935C42.8181 42.2345 42.6238 40.6815 42.1055 39.5814C41.976 39.1931 39.6438 33.9515 31.7405 36.6694C31.7405 36.6694 37.8947 35.1163 40.3564 38.8048C40.3564 38.7401 40.2916 38.7402 40.2916 38.6755C40.2916 38.6755 41.7168 40.5521 40.8747 43.2052C40.8099 43.3347 40.7451 43.5288 40.6803 43.6582C39.7086 45.7936 37.506 46.6349 35.6274 46.6349C33.8135 46.6349 31.9348 45.9231 31.0927 44.6288C29.9914 43.2699 30.2505 41.3933 31.0927 40.4226C31.9348 39.452 32.9713 39.0637 33.8135 39.0637C34.2021 39.0637 34.5909 39.0637 34.85 39.1284C35.1739 39.1931 35.4978 39.3226 35.8217 39.5167C35.9513 39.5814 36.0808 39.7108 36.1456 39.7755C36.34 39.9696 36.5343 40.1638 36.7286 40.3579C37.4412 41.458 36.9878 42.2993 36.8582 42.5581C36.7286 42.7523 36.5991 42.817 36.4695 42.8817C36.7287 42.7523 37.0526 42.4934 37.2469 41.9757C37.506 41.2639 37.1173 40.5521 36.9878 40.2932C37.2469 40.6168 37.3764 41.0698 37.3764 41.458C37.3764 42.2346 36.8582 42.9464 36.2104 43.1405C36.5991 43.0111 36.9878 42.7522 37.2469 42.364C37.1173 42.8169 36.3399 43.5288 35.433 43.3346C34.7204 43.3346 34.2669 42.8816 34.1374 42.6875C34.2669 42.8816 34.5908 43.2052 35.1091 43.3346C35.6273 43.464 36.5991 43.4641 37.1821 42.6228C37.506 42.2345 37.6356 41.7169 37.5708 41.1345C37.4413 40.4874 37.1173 40.0344 36.7286 39.6461C35.8865 38.8049 35.1091 38.546 33.943 38.4813C31.6757 38.4813 29.6026 40.4226 29.6026 42.4934C29.6026 43.4641 29.9266 44.2406 30.1857 44.6936C30.4448 45.1466 30.6392 45.276 30.6392 45.276C30.5096 45.1465 30.1209 44.823 29.797 44.1112C29.4731 43.4641 29.2788 42.2345 29.6674 41.0697C30.0561 39.9049 31.0279 38.999 32.0644 38.4166C32.6474 38.1577 33.2952 38.093 33.943 38.093C34.5908 38.1577 35.1091 38.2872 35.6921 38.546C36.6639 39.1284 37.9595 39.8402 37.9595 41.7168C37.8299 43.3346 36.3399 44.1112 35.433 44.0465C35.1739 44.0465 34.9148 44.0464 34.7204 43.9817C34.9148 44.0464 35.1091 44.1112 35.3035 44.1759H35.3682C35.6921 44.1759 36.0808 44.1112 36.4695 44.0465C37.1821 43.7229 37.6356 43.2699 37.9595 42.4934C38.2186 41.9757 38.1538 40.5521 37.7004 40.0344C36.7934 38.8049 35.6921 38.4166 34.4613 38.0283C33.0361 37.7048 31.6109 38.2872 30.6392 39.1284C29.6027 39.9696 28.9548 41.3933 29.0196 42.6875C29.0196 43.9817 29.6026 44.8877 29.9266 45.3407C30.2505 45.7937 30.4448 46.0525 30.4448 46.0525C30.3153 45.9231 30.0561 45.5995 29.6026 44.8877C29.1492 44.1759 28.6957 42.8817 29.0844 41.458C29.4083 40.0991 30.5096 38.8696 31.6757 38.2225C32.2587 37.8989 33.0361 37.7048 33.8135 37.7695C34.5908 37.8342 35.1739 37.9636 35.8217 38.2225C36.4047 38.546 36.9878 38.8696 37.506 39.452C37.7651 39.7108 37.9595 40.1638 38.1538 40.6168C38.3482 41.1345 38.3482 41.6521 38.2834 42.1698C38.0891 43.0111 37.6356 43.5935 37.0525 43.9817C37.3764 43.8523 37.6356 43.5935 37.7652 43.3346C37.7652 43.3993 37.7004 43.4641 37.7004 43.5288C37.9595 43.2052 38.2186 42.7523 38.3482 42.2346C38.5425 41.5875 38.413 40.552 38.0891 40.0991C37.7652 39.5167 37.3765 39.1931 36.923 38.8696C36.0808 38.2225 35.2387 37.9636 34.0726 37.7695C32.777 37.7048 31.6757 38.093 30.7687 38.8696C29.8618 39.6461 29.0196 40.8756 28.9548 42.4287C28.8253 43.917 29.6674 45.4054 30.2505 46.1172C30.6391 46.5055 31.2222 46.8937 31.8052 47.2173ZM36.1456 48.1233C36.2104 48.1233 36.2104 48.1233 36.1456 48.1233C36.2104 48.1233 36.2104 48.1233 36.1456 48.1233ZM33.0361 47.1526C33.0361 47.2173 33.0361 47.2173 33.0361 47.282C33.0361 47.2173 33.0361 47.1526 33.0361 47.1526Z" fill="#878787"/>
<path d="M32.9713 41.911C32.9713 42.5581 33.1008 42.8816 33.4247 43.464C33.8134 43.9817 34.3964 44.2406 34.9147 44.3053C35.4977 44.37 36.016 44.4347 36.7933 44.0464C36.8581 43.9817 36.9229 43.9817 36.9229 43.917C36.4694 44.1759 35.8864 44.2406 35.3034 44.1111C34.6556 44.1111 34.0725 43.8523 33.6191 43.3346C33.1008 42.6228 33.036 42.0404 33.1656 41.5874C33.1008 41.8463 33.1008 42.2992 33.2952 42.6875C33.4895 43.2699 34.0078 43.7229 34.6556 43.8523C33.8134 43.464 33.4247 42.6228 33.6191 41.8462C33.8134 41.005 34.5908 40.3579 35.5625 40.3579C34.4612 40.2285 33.2952 40.7462 32.9065 41.5874C32.9713 41.7168 32.9713 41.7816 32.9713 41.911ZM33.5543 41.0697C33.5543 41.1344 33.4895 41.1344 33.4895 41.1991C33.5543 41.0697 33.5543 41.005 33.5543 41.0697Z" fill="#878787"/>
<path d="M36.0808 44.4348C35.2386 44.5643 34.4613 44.4348 33.8134 43.9171C33.4895 43.6583 33.2304 43.2053 33.1008 42.8818C33.0361 42.5582 32.9065 42.2346 32.9713 41.7169C32.9065 41.8463 32.8417 41.9758 32.8417 42.1052C32.5826 43.2053 33.4895 44.2407 34.85 44.4996C36.0808 44.7584 37.1821 44.3702 37.7003 43.5289C37.2469 43.9819 36.6638 44.3054 36.0808 44.4348Z" fill="#878787"/>
<path d="M33.4895 41.1992C33.4895 41.1345 33.5543 41.1345 33.5543 41.0698C33.5543 41.0051 33.5543 41.0698 33.4895 41.1992Z" fill="#878787"/>
<path d="M33.4248 42.7523C33.2304 42.364 33.2952 41.9111 33.2952 41.6522C33.1656 42.1052 33.1656 42.6876 33.7487 43.3994C34.2021 43.8524 34.7852 44.1113 35.433 44.176H35.3682C35.1739 44.1113 34.9795 44.0465 34.7852 43.9818C34.1373 43.723 33.6191 43.27 33.4248 42.7523Z" fill="#878787"/>
<path d="M36.9877 43.9818C36.9229 44.0465 36.8581 44.0465 36.8581 44.1112C36.0807 44.4995 35.5625 44.4348 34.9795 44.3701C34.3964 44.2407 33.8782 44.0466 33.4895 43.5289C33.1008 42.9465 33.036 42.5582 33.036 41.9758C33.036 41.8464 33.036 41.7816 33.036 41.7169C32.9713 42.1699 33.036 42.5582 33.1656 42.8818C33.2951 43.2053 33.5543 43.6583 33.8782 43.9171C34.526 44.4348 35.3034 44.5642 36.1455 44.4348C36.7286 44.3701 37.3116 44.0466 37.7651 43.5289C37.8298 43.4642 37.8298 43.3994 37.8298 43.3347C37.5707 43.5935 37.3116 43.7877 36.9877 43.9818Z" fill="#878787"/>
<path d="M46.9641 38.4812C46.9641 38.546 46.9641 38.546 46.9641 38.6107C46.8993 38.9989 46.7697 39.3872 46.7697 39.7755C46.7697 40.2284 47.0937 40.552 47.5471 40.6814C48.0654 40.8109 48.778 40.6167 49.0371 40.2285C49.0371 40.1637 48.9076 40.2285 48.9076 40.2932C48.4541 40.552 47.871 40.4873 47.871 40.0343C47.871 39.8402 47.8711 39.5814 47.9358 39.3872C48.0006 39.0637 48.0654 38.8048 48.1302 38.546C48.195 38.093 48.3893 37.5106 48.5837 36.9282C50.0736 35.7634 52.0818 33.1102 52.6001 30.5865C52.7944 29.6158 52.7296 28.904 52.2114 28.3216C51.9523 28.0628 51.7579 28.1274 51.4988 28.451C50.5271 29.6805 49.4258 31.4924 48.5837 33.4338C48.2597 34.1456 48.0006 34.8574 47.7415 35.634C47.6119 36.0222 47.5471 36.3458 47.4176 36.7341C46.3811 38.2871 44.5672 39.6461 44.5672 39.6461C45.3446 39.2578 46.3163 38.6754 47.1585 37.9636C47.0289 38.093 46.9641 38.2871 46.9641 38.4812ZM49.2962 34.7927C50.4623 32.2043 51.6284 28.8393 51.8875 29.0334C52.4705 29.4217 52.2114 33.1749 48.9076 35.7634C48.9723 35.4398 49.1019 35.1163 49.2962 34.7927Z" fill="#878787"/>
<path d="M51.1101 35.5693C50.1384 37.5754 50.5919 39.7756 52.0818 40.5521C52.7297 40.8757 54.1549 40.8757 55.3857 39.9697C56.6814 38.9991 56.6814 37.7048 56.5518 37.446C56.487 37.1224 56.1631 36.7989 55.7744 36.993C55.3857 37.1224 55.3857 37.8342 55.3857 37.8342L55.4505 37.7695C55.6448 37.5754 55.904 37.6401 56.0335 37.899C56.0983 38.0931 55.9688 38.7402 55.5801 39.1932C55.0618 39.9697 53.507 40.6168 52.6001 40.1639C51.6284 39.6462 51.434 38.8696 51.434 38.8049C51.4988 38.7402 54.997 35.9576 56.0335 34.987C56.7461 34.2751 55.7744 33.4986 55.4505 33.3692C54.0901 32.5926 52.0818 33.5633 51.1101 35.5693ZM54.997 33.8869C55.3857 33.8869 55.6448 34.081 55.7744 34.2104C56.1631 34.7281 54.7379 35.8929 53.9605 36.54C52.8592 37.446 51.5636 38.0931 51.5636 38.1578C51.5636 37.5754 51.6932 36.6694 52.0171 36.0223C52.6649 34.6634 53.8309 33.8221 54.997 33.8869Z" fill="#878787"/>
<path d="M56.0983 40.4875L56.163 40.5521C56.8756 40.5521 57.5883 40.5521 58.3009 40.5521C57.7826 40.358 57.7826 40.2933 57.9121 39.7756C58.236 38.4814 58.4952 37.2519 58.8191 35.9577C59.0134 35.1164 59.4021 34.2751 60.0499 33.628C60.3738 33.3045 60.6977 33.1751 61.1512 33.1751C61.6047 33.1751 61.8638 33.3692 61.9286 33.8222C62.0582 34.2752 61.9934 34.7928 61.8638 35.2458C61.6047 36.3459 61.3456 37.446 61.0216 38.5461C60.9569 38.9344 60.8273 39.3226 60.8273 39.7109C60.8273 40.1639 61.1512 40.4875 61.6047 40.6169C62.1229 40.7463 62.5764 40.6816 62.8356 40.2933C62.7708 40.2933 62.706 40.2933 62.706 40.358C62.2525 40.6169 61.9286 40.4227 61.9286 39.9698C61.9286 39.7756 61.9286 39.5168 61.9934 39.3227C62.1229 38.5461 62.3173 37.7696 62.5117 36.993C62.706 36.2165 62.9651 35.44 63.0299 34.6634C63.0947 33.4986 62.3173 32.7221 61.1512 32.9162C60.5034 33.0456 60.0499 33.3692 59.6613 33.8869C59.5317 34.081 59.3373 34.3399 59.2078 34.534C59.2726 34.1457 59.3374 33.7575 59.4669 33.3692C59.5317 33.1751 59.4669 33.0456 59.2078 33.1103C58.9486 33.175 58.6895 33.1751 58.3656 33.2398C58.1065 33.3045 57.9122 33.2398 57.653 33.4339C58.2361 33.628 58.2361 33.6928 58.1713 34.1457C57.7178 35.9577 57.2643 37.8343 56.8757 39.6462C56.8109 40.0345 56.8109 40.5522 56.0983 40.4875Z" fill="#878787"/>
</svg>
